<svg width="40" height="40" viewBox="0 0 40 40" fill="none" xmlns="http://www.w3.org/2000/svg">
<path d="M20 9.1665C21.5471 9.1665 23.0308 9.78109 24.1248 10.875C25.2188 11.969 25.8333 13.4527 25.8333 14.9998C25.8333 16.5469 25.2188 18.0307 24.1248 19.1246C23.0308 20.2186 21.5471 20.8332 20 20.8332C18.4529 20.8332 16.9692 20.2186 15.8752 19.1246C14.7812 18.0307 14.1667 16.5469 14.1667 14.9998C14.1667 13.4527 14.7812 11.969 15.8752 10.875C16.9692 9.78109 18.4529 9.1665 20 9.1665ZM8.33333 13.3332C9.26667 13.3332 10.1333 13.5832 10.8833 14.0332C10.6333 16.4165 11.3333 18.7832 12.7667 20.6332C11.9333 22.2332 10.2667 23.3332 8.33333 23.3332C7.00725 23.3332 5.73548 22.8064 4.7978 21.8687C3.86012 20.931 3.33333 19.6593 3.33333 18.3332C3.33333 17.0071 3.86012 15.7353 4.7978 14.7976C5.73548 13.86 7.00725 13.3332 8.33333 13.3332ZM31.6667 13.3332C32.9927 13.3332 34.2645 13.86 35.2022 14.7976C36.1399 15.7353 36.6667 17.0071 36.6667 18.3332C36.6667 19.6593 36.1399 20.931 35.2022 21.8687C34.2645 22.8064 32.9927 23.3332 31.6667 23.3332C29.7333 23.3332 28.0667 22.2332 27.2333 20.6332C28.6858 18.7569 29.3602 16.3934 29.1167 14.0332C29.8667 13.5832 30.7333 13.3332 31.6667 13.3332ZM9.16667 30.4165C9.16667 26.9665 14.0167 24.1665 20 24.1665C25.9833 24.1665 30.8333 26.9665 30.8333 30.4165V33.3332H9.16667V30.4165ZM0 33.3332V30.8332C0 28.5165 3.15 26.5665 7.41667 25.9998C6.43333 27.1332 5.83333 28.6998 5.83333 30.4165V33.3332H0ZM40 33.3332H34.1667V30.4165C34.1667 28.6998 33.5667 27.1332 32.5833 25.9998C36.85 26.5665 40 28.5165 40 30.8332V33.3332Z" fill="url(#paint0_linear_2223_20376)"/>
<defs>
<linearGradient id="paint0_linear_2223_20376" x1="0.000265993" y1="21.2498" x2="40" y2="21.2498" gradientUnits="userSpaceOnUse">
<stop stop-color="#A56C0B"/>
<stop offset="0.01" stop-color="#AD7816"/>
<stop offset="0.06" stop-color="#C79F3A"/>
<stop offset="0.1" stop-color="#DCBE57"/>
<stop offset="0.14" stop-color="#EBD46C"/>
<stop offset="0.19" stop-color="#F4E178"/>
<stop offset="0.22" stop-color="#F8E67D"/>
<stop offset="0.27" stop-color="#F4E077"/>
<stop offset="0.34" stop-color="#E8D068"/>
<stop offset="0.41" stop-color="#D6B64F"/>
<stop offset="0.45" stop-color="#C9A33D"/>
<stop offset="0.57" stop-color="#C38F1B"/>
<stop offset="0.75" stop-color="#E6C95C"/>
<stop offset="0.84" stop-color="#F8E67D"/>
<stop offset="0.86" stop-color="#F4E077"/>
<stop offset="0.9" stop-color="#E9D167"/>
<stop offset="0.94" stop-color="#D8B94C"/>
<stop offset="0.98" stop-color="#C19728"/>
<stop offset="1" stop-color="#B48514"/>
</linearGradient>
</defs>
</svg>
