<svg width="227" height="80" viewBox="0 0 227 80" fill="none" xmlns="http://www.w3.org/2000/svg">
<path d="M225.706 40C225.706 61.3712 208.375 78.7097 186.99 78.7097H40.006C18.6211 78.7097 1.29004 61.3712 1.29004 40C1.29004 18.6288 18.6211 1.29032 40.006 1.29032H186.99C208.375 1.29032 225.706 18.6288 225.706 40Z" stroke="url(#paint0_linear_1689_661)" stroke-width="2.58065"/>
<g filter="url(#filter0_d_1689_661)">
<path d="M49.0722 65.8643C34.6975 65.8643 22.998 54.1599 22.998 39.799C22.998 25.4381 34.6975 13.7337 49.0722 13.7337H177.926C192.301 13.7337 204 25.4182 204 39.799C204 54.1799 192.301 65.8643 177.926 65.8643H49.0722Z" fill="url(#paint1_linear_1689_661)"/>
</g>
<path d="M196.372 39.7991C196.372 49.9656 188.107 58.2346 177.945 58.2346H52.2256" stroke="url(#paint2_linear_1689_661)" stroke-width="3.84595" stroke-linecap="round" stroke-linejoin="round"/>
<path d="M30.6426 39.7992C30.6426 29.6327 38.9081 21.3836 49.0702 21.3836H103.894" stroke="url(#paint3_linear_1689_661)" stroke-width="3.84595" stroke-linecap="round" stroke-linejoin="round"/>
<mask id="mask0_1689_661" style="mask-type:luminance" maskUnits="userSpaceOnUse" x="22" y="13" width="182" height="54">
<path d="M49.0713 66.0442C34.6965 66.0442 22.9971 54.3397 22.9971 39.9788C22.9971 25.6179 34.6965 13.9135 49.0713 13.9135H177.925C192.3 13.9135 203.999 25.598 203.999 39.9788C203.999 54.3597 192.3 66.0442 177.925 66.0442H49.0713Z" fill="white"/>
</mask>
<g mask="url(#mask0_1689_661)">
<path d="M113.5 32.349C165.566 32.349 207.774 23.4961 207.774 12.5753C207.774 1.65463 165.566 -7.19835 113.5 -7.19835C61.4337 -7.19835 19.2256 1.65463 19.2256 12.5753C19.2256 23.4961 61.4337 32.349 113.5 32.349Z" fill="url(#paint4_radial_1689_661)"/>
</g>
<path d="M203.758 21.1436C203.758 26.9159 189.942 31.5898 172.892 31.5898C155.842 31.5898 142.026 26.9159 142.026 21.1436C142.026 15.3713 155.842 10.6975 172.892 10.6975C189.942 10.6975 203.758 15.3713 203.758 21.1436Z" fill="url(#paint5_radial_1689_661)"/>
<path d="M49.0926 13.7337C37.1535 13.7337 27.0912 21.803 24.0166 32.7484C30.9844 37.0826 39.17 39.6192 47.9745 39.6192H178.845C187.729 39.6192 195.994 37.0427 203.002 32.6285C199.888 21.743 189.845 13.7337 177.966 13.7337H49.0926Z" fill="url(#paint6_linear_1689_661)" fill-opacity="0.5"/>
<defs>
<filter id="filter0_d_1689_661" x="18.4734" y="9.20904" width="190.051" height="61.18" filterUnits="userSpaceOnUse" color-interpolation-filters="sRGB">
<feFlood flood-opacity="0" result="BackgroundImageFix"/>
<feColorMatrix in="SourceAlpha" type="matrix" values="0 0 0 0 0 0 0 0 0 0 0 0 0 0 0 0 0 0 127 0" result="hardAlpha"/>
<feOffset/>
<feGaussianBlur stdDeviation="2.26232"/>
<feComposite in2="hardAlpha" operator="out"/>
<feColorMatrix type="matrix" values="0 0 0 0 0.885 0 0 0 0 0.768439 0 0 0 0 0 0 0 0 1 0"/>
<feBlend mode="normal" in2="BackgroundImageFix" result="effect1_dropShadow_1689_661"/>
<feBlend mode="normal" in="SourceGraphic" in2="effect1_dropShadow_1689_661" result="shape"/>
</filter>
<linearGradient id="paint0_linear_1689_661" x1="14.1878" y1="6.60342" x2="86.2896" y2="129.614" gradientUnits="userSpaceOnUse">
<stop stop-color="#FFD235"/>
<stop offset="0.350613" stop-color="#B0922A" stop-opacity="0.88"/>
<stop offset="0.706144" stop-color="#766016"/>
<stop offset="0.99357" stop-color="#AB8806"/>
</linearGradient>
<linearGradient id="paint1_linear_1689_661" x1="76.9859" y1="9.1911" x2="88.2569" y2="75.1891" gradientUnits="userSpaceOnUse">
<stop stop-color="#DAB638"/>
<stop offset="0.270696" stop-color="#B78F02" stop-opacity="0.88"/>
<stop offset="1" stop-color="#CAAE1E"/>
</linearGradient>
<linearGradient id="paint2_linear_1689_661" x1="123.101" y1="42.2958" x2="128.136" y2="70.7572" gradientUnits="userSpaceOnUse">
<stop offset="0.18" stop-color="white" stop-opacity="0"/>
<stop offset="0.31" stop-color="white" stop-opacity="0.02"/>
<stop offset="0.46" stop-color="white" stop-opacity="0.07"/>
<stop offset="0.62" stop-color="white" stop-opacity="0.16"/>
<stop offset="0.78" stop-color="white" stop-opacity="0.28"/>
<stop offset="0.94" stop-color="white" stop-opacity="0.44"/>
<stop offset="1" stop-color="white" stop-opacity="0.5"/>
</linearGradient>
<linearGradient id="paint3_linear_1689_661" x1="62.7062" y1="13.5541" x2="68.3009" y2="34.4251" gradientUnits="userSpaceOnUse">
<stop stop-color="white"/>
<stop offset="0.36" stop-color="#FFF17D" stop-opacity="0.5"/>
<stop offset="0.41" stop-color="#FFEE6D" stop-opacity="0.44"/>
<stop offset="0.53" stop-color="#FFE746" stop-opacity="0.28"/>
<stop offset="0.66" stop-color="#FFE127" stop-opacity="0.16"/>
<stop offset="0.78" stop-color="#FFDE11" stop-opacity="0.07"/>
<stop offset="0.89" stop-color="#FFDB04" stop-opacity="0.02"/>
<stop offset="1" stop-color="#FFDB00" stop-opacity="0"/>
</linearGradient>
<radialGradient id="paint4_radial_1689_661" cx="0" cy="0" r="1" gradientUnits="userSpaceOnUse" gradientTransform="translate(6792.46 40.8505) scale(94.2185 19.9606)">
<stop offset="0.22" stop-color="white"/>
<stop offset="0.25" stop-color="white" stop-opacity="0.92"/>
<stop offset="0.37" stop-color="white" stop-opacity="0.68"/>
<stop offset="0.49" stop-color="white" stop-opacity="0.47"/>
<stop offset="0.61" stop-color="white" stop-opacity="0.3"/>
<stop offset="0.72" stop-color="white" stop-opacity="0.17"/>
<stop offset="0.82" stop-color="white" stop-opacity="0.08"/>
<stop offset="0.92" stop-color="white" stop-opacity="0.02"/>
<stop offset="1" stop-color="white" stop-opacity="0"/>
</radialGradient>
<radialGradient id="paint5_radial_1689_661" cx="0" cy="0" r="1" gradientUnits="userSpaceOnUse" gradientTransform="translate(10948.9 32.0551) scale(30.8474 10.5272)">
<stop stop-color="white"/>
<stop offset="0.05" stop-color="white" stop-opacity="0.89"/>
<stop offset="0.15" stop-color="white" stop-opacity="0.66"/>
<stop offset="0.26" stop-color="white" stop-opacity="0.46"/>
<stop offset="0.36" stop-color="white" stop-opacity="0.29"/>
<stop offset="0.46" stop-color="white" stop-opacity="0.17"/>
<stop offset="0.56" stop-color="white" stop-opacity="0.07"/>
<stop offset="0.65" stop-color="white" stop-opacity="0.02"/>
<stop offset="0.73" stop-color="white" stop-opacity="0"/>
</radialGradient>
<linearGradient id="paint6_linear_1689_661" x1="113.499" y1="39.6192" x2="113.499" y2="13.7337" gradientUnits="userSpaceOnUse">
<stop offset="0.01" stop-color="white" stop-opacity="0.3"/>
<stop offset="0.02" stop-color="white" stop-opacity="0.29"/>
<stop offset="0.27" stop-color="white" stop-opacity="0.13"/>
<stop offset="0.46" stop-color="white" stop-opacity="0.04"/>
<stop offset="0.58" stop-color="white" stop-opacity="0"/>
</linearGradient>
</defs>
</svg>
