<svg width="87" height="87" viewBox="0 0 87 87" fill="none" xmlns="http://www.w3.org/2000/svg">
<path d="M43.5 79.75C62.0818 79.75 72.5 67.1459 72.5 47.125C72.5 27.1041 56.4268 7.25 43.5 7.25C30.5733 7.25 14.5 27.1041 14.5 47.125C14.5 67.1459 24.9183 79.75 43.5 79.75Z" stroke="white" stroke-width="1.5"/>
<path d="M43.5 79.75C62.0818 79.75 72.5 67.1459 72.5 47.125C72.5 27.1041 56.4268 7.25 43.5 7.25C30.5733 7.25 14.5 27.1041 14.5 47.125C14.5 67.1459 24.9183 79.75 43.5 79.75Z" stroke="url(#paint0_linear_1389_7581)" stroke-width="1.5"/>
<path d="M41.5538 66.9288C40.6279 67.8548 39.372 68.375 38.0625 68.375C36.753 68.375 35.4971 67.8548 34.5712 66.9288C33.6452 66.0029 33.125 64.747 33.125 63.4375C33.125 62.128 33.6452 60.8721 34.5712 59.9462C35.4971 59.0202 36.753 58.5 38.0625 58.5C39.372 58.5 40.6279 59.0202 41.5538 59.9462C42.4798 60.8721 43 62.128 43 63.4375C43 64.747 42.4798 66.0029 41.5538 66.9288Z" fill="white"/>
<path d="M41.5538 66.9288C40.6279 67.8548 39.372 68.375 38.0625 68.375C36.753 68.375 35.4971 67.8548 34.5712 66.9288C33.6452 66.0029 33.125 64.747 33.125 63.4375C33.125 62.128 33.6452 60.8721 34.5712 59.9462C35.4971 59.0202 36.753 58.5 38.0625 58.5C39.372 58.5 40.6279 59.0202 41.5538 59.9462C42.4798 60.8721 43 62.128 43 63.4375C43 64.747 42.4798 66.0029 41.5538 66.9288Z" fill="url(#paint1_linear_1389_7581)"/>
<path d="M41.5538 66.9288C40.6279 67.8548 39.372 68.375 38.0625 68.375C36.753 68.375 35.4971 67.8548 34.5712 66.9288C33.6452 66.0029 33.125 64.747 33.125 63.4375C33.125 62.128 33.6452 60.8721 34.5712 59.9462C35.4971 59.0202 36.753 58.5 38.0625 58.5C39.372 58.5 40.6279 59.0202 41.5538 59.9462C42.4798 60.8721 43 62.128 43 63.4375C43 64.747 42.4798 66.0029 41.5538 66.9288Z" stroke="white"/>
<path d="M41.5538 66.9288C40.6279 67.8548 39.372 68.375 38.0625 68.375C36.753 68.375 35.4971 67.8548 34.5712 66.9288C33.6452 66.0029 33.125 64.747 33.125 63.4375C33.125 62.128 33.6452 60.8721 34.5712 59.9462C35.4971 59.0202 36.753 58.5 38.0625 58.5C39.372 58.5 40.6279 59.0202 41.5538 59.9462C42.4798 60.8721 43 62.128 43 63.4375C43 64.747 42.4798 66.0029 41.5538 66.9288Z" stroke="url(#paint2_linear_1389_7581)"/>
<path d="M31.2097 52.3579C30.6237 52.944 29.8288 53.2732 29 53.2732C28.1712 53.2732 27.3763 52.944 26.7903 52.3579C26.2042 51.7719 25.875 50.977 25.875 50.1482C25.875 49.3194 26.2042 48.5245 26.7903 47.9385C27.3763 47.3524 28.1712 47.0232 29 47.0232C29.8288 47.0232 30.6237 47.3524 31.2097 47.9385C31.7958 48.5245 32.125 49.3194 32.125 50.1482C32.125 50.977 31.7958 51.7719 31.2097 52.3579Z" fill="white"/>
<path d="M31.2097 52.3579C30.6237 52.944 29.8288 53.2732 29 53.2732C28.1712 53.2732 27.3763 52.944 26.7903 52.3579C26.2042 51.7719 25.875 50.977 25.875 50.1482C25.875 49.3194 26.2042 48.5245 26.7903 47.9385C27.3763 47.3524 28.1712 47.0232 29 47.0232C29.8288 47.0232 30.6237 47.3524 31.2097 47.9385C31.7958 48.5245 32.125 49.3194 32.125 50.1482C32.125 50.977 31.7958 51.7719 31.2097 52.3579Z" fill="url(#paint3_linear_1389_7581)"/>
<path d="M31.2097 52.3579C30.6237 52.944 29.8288 53.2732 29 53.2732C28.1712 53.2732 27.3763 52.944 26.7903 52.3579C26.2042 51.7719 25.875 50.977 25.875 50.1482C25.875 49.3194 26.2042 48.5245 26.7903 47.9385C27.3763 47.3524 28.1712 47.0232 29 47.0232C29.8288 47.0232 30.6237 47.3524 31.2097 47.9385C31.7958 48.5245 32.125 49.3194 32.125 50.1482C32.125 50.977 31.7958 51.7719 31.2097 52.3579Z" stroke="white"/>
<path d="M31.2097 52.3579C30.6237 52.944 29.8288 53.2732 29 53.2732C28.1712 53.2732 27.3763 52.944 26.7903 52.3579C26.2042 51.7719 25.875 50.977 25.875 50.1482C25.875 49.3194 26.2042 48.5245 26.7903 47.9385C27.3763 47.3524 28.1712 47.0232 29 47.0232C29.8288 47.0232 30.6237 47.3524 31.2097 47.9385C31.7958 48.5245 32.125 49.3194 32.125 50.1482C32.125 50.977 31.7958 51.7719 31.2097 52.3579Z" stroke="url(#paint4_linear_1389_7581)"/>
<defs>
<linearGradient id="paint0_linear_1389_7581" x1="14.5004" y1="43.5" x2="72.5" y2="43.5" gradientUnits="userSpaceOnUse">
<stop stop-color="#A56C0B"/>
<stop offset="0.01" stop-color="#AD7816"/>
<stop offset="0.06" stop-color="#C79F3A"/>
<stop offset="0.1" stop-color="#DCBE57"/>
<stop offset="0.14" stop-color="#EBD46C"/>
<stop offset="0.19" stop-color="#F4E178"/>
<stop offset="0.22" stop-color="#F8E67D"/>
<stop offset="0.27" stop-color="#F4E077"/>
<stop offset="0.34" stop-color="#E8D068"/>
<stop offset="0.41" stop-color="#D6B64F"/>
<stop offset="0.45" stop-color="#C9A33D"/>
<stop offset="0.57" stop-color="#C38F1B"/>
<stop offset="0.75" stop-color="#E6C95C"/>
<stop offset="0.84" stop-color="#F8E67D"/>
<stop offset="0.86" stop-color="#F4E077"/>
<stop offset="0.9" stop-color="#E9D167"/>
<stop offset="0.94" stop-color="#D8B94C"/>
<stop offset="0.98" stop-color="#C19728"/>
<stop offset="1" stop-color="#B48514"/>
</linearGradient>
<linearGradient id="paint1_linear_1389_7581" x1="32.6251" y1="63.4375" x2="43.5" y2="63.4375" gradientUnits="userSpaceOnUse">
<stop stop-color="#A56C0B"/>
<stop offset="0.01" stop-color="#AD7816"/>
<stop offset="0.06" stop-color="#C79F3A"/>
<stop offset="0.1" stop-color="#DCBE57"/>
<stop offset="0.14" stop-color="#EBD46C"/>
<stop offset="0.19" stop-color="#F4E178"/>
<stop offset="0.22" stop-color="#F8E67D"/>
<stop offset="0.27" stop-color="#F4E077"/>
<stop offset="0.34" stop-color="#E8D068"/>
<stop offset="0.41" stop-color="#D6B64F"/>
<stop offset="0.45" stop-color="#C9A33D"/>
<stop offset="0.57" stop-color="#C38F1B"/>
<stop offset="0.75" stop-color="#E6C95C"/>
<stop offset="0.84" stop-color="#F8E67D"/>
<stop offset="0.86" stop-color="#F4E077"/>
<stop offset="0.9" stop-color="#E9D167"/>
<stop offset="0.94" stop-color="#D8B94C"/>
<stop offset="0.98" stop-color="#C19728"/>
<stop offset="1" stop-color="#B48514"/>
</linearGradient>
<linearGradient id="paint2_linear_1389_7581" x1="32.6251" y1="63.4375" x2="43.5" y2="63.4375" gradientUnits="userSpaceOnUse">
<stop stop-color="#A56C0B"/>
<stop offset="0.01" stop-color="#AD7816"/>
<stop offset="0.06" stop-color="#C79F3A"/>
<stop offset="0.1" stop-color="#DCBE57"/>
<stop offset="0.14" stop-color="#EBD46C"/>
<stop offset="0.19" stop-color="#F4E178"/>
<stop offset="0.22" stop-color="#F8E67D"/>
<stop offset="0.27" stop-color="#F4E077"/>
<stop offset="0.34" stop-color="#E8D068"/>
<stop offset="0.41" stop-color="#D6B64F"/>
<stop offset="0.45" stop-color="#C9A33D"/>
<stop offset="0.57" stop-color="#C38F1B"/>
<stop offset="0.75" stop-color="#E6C95C"/>
<stop offset="0.84" stop-color="#F8E67D"/>
<stop offset="0.86" stop-color="#F4E077"/>
<stop offset="0.9" stop-color="#E9D167"/>
<stop offset="0.94" stop-color="#D8B94C"/>
<stop offset="0.98" stop-color="#C19728"/>
<stop offset="1" stop-color="#B48514"/>
</linearGradient>
<linearGradient id="paint3_linear_1389_7581" x1="25.375" y1="50.1482" x2="32.625" y2="50.1482" gradientUnits="userSpaceOnUse">
<stop stop-color="#A56C0B"/>
<stop offset="0.01" stop-color="#AD7816"/>
<stop offset="0.06" stop-color="#C79F3A"/>
<stop offset="0.1" stop-color="#DCBE57"/>
<stop offset="0.14" stop-color="#EBD46C"/>
<stop offset="0.19" stop-color="#F4E178"/>
<stop offset="0.22" stop-color="#F8E67D"/>
<stop offset="0.27" stop-color="#F4E077"/>
<stop offset="0.34" stop-color="#E8D068"/>
<stop offset="0.41" stop-color="#D6B64F"/>
<stop offset="0.45" stop-color="#C9A33D"/>
<stop offset="0.57" stop-color="#C38F1B"/>
<stop offset="0.75" stop-color="#E6C95C"/>
<stop offset="0.84" stop-color="#F8E67D"/>
<stop offset="0.86" stop-color="#F4E077"/>
<stop offset="0.9" stop-color="#E9D167"/>
<stop offset="0.94" stop-color="#D8B94C"/>
<stop offset="0.98" stop-color="#C19728"/>
<stop offset="1" stop-color="#B48514"/>
</linearGradient>
<linearGradient id="paint4_linear_1389_7581" x1="25.375" y1="50.1482" x2="32.625" y2="50.1482" gradientUnits="userSpaceOnUse">
<stop stop-color="#A56C0B"/>
<stop offset="0.01" stop-color="#AD7816"/>
<stop offset="0.06" stop-color="#C79F3A"/>
<stop offset="0.1" stop-color="#DCBE57"/>
<stop offset="0.14" stop-color="#EBD46C"/>
<stop offset="0.19" stop-color="#F4E178"/>
<stop offset="0.22" stop-color="#F8E67D"/>
<stop offset="0.27" stop-color="#F4E077"/>
<stop offset="0.34" stop-color="#E8D068"/>
<stop offset="0.41" stop-color="#D6B64F"/>
<stop offset="0.45" stop-color="#C9A33D"/>
<stop offset="0.57" stop-color="#C38F1B"/>
<stop offset="0.75" stop-color="#E6C95C"/>
<stop offset="0.84" stop-color="#F8E67D"/>
<stop offset="0.86" stop-color="#F4E077"/>
<stop offset="0.9" stop-color="#E9D167"/>
<stop offset="0.94" stop-color="#D8B94C"/>
<stop offset="0.98" stop-color="#C19728"/>
<stop offset="1" stop-color="#B48514"/>
</linearGradient>
</defs>
</svg>
