<svg width="127" height="127" viewBox="0 0 127 127" fill="none" xmlns="http://www.w3.org/2000/svg">
<path style="mix-blend-mode:multiply" d="M83.3863 89.9175C90.4694 78.8739 82.236 60.9579 64.9966 49.901C47.7572 38.8441 28.0399 38.8333 20.9569 49.8769C13.8738 60.9205 22.1071 78.8364 39.3466 89.8934C56.586 100.95 76.3033 100.961 83.3863 89.9175Z" fill="url(#paint0_radial_1631_7929)"/>
<path style="mix-blend-mode:multiply" d="M89.4929 83.9652C100.728 77.1893 101.26 57.4793 90.6831 39.9415C80.1057 22.4037 62.4236 13.6795 51.1889 20.4554C39.9542 27.2312 39.4213 46.9413 49.9986 64.479C60.576 82.0168 78.2582 90.741 89.4929 83.9652Z" fill="url(#paint1_radial_1631_7929)"/>
<path style="mix-blend-mode:multiply" d="M101.684 56.417C94.3392 45.5459 74.6279 46.0281 57.6577 57.494C40.6875 68.9599 32.8848 87.0676 40.2299 97.9387C47.5749 108.81 67.2863 108.328 84.2565 96.8617C101.227 85.3958 109.029 67.2881 101.684 56.417Z" fill="url(#paint2_radial_1631_7929)"/>
<path d="M69.405 84.8867C68.6571 85.0674 67.5142 85.3507 65.6535 85.5054C63.8515 85.6527 62.0713 85.4823 62.0545 85.482C61.5614 85.4324 60.9095 85.3719 60.4169 85.2888C59.8574 85.2046 59.1228 85.0758 58.5726 84.9332C57.5974 84.675 56.3142 84.3032 55.3567 83.9783C54.8405 83.8027 54.167 83.5159 53.6598 83.2986C53.2358 83.1161 51.8479 82.4832 50.5708 81.7264C50.1146 81.4597 49.5179 81.0819 49.0787 80.7988C48.5569 80.4473 47.8614 79.9676 47.3738 79.5665C46.9193 79.1993 46.2992 78.7124 45.8616 78.3288C45.4075 77.9282 44.8049 77.3914 44.3764 76.9661C43.981 76.558 43.4202 76.0302 43.0503 75.5975C42.672 75.173 42.1704 74.6042 41.8088 74.18C41.4392 73.7305 40.9548 73.1285 40.6108 72.6543C40.078 71.9344 38.9719 70.4186 37.6373 68.0035C37.3687 67.5221 37.0273 66.8806 36.8009 66.3747C36.5825 65.8942 36.2742 65.2699 36.0726 64.7896C35.8627 64.3008 35.5966 63.652 35.3952 63.155C35.1936 62.6747 34.9611 62.0264 34.7931 61.5299C34.4897 60.6044 34.0993 59.351 33.8463 58.4095C33.7198 57.9387 33.5622 57.3168 33.4692 56.8466C33.3842 56.4016 33.2513 55.8052 33.1663 55.3602C33.0812 54.9152 32.9903 54.3111 32.9305 53.8581C32.8016 53.0107 32.6056 51.1075 32.5946 49.6843C32.5906 48.8806 32.5753 47.1979 32.8666 45.1852C33.2604 42.5128 34.0415 40.2232 35.1925 38.3664C36.0513 36.9904 37.0642 35.9266 38.3843 35.0267C40.2205 33.775 42.2382 33.2209 43.003 33.0237C40.4984 33.6706 38.4958 34.8527 37.1977 36.4895C38.4876 34.8442 40.5069 33.6623 43.003 33.0237C44.0197 32.7803 44.1289 32.7569 45.1442 32.5972C45.8156 32.4906 46.8634 32.3983 46.8716 32.4068C48.1704 32.3185 48.6643 32.318 49.5681 32.3323C50.2628 32.3349 50.5553 32.3646 51.8178 32.4599C52.9381 32.5445 54.7083 32.8236 56.1347 33.1391C58.3703 33.6265 60.0526 34.172 60.7019 34.3999C61.7176 34.7508 63.4157 35.3468 65.4593 36.3333C67.8103 37.467 69.3268 38.4369 70.139 38.9519C70.7743 39.3582 71.7785 40.0828 73.1516 41.1257C73.5982 41.4675 74.1511 41.9701 74.5807 42.3285C74.5889 42.337 75.7866 43.352 77.3337 45.0338C78.6175 46.4269 79.6088 47.7902 79.879 48.1712C81.1074 49.8982 81.8226 51.2488 82.0177 51.6202C82.4805 52.5231 83.0388 53.7457 83.4342 54.6811C83.6441 55.1699 83.8593 55.8513 84.0355 56.3563C84.3079 57.1307 84.7732 58.9378 84.8949 59.7098C84.9784 60.2552 85.1259 60.9858 85.1674 61.5389C85.2442 62.5027 85.2991 63.801 85.309 64.7638C85.309 64.7638 85.3022 66.2537 84.9716 68.1067C84.8704 68.6827 84.7076 69.4502 84.5397 70.0084C84.3357 70.7334 84.0027 71.6824 83.7238 72.3811C83.6977 72.4393 83.1652 73.8288 82.1005 75.5196C79.9194 79.0008 77.3279 80.9018 76.3623 81.6232C75.4899 82.2707 74.1802 83.0452 73.1851 83.515C72.4261 83.8713 72.1899 83.9848 71.0701 84.394C70.5733 84.5787 69.9005 84.7857 69.388 84.9031L69.405 84.8867Z" fill="url(#paint3_radial_1631_7929)"/>
<path style="mix-blend-mode:lighten" d="M63.6634 33.9363C73.7284 40.072 78.7927 50.1297 74.9604 56.3974C71.1449 62.6653 59.8848 62.7637 49.8198 56.628C39.7548 50.4924 34.6987 40.4431 38.5227 34.167C42.3383 27.8991 53.5984 27.8007 63.6634 33.9363Z" fill="url(#paint4_radial_1631_7929)"/>
<defs>
<radialGradient id="paint0_radial_1631_7929" cx="0" cy="0" r="1" gradientUnits="userSpaceOnUse" gradientTransform="translate(51.8325 69.6516) rotate(-57.325) scale(23.7556 37.0587)">
<stop stop-color="#606165"/>
<stop offset="0.17" stop-color="#6E6F73" stop-opacity="0.91"/>
<stop offset="0.45" stop-color="#97989A" stop-opacity="0.65"/>
<stop offset="0.81" stop-color="#D8D8D9" stop-opacity="0.24"/>
<stop offset="1" stop-color="white" stop-opacity="0"/>
</radialGradient>
<radialGradient id="paint1_radial_1631_7929" cx="0" cy="0" r="1" gradientUnits="userSpaceOnUse" gradientTransform="translate(70.1452 51.8401) rotate(-31.095) scale(23.7556 37.0587)">
<stop stop-color="#606165"/>
<stop offset="0.17" stop-color="#6E6F73" stop-opacity="0.91"/>
<stop offset="0.45" stop-color="#97989A" stop-opacity="0.65"/>
<stop offset="0.81" stop-color="#D8D8D9" stop-opacity="0.24"/>
<stop offset="1" stop-color="white" stop-opacity="0"/>
</radialGradient>
<radialGradient id="paint2_radial_1631_7929" cx="0" cy="0" r="1" gradientUnits="userSpaceOnUse" gradientTransform="translate(70.5941 77.4517) rotate(-124.045) scale(23.7556 37.0587)">
<stop stop-color="#606165"/>
<stop offset="0.17" stop-color="#6E6F73" stop-opacity="0.91"/>
<stop offset="0.45" stop-color="#97989A" stop-opacity="0.65"/>
<stop offset="0.81" stop-color="#D8D8D9" stop-opacity="0.24"/>
<stop offset="1" stop-color="white" stop-opacity="0"/>
</radialGradient>
<radialGradient id="paint3_radial_1631_7929" cx="0" cy="0" r="1" gradientUnits="userSpaceOnUse" gradientTransform="translate(55.7978 54.5471) rotate(-44.095) scale(26.7975 38.8564)">
<stop stop-color="#F0C57C"/>
<stop offset="0.38" stop-color="#B98E53"/>
<stop offset="0.72" stop-color="#8B6031"/>
<stop offset="0.78" stop-color="#8F6232"/>
<stop offset="0.84" stop-color="#9C6A37"/>
<stop offset="0.91" stop-color="#B3763F"/>
<stop offset="0.98" stop-color="#D1884A"/>
<stop offset="1" stop-color="#DC8E4E"/>
</radialGradient>
<radialGradient id="paint4_radial_1631_7929" cx="0" cy="0" r="1" gradientUnits="userSpaceOnUse" gradientTransform="translate(58.0337 45.9802) rotate(-58.625) scale(13.2922 21.4005)">
<stop stop-color="white" stop-opacity="0.6"/>
<stop offset="0.08" stop-color="white" stop-opacity="0.54"/>
<stop offset="0.39" stop-color="white" stop-opacity="0.31"/>
<stop offset="0.66" stop-color="white" stop-opacity="0.14"/>
<stop offset="0.88" stop-color="white" stop-opacity="0.04"/>
<stop offset="1" stop-color="white" stop-opacity="0"/>
</radialGradient>
</defs>
</svg>
