<svg width="41" height="40" viewBox="0 0 41 40" fill="none" xmlns="http://www.w3.org/2000/svg">
<path d="M13.9004 18C15.6243 18 17.2776 17.3152 18.4966 16.0962C19.7156 14.8772 20.4004 13.2239 20.4004 11.5C20.4004 9.77609 19.7156 8.12279 18.4966 6.90381C17.2776 5.68482 15.6243 5 13.9004 5C12.1765 5 10.5232 5.68482 9.3042 6.90381C8.08521 8.12279 7.40039 9.77609 7.40039 11.5C7.40039 13.2239 8.08521 14.8772 9.3042 16.0962C10.5232 17.3152 12.1765 18 13.9004 18ZM18.4004 25C18.4003 23.9514 18.73 22.9294 19.3426 22.0784C19.9553 21.2274 20.82 20.5906 21.8144 20.258C21.3625 20.0873 20.8834 19.9999 20.4004 20H7.40039C6.33952 20 5.32211 20.4214 4.57196 21.1716C3.82182 21.9217 3.40039 22.9391 3.40039 24C3.40039 24 3.40039 32 13.9004 32C15.6944 32 17.1804 31.766 18.4144 31.38C18.4057 31.2535 18.401 31.1268 18.4004 31V25ZM34.4004 13C34.4004 14.3261 33.8736 15.5979 32.9359 16.5355C31.9982 17.4732 30.7265 18 29.4004 18C28.0743 18 26.8025 17.4732 25.8649 16.5355C24.9272 15.5979 24.4004 14.3261 24.4004 13C24.4004 11.6739 24.9272 10.4021 25.8649 9.46447C26.8025 8.52678 28.0743 8 29.4004 8C30.7265 8 31.9982 8.52678 32.9359 9.46447C33.8736 10.4021 34.4004 11.6739 34.4004 13ZM20.4004 25C20.4004 24.2044 20.7165 23.4413 21.2791 22.8787C21.8417 22.3161 22.6047 22 23.4004 22H35.4004C36.196 22 36.9591 22.3161 37.5217 22.8787C38.0843 23.4413 38.4004 24.2044 38.4004 25V31C38.4004 31.7956 38.0843 32.5587 37.5217 33.1213C36.9591 33.6839 36.196 34 35.4004 34H23.4004C22.6047 34 21.8417 33.6839 21.2791 33.1213C20.7165 32.5587 20.4004 31.7956 20.4004 31V25ZM22.4004 25V27C23.196 27 23.9591 26.6839 24.5217 26.1213C25.0843 25.5587 25.4004 24.7956 25.4004 24H23.4004C23.4004 24.2652 23.295 24.5196 23.1075 24.7071C22.92 24.8946 22.6656 25 22.4004 25ZM36.4004 27V25C36.1352 25 35.8808 24.8946 35.6933 24.7071C35.5057 24.5196 35.4004 24.2652 35.4004 24H33.4004C33.4004 24.7956 33.7165 25.5587 34.2791 26.1213C34.8417 26.6839 35.6047 27 36.4004 27ZM33.4004 32H35.4004C35.4004 31.7348 35.5057 31.4804 35.6933 31.2929C35.8808 31.1054 36.1352 31 36.4004 31V29C35.6047 29 34.8417 29.3161 34.2791 29.8787C33.7165 30.4413 33.4004 31.2044 33.4004 32ZM22.4004 29V31C22.6656 31 22.92 31.1054 23.1075 31.2929C23.295 31.4804 23.4004 31.7348 23.4004 32H25.4004C25.4004 31.2044 25.0843 30.4413 24.5217 29.8787C23.9591 29.3161 23.196 29 22.4004 29ZM29.4004 31C30.196 31 30.9591 30.6839 31.5217 30.1213C32.0843 29.5587 32.4004 28.7956 32.4004 28C32.4004 27.2044 32.0843 26.4413 31.5217 25.8787C30.9591 25.3161 30.196 25 29.4004 25C28.6047 25 27.8417 25.3161 27.2791 25.8787C26.7165 26.4413 26.4004 27.2044 26.4004 28C26.4004 28.7956 26.7165 29.5587 27.2791 30.1213C27.8417 30.6839 28.6047 31 29.4004 31Z" fill="url(#paint0_linear_2223_20378)"/>
<defs>
<linearGradient id="paint0_linear_2223_20378" x1="3.40062" y1="19.5" x2="38.4004" y2="19.5" gradientUnits="userSpaceOnUse">
<stop stop-color="#A56C0B"/>
<stop offset="0.01" stop-color="#AD7816"/>
<stop offset="0.06" stop-color="#C79F3A"/>
<stop offset="0.1" stop-color="#DCBE57"/>
<stop offset="0.14" stop-color="#EBD46C"/>
<stop offset="0.19" stop-color="#F4E178"/>
<stop offset="0.22" stop-color="#F8E67D"/>
<stop offset="0.27" stop-color="#F4E077"/>
<stop offset="0.34" stop-color="#E8D068"/>
<stop offset="0.41" stop-color="#D6B64F"/>
<stop offset="0.45" stop-color="#C9A33D"/>
<stop offset="0.57" stop-color="#C38F1B"/>
<stop offset="0.75" stop-color="#E6C95C"/>
<stop offset="0.84" stop-color="#F8E67D"/>
<stop offset="0.86" stop-color="#F4E077"/>
<stop offset="0.9" stop-color="#E9D167"/>
<stop offset="0.94" stop-color="#D8B94C"/>
<stop offset="0.98" stop-color="#C19728"/>
<stop offset="1" stop-color="#B48514"/>
</linearGradient>
</defs>
</svg>
