<svg width="41" height="40" viewBox="0 0 41 40" fill="none" xmlns="http://www.w3.org/2000/svg">
<path fill-rule="evenodd" clip-rule="evenodd" d="M20.6321 5C16.8679 5 13.4387 6.24333 11.4096 7.25917C11.2262 7.35083 11.0551 7.44028 10.8962 7.5275C10.5812 7.69917 10.3129 7.85917 10.0996 8L12.4079 11.3983L13.4946 11.8308C17.7412 13.9733 23.4362 13.9733 27.6837 11.8308L28.9171 11.1908L31.0996 8C30.647 7.70592 30.1769 7.4396 29.6921 7.2025C27.6729 6.1975 24.3254 5 20.6329 5M15.2646 8.84667C14.4473 8.69287 13.6401 8.49029 12.8471 8.24C14.7479 7.39583 17.5804 6.5 20.6329 6.5C22.7471 6.5 24.7462 6.93 26.3996 7.475C24.4621 7.7475 22.3946 8.21 20.4246 8.77917C18.8746 9.2275 17.0629 9.17917 15.2646 8.84667ZM28.5646 13.0667L28.3596 13.17C23.6879 15.5267 17.4912 15.5267 12.8196 13.17L12.6254 13.0717C5.60622 20.7725 0.247887 34.9975 20.6321 34.9975C41.0162 34.9975 35.5279 20.5083 28.5646 13.0667ZM19.7662 20C19.3242 20 18.9003 20.1756 18.5877 20.4882C18.2751 20.8007 18.0996 21.2246 18.0996 21.6667C18.0996 22.1087 18.2751 22.5326 18.5877 22.8452C18.9003 23.1577 19.3242 23.3333 19.7662 23.3333V20ZM21.4329 18.3333V17.5H19.7662V18.3333C18.8822 18.3333 18.0343 18.6845 17.4092 19.3096C16.7841 19.9348 16.4329 20.7826 16.4329 21.6667C16.4329 22.5507 16.7841 23.3986 17.4092 24.0237C18.0343 24.6488 18.8822 25 19.7662 25V28.3333C19.0412 28.3333 18.4237 27.8708 18.1937 27.2225C18.1596 27.1164 18.1045 27.0183 18.0318 26.9339C17.9591 26.8494 17.8702 26.7804 17.7704 26.731C17.6705 26.6815 17.5618 26.6526 17.4505 26.6459C17.3393 26.6392 17.2279 26.6549 17.1228 26.692C17.0178 26.7291 16.9212 26.7869 16.8389 26.862C16.7566 26.9371 16.6901 27.0279 16.6435 27.1291C16.5969 27.2303 16.5711 27.3399 16.5675 27.4512C16.564 27.5626 16.5828 27.6735 16.6229 27.7775C16.8526 28.4275 17.2783 28.9904 17.8413 29.3884C18.4042 29.7864 19.0768 30.0001 19.7662 30V30.8333H21.4329V30C22.3169 30 23.1648 29.6488 23.7899 29.0237C24.415 28.3986 24.7662 27.5507 24.7662 26.6667C24.7662 25.7826 24.415 24.9348 23.7899 24.3096C23.1648 23.6845 22.3169 23.3333 21.4329 23.3333V20C22.1579 20 22.7754 20.4625 23.0054 21.1108C23.0395 21.2169 23.0946 21.3151 23.1673 21.3995C23.24 21.4839 23.3289 21.5529 23.4288 21.6023C23.5286 21.6518 23.6373 21.6807 23.7486 21.6874C23.8598 21.6941 23.9712 21.6785 24.0763 21.6414C24.1814 21.6042 24.2779 21.5464 24.3602 21.4713C24.4426 21.3963 24.509 21.3054 24.5556 21.2042C24.6022 21.103 24.628 20.9935 24.6316 20.8821C24.6351 20.7707 24.6163 20.6598 24.5762 20.5558C24.3465 19.9058 23.9208 19.343 23.3578 18.9449C22.7949 18.5469 22.1223 18.3332 21.4329 18.3333ZM21.4329 25V28.3333C21.8749 28.3333 22.2988 28.1577 22.6114 27.8452C22.924 27.5326 23.0996 27.1087 23.0996 26.6667C23.0996 26.2246 22.924 25.8007 22.6114 25.4882C22.2988 25.1756 21.8749 25 21.4329 25Z" fill="url(#paint0_linear_2224_20388)"/>
<defs>
<linearGradient id="paint0_linear_2224_20388" x1="6.32831" y1="19.9988" x2="34.8739" y2="19.9988" gradientUnits="userSpaceOnUse">
<stop stop-color="#A56C0B"/>
<stop offset="0.01" stop-color="#AD7816"/>
<stop offset="0.06" stop-color="#C79F3A"/>
<stop offset="0.1" stop-color="#DCBE57"/>
<stop offset="0.14" stop-color="#EBD46C"/>
<stop offset="0.19" stop-color="#F4E178"/>
<stop offset="0.22" stop-color="#F8E67D"/>
<stop offset="0.27" stop-color="#F4E077"/>
<stop offset="0.34" stop-color="#E8D068"/>
<stop offset="0.41" stop-color="#D6B64F"/>
<stop offset="0.45" stop-color="#C9A33D"/>
<stop offset="0.57" stop-color="#C38F1B"/>
<stop offset="0.75" stop-color="#E6C95C"/>
<stop offset="0.84" stop-color="#F8E67D"/>
<stop offset="0.86" stop-color="#F4E077"/>
<stop offset="0.9" stop-color="#E9D167"/>
<stop offset="0.94" stop-color="#D8B94C"/>
<stop offset="0.98" stop-color="#C19728"/>
<stop offset="1" stop-color="#B48514"/>
</linearGradient>
</defs>
</svg>
