<svg width="41" height="40" viewBox="0 0 41 40" fill="none" xmlns="http://www.w3.org/2000/svg">
<mask id="mask0_2224_20380" style="mask-type:luminance" maskUnits="userSpaceOnUse" x="5" y="1" width="32" height="38">
<path fill-rule="evenodd" clip-rule="evenodd" d="M20.8001 36.6668C29.3435 36.6668 34.1335 30.8718 34.1335 21.6668C34.1335 12.4618 26.7435 3.3335 20.8001 3.3335C14.8568 3.3335 7.4668 12.4618 7.4668 21.6668C7.4668 30.8718 12.2568 36.6668 20.8001 36.6668Z" fill="white" stroke="white" stroke-width="4"/>
<path d="M18.2998 31.667C18.9628 31.667 19.5987 31.4036 20.0676 30.9348C20.5364 30.4659 20.7998 29.83 20.7998 29.167C20.7998 28.504 20.5364 27.8681 20.0676 27.3992C19.5987 26.9304 18.9628 26.667 18.2998 26.667C17.6368 26.667 17.0009 26.9304 16.532 27.3992C16.0632 27.8681 15.7998 28.504 15.7998 29.167C15.7998 29.83 16.0632 30.4659 16.532 30.9348C17.0009 31.4036 17.6368 31.667 18.2998 31.667Z" fill="black"/>
<path fill-rule="evenodd" clip-rule="evenodd" d="M14.1335 24.7235C14.5755 24.7235 14.9994 24.5479 15.312 24.2353C15.6245 23.9228 15.8001 23.4988 15.8001 23.0568C15.8001 22.6148 15.6245 22.1909 15.312 21.8783C14.9994 21.5657 14.5755 21.3901 14.1335 21.3901C13.6914 21.3901 13.2675 21.5657 12.955 21.8783C12.6424 22.1909 12.4668 22.6148 12.4668 23.0568C12.4668 23.4988 12.6424 23.9228 12.955 24.2353C13.2675 24.5479 13.6914 24.7235 14.1335 24.7235Z" fill="black"/>
</mask>
<g mask="url(#mask0_2224_20380)">
<path d="M0.799805 0H40.7998V40H0.799805V0Z" fill="url(#paint0_linear_2224_20380)"/>
</g>
<defs>
<linearGradient id="paint0_linear_2224_20380" x1="0.800071" y1="20" x2="40.7998" y2="20" gradientUnits="userSpaceOnUse">
<stop stop-color="#A56C0B"/>
<stop offset="0.01" stop-color="#AD7816"/>
<stop offset="0.06" stop-color="#C79F3A"/>
<stop offset="0.1" stop-color="#DCBE57"/>
<stop offset="0.14" stop-color="#EBD46C"/>
<stop offset="0.19" stop-color="#F4E178"/>
<stop offset="0.22" stop-color="#F8E67D"/>
<stop offset="0.27" stop-color="#F4E077"/>
<stop offset="0.34" stop-color="#E8D068"/>
<stop offset="0.41" stop-color="#D6B64F"/>
<stop offset="0.45" stop-color="#C9A33D"/>
<stop offset="0.57" stop-color="#C38F1B"/>
<stop offset="0.75" stop-color="#E6C95C"/>
<stop offset="0.84" stop-color="#F8E67D"/>
<stop offset="0.86" stop-color="#F4E077"/>
<stop offset="0.9" stop-color="#E9D167"/>
<stop offset="0.94" stop-color="#D8B94C"/>
<stop offset="0.98" stop-color="#C19728"/>
<stop offset="1" stop-color="#B48514"/>
</linearGradient>
</defs>
</svg>
