<svg width="41" height="40" viewBox="0 0 41 40" fill="none" xmlns="http://www.w3.org/2000/svg">
<path d="M20.1999 3.3335C29.4049 3.3335 36.8665 10.7952 36.8665 20.0002C36.8665 24.4204 35.1106 28.6597 31.985 31.7853C28.8594 34.9109 24.6201 36.6668 20.1999 36.6668C15.7796 36.6668 11.5404 34.9109 8.41476 31.7853C5.28915 28.6597 3.5332 24.4204 3.5332 20.0002L3.53987 19.5335C3.78654 10.5452 11.1499 3.3335 20.1999 3.3335ZM25.1999 23.5335C24.7578 23.5335 24.3339 23.7091 24.0214 24.0217C23.7088 24.3342 23.5332 24.7581 23.5332 25.2002V25.2252C23.5332 25.6672 23.7088 26.0911 24.0214 26.4037C24.3339 26.7162 24.7578 26.8918 25.1999 26.8918C25.6419 26.8918 26.0658 26.7162 26.3784 26.4037C26.6909 26.0911 26.8665 25.6672 26.8665 25.2252V25.2002C26.8665 24.7581 26.6909 24.3342 26.3784 24.0217C26.0658 23.7091 25.6419 23.5335 25.1999 23.5335ZM26.3782 13.9468C26.0657 13.6344 25.6418 13.4589 25.1999 13.4589C24.7579 13.4589 24.3341 13.6344 24.0215 13.9468L14.0215 23.9468C13.7179 24.2612 13.5499 24.6822 13.5537 25.1192C13.5575 25.5562 13.7328 25.9742 14.0418 26.2832C14.3509 26.5922 14.7689 26.7675 15.2059 26.7713C15.6429 26.7751 16.0639 26.6071 16.3782 26.3035L26.3782 16.3035C26.6907 15.9909 26.8662 15.5671 26.8662 15.1252C26.8662 14.6832 26.6907 14.2594 26.3782 13.9468ZM15.1999 13.5085C14.7578 13.5085 14.3339 13.6841 14.0214 13.9967C13.7088 14.3092 13.5332 14.7331 13.5332 15.1752V15.2002C13.5332 15.6422 13.7088 16.0661 14.0214 16.3787C14.3339 16.6912 14.7578 16.8668 15.1999 16.8668C15.6419 16.8668 16.0658 16.6912 16.3784 16.3787C16.6909 16.0661 16.8665 15.6422 16.8665 15.2002V15.1752C16.8665 14.7331 16.6909 14.3092 16.3784 13.9967C16.0658 13.6841 15.6419 13.5085 15.1999 13.5085Z" fill="black"/>
<path d="M20.1999 3.3335C29.4049 3.3335 36.8665 10.7952 36.8665 20.0002C36.8665 24.4204 35.1106 28.6597 31.985 31.7853C28.8594 34.9109 24.6201 36.6668 20.1999 36.6668C15.7796 36.6668 11.5404 34.9109 8.41476 31.7853C5.28915 28.6597 3.5332 24.4204 3.5332 20.0002L3.53987 19.5335C3.78654 10.5452 11.1499 3.3335 20.1999 3.3335ZM25.1999 23.5335C24.7578 23.5335 24.3339 23.7091 24.0214 24.0217C23.7088 24.3342 23.5332 24.7581 23.5332 25.2002V25.2252C23.5332 25.6672 23.7088 26.0911 24.0214 26.4037C24.3339 26.7162 24.7578 26.8918 25.1999 26.8918C25.6419 26.8918 26.0658 26.7162 26.3784 26.4037C26.6909 26.0911 26.8665 25.6672 26.8665 25.2252V25.2002C26.8665 24.7581 26.6909 24.3342 26.3784 24.0217C26.0658 23.7091 25.6419 23.5335 25.1999 23.5335ZM26.3782 13.9468C26.0657 13.6344 25.6418 13.4589 25.1999 13.4589C24.7579 13.4589 24.3341 13.6344 24.0215 13.9468L14.0215 23.9468C13.7179 24.2612 13.5499 24.6822 13.5537 25.1192C13.5575 25.5562 13.7328 25.9742 14.0418 26.2832C14.3509 26.5922 14.7689 26.7675 15.2059 26.7713C15.6429 26.7751 16.0639 26.6071 16.3782 26.3035L26.3782 16.3035C26.6907 15.9909 26.8662 15.5671 26.8662 15.1252C26.8662 14.6832 26.6907 14.2594 26.3782 13.9468ZM15.1999 13.5085C14.7578 13.5085 14.3339 13.6841 14.0214 13.9967C13.7088 14.3092 13.5332 14.7331 13.5332 15.1752V15.2002C13.5332 15.6422 13.7088 16.0661 14.0214 16.3787C14.3339 16.6912 14.7578 16.8668 15.1999 16.8668C15.6419 16.8668 16.0658 16.6912 16.3784 16.3787C16.6909 16.0661 16.8665 15.6422 16.8665 15.2002V15.1752C16.8665 14.7331 16.6909 14.3092 16.3784 13.9967C16.0658 13.6841 15.6419 13.5085 15.1999 13.5085Z" fill="url(#paint0_linear_2223_20374)"/>
<defs>
<linearGradient id="paint0_linear_2223_20374" x1="3.53342" y1="20.0002" x2="36.8665" y2="20.0002" gradientUnits="userSpaceOnUse">
<stop stop-color="#A56C0B"/>
<stop offset="0.01" stop-color="#AD7816"/>
<stop offset="0.06" stop-color="#C79F3A"/>
<stop offset="0.1" stop-color="#DCBE57"/>
<stop offset="0.14" stop-color="#EBD46C"/>
<stop offset="0.19" stop-color="#F4E178"/>
<stop offset="0.22" stop-color="#F8E67D"/>
<stop offset="0.27" stop-color="#F4E077"/>
<stop offset="0.34" stop-color="#E8D068"/>
<stop offset="0.41" stop-color="#D6B64F"/>
<stop offset="0.45" stop-color="#C9A33D"/>
<stop offset="0.57" stop-color="#C38F1B"/>
<stop offset="0.75" stop-color="#E6C95C"/>
<stop offset="0.84" stop-color="#F8E67D"/>
<stop offset="0.86" stop-color="#F4E077"/>
<stop offset="0.9" stop-color="#E9D167"/>
<stop offset="0.94" stop-color="#D8B94C"/>
<stop offset="0.98" stop-color="#C19728"/>
<stop offset="1" stop-color="#B48514"/>
</linearGradient>
</defs>
</svg>
