<svg width="351" height="331" viewBox="0 0 351 331" fill="none" xmlns="http://www.w3.org/2000/svg">
<g filter="url(#filter0_d_1684_1087)">
<path d="M104.151 305.887C99.6074 300.112 96.4366 293.674 99.3235 286.195C102.494 277.958 107.653 270.669 112.812 263.568C118.349 255.9 123.46 247.9 129.044 240.279C132.31 235.877 135.954 230.338 140.639 227.403C143.195 225.794 145.845 227.072 145.372 230.102C144.757 234.172 141.681 238.007 139.504 241.415C134.96 248.61 131.363 256.657 128.24 264.515C125.306 271.899 122.892 279.473 122.04 287.378C121.283 294.1 120.952 302.668 124.596 308.727C127.767 313.934 134.108 316.632 139.788 318.478C141.539 318.904 143.242 319.236 144.852 319.567C153.512 321.318 165.912 322.928 181.34 322.644C179.258 320.798 177.412 318.715 175.992 316.301C172.396 310.384 173.768 303.331 174.715 296.846C177.176 279.994 182.997 263.521 190.664 248.373C191.61 246.527 195.16 239.427 198.046 240.231C199.372 240.61 199.514 241.936 199.561 243.119C199.75 247.237 198.472 251.639 197.81 255.663C196.295 264.988 195.538 274.266 195.822 283.733C195.964 288.041 196.39 292.349 197.005 296.656C197.715 301.532 198.33 307.212 200.933 311.473C203.205 315.212 207.748 316.301 211.771 316.916C215.321 317.484 218.917 317.674 222.514 317.721C233.731 315.307 245.752 311.851 258.435 307.023C251.099 304.183 248.875 295.189 249.017 285.39C249.017 285.201 249.017 284.964 249.017 284.775C248.922 279.284 249.632 273.793 250.579 268.397C251.431 263.568 252.188 257.888 254.602 253.533C255.643 251.64 257.583 251.45 258.53 253.533C260.991 258.882 259.192 264.799 259.713 270.385C260.423 277.438 261.18 285.106 264.588 291.497C266.575 295.284 269.793 296.42 273.296 296.42C277.271 294.668 282.146 293.201 287.872 292.491C308.223 289.887 326.396 292.301 326.396 292.301C326.396 292.301 318.966 278.574 323.083 255.379C322.326 247.947 320.717 240.421 314.375 235.735C307.276 230.528 297.385 229.77 288.913 229.581C287.162 229.533 277.697 230.717 277.318 227.64C276.75 223.19 284.417 222.48 287.257 222.007C293.409 221.013 299.562 219.924 305.762 219.167C311.299 218.504 318.729 217.747 323.698 221.013C327.39 223.427 329.046 227.214 329.851 231.285C333.779 219.167 338.464 205.439 341.966 191.002C341.872 188.256 341.493 185.511 340.783 182.86C338.417 174.197 331.933 169.416 323.272 168.422C306.85 166.529 288.345 170.931 273.863 178.742C270.456 180.588 265.865 184.091 261.701 183.144C256.542 182.008 262.505 175.523 264.02 174.15C276.608 162.505 291.848 153.511 306.897 145.417C312.103 142.624 317.499 140.115 323.036 138.08C327.295 136.518 331.46 135.145 336.051 135.476C339.742 135.713 343.623 137.038 346.32 139.405C343.812 118.956 337.707 99.0274 327.91 81.1817C325.781 78.9569 323.272 77.1107 320.385 76.306C314.233 74.6493 306.803 80.1403 301.975 83.2645C294.403 88.1401 287.683 93.6784 281.341 100.069C274.621 106.838 268.374 114.08 261.464 120.66C258.766 123.216 256.021 125.82 252.898 127.808C251.715 128.565 250.295 129.228 248.922 128.707C246.13 127.666 247.739 121.891 248.213 120.045C249.348 115.311 251.289 110.861 253.608 106.554C259.287 96.1399 266.812 86.436 274.763 77.6314C279.022 72.9452 283.707 68.5429 288.771 64.6613C295.066 59.8804 303.206 55.5728 310.636 56.3301C304.389 49.1824 297.337 42.65 289.434 36.8749C280.962 30.6739 269.793 24.4728 256.542 18.9818C248.307 17.5618 240.12 17.9878 233.589 24.1415C227.72 29.6325 224.36 37.6323 221 44.7328C217.45 52.2119 213.002 59.1703 209.263 66.5548C206.234 72.5665 204.341 78.4835 203.82 85.1579C203.536 88.7555 203.631 95.4772 200.507 98.0334C195.586 102.057 193.834 90.7909 193.503 88.3768C191.563 73.7972 192.841 58.2709 194.592 43.7387C195.491 36.3542 197.905 30.0112 202.543 23.9995C206.518 18.8398 212.197 15.1476 218.018 12.4021C222.041 10.5086 226.111 10.3193 230.276 9.89328C210.588 4.35493 187.966 0.568035 163.64 0C161.416 0.426026 159.191 1.0414 157.014 1.79878C148.78 4.8283 143.1 10.9347 139.74 18.9345C136.475 26.6503 135.197 35.1708 135.907 43.502C136.522 50.8865 140.072 57.2295 141.491 64.3773C141.87 66.3654 142.296 75.0753 138.32 71.1937C133.635 66.6494 130.796 59.265 128.95 53.2059C124.548 38.9577 127.719 23.4314 135.718 11.0293C138.51 6.67441 142.154 2.93485 146.461 0.142009C131.032 0.75738 115.083 2.65083 98.7555 6.24839C98.7555 6.24839 77.0327 10.0353 75.2816 27.9757C73.5305 45.9162 83.5164 64.472 94.1649 66.9335C104.813 69.3949 111.723 80.661 112.386 89.8915C113.048 99.1221 112.102 102.72 117.024 106.791C117.024 106.791 112.528 102.672 103.677 105.702C94.8748 108.684 89.8582 108.542 82.5699 102.53C75.2816 96.5186 59.0013 82.2231 42.1058 84.4952C25.2102 86.7673 8.55128 87.2407 6.70555 103.903C5.38041 115.595 2.49349 127.571 5.3804 153.369C8.50395 148.21 12.0534 143.855 18.2532 141.488C21.6607 140.21 25.3048 139.547 28.8543 138.79C33.0191 137.89 37.1838 136.896 41.3485 136.044C56.8716 132.826 73.7672 130.837 89.3376 134.719C92.5085 135.524 96.8152 136.47 99.1342 138.979C101.974 142.103 92.9817 143.287 91.8932 143.476C83.3271 144.849 74.6664 145.086 66.3369 147.689C58.4334 150.151 50.6718 154.221 43.5256 158.34C34.1549 163.736 24.027 170.789 18.5372 180.351C16.2182 184.375 13.7099 189.866 12.9527 195.262C13.8992 198.008 19.389 213.344 29.8009 231.9C34.7701 218.078 49.2521 210.552 61.8882 204.019C77.1747 196.114 93.597 190.528 110.587 187.546C113.711 187.026 116.834 186.457 119.958 186.079C121.472 185.889 124.454 185.795 125.164 187.594C126.962 192.138 118.254 194.741 115.556 196.209C107.038 200.753 98.3296 204.966 89.9528 209.842C82.5699 214.102 75.5182 219.12 68.7032 224.279C61.4623 229.77 52.9435 236.397 49.1101 244.918C46.9331 249.746 47.1697 255.095 48.4475 260.113C51.3817 263.852 54.458 267.544 57.7708 271.142C72.8206 287.473 89.2429 298.408 104.435 305.84L104.151 305.887ZM145.893 81.9864C155.737 84.9212 158.671 108.873 151.619 108.4C149.158 108.211 147.029 105.655 145.798 103.761C143.621 100.353 141.87 96.5659 140.403 92.7791C139.362 90.0335 137.8 86.0573 138.794 83.0278C139.835 79.9509 143.195 80.661 145.561 81.6077C145.751 81.7024 145.845 81.8444 145.893 81.9864ZM193.172 112.376C194.308 116.353 194.639 120.849 193.692 124.92C193.172 127.098 191.61 130.127 189.149 130.601C186.546 131.074 184.464 129.039 183.044 127.098C180.772 124.068 179.116 119.382 179.353 115.122C178.69 109.441 180.725 102.956 186.925 104.187C190.569 104.897 192.273 109.252 193.172 112.329V112.376ZM155.121 64.8033C154.459 66.5074 153.039 67.6435 150.909 66.3654C148.022 64.614 146.839 59.9277 146.555 56.8508C146.555 56.4721 146.555 56.0935 146.555 55.7621C146.271 54.2 146.082 52.0699 147.265 51.1705C149.016 49.8451 151.383 52.2119 152.376 53.4426C153.37 54.6734 153.986 56.1881 154.411 57.7502C154.932 59.1703 155.263 60.6377 155.453 61.8211C155.595 62.7205 155.453 63.7146 155.216 64.5666C155.216 64.6613 155.216 64.7087 155.121 64.756V64.8033ZM215.51 152.423C210.635 149.299 212.481 143.334 215.273 138.506C216.93 132.494 222.798 125.536 228.951 126.766C236.144 128.187 231.696 140.731 229.424 144.423C227.247 147.926 220.195 155.5 215.51 152.47V152.423ZM266.291 211.167C266.291 210.22 267.19 209.416 267.948 209.084C268.705 208.706 269.604 208.753 270.456 208.8C271.213 208.658 271.97 208.658 272.68 208.753C274.573 209.084 274.715 211.309 273.343 212.35C272.065 213.297 269.888 213.534 268.421 213.108C268.137 213.013 267.853 212.871 267.616 212.729C266.859 212.492 266.291 212.019 266.244 211.262L266.291 211.167ZM233.778 187.357C233.778 187.357 233.541 187.12 233.494 186.978C233.305 186.884 233.163 186.742 233.021 186.552C232.642 186.315 232.358 185.984 232.122 185.511C231.222 183.381 233.163 180.872 234.441 179.357C236.523 176.848 243.859 170.316 246.603 175.144C247.171 175.665 247.55 176.47 247.597 177.7C247.739 182.765 242.202 186.173 238.085 187.641C236.76 188.114 234.866 188.54 233.731 187.404L233.778 187.357ZM207.322 165.63C207.322 164.872 207.748 164.257 208.222 163.689C208.222 163.594 208.222 163.452 208.269 163.263C209.121 161.559 210.493 160.186 212.008 159.05C213.238 158.15 214.847 157.204 216.409 157.298C220.669 157.488 217.498 164.209 216.173 165.819C214.516 167.902 211.298 169.274 208.742 167.949C207.89 167.476 207.228 166.624 207.275 165.63H207.322ZM282.051 239.758C282.146 239.379 282.24 239.095 282.43 238.811C282.43 237.865 282.761 237.013 283.565 236.397C285.6 234.882 288.629 234.835 291.232 235.545C292.841 235.829 294.498 236.539 295.87 237.391C298.852 239.237 303.727 243.45 302.354 247.474C301.691 249.462 299.089 249.935 297.29 250.125C293.22 250.503 289.292 249.32 286.026 246.953C283.897 245.391 281.436 242.646 282.051 239.758ZM105.003 156.588C104.908 158.103 103.394 159.144 102.258 159.855C99.7021 161.369 94.7801 163.263 93.029 159.618C92.4138 158.34 93.029 156.92 93.8336 155.973C95.2534 154.269 97.667 153.559 99.7967 153.18C100.175 153.085 100.365 153.322 100.412 153.606C101.359 153.606 102.352 153.795 103.252 154.174C104.198 154.6 105.097 155.452 105.05 156.588H105.003ZM170.266 200.327C170.266 200.327 170.502 200.327 170.597 200.327C173.295 199.664 176.04 200.043 177.743 202.173C181.151 206.481 174.336 212.398 171.402 214.623C167.663 217.463 161.416 220.398 158.245 215.143C156.872 212.824 157.866 209.652 159.333 207.664C161.984 204.019 165.959 201.605 170.266 200.327ZM199.466 213.818C202.117 211.214 205.997 210.173 208.884 213.818C212.481 218.457 210.635 225.179 206.565 228.871C197.668 237.013 190.427 217.321 199.419 213.818H199.466ZM150.199 171.736C153.134 171.925 162.031 172.872 161.51 177.558C161.274 179.783 159.002 181.724 157.109 182.671C153.228 184.611 148.401 184.801 144.142 184.327C140.497 183.949 136.853 182.292 136.096 178.316C135.718 176.233 137.09 174.813 138.841 173.913C141.207 171.263 147.454 171.547 150.152 171.736H150.199ZM62.5508 101.82C61.9356 104.471 58.6227 105.797 56.351 106.601C51.0031 108.542 44.8034 109.063 39.2188 107.879C35.3381 107.027 29.7062 102.956 31.5046 98.2227C32.6405 95.2879 35.6694 93.7731 38.7929 93.0157C42.1531 90.7436 47.8796 91.5956 51.3344 92.495C54.9785 93.4417 63.7339 96.5186 62.5035 101.82H62.5508ZM269.32 257.13C270.503 256.515 271.734 257.462 272.633 258.409C275.283 259.497 277.176 262.385 277.981 265.083C278.88 268.018 278.265 272.041 274.337 271.047C269.935 269.959 267.238 265.178 267.522 260.775C267.616 259.355 267.995 257.793 269.32 257.13ZM134.108 154.553C129.565 155.642 124.028 154.742 119.816 152.991C116.266 151.476 114.184 147.784 115.462 144.044C116.077 142.151 117.544 140.92 119.295 140.305C122.182 137.275 128.193 138.837 131.6 140.21C134.913 141.488 142.769 145.654 140.876 150.435C139.835 153.085 136.617 153.985 134.108 154.6V154.553ZM233.21 236.729C233.21 236.729 233.589 236.492 233.825 236.397C234.015 236.303 234.204 236.208 234.393 236.161C234.63 236.066 234.819 236.161 234.961 236.255C235.813 236.303 236.807 236.729 237.753 237.297C240.64 238.48 243.48 242.314 244.284 244.681C245.941 249.509 245.894 259.355 240.83 262.29C231.743 267.544 224.313 242.172 233.21 236.729ZM182.003 235.451C179.4 231.853 182.949 227.545 184.937 224.753C185.221 224.374 185.6 224.468 185.836 224.753C186.83 224.279 187.966 224.232 188.96 224.895C191.61 226.599 189.812 230.764 188.676 232.847C187.635 234.693 184.038 238.196 182.05 235.451H182.003Z" fill="url(#paint0_linear_1684_1087)"/>
<path d="M104.151 305.887C99.6078 300.112 96.4369 293.674 99.3238 286.195C102.495 277.959 107.653 270.669 112.812 263.568C118.349 255.9 123.46 247.9 129.045 240.279C132.31 235.877 135.955 230.338 140.64 227.403C143.195 225.794 145.846 227.072 145.372 230.102C144.757 234.173 141.681 238.007 139.504 241.415C134.961 248.61 131.364 256.657 128.24 264.515C125.306 271.9 122.892 279.473 122.041 287.378C121.283 294.1 120.952 302.668 124.596 308.727C127.767 313.934 134.109 316.632 139.788 318.478C141.539 318.904 143.243 319.236 144.852 319.567C153.513 321.319 165.912 322.928 181.341 322.644C179.258 320.798 177.413 318.715 175.993 316.301C172.396 310.384 173.768 303.331 174.715 296.846C177.176 279.994 182.997 263.521 190.664 248.373C191.61 246.527 195.16 239.427 198.047 240.232C199.372 240.61 199.514 241.936 199.561 243.119C199.751 247.237 198.473 251.64 197.81 255.663C196.296 264.988 195.539 274.266 195.822 283.734C195.964 288.041 196.39 292.349 197.006 296.656C197.716 301.532 198.331 307.212 200.934 311.473C203.205 315.212 207.749 316.301 211.772 316.916C215.321 317.484 218.918 317.674 222.515 317.721C233.731 315.307 245.752 311.851 258.435 307.023C251.1 304.183 248.876 295.189 249.017 285.39C249.017 285.201 249.017 284.964 249.017 284.775C248.923 279.284 249.633 273.793 250.579 268.397C251.431 263.568 252.188 257.888 254.602 253.533C255.643 251.64 257.584 251.45 258.53 253.533C260.991 258.882 259.193 264.799 259.713 270.385C260.423 277.438 261.18 285.106 264.588 291.497C266.576 295.284 269.794 296.42 273.296 296.42C277.271 294.668 282.146 293.201 287.872 292.491C305.525 290.266 321.569 291.733 325.497 292.159C317.736 284.87 309.217 278.337 300.745 271.9C293.268 266.219 285.79 260.539 278.691 254.385C271.356 247.995 264.588 240.942 257.489 234.315C243.149 220.918 227.721 208.8 213.428 195.357C199.183 181.961 186.168 167.286 172.349 153.37C154.932 135.855 135.718 120.045 115.415 105.891C113.427 104.897 109.452 103.667 103.536 105.702C94.7332 108.684 89.7165 108.542 82.4283 102.53C75.14 96.5187 58.8597 82.2232 41.9641 84.4953C25.0686 86.7675 8.40967 87.2408 6.56394 103.903C5.2388 115.595 2.35189 127.571 5.2388 153.37C8.36235 148.21 11.9118 143.855 18.1116 141.488C21.5191 140.21 25.1632 139.547 28.7127 138.79C32.8775 137.891 37.0422 136.897 41.2069 136.045C56.73 132.826 73.6255 130.838 89.196 134.719C92.3668 135.524 96.6735 136.471 98.9925 138.979C101.832 142.104 92.8401 143.287 91.7516 143.476C83.1855 144.849 74.5248 145.086 66.1953 147.689C58.2918 150.151 50.5302 154.222 43.3839 158.34C34.0133 163.736 23.8854 170.789 18.3956 180.351C16.0766 184.375 13.5683 189.866 12.811 195.262C13.7576 198.008 19.2474 213.345 29.6593 231.9C34.6285 218.078 49.1104 210.552 61.7466 204.019C77.0331 196.114 93.4554 190.529 110.446 187.546C113.569 187.026 116.693 186.458 119.816 186.079C121.331 185.89 124.312 185.795 125.022 187.594C126.821 192.138 118.112 194.741 115.415 196.209C106.896 200.753 98.188 204.966 89.8112 209.842C82.4283 214.102 75.3766 219.12 68.5616 224.279C61.3207 229.77 52.8019 236.397 48.9685 244.918C46.7914 249.746 47.0281 255.095 48.3059 260.113C51.2401 263.852 54.3164 267.545 57.6292 271.142C72.679 287.473 89.1013 298.408 104.293 305.84L104.151 305.887ZM105.003 156.636C104.908 158.151 103.394 159.192 102.258 159.902C99.7024 161.417 94.7805 163.31 93.0294 159.665C92.4142 158.387 93.0294 156.967 93.834 156.02C95.2538 154.316 97.6674 153.606 99.7971 153.228C100.176 153.133 100.365 153.37 100.412 153.654C101.359 153.654 102.353 153.843 103.252 154.222C104.198 154.648 105.098 155.5 105.05 156.636H105.003ZM170.266 200.374C170.266 200.374 170.503 200.374 170.598 200.374C173.295 199.712 176.04 200.09 177.744 202.221C181.151 206.528 174.336 212.445 171.402 214.67C167.663 217.51 161.416 220.445 158.245 215.191C156.873 212.871 157.867 209.7 159.334 207.712C161.984 204.067 165.96 201.653 170.266 200.374ZM199.467 213.865C202.117 211.262 205.998 210.22 208.885 213.865C212.481 218.504 210.636 225.226 206.566 228.918C197.668 237.06 190.427 217.368 199.419 213.865H199.467ZM150.2 171.783C153.134 171.973 162.031 172.919 161.511 177.606C161.274 179.831 159.003 181.771 157.109 182.718C153.229 184.659 148.401 184.848 144.142 184.375C140.498 183.996 136.854 182.339 136.096 178.363C135.718 176.28 137.09 174.86 138.841 173.961C141.208 171.31 147.455 171.594 150.152 171.783H150.2ZM62.5512 101.868C61.9359 104.519 58.6231 105.844 56.3514 106.649C51.0035 108.589 44.8037 109.11 39.2192 107.927C35.3384 107.075 29.7066 103.004 31.505 98.2702C32.6408 95.3353 35.6697 93.8206 38.7933 93.0632C42.1535 90.7911 47.8799 91.6431 51.3348 92.5425C54.9789 93.4892 63.7343 96.5661 62.5038 101.868H62.5512ZM269.321 257.178C270.504 256.563 271.734 257.509 272.633 258.456C275.284 259.545 277.177 262.432 277.981 265.13C278.88 268.065 278.265 272.089 274.337 271.095C269.936 270.006 267.238 265.225 267.522 260.823C267.617 259.403 267.995 257.841 269.321 257.178ZM134.109 154.6C129.565 155.689 124.028 154.79 119.816 153.038C116.267 151.523 114.184 147.831 115.462 144.092C116.077 142.198 117.545 140.967 119.296 140.352C122.183 137.323 128.193 138.885 131.6 140.257C134.913 141.536 142.77 145.701 140.876 150.482C139.835 153.133 136.617 154.032 134.109 154.648V154.6ZM233.21 236.776C233.21 236.776 233.589 236.539 233.826 236.445C234.015 236.35 234.204 236.255 234.394 236.208C234.63 236.113 234.82 236.208 234.962 236.303C235.813 236.35 236.807 236.776 237.754 237.344C240.641 238.527 243.48 242.362 244.285 244.729C245.941 249.557 245.894 259.403 240.83 262.338C231.743 267.592 224.313 242.22 233.21 236.776ZM182.003 235.498C179.4 231.9 182.95 227.593 184.937 224.8C185.221 224.421 185.6 224.516 185.837 224.8C186.83 224.327 187.966 224.279 188.96 224.942C191.61 226.646 189.812 230.812 188.676 232.894C187.635 234.741 184.038 238.243 182.051 235.498H182.003Z" fill="url(#paint1_linear_1684_1087)"/>
<g opacity="0.5">
<path style="mix-blend-mode:multiply" d="M252.756 127.855C254.034 127.051 255.217 126.151 256.353 125.157C253.75 128.092 250.957 131.974 246.982 133.015C236.712 135.618 242.486 119.429 244.474 115.216C247.881 107.879 252.566 101.252 257.394 94.8146C262.221 88.3295 266.954 81.7498 272.586 75.9274C278.312 70.0577 284.701 65.2294 292.084 61.6319C293.882 60.7325 295.823 59.8804 297.763 59.123C294.545 60.6378 291.421 62.6733 288.677 64.7561C283.613 68.6376 278.927 72.9926 274.668 77.7262C266.717 86.4834 259.145 96.2347 253.513 106.649C251.194 110.909 249.254 115.359 248.118 120.139C247.692 121.986 246.035 127.761 248.828 128.802C250.2 129.323 251.667 128.66 252.803 127.903L252.756 127.855Z" fill="url(#paint2_linear_1684_1087)"/>
<path style="mix-blend-mode:multiply" d="M263.973 174.197C262.458 175.57 256.495 182.055 261.654 183.191C265.771 184.138 270.362 180.635 273.817 178.789C278.881 176.091 284.418 173.771 290.192 171.972C287.636 173.156 285.128 174.434 282.667 175.949C278.597 178.41 274.669 181.108 270.504 183.475C267.664 185.085 264.588 187.12 261.275 187.593C258.246 188.019 253.798 186.836 253.324 183.191C253.04 181.061 254.082 179.073 255.407 177.416C258.436 173.582 262.506 170.694 266.528 167.996C279.969 159.05 294.167 151.145 308.46 143.665C314.612 140.399 323.651 135.997 331.697 135.76C328.763 136.186 325.923 137.133 323.036 138.174C317.452 140.21 312.104 142.719 306.898 145.512C291.848 153.606 276.609 162.553 264.02 174.245L263.973 174.197Z" fill="url(#paint3_linear_1684_1087)"/>
<path style="mix-blend-mode:multiply" d="M277.271 227.64C277.366 228.397 278.029 228.918 278.975 229.249C278.502 229.202 278.076 229.107 277.65 229.013C275.094 228.492 268.705 225.415 270.882 221.581C272.633 218.551 276.751 218.551 279.78 217.936C281.531 217.557 283.329 217.226 285.08 216.895C294.167 215.238 303.963 213.628 313.145 215.427C317.451 216.279 322.09 217.936 324.929 221.534C325.26 221.96 325.544 222.433 325.828 222.859C325.166 222.149 324.456 221.534 323.604 220.965C318.635 217.699 311.252 218.457 305.667 219.119C299.467 219.877 293.315 220.965 287.163 221.96C284.37 222.433 276.703 223.143 277.224 227.593L277.271 227.64Z" fill="url(#paint4_linear_1684_1087)"/>
<path style="mix-blend-mode:multiply" d="M259.713 270.479C259.192 264.846 260.991 258.929 258.53 253.628C257.583 251.545 255.643 251.734 254.602 253.628C252.188 257.935 251.431 263.663 250.579 268.491C250.437 269.391 250.295 270.243 250.153 271.142C250.295 268.018 250.153 264.988 249.869 261.864C249.585 258.03 249.112 253.06 251.62 249.793C252.614 248.468 255.406 245.249 257.489 246.385C259.05 247.19 259.666 249.273 260.044 250.835C261.085 255.048 261.227 259.497 261.322 263.805C261.417 268.112 261.275 272.467 263.121 276.491C265.582 281.887 270.314 285.864 276.277 286.716C282.051 287.568 288.393 286.81 294.119 285.911C298.757 285.201 304.2 284.349 307.797 280.988C308.128 280.704 307.891 280.231 307.56 280.041C297.148 274.029 289.008 265.178 281.105 256.278C285.364 259.355 289.813 262.195 294.403 264.657C301.076 268.207 308.696 269.769 314.754 274.503C315.085 274.74 315.511 274.645 315.7 274.313C322.705 261.107 322.279 244.208 311.63 234.125C312.624 234.646 313.523 235.214 314.422 235.876C320.812 240.563 322.373 248.089 323.131 255.521C319.013 278.716 326.443 292.443 326.443 292.443C326.443 292.443 308.27 290.076 287.92 292.633C282.193 293.39 277.318 294.857 273.343 296.562C269.841 296.562 266.623 295.425 264.635 291.639C261.275 285.248 260.47 277.627 259.76 270.527L259.713 270.479Z" fill="url(#paint5_linear_1684_1087)"/>
<path style="mix-blend-mode:multiply" d="M180.205 321.603C177.508 320.467 175.283 318.526 173.816 315.78C168.421 305.698 170.835 291.828 173.627 281.272C175.283 274.929 177.697 268.728 180.111 262.669C183.329 254.527 187.02 245.912 192.983 239.38C194.308 237.912 196.202 235.924 198.379 236.397C200.556 236.823 202.827 238.338 203.49 240.61C204.436 243.829 203.49 247.332 202.875 250.504C200.982 259.545 197.811 268.349 196.391 277.533C196.107 279.284 195.918 280.988 195.776 282.74C195.539 273.698 196.296 264.752 197.763 255.805C198.426 251.782 199.704 247.332 199.514 243.261C199.467 242.078 199.325 240.752 198 240.374C195.113 239.522 191.564 246.622 190.617 248.515C182.95 263.663 177.129 280.136 174.668 296.988C173.722 303.473 172.349 310.526 175.946 316.443C177.129 318.384 178.549 320.135 180.205 321.697V321.603Z" fill="url(#paint6_linear_1684_1087)"/>
<path style="mix-blend-mode:multiply" d="M140.64 227.403C135.955 230.338 132.311 235.876 129.045 240.278C123.413 247.852 118.349 255.899 112.812 263.568C107.701 270.668 102.495 277.958 99.324 286.195C98.6614 287.899 98.3301 289.508 98.2828 291.118C97.9042 286.857 98.5195 282.408 99.7499 278.999C102.495 271.378 107.37 264.941 111.818 258.266C116.787 250.74 122.893 244.018 127.625 236.302C130.181 232.089 132.736 227.308 136.617 224.089C140.119 221.155 146.745 218.598 149.348 224.231C152.14 230.338 145.467 236.539 142.202 241.083C137.658 247.521 133.446 254.195 130.039 261.343C128.098 265.461 126.395 269.674 125.022 273.935C125.969 270.763 127.105 267.639 128.335 264.562C131.459 256.704 135.055 248.657 139.599 241.462C141.729 238.054 144.852 234.219 145.467 230.148C145.941 227.119 143.29 225.841 140.735 227.45L140.64 227.403Z" fill="url(#paint7_linear_1684_1087)"/>
<path style="mix-blend-mode:multiply" d="M119.674 186.173C116.551 186.552 113.38 187.073 110.304 187.641C93.3609 190.576 76.8913 196.209 61.6048 204.114C49.4892 210.362 35.7172 217.605 30.18 230.338C29.9434 224.421 36.5218 217.841 40.1659 214.338C47.5962 207.143 56.4462 201.558 65.7222 197.203C73.1525 193.7 80.772 190.954 88.5336 188.256C94.828 186.031 101.17 183.807 107.653 182.245C114.09 180.682 121.473 179.215 128.004 181.014C131.743 182.055 136.665 184.848 134.724 189.487C133.352 192.895 130.37 195.357 127.247 197.061C119.864 201.037 111.44 201.936 103.678 204.824C95.5852 207.853 87.6817 211.877 80.2514 216.279C78.453 217.321 76.702 218.409 74.9509 219.545C79.7309 216.137 84.6055 212.871 89.6694 209.936C98.0462 205.061 106.754 200.848 115.273 196.303C118.018 194.836 126.679 192.232 124.88 187.688C124.17 185.889 121.189 185.984 119.674 186.173Z" fill="url(#paint8_linear_1684_1087)"/>
<path style="mix-blend-mode:multiply" d="M41.1121 136.091C36.9474 136.943 32.7827 137.985 28.6179 138.837C25.0684 139.594 21.4243 140.257 18.0168 141.535C12.1957 143.76 8.69348 147.736 5.71191 152.517C8.59883 145.89 13.9941 140.967 20.6198 137.938C33.4452 132.068 48.0691 131.168 61.9358 130.648C69.0347 130.364 76.2284 129.796 83.28 130.648C87.9653 131.216 92.698 132.115 96.9574 134.151C100.649 135.902 105.855 138.837 107.275 143.003C110.114 151.381 90.4736 147.452 86.6875 146.979C81.8602 146.363 77.0329 145.89 72.253 146.174C78.642 144.943 85.1731 144.565 91.6095 143.476C92.698 143.334 101.69 142.15 98.8504 138.979C96.5314 136.47 92.272 135.476 89.0538 134.719C73.4834 130.837 56.5879 132.873 41.0648 136.044L41.1121 136.091Z" fill="url(#paint9_linear_1684_1087)"/>
<path style="mix-blend-mode:multiply" d="M76.9863 46.2002C78.3588 49.4664 80.3465 52.2592 82.8548 54.8154C86.3096 58.3182 90.1431 60.7797 94.5444 62.9099C98.5199 64.8033 102.779 66.5548 106.234 69.3476C110.399 72.7558 113.286 77.6314 113.948 83.0278C114.469 87.0513 113.996 91.1223 114.232 95.1458C114.658 102.909 118.728 108.258 123.272 113.891C117.214 110.246 110.351 109.063 103.111 109.725C98.9931 110.104 94.6391 110.435 90.711 108.873C86.2623 107.075 82.9021 103.856 79.7313 100.4C80.7251 101.205 81.577 101.962 82.3815 102.578C89.6698 108.589 94.6864 108.779 103.489 105.749C112.292 102.72 116.835 106.838 116.835 106.838C111.913 102.767 112.86 99.2168 112.197 89.9389C111.535 80.7083 104.625 69.4423 93.9765 66.9808C87.0195 65.3713 80.2992 56.8508 77.0336 46.1528L76.9863 46.2002Z" fill="url(#paint10_linear_1684_1087)"/>
<path style="mix-blend-mode:multiply" d="M203.584 85.6786C203.584 85.6786 203.584 85.3945 203.584 85.2525C203.773 82.649 204.199 80.1402 204.814 77.7261C204.436 80.9449 204.341 84.2111 203.963 87.43C203.915 87.9507 203.821 88.5187 203.773 89.0868C203.773 87.9507 203.679 86.8146 203.584 85.6786Z" fill="url(#paint11_linear_1684_1087)"/>
<path style="mix-blend-mode:multiply" d="M190.759 93.8675C188.96 88.3292 189.434 82.4595 189.67 76.7318C190.096 64.3297 190.191 45.3478 197.29 32.8511C195.823 36.3066 194.923 39.9042 194.45 43.8331C192.699 58.3653 191.421 73.8916 193.362 88.4712C193.693 90.9327 195.444 102.199 200.366 98.1278C201.407 97.2757 202.07 95.9976 202.543 94.4829C202.543 94.7669 202.543 95.0509 202.496 95.3349C202.496 95.4296 202.496 95.5243 202.496 95.5716C202.117 96.8024 201.596 97.9384 200.887 98.8851C197.29 103.903 191.989 97.6544 190.759 93.8202V93.8675Z" fill="url(#paint12_linear_1684_1087)"/>
<path style="mix-blend-mode:multiply" d="M140.687 71.9036C139.977 73.5131 138.605 74.1758 136.049 72.8504C128.761 68.9688 126.158 59.5962 124.928 51.9751C123.65 44.0226 124.028 36.3068 126.584 28.6383C127.767 25.1354 129.282 21.6325 131.459 18.603C126.584 29.4904 125.164 41.8451 128.761 53.3478C130.654 59.4069 133.494 66.7913 138.132 71.3356C139.362 72.519 140.167 72.519 140.687 71.9036Z" fill="url(#paint13_linear_1684_1087)"/>
</g>
<path d="M72.3479 271.237C77.2225 264.42 81.2926 257.13 86.4512 250.551C92.0357 243.45 98.0462 236.539 104.151 229.912C107.511 226.267 111.108 222.812 114.8 219.451C127.057 207.569 141.965 195.877 157.394 188.398C163.83 185.274 170.882 182.86 177.791 180.919C180.205 180.256 187.588 178.268 185.363 174.434C183.991 172.02 178.832 170.694 176.371 169.795C171.828 168.091 167.001 167.191 162.268 166.339C156.352 165.298 149.443 165.629 143.48 165.961C137.09 166.292 130.654 166.103 124.265 166.718C109.357 168.044 94.5913 170.884 80.1567 174.765C66.5267 178.363 54.7424 185.463 42.0116 191.144C41.8223 191.238 41.491 191.002 41.775 190.86C54.2218 184.327 65.6275 176.895 79.0682 172.351C95.1119 166.955 111.724 163.925 128.477 161.795C133.446 161.18 138.463 160.612 143.48 160.612C149.206 160.612 154.885 160.186 160.612 160.612C163.546 160.801 173.343 162.316 168.705 157.204C160.375 148.02 149.064 139.689 138.368 133.441C136.097 132.115 133.872 130.837 131.601 129.559C128.666 128.328 125.637 127.192 122.419 126.293C111.345 123.169 99.4186 120.234 87.9183 118.956C81.4819 118.246 74.9035 118.861 68.4671 119.193C61.9834 119.571 55.3577 119.429 48.9213 120.329C43.0055 121.181 37.1843 122.175 31.3158 123.263C30.5113 123.405 29.6594 123.642 28.8075 123.879C25.0214 125.204 21.2353 126.719 17.3545 126.861C17.2125 126.861 17.1179 126.672 17.3072 126.624C17.9224 126.482 18.4904 126.293 19.1056 126.056C18.869 126.056 18.585 126.056 18.3484 126.056C18.2064 126.056 18.2537 125.867 18.3484 125.867C18.9636 125.867 19.5789 125.725 20.1941 125.536C21.7559 124.778 23.2703 123.879 24.8794 123.311C28.9022 121.891 32.9722 120.707 37.137 119.619C43.668 117.867 50.3884 116.968 57.1088 116.068C70.8334 114.27 84.9367 114.364 98.6614 116.068C109.405 117.441 119.248 119.619 128.619 123.784C130.559 124.352 132.5 125.015 134.44 125.725C127.105 119.051 120.337 111.666 112.907 105.181C112.67 104.944 113.191 104.802 113.333 104.897C122.561 110.341 131.175 116.684 139.409 123.453C138.321 121.228 137.043 119.051 136.002 116.873C131.601 110.956 128.43 104.66 124.786 98.2699C117.592 85.5838 111.913 72.377 108.174 58.2708C104.719 45.064 102.306 29.6324 107.559 16.5676C107.653 16.3782 108.032 16.3782 107.985 16.6149C106.802 23.3366 107.606 32.0465 108.979 38.7209C110.446 46.058 112.386 53.5372 114.894 60.5903C121.047 78.0573 129.613 94.341 139.457 109.962C143.385 116.163 146.272 123.216 150.815 128.991C152.472 131.121 156.163 136.044 159.429 135.145C162.174 134.435 162.316 129.891 162.363 127.618C162.505 121.465 161.89 115.264 161.558 109.157C161.322 104.092 161.18 98.98 161.085 93.915C160.801 76.8739 162.221 60.2116 166.291 43.6439C167.947 36.9221 169.651 30.1531 172.301 23.7153C174.005 19.5971 176.135 15.1001 179.306 11.7393C175.472 21.6799 172.964 32.0465 171.213 42.6025C169.036 55.762 167.285 69.1108 166.196 82.4123C165.155 94.909 164.871 107.548 166.812 119.997C167.663 125.394 168.847 130.695 170.408 135.95C171.828 140.778 173.39 146.269 176.939 150.008C179.874 153.133 186.831 167.097 192.415 160.659C194.876 157.866 194.923 152.517 195.586 149.062C198.899 132.778 207.37 117.536 215.605 103.288C223.793 89.1814 232.974 75.6905 244.569 64.1405C250.295 58.4128 256.164 52.4958 262.553 47.4781C265.582 45.1113 269.179 43.3599 272.492 41.5138C273.722 40.851 278.313 39.6676 278.881 38.6736C278.881 38.5789 279.165 38.6262 279.117 38.7209C278.928 39.431 278.029 39.7623 277.461 40.0937C274.337 42.0345 271.308 43.8806 268.327 46.1527C260.376 52.2118 253.277 59.9276 246.746 67.5487C234.11 82.2703 223.414 99.1693 214.801 116.542C210.352 125.441 206.092 133.819 203.3 143.429C202.827 144.991 202.496 146.695 202.164 148.399C202.117 149.156 202.022 149.866 201.88 150.576C201.171 154.458 199.514 158.245 199.609 162.221C199.703 166.955 199.94 170.647 202.117 174.955C204.436 179.546 210.21 183.381 214.706 179.641C227.579 168.943 238.558 156.446 252.236 146.648C257.915 142.577 263.689 138.79 269.605 135.24C269.889 135.05 270.173 134.908 270.409 134.719C270.598 134.624 270.788 134.482 270.977 134.387C279.449 129.228 288.346 124.684 297.527 121.275C302.875 119.287 308.507 117.82 314.092 116.731C319.203 115.69 325.024 114.222 330.23 115.406C331.034 115.595 331.224 116.494 330.325 116.684C328.148 117.204 325.876 117.062 323.604 117.157C320.623 118.104 317.641 119.287 314.896 120.092C307.892 122.127 301.313 124.92 294.735 127.95C282.099 133.772 270.504 140.541 259.903 149.63C249.822 158.245 239.505 165.156 231.081 175.617C228.005 179.452 220.054 185.321 222.136 189.866C225.591 197.487 233.637 204.634 239.789 205.25C243.812 205.629 251.431 203.025 255.312 201.936C265.061 199.096 275.473 196.445 285.601 195.073C295.398 193.747 304.91 192.942 314.612 195.073C319.439 196.114 328.526 199.522 331.034 204.256C331.413 204.966 330.135 205.108 329.757 204.871C314.234 195.972 299.231 198.765 282.572 202.078C275.426 203.498 268.09 205.25 261.133 207.427C258.01 208.421 254.839 209.226 251.668 210.125C238.7 213.676 252.567 223.048 257.016 227.829C261.559 232.705 266.15 237.533 270.835 242.267C280.064 251.639 289.482 260.87 300.036 268.775C304.153 271.852 308.791 274.692 313.003 277.864C316.363 281.414 319.581 285.106 322.421 288.988C319.629 287.804 316.363 284.017 314.375 282.455C310.921 279.757 307.324 277.154 303.68 274.692C296.628 269.911 289.34 265.462 282.714 260.113C269.368 249.367 258.625 236.018 246.036 224.516C241.729 220.587 237.943 215.048 232.785 212.303C225.212 208.279 224.455 220.019 224.124 224.847C223.887 228.303 223.982 231.758 223.698 235.214C223.367 240.231 223.414 245.533 222.562 250.503C221.379 257.367 222.799 264.231 222.751 271.095C224.266 284.633 227.389 298.076 234.63 309.626C234.772 309.863 234.536 310.052 234.252 310.052C231.554 307.685 229.614 304.372 227.91 301.248C227.295 300.064 226.632 298.881 226.017 297.698C224.361 293.059 223.177 288.278 221.947 283.781C218.729 271.994 217.404 260.539 216.41 248.468C215.51 237.344 217.214 226.172 217.404 215.096C217.451 210.788 218.208 206.007 216.646 201.889C214.233 195.451 205.951 196.54 201.313 199.143C196.059 202.078 192.226 207.096 188.44 211.64C182.003 219.451 176.561 227.924 171.686 236.776C166.007 247.142 160.28 257.509 155.879 268.491C152.188 277.722 150.389 288.325 148.733 298.029C148.733 298.218 148.26 298.218 148.26 298.029C149.159 283.497 153.182 269.438 158.813 255.994C162.978 246.054 167.427 236.16 172.727 226.788C174.81 223.143 176.987 219.545 179.306 216.09C182.808 210.788 185.174 205.818 189.576 201.179C191.847 198.812 194.308 196.635 196.675 194.363C198.284 192.848 201.455 190.434 201.123 187.877C200.697 184.706 195.113 185.511 192.888 185.605C185.695 185.937 179.306 188.493 172.775 191.286C159.902 196.824 147.408 203.167 135.623 210.788C124.17 218.173 113.427 226.977 103.583 236.492C97.4309 242.409 90.9945 248.089 85.552 254.716C81.1033 260.113 76.9859 265.84 72.3952 271.189C72.3479 271.237 72.1586 271.189 72.2059 271.142L72.3479 271.237Z" fill="url(#paint14_linear_1684_1087)"/>
<path d="M72.3479 271.237C77.2225 264.42 81.2926 257.13 86.4512 250.551C92.0357 243.45 98.0462 236.539 104.151 229.912C107.511 226.267 111.108 222.812 114.8 219.451C127.057 207.569 141.965 195.877 157.394 188.398C163.83 185.274 170.882 182.86 177.791 180.919C180.205 180.256 187.588 178.268 185.363 174.434C183.991 172.02 178.832 170.694 176.371 169.795C171.828 168.091 167.001 167.191 162.268 166.339C156.352 165.298 149.443 165.629 143.48 165.961C137.09 166.292 130.654 166.103 124.265 166.718C109.357 168.044 94.5913 170.884 80.1567 174.765C66.5267 178.363 54.7424 185.463 42.0116 191.144C41.8223 191.238 41.491 191.002 41.775 190.86C54.2218 184.327 65.6275 176.895 79.0682 172.351C95.1119 166.955 111.724 163.925 128.477 161.795C133.446 161.18 138.463 160.612 143.48 160.612C149.206 160.612 154.885 160.186 160.612 160.612C163.546 160.801 173.343 162.316 168.705 157.204C160.375 148.02 149.064 139.689 138.368 133.441C136.097 132.115 133.872 130.837 131.601 129.559C128.666 128.328 125.637 127.192 122.419 126.293C111.345 123.169 99.4186 120.234 87.9183 118.956C81.4819 118.246 74.9035 118.861 68.4671 119.193C61.9834 119.571 55.3577 119.429 48.9213 120.329C43.0055 121.181 37.1843 122.175 31.3158 123.263C30.5113 123.405 29.6594 123.642 28.8075 123.879C25.0214 125.204 21.2353 126.719 17.3545 126.861C17.2125 126.861 17.1179 126.672 17.3072 126.624C17.9224 126.482 18.4904 126.293 19.1056 126.056C18.869 126.056 18.585 126.056 18.3484 126.056C18.2064 126.056 18.2537 125.867 18.3484 125.867C18.9636 125.867 19.5789 125.725 20.1941 125.536C21.7559 124.778 23.2703 123.879 24.8794 123.311C28.9022 121.891 32.9722 120.707 37.137 119.619C43.668 117.867 50.3884 116.968 57.1088 116.068C70.8334 114.27 84.9367 114.364 98.6614 116.068C109.405 117.441 119.248 119.619 128.619 123.784C130.559 124.352 132.5 125.015 134.44 125.725C127.105 119.051 120.337 111.666 112.907 105.181C112.67 104.944 113.191 104.802 113.333 104.897C122.561 110.341 131.175 116.684 139.409 123.453C138.321 121.228 137.043 119.051 136.002 116.873C131.601 110.956 128.43 104.66 124.786 98.2699C117.592 85.5838 111.913 72.377 108.174 58.2708C104.719 45.064 102.306 29.6324 107.559 16.5676C107.653 16.3782 108.032 16.3782 107.985 16.6149C106.802 23.3366 107.606 32.0465 108.979 38.7209C110.446 46.058 112.386 53.5372 114.894 60.5903C121.047 78.0573 129.613 94.341 139.457 109.962C143.385 116.163 146.272 123.216 150.815 128.991C152.472 131.121 156.163 136.044 159.429 135.145C162.174 134.435 162.316 129.891 162.363 127.618C162.505 121.465 161.89 115.264 161.558 109.157C161.322 104.092 161.18 98.98 161.085 93.915C160.801 76.8739 162.221 60.2116 166.291 43.6439C167.947 36.9221 169.651 30.1531 172.301 23.7153C174.005 19.5971 176.135 15.1001 179.306 11.7393C175.472 21.6799 172.964 32.0465 171.213 42.6025C169.036 55.762 167.285 69.1108 166.196 82.4123C165.155 94.909 164.871 107.548 166.812 119.997C167.663 125.394 168.847 130.695 170.408 135.95C171.828 140.778 173.39 146.269 176.939 150.008C179.874 153.133 186.831 167.097 192.415 160.659C194.876 157.866 194.923 152.517 195.586 149.062C198.899 132.778 207.37 117.536 215.605 103.288C223.793 89.1814 232.974 75.6905 244.569 64.1405C250.295 58.4128 256.164 52.4958 262.553 47.4781C265.582 45.1113 269.179 43.3599 272.492 41.5138C273.722 40.851 278.313 39.6676 278.881 38.6736C278.881 38.5789 279.165 38.6262 279.117 38.7209C278.928 39.431 278.029 39.7623 277.461 40.0937C274.337 42.0345 271.308 43.8806 268.327 46.1527C260.376 52.2118 253.277 59.9276 246.746 67.5487C234.11 82.2703 223.414 99.1693 214.801 116.542C210.352 125.441 206.092 133.819 203.3 143.429C202.827 144.991 202.496 146.695 202.164 148.399C202.117 149.156 202.022 149.866 201.88 150.576C201.171 154.458 199.514 158.245 199.609 162.221C199.703 166.955 199.94 170.647 202.117 174.955C204.436 179.546 210.21 183.381 214.706 179.641C227.579 168.943 238.558 156.446 252.236 146.648C257.915 142.577 263.689 138.79 269.605 135.24C269.889 135.05 270.173 134.908 270.409 134.719C270.598 134.624 270.788 134.482 270.977 134.387C279.449 129.228 288.346 124.684 297.527 121.275C302.875 119.287 308.507 117.82 314.092 116.731C319.203 115.69 325.024 114.222 330.23 115.406C331.034 115.595 331.224 116.494 330.325 116.684C328.148 117.204 325.876 117.062 323.604 117.157C320.623 118.104 317.641 119.287 314.896 120.092C307.892 122.127 301.313 124.92 294.735 127.95C282.099 133.772 270.504 140.541 259.903 149.63C249.822 158.245 239.505 165.156 231.081 175.617C228.005 179.452 220.054 185.321 222.136 189.866C225.591 197.487 233.637 204.634 239.789 205.25C243.812 205.629 251.431 203.025 255.312 201.936C265.061 199.096 275.473 196.445 285.601 195.073C295.398 193.747 304.91 192.942 314.612 195.073C319.439 196.114 328.526 199.522 331.034 204.256C331.413 204.966 330.135 205.108 329.757 204.871C314.234 195.972 299.231 198.765 282.572 202.078C275.426 203.498 268.09 205.25 261.133 207.427C258.01 208.421 254.839 209.226 251.668 210.125C238.7 213.676 252.567 223.048 257.016 227.829C261.559 232.705 266.15 237.533 270.835 242.267C280.064 251.639 289.482 260.87 300.036 268.775C304.153 271.852 308.791 274.692 313.003 277.864C316.363 281.414 319.581 285.106 322.421 288.988C319.629 287.804 316.363 284.017 314.375 282.455C310.921 279.757 307.324 277.154 303.68 274.692C296.628 269.911 289.34 265.462 282.714 260.113C269.368 249.367 258.625 236.018 246.036 224.516C241.729 220.587 237.943 215.048 232.785 212.303C225.212 208.279 224.455 220.019 224.124 224.847C223.887 228.303 223.982 231.758 223.698 235.214C223.367 240.231 223.414 245.533 222.562 250.503C221.379 257.367 222.799 264.231 222.751 271.095C224.266 284.633 227.389 298.076 234.63 309.626C234.772 309.863 234.536 310.052 234.252 310.052C231.554 307.685 229.614 304.372 227.91 301.248C227.295 300.064 226.632 298.881 226.017 297.698C224.361 293.059 223.177 288.278 221.947 283.781C218.729 271.994 217.404 260.539 216.41 248.468C215.51 237.344 217.214 226.172 217.404 215.096C217.451 210.788 218.208 206.007 216.646 201.889C214.233 195.451 205.951 196.54 201.313 199.143C196.059 202.078 192.226 207.096 188.44 211.64C182.003 219.451 176.561 227.924 171.686 236.776C166.007 247.142 160.28 257.509 155.879 268.491C152.188 277.722 150.389 288.325 148.733 298.029C148.733 298.218 148.26 298.218 148.26 298.029C149.159 283.497 153.182 269.438 158.813 255.994C162.978 246.054 167.427 236.16 172.727 226.788C174.81 223.143 176.987 219.545 179.306 216.09C182.808 210.788 185.174 205.818 189.576 201.179C191.847 198.812 194.308 196.635 196.675 194.363C198.284 192.848 201.455 190.434 201.123 187.877C200.697 184.706 195.113 185.511 192.888 185.605C185.695 185.937 179.306 188.493 172.775 191.286C159.902 196.824 147.408 203.167 135.623 210.788C124.17 218.173 113.427 226.977 103.583 236.492C97.4309 242.409 90.9945 248.089 85.552 254.716C81.1033 260.113 76.9859 265.84 72.3952 271.189C72.3479 271.237 72.1586 271.189 72.2059 271.142L72.3479 271.237Z" fill="url(#paint15_linear_1684_1087)"/>
<path style="mix-blend-mode:multiply" d="M162.173 118.672C162.789 123.5 163.404 128.565 162.789 133.441C162.599 135.097 162.315 137.748 160.801 138.79C157.819 140.825 154.696 135.949 153.513 133.819C152.803 132.589 152.188 131.358 151.572 130.08C153.465 132.447 156.589 136.044 159.476 135.287C162.221 134.577 162.363 130.032 162.41 127.76C162.457 124.683 162.363 121.559 162.173 118.482C162.173 118.53 162.173 118.577 162.173 118.672Z" fill="url(#paint16_linear_1684_1087)"/>
<path style="mix-blend-mode:multiply" d="M193.693 161.416C191.374 167.097 186.405 162.742 183.66 159.57C181.767 157.393 179.968 154.884 178.596 152.186C182.003 157.014 187.73 166.245 192.462 160.754C194.639 158.245 194.923 153.701 195.444 150.292C195.255 153.985 195.065 157.961 193.693 161.369V161.416Z" fill="url(#paint17_linear_1684_1087)"/>
<path style="mix-blend-mode:multiply" d="M164.256 166.718C169.178 166.576 174.194 166.671 178.88 168.043C181.909 168.943 190.38 172.824 185.647 176.422C185.789 175.807 185.742 175.191 185.316 174.481C183.944 172.067 178.785 170.742 176.324 169.842C172.396 168.375 168.326 167.523 164.256 166.765V166.718Z" fill="url(#paint18_linear_1684_1087)"/>
<path style="mix-blend-mode:multiply" d="M245.231 211.924C247.74 209.179 252.425 208.8 255.88 208.658C256.59 208.658 257.347 208.611 258.104 208.611C255.974 209.226 253.892 209.794 251.762 210.362C242.818 212.824 246.698 218.078 251.384 222.67C248.166 220.587 241.776 215.711 245.231 211.972V211.924Z" fill="url(#paint19_linear_1684_1087)"/>
<path style="mix-blend-mode:multiply" d="M224.36 222.764C224.502 217.983 225.165 210.457 229.566 210.457C233.068 210.457 235.955 213.77 238.132 216.516C236.476 214.953 234.772 213.581 232.832 212.539C226.301 209.084 224.834 217.32 224.36 222.764Z" fill="url(#paint20_linear_1684_1087)"/>
<path style="mix-blend-mode:multiply" d="M199.467 200.374C202.401 198.055 207.56 194.315 211.535 196.019C213.144 196.729 214.233 197.96 214.99 199.427C211.582 196.067 205.241 197.155 201.407 199.333C199.798 200.232 198.378 201.321 197.006 202.504C197.81 201.747 198.615 201.037 199.467 200.327V200.374Z" fill="url(#paint21_linear_1684_1087)"/>
<path style="mix-blend-mode:multiply" d="M231.507 203.593C226.538 201.226 222.704 196.114 222.704 190.954C226.206 197.913 233.353 204.303 239.126 205.344C236.523 205.297 233.968 204.776 231.507 203.593Z" fill="url(#paint22_linear_1684_1087)"/>
<path style="mix-blend-mode:multiply" d="M202.022 185.984C201.88 186.694 201.596 187.357 201.217 188.019C200.791 184.848 195.207 185.653 192.982 185.747C190.379 185.842 187.871 186.268 185.41 186.883C187.114 186.079 188.912 185.416 190.711 184.895C192.225 184.469 202.874 182.055 201.974 186.031L202.022 185.984Z" fill="url(#paint23_linear_1684_1087)"/>
<path style="mix-blend-mode:multiply" d="M214.232 180.871C208.931 184.043 205.477 181.534 203.631 177.369C206.423 180.824 211.061 182.954 214.753 179.83C218.444 176.753 221.994 173.534 225.448 170.268C221.946 174.055 218.681 178.173 214.185 180.871H214.232Z" fill="url(#paint24_linear_1684_1087)"/>
<path style="mix-blend-mode:multiply" d="M164.918 150.624C166.575 151.807 168.326 152.943 169.746 154.411C170.739 155.452 172.112 156.919 172.159 158.434C172.159 161.606 169.793 162.032 167.569 161.606C165.676 161.227 163.782 160.943 161.842 160.706C165.628 161.085 172.727 161.7 168.61 157.203C164.019 152.186 158.577 147.405 152.803 143.097C156.967 145.369 161.038 147.878 164.918 150.624Z" fill="url(#paint25_linear_1684_1087)"/>
<path style="mix-blend-mode:screen" d="M238.18 207.475C244.9 208.611 254.129 203.735 260.518 202.079C268.374 200.043 276.751 197.108 284.844 196.588C292.511 196.067 299.988 195.404 307.703 195.736C314.186 196.02 320.339 198.907 325.829 202.126C326.255 202.363 325.592 202.647 325.308 202.552C316.505 198.244 308.649 196.872 298.853 197.487C290.854 198.008 282.572 199.712 274.763 201.558C266.907 203.404 259.051 205.297 251.195 207.096C247.219 207.996 241.919 209.226 237.991 207.712C237.801 207.617 237.991 207.428 238.133 207.475H238.18Z" fill="url(#paint26_linear_1684_1087)"/>
<path style="mix-blend-mode:screen" d="M218.634 179.546C225.875 172.446 232.737 165.109 240.31 158.245C248.544 150.766 257.678 144.47 266.954 138.316C282.525 127.997 299.704 121.559 317.925 117.772C298.663 122.979 281.152 130.506 264.541 141.63C255.927 147.405 247.74 153.606 240.073 160.564C233.163 166.86 226.727 174.387 219.249 179.972C218.965 180.209 218.208 179.972 218.634 179.594V179.546Z" fill="url(#paint27_linear_1684_1087)"/>
<path style="mix-blend-mode:screen" d="M197.621 155.405C200.981 139.358 205.477 123.406 213.334 108.921C218.019 100.258 223.367 91.5484 229.141 83.5486C234.82 75.6908 241.777 68.9217 248.308 61.7739C248.308 61.7739 248.45 61.7739 248.402 61.7739C226.301 90.1757 205.951 119.761 198.142 155.405C198.094 155.642 197.574 155.594 197.621 155.31V155.405Z" fill="url(#paint28_linear_1684_1087)"/>
<path style="mix-blend-mode:screen" d="M170.361 37.7271H170.409C163.026 65.5134 163.073 95.9033 165.25 124.447C165.25 124.542 165.108 124.542 165.061 124.447C161.085 95.7613 161.369 65.3714 170.314 37.7271H170.361Z" fill="url(#paint29_linear_1684_1087)"/>
<path style="mix-blend-mode:screen" d="M106.186 33.2775C106.186 33.2775 106.423 33.1355 106.423 33.2775C106.896 48.4251 112.102 64.2827 117.592 78.2469C123.555 93.4892 132.689 107.501 141.302 121.323C141.444 121.512 140.971 121.654 140.829 121.512C123.034 96.0453 105.05 65.5608 106.139 33.2775H106.186Z" fill="url(#paint30_linear_1684_1087)"/>
<path style="mix-blend-mode:screen" d="M68.2307 116.542C78.5479 114.554 89.859 115.879 100.223 117.299C111.913 118.909 123.319 122.601 133.778 128.045C133.967 128.139 133.683 128.329 133.541 128.281C123.319 123.737 112.718 121.181 101.785 118.861C91.3734 116.684 78.7846 115.358 68.2781 116.637C68.1834 116.637 68.1361 116.542 68.2781 116.495L68.2307 116.542Z" fill="url(#paint31_linear_1684_1087)"/>
<path style="mix-blend-mode:screen" d="M122.23 164.02C129.566 162.742 137.043 161.701 144.474 161.511C148.922 161.369 153.324 161.511 157.772 161.511C160.612 161.511 164.729 161.038 167.285 162.411C167.238 162.411 167.285 162.316 167.332 162.316C167.474 162.316 167.616 162.316 167.758 162.316C168.042 162.316 168.042 162.648 167.758 162.648C160.044 163.216 152.235 162.648 144.521 162.979C137.138 163.31 129.708 164.115 122.278 164.399C122.041 164.399 121.899 164.115 122.183 164.068L122.23 164.02Z" fill="url(#paint32_linear_1684_1087)"/>
<path style="mix-blend-mode:screen" d="M118.539 217.842C127.91 208.8 138.747 200.516 150.153 194.221C155.643 191.191 161.322 188.682 167.191 186.6C170.314 185.464 173.39 184.327 176.561 183.381C178.407 182.813 182.099 182.765 183.613 181.44C183.708 181.345 183.992 181.44 183.897 181.582C181.957 183.712 176.135 184.469 173.627 185.416C167.238 187.783 160.802 190.481 154.744 193.605C142.108 200.138 129.755 208.942 118.965 218.173C118.728 218.362 118.208 218.173 118.492 217.889L118.539 217.842Z" fill="url(#paint33_linear_1684_1087)"/>
<path style="mix-blend-mode:screen" d="M219.629 265.178C217.452 254.527 216.552 243.072 216.931 232.137C217.309 221.108 222.373 208.801 215.653 199.002C215.606 198.907 215.748 198.86 215.795 198.907C223.509 207.948 219.723 217.51 219.013 228.35C218.209 240.468 218.54 253.06 220.054 265.131C220.054 265.367 219.629 265.367 219.581 265.131L219.629 265.178Z" fill="url(#paint34_linear_1684_1087)"/>
<path style="mix-blend-mode:screen" d="M167.096 238.906C171.923 228.966 177.981 219.593 184.37 210.599C190.428 202.079 196.344 194.836 205.62 189.535C205.762 189.44 206.046 189.582 205.856 189.724C189.623 202.978 179.022 221.676 167.616 239.001C167.522 239.19 166.954 239.143 167.096 238.859V238.906Z" fill="url(#paint35_linear_1684_1087)"/>
<path style="mix-blend-mode:screen" d="M309.311 268.633C305.289 263.332 305.005 256.231 303.727 249.841C302.828 245.297 302.307 242.362 299.515 238.433C297.953 236.208 295.918 235.025 294.12 233.084C293.836 232.8 294.356 232.563 294.593 232.611C302.449 233.415 309.643 235.072 313.192 243.025C316.694 250.835 317.925 261.06 312.908 268.397C312.198 269.391 310.069 269.628 309.311 268.586V268.633Z" fill="url(#paint36_radial_1684_1087)"/>
<path style="mix-blend-mode:screen" d="M128.382 285.864C128.524 285.485 129.186 285.485 129.281 285.864C130.464 291.497 132.026 295.047 136.853 298.455C140.403 301.011 143.716 302.857 147.928 304.183C154.364 306.218 162.315 308.443 167.142 313.366C168.373 314.644 166.858 316.064 165.628 316.443C160.895 317.816 156.21 316.964 151.524 315.827C145.987 314.455 140.024 312.467 134.96 309.816C125.542 304.798 125.448 294.621 128.429 285.864H128.382Z" fill="url(#paint37_radial_1684_1087)"/>
<path style="mix-blend-mode:screen" d="M201.927 288.704C202.022 288.325 202.826 288.278 202.968 288.656C206.186 296.94 212.717 301.816 221.662 302.147C229.944 302.479 237.895 301.39 246.13 303.425C247.408 303.757 247.739 305.224 246.745 306.076C237.611 313.65 223.744 314.407 212.623 311.804C200.933 309.058 198.993 299.118 201.927 288.751V288.704Z" fill="url(#paint38_radial_1684_1087)"/>
<path style="mix-blend-mode:screen" d="M325.782 213.581C323.747 206.765 326.208 198.434 326.302 191.381C326.35 186.884 324.788 183.191 323.463 179.026C322.374 175.523 315.275 174.292 312.578 171.878C312.246 171.594 312.862 171.357 313.051 171.357C323.652 171.925 332.265 173.582 335.247 184.896C337.613 193.937 335.862 206.386 329.805 213.676C329 214.623 326.302 215.143 325.829 213.534L325.782 213.581Z" fill="url(#paint39_radial_1684_1087)"/>
<path style="mix-blend-mode:screen" d="M334.537 128.281C332.407 119.761 327.769 112.045 324.835 103.761C322.137 96.1399 318.588 81.655 307.703 84.7319C307.324 84.8265 306.709 84.4952 307.135 84.1165C315.417 77.2054 324.598 82.6017 328.668 90.9329C331.176 96.1399 333.212 102.01 334.3 107.69C335.531 114.033 337.944 121.323 337.329 127.808C337.234 128.991 334.821 129.512 334.489 128.234L334.537 128.281Z" fill="url(#paint40_radial_1684_1087)"/>
<path style="mix-blend-mode:screen" d="M233.826 28.1178C239.931 22.0588 249.254 22.2955 256.921 24.1416C273.627 28.0705 284.986 40.4253 295.682 52.8273C296.486 53.7741 294.688 54.2474 294.025 53.8687C289.293 51.0759 284.134 49.2298 279.259 46.6736C273.296 43.5494 267.428 40.2359 261.417 37.159C256.259 34.5082 250.201 30.7687 244.19 31.1473C240.357 31.384 236.618 32.8514 233.069 34.2715C232.075 34.6502 230.324 34.7922 229.614 35.6443C229.425 35.881 229.046 35.881 228.809 35.6443C226.774 33.3248 232.264 29.5379 233.731 28.1178H233.826Z" fill="url(#paint41_radial_1684_1087)"/>
<path style="mix-blend-mode:screen" d="M142.959 21.8219C144.19 19.5024 143.906 17.3723 145.515 15.0528C147.029 12.9227 149.206 11.2186 151.099 9.41982C155.595 5.11222 163.641 4.16549 169.509 3.7868C182.287 2.93475 196.107 5.96427 207.276 12.118C208.696 12.9227 207.276 14.4375 206.14 14.3901C195.634 14.0588 185.08 12.3073 174.621 11.1713C168.752 10.5085 161.275 11.0292 155.785 13.3487C150.91 15.3842 148.07 19.9758 143.574 22.2479C143.29 22.3899 142.723 22.2479 142.912 21.8219H142.959Z" fill="url(#paint42_radial_1684_1087)"/>
<path style="mix-blend-mode:screen" d="M90.0008 15.8103C95.538 12.9702 102.448 10.8874 108.6 9.89332C114.989 8.85192 120.858 7.62118 127.294 9.0886C128.998 9.46729 130.181 11.4554 128.099 12.4021C112.055 19.5972 91.1367 19.5499 80.6775 35.8336C80.3936 36.2596 79.589 36.3069 79.2577 35.9283C72.1114 26.7924 82.2866 19.8339 90.0008 15.905V15.8103Z" fill="url(#paint43_radial_1684_1087)"/>
<path style="mix-blend-mode:screen" d="M10.2559 135.05C7.32169 124.92 7.55832 112.66 11.865 102.956C13.5688 99.0746 14.5153 96.5184 18.2068 94.2936C22.1349 91.8795 25.8737 92.9209 29.9911 91.6428C30.2277 91.5481 30.7956 91.7848 30.559 92.0688C29.5178 93.2996 28.1453 93.8676 26.7256 94.6723C21.425 97.5598 20.2418 100.4 18.1121 105.796C14.468 114.98 16.0298 125.536 13.0955 134.955C12.8116 135.902 10.6345 136.234 10.3033 135.097L10.2559 135.05Z" fill="url(#paint44_radial_1684_1087)"/>
<path style="mix-blend-mode:screen" d="M25.0688 215.191C18.5377 207.001 13.5211 194.315 19.011 183.996C21.7559 178.884 25.542 174.434 29.7541 170.41C31.7891 168.47 34.1081 166.955 36.5218 165.582C38.6515 164.351 42.9582 163.452 44.5673 161.559C44.7092 161.417 45.0879 161.417 45.0879 161.701C44.6146 164.683 41.1598 167.144 39.2667 169.369C36.2851 172.825 34.5341 177.464 31.8838 181.203C24.5009 191.522 31.2685 202.883 29.9434 214.007C29.7068 216.043 26.3939 216.847 25.1161 215.238L25.0688 215.191Z" fill="url(#paint45_radial_1684_1087)"/>
<path style="mix-blend-mode:screen" d="M56.3989 262.574C53.228 257.367 51.6662 251.924 53.228 245.959C55.0737 238.954 62.6933 235.735 68.0885 232.09C68.4671 231.853 69.461 231.948 69.0824 232.611C66.716 236.871 62.8353 241.32 62.4567 246.338C62.0781 251.64 66.2901 257.935 69.2717 261.912C76.3706 271.332 82.4757 281.272 90.7106 289.745C91.4678 290.55 89.8114 291.118 89.1961 290.692C77.2698 282.74 63.9711 275.166 56.3042 262.527L56.3989 262.574Z" fill="url(#paint46_radial_1684_1087)"/>
<path style="mix-blend-mode:multiply" d="M156.021 104.092C155.689 106.696 154.27 111.666 150.531 109.394C149.253 108.589 148.259 107.359 147.502 105.986C148.638 107.264 150.058 108.305 151.619 108.4C156.257 108.731 156.589 98.5067 153.512 90.6016C155.642 95.0985 156.541 100.353 156.068 104.045L156.021 104.092Z" fill="url(#paint47_linear_1684_1087)"/>
<path style="mix-blend-mode:multiply" d="M132.499 155.027C132.073 155.027 131.6 155.027 131.174 155.027C132.168 154.979 133.162 154.837 134.108 154.601C136.569 154.033 139.835 153.086 140.876 150.435C141.491 148.873 141.065 147.358 140.071 146.033C140.639 146.601 141.112 147.216 141.491 147.879C144.567 153.275 136.096 155.027 132.499 155.027Z" fill="url(#paint48_linear_1684_1087)"/>
<path style="mix-blend-mode:multiply" d="M106.802 156.825C106.186 159.807 102.022 161.653 98.6143 161.417C99.9867 161.038 101.265 160.423 102.258 159.855C103.442 159.145 104.956 158.103 105.003 156.588C105.051 155.5 104.151 154.6 103.205 154.174C102.826 154.032 102.4 153.89 101.974 153.796C104.767 153.512 107.322 154.127 106.802 156.825Z" fill="url(#paint49_linear_1684_1087)"/>
<path style="mix-blend-mode:multiply" d="M155.831 183.239C156.257 183.049 156.73 182.86 157.156 182.671C159.002 181.724 161.321 179.783 161.558 177.558C161.794 175.334 159.901 173.961 157.535 173.109C160.185 173.488 162.93 174.434 163.451 176.801C164.255 180.162 159.523 182.245 155.831 183.192V183.239Z" fill="url(#paint50_linear_1684_1087)"/>
<path style="mix-blend-mode:multiply" d="M193.503 126.767C191.137 132.069 184.653 133.583 182.287 127.193C182.003 126.388 181.814 125.631 181.672 124.826C182.098 125.631 182.571 126.436 183.092 127.098C184.511 129.039 186.594 131.074 189.197 130.601C191.658 130.128 193.267 127.098 193.74 124.921C194.639 120.897 194.308 116.353 193.22 112.377C193.22 112.187 193.125 112.045 193.078 111.856C195.207 116.542 195.397 122.649 193.551 126.767H193.503Z" fill="url(#paint51_linear_1684_1087)"/>
<path style="mix-blend-mode:multiply" d="M229.425 144.376C231.034 141.772 233.731 134.719 232.595 130.317C235.151 134.246 231.933 141.015 229.756 144.802C227.863 148.068 223.556 153.086 219.628 152.849C223.603 151.666 227.815 146.932 229.425 144.376Z" fill="url(#paint52_linear_1684_1087)"/>
<path style="mix-blend-mode:multiply" d="M238.132 187.641C242.202 186.174 247.739 182.765 247.645 177.7C247.645 176.47 247.219 175.665 246.651 175.144C246.556 175.002 246.462 174.86 246.367 174.718C247.881 175.334 248.828 176.848 248.118 179.357C247.503 181.629 246.367 183.097 244.521 184.47C242.865 185.7 239.883 187.594 237.375 187.83C237.659 187.736 237.896 187.688 238.132 187.594V187.641Z" fill="url(#paint53_linear_1684_1087)"/>
<path style="mix-blend-mode:multiply" d="M206.613 228.918C209.452 226.315 211.203 222.291 210.777 218.457C211.487 220.445 211.724 222.67 211.109 224.705C210.257 227.64 208.222 231.806 204.625 231.853C202.211 231.901 200.507 231.096 199.324 229.77C201.312 231.238 203.915 231.38 206.613 228.918Z" fill="url(#paint54_linear_1684_1087)"/>
<path style="mix-blend-mode:multiply" d="M171.402 214.623C174.289 212.398 181.151 206.481 177.744 202.173C177.081 201.369 176.324 200.801 175.425 200.469C176.75 200.469 177.933 200.753 178.785 201.653C181.577 204.445 178.832 209.463 176.987 212.067C174.81 215.143 171.781 218.315 167.853 218.978C165.013 219.451 161.605 218.978 159.76 216.942C163.12 219.593 168.184 217.084 171.402 214.67V214.623Z" fill="url(#paint55_linear_1684_1087)"/>
<path style="mix-blend-mode:multiply" d="M188.675 232.895C189.622 231.238 190.9 228.303 190.095 226.315C191.136 227.877 191.61 229.912 191.231 231.711C190.474 235.119 185.41 238.954 183.186 236.398C185.173 237.108 187.824 234.457 188.675 232.895Z" fill="url(#paint56_linear_1684_1087)"/>
<path style="mix-blend-mode:multiply" d="M240.83 262.338C245.894 259.403 245.941 249.557 244.285 244.729C244.19 244.445 244.048 244.16 243.954 243.876C245.847 247.285 246.509 251.498 246.083 255.332C245.752 258.645 242.487 266.835 237.849 263C238.795 263.095 239.836 262.953 240.878 262.338H240.83Z" fill="url(#paint57_linear_1684_1087)"/>
<path style="mix-blend-mode:multiply" d="M272.633 258.409C272.633 258.409 272.349 258.125 272.207 257.983C276.656 259.214 281.246 267.829 279.164 271.237C277.46 274.03 275.189 272.941 273.296 270.716C273.627 270.858 273.958 270.953 274.337 271.048C278.265 272.042 278.927 268.018 277.981 265.083C277.129 262.338 275.283 259.498 272.633 258.409Z" fill="url(#paint58_linear_1684_1087)"/>
<path style="mix-blend-mode:multiply" d="M302.307 247.521C303.443 244.255 300.461 240.894 297.716 238.764C299.893 240.042 301.786 241.699 302.827 243.45C304.011 245.439 304.579 248.373 302.07 249.794C300.177 250.835 298.237 251.024 296.154 250.551C295.587 250.456 295.066 250.314 294.498 250.172C295.397 250.22 296.296 250.267 297.196 250.172C298.994 249.983 301.55 249.509 302.26 247.521H302.307Z" fill="url(#paint59_linear_1684_1087)"/>
<path style="mix-blend-mode:multiply" d="M267.711 212.729C267.711 212.729 268.137 213.013 268.421 213.061C269.888 213.487 272.065 213.25 273.343 212.303C274.195 211.641 274.479 210.552 274.1 209.747C274.431 209.842 274.715 209.936 274.952 210.173C275.472 210.694 274.905 211.546 274.526 211.972C273.343 213.345 267.995 215.143 267.711 212.777V212.729Z" fill="url(#paint60_linear_1684_1087)"/>
<path style="mix-blend-mode:multiply" d="M216.22 165.866C217.261 164.588 219.485 160.044 218.207 158.15C218.68 158.34 219.012 158.813 219.106 159.618C219.248 161.227 218.775 162.931 217.971 164.399C217.071 166.103 215.557 167.854 213.711 168.564C212.765 168.896 211.203 168.99 210.304 168.422C212.528 168.754 214.894 167.57 216.267 165.866H216.22Z" fill="url(#paint61_linear_1684_1087)"/>
<path style="mix-blend-mode:multiply" d="M61.2731 105.229C60.0426 105.702 58.7648 105.986 57.4396 106.223C59.5693 105.371 62.0303 104.093 62.5509 101.821C63.7814 96.5664 55.026 93.4422 51.3819 92.4954C51.0033 92.4008 50.5773 92.3061 50.1514 92.2114C53.7482 92.5428 57.3923 93.8209 59.8533 95.2409C63.7341 97.5131 67.0469 103.051 61.2731 105.229Z" fill="url(#paint62_linear_1684_1087)"/>
<path style="mix-blend-mode:multiply" d="M151.855 68.0697C151.003 67.3124 150.294 66.413 149.726 65.4662C150.057 65.8449 150.483 66.1763 150.861 66.413C152.991 67.6911 154.458 66.555 155.073 64.8509C155.073 64.8035 155.121 64.7089 155.168 64.6615C155.452 63.7621 155.547 62.7681 155.405 61.916C155.215 60.7326 154.884 59.2652 154.364 57.8451C154.032 56.5197 153.512 55.289 152.802 54.2476C155.168 57.0404 156.351 62.8154 156.351 65.0876C156.351 67.4544 154.458 70.4366 151.808 68.1644L151.855 68.0697Z" fill="url(#paint63_linear_1684_1087)"/>
</g>
<defs>
<filter id="filter0_d_1684_1087" x="0" y="0" width="350.32" height="330.677" filterUnits="userSpaceOnUse" color-interpolation-filters="sRGB">
<feFlood flood-opacity="0" result="BackgroundImageFix"/>
<feColorMatrix in="SourceAlpha" type="matrix" values="0 0 0 0 0 0 0 0 0 0 0 0 0 0 0 0 0 0 127 0" result="hardAlpha"/>
<feOffset dy="4"/>
<feGaussianBlur stdDeviation="2"/>
<feComposite in2="hardAlpha" operator="out"/>
<feColorMatrix type="matrix" values="0 0 0 0 0 0 0 0 0 0 0 0 0 0 0 0 0 0 0.25 0"/>
<feBlend mode="normal" in2="BackgroundImageFix" result="effect1_dropShadow_1684_1087"/>
<feBlend mode="normal" in="SourceGraphic" in2="effect1_dropShadow_1684_1087" result="shape"/>
</filter>
<linearGradient id="paint0_linear_1684_1087" x1="321.568" y1="26.881" x2="48.8735" y2="322.212" gradientUnits="userSpaceOnUse">
<stop stop-color="#9BC439"/>
<stop offset="0.41" stop-color="#63A71F"/>
<stop offset="0.73" stop-color="#006D20"/>
<stop offset="0.87" stop-color="#272F1B"/>
</linearGradient>
<linearGradient id="paint1_linear_1684_1087" x1="3.19368" y1="369.142" x2="278.063" y2="76.8991" gradientUnits="userSpaceOnUse">
<stop stop-color="#9BC439"/>
<stop offset="0.41" stop-color="#63A71F"/>
<stop offset="0.73" stop-color="#006D20"/>
<stop offset="0.87" stop-color="#272F1B"/>
</linearGradient>
<linearGradient id="paint2_linear_1684_1087" x1="327.083" y1="32.1271" x2="54.4921" y2="327.554" gradientUnits="userSpaceOnUse">
<stop stop-color="#9BC439"/>
<stop offset="0.41" stop-color="#63A71F"/>
<stop offset="0.73" stop-color="#006D20"/>
<stop offset="0.87" stop-color="#272F1B"/>
</linearGradient>
<linearGradient id="paint3_linear_1684_1087" x1="370.643" y1="72.2932" x2="98.0214" y2="367.756" gradientUnits="userSpaceOnUse">
<stop stop-color="#9BC439"/>
<stop offset="0.41" stop-color="#63A71F"/>
<stop offset="0.73" stop-color="#006D20"/>
<stop offset="0.87" stop-color="#272F1B"/>
</linearGradient>
<linearGradient id="paint4_linear_1684_1087" x1="405.982" y1="104.87" x2="133.361" y2="400.333" gradientUnits="userSpaceOnUse">
<stop stop-color="#9BC439"/>
<stop offset="0.41" stop-color="#63A71F"/>
<stop offset="0.73" stop-color="#006D20"/>
<stop offset="0.87" stop-color="#272F1B"/>
</linearGradient>
<linearGradient id="paint5_linear_1684_1087" x1="425.225" y1="122.673" x2="152.634" y2="418.1" gradientUnits="userSpaceOnUse">
<stop stop-color="#9BC439"/>
<stop offset="0.41" stop-color="#63A71F"/>
<stop offset="0.73" stop-color="#006D20"/>
<stop offset="0.87" stop-color="#272F1B"/>
</linearGradient>
<linearGradient id="paint6_linear_1684_1087" x1="374.622" y1="75.9493" x2="102" y2="371.412" gradientUnits="userSpaceOnUse">
<stop stop-color="#9BC439"/>
<stop offset="0.41" stop-color="#63A71F"/>
<stop offset="0.73" stop-color="#006D20"/>
<stop offset="0.87" stop-color="#272F1B"/>
</linearGradient>
<linearGradient id="paint7_linear_1684_1087" x1="328.672" y1="33.6229" x2="56.1109" y2="329.013" gradientUnits="userSpaceOnUse">
<stop stop-color="#9BC439"/>
<stop offset="0.41" stop-color="#63A71F"/>
<stop offset="0.73" stop-color="#006D20"/>
<stop offset="0.87" stop-color="#272F1B"/>
</linearGradient>
<linearGradient id="paint8_linear_1684_1087" x1="282.12" y1="-9.38491" x2="9.52856" y2="286.042" gradientUnits="userSpaceOnUse">
<stop stop-color="#9BC439"/>
<stop offset="0.41" stop-color="#63A71F"/>
<stop offset="0.73" stop-color="#006D20"/>
<stop offset="0.87" stop-color="#272F1B"/>
</linearGradient>
<linearGradient id="paint9_linear_1684_1087" x1="238.445" y1="-49.7086" x2="-34.1766" y2="245.755" gradientUnits="userSpaceOnUse">
<stop stop-color="#9BC439"/>
<stop offset="0.41" stop-color="#63A71F"/>
<stop offset="0.73" stop-color="#006D20"/>
<stop offset="0.87" stop-color="#272F1B"/>
</linearGradient>
<linearGradient id="paint10_linear_1684_1087" x1="228.025" y1="-59.2398" x2="-44.5" y2="236.181" gradientUnits="userSpaceOnUse">
<stop stop-color="#9BC439"/>
<stop offset="0.41" stop-color="#63A71F"/>
<stop offset="0.73" stop-color="#006D20"/>
<stop offset="0.87" stop-color="#272F1B"/>
</linearGradient>
<linearGradient id="paint11_linear_1684_1087" x1="286.086" y1="-5.86239" x2="13.3142" y2="289.785" gradientUnits="userSpaceOnUse">
<stop stop-color="#9BC439"/>
<stop offset="0.41" stop-color="#63A71F"/>
<stop offset="0.73" stop-color="#006D20"/>
<stop offset="0.87" stop-color="#272F1B"/>
</linearGradient>
<linearGradient id="paint12_linear_1684_1087" x1="274.454" y1="-16.4556" x2="1.83304" y2="279.008" gradientUnits="userSpaceOnUse">
<stop stop-color="#9BC439"/>
<stop offset="0.41" stop-color="#63A71F"/>
<stop offset="0.73" stop-color="#006D20"/>
<stop offset="0.87" stop-color="#272F1B"/>
</linearGradient>
<linearGradient id="paint13_linear_1684_1087" x1="230.196" y1="-57.2613" x2="-42.3952" y2="238.165" gradientUnits="userSpaceOnUse">
<stop stop-color="#9BC439"/>
<stop offset="0.41" stop-color="#63A71F"/>
<stop offset="0.73" stop-color="#006D20"/>
<stop offset="0.87" stop-color="#272F1B"/>
</linearGradient>
<linearGradient id="paint14_linear_1684_1087" x1="51.1652" y1="52.6183" x2="543.495" y2="455.298" gradientUnits="userSpaceOnUse">
<stop stop-color="#F1EEC2"/>
<stop offset="0.22" stop-color="#CADA95"/>
<stop offset="0.55" stop-color="#92BE55"/>
<stop offset="0.8" stop-color="#70AD2E"/>
<stop offset="0.92" stop-color="#63A71F"/>
<stop offset="0.94" stop-color="#78B138"/>
<stop offset="0.98" stop-color="#B0CD78"/>
<stop offset="1" stop-color="#D5E0A2"/>
</linearGradient>
<linearGradient id="paint15_linear_1684_1087" x1="51.1652" y1="52.6183" x2="543.495" y2="455.298" gradientUnits="userSpaceOnUse">
<stop stop-color="#F1EEC2"/>
<stop offset="0.22" stop-color="#CADA95"/>
<stop offset="0.55" stop-color="#92BE55"/>
<stop offset="0.8" stop-color="#70AD2E"/>
<stop offset="0.92" stop-color="#63A71F"/>
<stop offset="0.94" stop-color="#78B138"/>
<stop offset="0.98" stop-color="#B0CD78"/>
<stop offset="1" stop-color="#D5E0A2"/>
</linearGradient>
<linearGradient id="paint16_linear_1684_1087" x1="57.7323" y1="44.5982" x2="549.959" y2="447.255" gradientUnits="userSpaceOnUse">
<stop stop-color="#F1EEC2"/>
<stop offset="0.22" stop-color="#CADA95"/>
<stop offset="0.55" stop-color="#92BE55"/>
<stop offset="0.8" stop-color="#70AD2E"/>
<stop offset="0.92" stop-color="#63A71F"/>
<stop offset="0.94" stop-color="#78B138"/>
<stop offset="0.98" stop-color="#B0CD78"/>
<stop offset="1" stop-color="#D5E0A2"/>
</linearGradient>
<linearGradient id="paint17_linear_1684_1087" x1="56.58" y1="45.918" x2="549.055" y2="448.72" gradientUnits="userSpaceOnUse">
<stop stop-color="#F1EEC2"/>
<stop offset="0.22" stop-color="#CADA95"/>
<stop offset="0.55" stop-color="#92BE55"/>
<stop offset="0.8" stop-color="#70AD2E"/>
<stop offset="0.92" stop-color="#63A71F"/>
<stop offset="0.94" stop-color="#78B138"/>
<stop offset="0.98" stop-color="#B0CD78"/>
<stop offset="1" stop-color="#D5E0A2"/>
</linearGradient>
<linearGradient id="paint18_linear_1684_1087" x1="43.9042" y1="61.4774" x2="536.27" y2="464.188" gradientUnits="userSpaceOnUse">
<stop stop-color="#F1EEC2"/>
<stop offset="0.22" stop-color="#CADA95"/>
<stop offset="0.55" stop-color="#92BE55"/>
<stop offset="0.8" stop-color="#70AD2E"/>
<stop offset="0.92" stop-color="#63A71F"/>
<stop offset="0.94" stop-color="#78B138"/>
<stop offset="0.98" stop-color="#B0CD78"/>
<stop offset="1" stop-color="#D5E0A2"/>
</linearGradient>
<linearGradient id="paint19_linear_1684_1087" x1="52.9489" y1="50.1628" x2="545.607" y2="453.114" gradientUnits="userSpaceOnUse">
<stop stop-color="#F1EEC2"/>
<stop offset="0.22" stop-color="#CADA95"/>
<stop offset="0.55" stop-color="#92BE55"/>
<stop offset="0.8" stop-color="#70AD2E"/>
<stop offset="0.92" stop-color="#63A71F"/>
<stop offset="0.94" stop-color="#78B138"/>
<stop offset="0.98" stop-color="#B0CD78"/>
<stop offset="1" stop-color="#D5E0A2"/>
</linearGradient>
<linearGradient id="paint20_linear_1684_1087" x1="42.084" y1="63.9026" x2="534.158" y2="466.371" gradientUnits="userSpaceOnUse">
<stop stop-color="#F1EEC2"/>
<stop offset="0.22" stop-color="#CADA95"/>
<stop offset="0.55" stop-color="#92BE55"/>
<stop offset="0.8" stop-color="#70AD2E"/>
<stop offset="0.92" stop-color="#63A71F"/>
<stop offset="0.94" stop-color="#78B138"/>
<stop offset="0.98" stop-color="#B0CD78"/>
<stop offset="1" stop-color="#D5E0A2"/>
</linearGradient>
<linearGradient id="paint21_linear_1684_1087" x1="41.0221" y1="65.1133" x2="533.205" y2="467.673" gradientUnits="userSpaceOnUse">
<stop stop-color="#F1EEC2"/>
<stop offset="0.22" stop-color="#CADA95"/>
<stop offset="0.55" stop-color="#92BE55"/>
<stop offset="0.8" stop-color="#70AD2E"/>
<stop offset="0.92" stop-color="#63A71F"/>
<stop offset="0.94" stop-color="#78B138"/>
<stop offset="0.98" stop-color="#B0CD78"/>
<stop offset="1" stop-color="#D5E0A2"/>
</linearGradient>
<linearGradient id="paint22_linear_1684_1087" x1="50.8938" y1="52.9465" x2="543.223" y2="455.627" gradientUnits="userSpaceOnUse">
<stop stop-color="#F1EEC2"/>
<stop offset="0.22" stop-color="#CADA95"/>
<stop offset="0.55" stop-color="#92BE55"/>
<stop offset="0.8" stop-color="#70AD2E"/>
<stop offset="0.92" stop-color="#63A71F"/>
<stop offset="0.94" stop-color="#78B138"/>
<stop offset="0.98" stop-color="#B0CD78"/>
<stop offset="1" stop-color="#D5E0A2"/>
</linearGradient>
<linearGradient id="paint23_linear_1684_1087" x1="43.2038" y1="62.2498" x2="535.716" y2="465.081" gradientUnits="userSpaceOnUse">
<stop stop-color="#F1EEC2"/>
<stop offset="0.22" stop-color="#CADA95"/>
<stop offset="0.55" stop-color="#92BE55"/>
<stop offset="0.8" stop-color="#70AD2E"/>
<stop offset="0.92" stop-color="#63A71F"/>
<stop offset="0.94" stop-color="#78B138"/>
<stop offset="0.98" stop-color="#B0CD78"/>
<stop offset="1" stop-color="#D5E0A2"/>
</linearGradient>
<linearGradient id="paint24_linear_1684_1087" x1="57.2683" y1="45.3817" x2="549.269" y2="447.791" gradientUnits="userSpaceOnUse">
<stop stop-color="#F1EEC2"/>
<stop offset="0.22" stop-color="#CADA95"/>
<stop offset="0.55" stop-color="#92BE55"/>
<stop offset="0.8" stop-color="#70AD2E"/>
<stop offset="0.92" stop-color="#63A71F"/>
<stop offset="0.94" stop-color="#78B138"/>
<stop offset="0.98" stop-color="#B0CD78"/>
<stop offset="1" stop-color="#D5E0A2"/>
</linearGradient>
<linearGradient id="paint25_linear_1684_1087" x1="45.9548" y1="58.9965" x2="538.284" y2="461.676" gradientUnits="userSpaceOnUse">
<stop stop-color="#F1EEC2"/>
<stop offset="0.22" stop-color="#CADA95"/>
<stop offset="0.55" stop-color="#92BE55"/>
<stop offset="0.8" stop-color="#70AD2E"/>
<stop offset="0.92" stop-color="#63A71F"/>
<stop offset="0.94" stop-color="#78B138"/>
<stop offset="0.98" stop-color="#B0CD78"/>
<stop offset="1" stop-color="#D5E0A2"/>
</linearGradient>
<linearGradient id="paint26_linear_1684_1087" x1="301.783" y1="181.782" x2="263.387" y2="228.218" gradientUnits="userSpaceOnUse">
<stop stop-color="#F1EEC2"/>
<stop offset="0.22" stop-color="#CADA95"/>
<stop offset="0.55" stop-color="#92BE55"/>
<stop offset="0.8" stop-color="#70AD2E"/>
<stop offset="0.92" stop-color="#63A71F"/>
<stop offset="0.94" stop-color="#78B138"/>
<stop offset="0.98" stop-color="#B0CD78"/>
<stop offset="1" stop-color="#D5E0A2"/>
</linearGradient>
<linearGradient id="paint27_linear_1684_1087" x1="304.235" y1="105.933" x2="233.355" y2="191.655" gradientUnits="userSpaceOnUse">
<stop stop-color="#F1EEC2"/>
<stop offset="0.22" stop-color="#CADA95"/>
<stop offset="0.55" stop-color="#92BE55"/>
<stop offset="0.8" stop-color="#70AD2E"/>
<stop offset="0.92" stop-color="#63A71F"/>
<stop offset="0.94" stop-color="#78B138"/>
<stop offset="0.98" stop-color="#B0CD78"/>
<stop offset="1" stop-color="#D5E0A2"/>
</linearGradient>
<linearGradient id="paint28_linear_1684_1087" x1="256.616" y1="68.1556" x2="189.989" y2="148.735" gradientUnits="userSpaceOnUse">
<stop stop-color="#F1EEC2"/>
<stop offset="0.22" stop-color="#CADA95"/>
<stop offset="0.55" stop-color="#92BE55"/>
<stop offset="0.8" stop-color="#70AD2E"/>
<stop offset="0.92" stop-color="#63A71F"/>
<stop offset="0.94" stop-color="#78B138"/>
<stop offset="0.98" stop-color="#B0CD78"/>
<stop offset="1" stop-color="#D5E0A2"/>
</linearGradient>
<linearGradient id="paint29_linear_1684_1087" x1="190.809" y1="54.093" x2="146.018" y2="108.262" gradientUnits="userSpaceOnUse">
<stop stop-color="#F1EEC2"/>
<stop offset="0.22" stop-color="#CADA95"/>
<stop offset="0.55" stop-color="#92BE55"/>
<stop offset="0.8" stop-color="#70AD2E"/>
<stop offset="0.92" stop-color="#63A71F"/>
<stop offset="0.94" stop-color="#78B138"/>
<stop offset="0.98" stop-color="#B0CD78"/>
<stop offset="1" stop-color="#D5E0A2"/>
</linearGradient>
<linearGradient id="paint30_linear_1684_1087" x1="139.002" y1="59.7154" x2="109.625" y2="95.2446" gradientUnits="userSpaceOnUse">
<stop stop-color="#F1EEC2"/>
<stop offset="0.22" stop-color="#CADA95"/>
<stop offset="0.55" stop-color="#92BE55"/>
<stop offset="0.8" stop-color="#70AD2E"/>
<stop offset="0.92" stop-color="#63A71F"/>
<stop offset="0.94" stop-color="#78B138"/>
<stop offset="0.98" stop-color="#B0CD78"/>
<stop offset="1" stop-color="#D5E0A2"/>
</linearGradient>
<linearGradient id="paint31_linear_1684_1087" x1="112.113" y1="109.708" x2="91.0905" y2="135.133" gradientUnits="userSpaceOnUse">
<stop stop-color="#F1EEC2"/>
<stop offset="0.22" stop-color="#CADA95"/>
<stop offset="0.55" stop-color="#92BE55"/>
<stop offset="0.8" stop-color="#70AD2E"/>
<stop offset="0.92" stop-color="#63A71F"/>
<stop offset="0.94" stop-color="#78B138"/>
<stop offset="0.98" stop-color="#B0CD78"/>
<stop offset="1" stop-color="#D5E0A2"/>
</linearGradient>
<linearGradient id="paint32_linear_1684_1087" x1="155.446" y1="151.557" x2="135.871" y2="175.231" gradientUnits="userSpaceOnUse">
<stop stop-color="#F1EEC2"/>
<stop offset="0.22" stop-color="#CADA95"/>
<stop offset="0.55" stop-color="#92BE55"/>
<stop offset="0.8" stop-color="#70AD2E"/>
<stop offset="0.92" stop-color="#63A71F"/>
<stop offset="0.94" stop-color="#78B138"/>
<stop offset="0.98" stop-color="#B0CD78"/>
<stop offset="1" stop-color="#D5E0A2"/>
</linearGradient>
<linearGradient id="paint33_linear_1684_1087" x1="174.036" y1="172.824" x2="129.457" y2="226.738" gradientUnits="userSpaceOnUse">
<stop stop-color="#F1EEC2"/>
<stop offset="0.22" stop-color="#CADA95"/>
<stop offset="0.55" stop-color="#92BE55"/>
<stop offset="0.8" stop-color="#70AD2E"/>
<stop offset="0.92" stop-color="#63A71F"/>
<stop offset="0.94" stop-color="#78B138"/>
<stop offset="0.98" stop-color="#B0CD78"/>
<stop offset="1" stop-color="#D5E0A2"/>
</linearGradient>
<linearGradient id="paint34_linear_1684_1087" x1="233.926" y1="213.438" x2="202.919" y2="250.937" gradientUnits="userSpaceOnUse">
<stop stop-color="#F1EEC2"/>
<stop offset="0.22" stop-color="#CADA95"/>
<stop offset="0.55" stop-color="#92BE55"/>
<stop offset="0.8" stop-color="#70AD2E"/>
<stop offset="0.92" stop-color="#63A71F"/>
<stop offset="0.94" stop-color="#78B138"/>
<stop offset="0.98" stop-color="#B0CD78"/>
<stop offset="1" stop-color="#D5E0A2"/>
</linearGradient>
<linearGradient id="paint35_linear_1684_1087" x1="205.901" y1="189.099" x2="165.846" y2="237.542" gradientUnits="userSpaceOnUse">
<stop stop-color="#F1EEC2"/>
<stop offset="0.22" stop-color="#CADA95"/>
<stop offset="0.55" stop-color="#92BE55"/>
<stop offset="0.8" stop-color="#70AD2E"/>
<stop offset="0.92" stop-color="#63A71F"/>
<stop offset="0.94" stop-color="#78B138"/>
<stop offset="0.98" stop-color="#B0CD78"/>
<stop offset="1" stop-color="#D5E0A2"/>
</linearGradient>
<radialGradient id="paint36_radial_1684_1087" cx="0" cy="0" r="1" gradientUnits="userSpaceOnUse" gradientTransform="translate(335.998 275.883) rotate(129.574) scale(45.5143 45.5125)">
<stop stop-color="#E6FBB7"/>
<stop offset="0.57" stop-color="#006839"/>
<stop offset="0.59" stop-color="#00552F"/>
<stop offset="0.61" stop-color="#003B20"/>
<stop offset="0.64" stop-color="#002514"/>
<stop offset="0.67" stop-color="#00140B"/>
<stop offset="0.72" stop-color="#000804"/>
<stop offset="0.77" stop-color="#000101"/>
<stop offset="0.93"/>
</radialGradient>
<radialGradient id="paint37_radial_1684_1087" cx="0" cy="0" r="1" gradientUnits="userSpaceOnUse" gradientTransform="translate(128.017 371.103) rotate(129.574) scale(66.2884 66.2858)">
<stop stop-color="#E6FBB7"/>
<stop offset="0.57" stop-color="#006839"/>
<stop offset="0.59" stop-color="#00552F"/>
<stop offset="0.61" stop-color="#003B20"/>
<stop offset="0.64" stop-color="#002514"/>
<stop offset="0.67" stop-color="#00140B"/>
<stop offset="0.72" stop-color="#000804"/>
<stop offset="0.77" stop-color="#000101"/>
<stop offset="0.93"/>
</radialGradient>
<radialGradient id="paint38_radial_1684_1087" cx="0" cy="0" r="1" gradientUnits="userSpaceOnUse" gradientTransform="translate(221.339 361.844) rotate(129.574) scale(44.4441 44.4423)">
<stop stop-color="#E6FBB7"/>
<stop offset="0.57" stop-color="#006839"/>
<stop offset="0.59" stop-color="#00552F"/>
<stop offset="0.61" stop-color="#003B20"/>
<stop offset="0.64" stop-color="#002514"/>
<stop offset="0.67" stop-color="#00140B"/>
<stop offset="0.72" stop-color="#000804"/>
<stop offset="0.77" stop-color="#000101"/>
<stop offset="0.93"/>
</radialGradient>
<radialGradient id="paint39_radial_1684_1087" cx="0" cy="0" r="1" gradientUnits="userSpaceOnUse" gradientTransform="translate(345.909 215.871) rotate(129.574) scale(33.2386 33.2373)">
<stop stop-color="#E6FBB7"/>
<stop offset="0.57" stop-color="#006839"/>
<stop offset="0.59" stop-color="#00552F"/>
<stop offset="0.61" stop-color="#003B20"/>
<stop offset="0.64" stop-color="#002514"/>
<stop offset="0.67" stop-color="#00140B"/>
<stop offset="0.72" stop-color="#000804"/>
<stop offset="0.77" stop-color="#000101"/>
<stop offset="0.93"/>
</radialGradient>
<radialGradient id="paint40_radial_1684_1087" cx="0" cy="0" r="1" gradientUnits="userSpaceOnUse" gradientTransform="translate(343.878 123.766) rotate(129.574) scale(39.9115 39.91)">
<stop stop-color="#E6FBB7"/>
<stop offset="0.57" stop-color="#006839"/>
<stop offset="0.59" stop-color="#00552F"/>
<stop offset="0.61" stop-color="#003B20"/>
<stop offset="0.64" stop-color="#002514"/>
<stop offset="0.67" stop-color="#00140B"/>
<stop offset="0.72" stop-color="#000804"/>
<stop offset="0.77" stop-color="#000101"/>
<stop offset="0.93"/>
</radialGradient>
<radialGradient id="paint41_radial_1684_1087" cx="0" cy="0" r="1" gradientUnits="userSpaceOnUse" gradientTransform="translate(272.589 28.3078) rotate(129.574) scale(61.3152 61.3128)">
<stop stop-color="#E6FBB7"/>
<stop offset="0.57" stop-color="#006839"/>
<stop offset="0.59" stop-color="#00552F"/>
<stop offset="0.61" stop-color="#003B20"/>
<stop offset="0.64" stop-color="#002514"/>
<stop offset="0.67" stop-color="#00140B"/>
<stop offset="0.72" stop-color="#000804"/>
<stop offset="0.77" stop-color="#000101"/>
<stop offset="0.93"/>
</radialGradient>
<radialGradient id="paint42_radial_1684_1087" cx="0" cy="0" r="1" gradientUnits="userSpaceOnUse" gradientTransform="translate(169.859 2.01446) rotate(129.574) scale(63.7074 63.7049)">
<stop stop-color="#E6FBB7"/>
<stop offset="0.57" stop-color="#006839"/>
<stop offset="0.59" stop-color="#00552F"/>
<stop offset="0.61" stop-color="#003B20"/>
<stop offset="0.64" stop-color="#002514"/>
<stop offset="0.67" stop-color="#00140B"/>
<stop offset="0.72" stop-color="#000804"/>
<stop offset="0.77" stop-color="#000101"/>
<stop offset="0.93"/>
</radialGradient>
<radialGradient id="paint43_radial_1684_1087" cx="0" cy="0" r="1" gradientUnits="userSpaceOnUse" gradientTransform="translate(78.3343 25.5017) rotate(129.574) scale(51.1799 51.1779)">
<stop stop-color="#E6FBB7"/>
<stop offset="0.57" stop-color="#006839"/>
<stop offset="0.59" stop-color="#00552F"/>
<stop offset="0.61" stop-color="#003B20"/>
<stop offset="0.64" stop-color="#002514"/>
<stop offset="0.67" stop-color="#00140B"/>
<stop offset="0.72" stop-color="#000804"/>
<stop offset="0.77" stop-color="#000101"/>
<stop offset="0.93"/>
</radialGradient>
<radialGradient id="paint44_radial_1684_1087" cx="0" cy="0" r="1" gradientUnits="userSpaceOnUse" gradientTransform="translate(-20.7161 125.186) rotate(129.574) scale(53.2573 53.2553)">
<stop stop-color="#E6FBB7"/>
<stop offset="0.57" stop-color="#006839"/>
<stop offset="0.59" stop-color="#00552F"/>
<stop offset="0.61" stop-color="#003B20"/>
<stop offset="0.64" stop-color="#002514"/>
<stop offset="0.67" stop-color="#00140B"/>
<stop offset="0.72" stop-color="#000804"/>
<stop offset="0.77" stop-color="#000101"/>
<stop offset="0.93"/>
</radialGradient>
<radialGradient id="paint45_radial_1684_1087" cx="0" cy="0" r="1" gradientUnits="userSpaceOnUse" gradientTransform="translate(-9.14455 210.884) rotate(129.574) scale(49.5432 49.5412)">
<stop stop-color="#E6FBB7"/>
<stop offset="0.57" stop-color="#006839"/>
<stop offset="0.59" stop-color="#00552F"/>
<stop offset="0.61" stop-color="#003B20"/>
<stop offset="0.64" stop-color="#002514"/>
<stop offset="0.67" stop-color="#00140B"/>
<stop offset="0.72" stop-color="#000804"/>
<stop offset="0.77" stop-color="#000101"/>
<stop offset="0.93"/>
</radialGradient>
<radialGradient id="paint46_radial_1684_1087" cx="0" cy="0" r="1" gradientUnits="userSpaceOnUse" gradientTransform="translate(27.3581 307.722) rotate(129.574) scale(72.4577 72.4549)">
<stop stop-color="#E6FBB7"/>
<stop offset="0.57" stop-color="#006839"/>
<stop offset="0.59" stop-color="#00552F"/>
<stop offset="0.61" stop-color="#003B20"/>
<stop offset="0.64" stop-color="#002514"/>
<stop offset="0.67" stop-color="#00140B"/>
<stop offset="0.72" stop-color="#000804"/>
<stop offset="0.77" stop-color="#000101"/>
<stop offset="0.93"/>
</radialGradient>
<linearGradient id="paint47_linear_1684_1087" x1="266.874" y1="-23.3323" x2="-5.6567" y2="272.022" gradientUnits="userSpaceOnUse">
<stop stop-color="#9BC439"/>
<stop offset="0.41" stop-color="#63A71F"/>
<stop offset="0.73" stop-color="#006D20"/>
<stop offset="0.87" stop-color="#272F1B"/>
</linearGradient>
<linearGradient id="paint48_linear_1684_1087" x1="284.157" y1="-7.39326" x2="11.6262" y2="287.96" gradientUnits="userSpaceOnUse">
<stop stop-color="#9BC439"/>
<stop offset="0.41" stop-color="#63A71F"/>
<stop offset="0.73" stop-color="#006D20"/>
<stop offset="0.87" stop-color="#272F1B"/>
</linearGradient>
<linearGradient id="paint49_linear_1684_1087" x1="268.139" y1="-22.4098" x2="-4.60231" y2="273.199" gradientUnits="userSpaceOnUse">
<stop stop-color="#9BC439"/>
<stop offset="0.41" stop-color="#63A71F"/>
<stop offset="0.73" stop-color="#006D20"/>
<stop offset="0.87" stop-color="#272F1B"/>
</linearGradient>
<linearGradient id="paint50_linear_1684_1087" x1="308.473" y1="14.97" x2="35.8522" y2="310.433" gradientUnits="userSpaceOnUse">
<stop stop-color="#9BC439"/>
<stop offset="0.41" stop-color="#63A71F"/>
<stop offset="0.73" stop-color="#006D20"/>
<stop offset="0.87" stop-color="#272F1B"/>
</linearGradient>
<linearGradient id="paint51_linear_1684_1087" x1="298.083" y1="5.40217" x2="25.5223" y2="300.793" gradientUnits="userSpaceOnUse">
<stop stop-color="#9BC439"/>
<stop offset="0.41" stop-color="#63A71F"/>
<stop offset="0.73" stop-color="#006D20"/>
<stop offset="0.87" stop-color="#272F1B"/>
</linearGradient>
<linearGradient id="paint52_linear_1684_1087" x1="327.711" y1="32.7063" x2="55.0892" y2="328.169" gradientUnits="userSpaceOnUse">
<stop stop-color="#9BC439"/>
<stop offset="0.41" stop-color="#63A71F"/>
<stop offset="0.73" stop-color="#006D20"/>
<stop offset="0.87" stop-color="#272F1B"/>
</linearGradient>
<linearGradient id="paint53_linear_1684_1087" x1="356.236" y1="59.0396" x2="83.6451" y2="354.466" gradientUnits="userSpaceOnUse">
<stop stop-color="#9BC439"/>
<stop offset="0.41" stop-color="#63A71F"/>
<stop offset="0.73" stop-color="#006D20"/>
<stop offset="0.87" stop-color="#272F1B"/>
</linearGradient>
<linearGradient id="paint54_linear_1684_1087" x1="358.676" y1="61.3628" x2="86.1151" y2="356.753" gradientUnits="userSpaceOnUse">
<stop stop-color="#9BC439"/>
<stop offset="0.41" stop-color="#63A71F"/>
<stop offset="0.73" stop-color="#006D20"/>
<stop offset="0.87" stop-color="#272F1B"/>
</linearGradient>
<linearGradient id="paint55_linear_1684_1087" x1="331.891" y1="36.7129" x2="59.3963" y2="332.097" gradientUnits="userSpaceOnUse">
<stop stop-color="#9BC439"/>
<stop offset="0.41" stop-color="#63A71F"/>
<stop offset="0.73" stop-color="#006D20"/>
<stop offset="0.87" stop-color="#272F1B"/>
</linearGradient>
<linearGradient id="paint56_linear_1684_1087" x1="351.418" y1="54.6907" x2="78.8578" y2="350.081" gradientUnits="userSpaceOnUse">
<stop stop-color="#9BC439"/>
<stop offset="0.41" stop-color="#63A71F"/>
<stop offset="0.73" stop-color="#006D20"/>
<stop offset="0.87" stop-color="#272F1B"/>
</linearGradient>
<linearGradient id="paint57_linear_1684_1087" x1="391.735" y1="91.8704" x2="119.174" y2="387.26" gradientUnits="userSpaceOnUse">
<stop stop-color="#9BC439"/>
<stop offset="0.41" stop-color="#63A71F"/>
<stop offset="0.73" stop-color="#006D20"/>
<stop offset="0.87" stop-color="#272F1B"/>
</linearGradient>
<linearGradient id="paint58_linear_1684_1087" x1="414.81" y1="113.209" x2="142.31" y2="408.526" gradientUnits="userSpaceOnUse">
<stop stop-color="#9BC439"/>
<stop offset="0.41" stop-color="#63A71F"/>
<stop offset="0.73" stop-color="#006D20"/>
<stop offset="0.87" stop-color="#272F1B"/>
</linearGradient>
<linearGradient id="paint59_linear_1684_1087" x1="417.864" y1="115.977" x2="145.303" y2="411.367" gradientUnits="userSpaceOnUse">
<stop stop-color="#9BC439"/>
<stop offset="0.41" stop-color="#63A71F"/>
<stop offset="0.73" stop-color="#006D20"/>
<stop offset="0.87" stop-color="#272F1B"/>
</linearGradient>
<linearGradient id="paint60_linear_1684_1087" x1="386.374" y1="86.7662" x2="113.663" y2="382.339" gradientUnits="userSpaceOnUse">
<stop stop-color="#9BC439"/>
<stop offset="0.41" stop-color="#63A71F"/>
<stop offset="0.73" stop-color="#006D20"/>
<stop offset="0.87" stop-color="#272F1B"/>
</linearGradient>
<linearGradient id="paint61_linear_1684_1087" x1="332.298" y1="37.1109" x2="59.8635" y2="332.422" gradientUnits="userSpaceOnUse">
<stop stop-color="#9BC439"/>
<stop offset="0.41" stop-color="#63A71F"/>
<stop offset="0.73" stop-color="#006D20"/>
<stop offset="0.87" stop-color="#272F1B"/>
</linearGradient>
<linearGradient id="paint62_linear_1684_1087" x1="213.581" y1="-72.5235" x2="-58.9495" y2="222.83" gradientUnits="userSpaceOnUse">
<stop stop-color="#9BC439"/>
<stop offset="0.41" stop-color="#63A71F"/>
<stop offset="0.73" stop-color="#006D20"/>
<stop offset="0.87" stop-color="#272F1B"/>
</linearGradient>
<linearGradient id="paint63_linear_1684_1087" x1="247.71" y1="-41.0081" x2="-24.7905" y2="254.309" gradientUnits="userSpaceOnUse">
<stop stop-color="#9BC439"/>
<stop offset="0.41" stop-color="#63A71F"/>
<stop offset="0.73" stop-color="#006D20"/>
<stop offset="0.87" stop-color="#272F1B"/>
</linearGradient>
</defs>
</svg>
