<svg width="257" height="619" viewBox="0 0 257 619" fill="none" xmlns="http://www.w3.org/2000/svg">
<path d="M217.801 605.206C221.729 592.378 216.807 577.325 212.406 565.633C206.348 549.728 197.214 535.338 187.086 521.894C182.022 515.125 176.627 508.593 171.231 502.06C166.357 496.143 162.003 485.635 154.715 482.889C153.579 482.463 153.91 534.865 154.336 539.882C155.708 555.314 160.252 569.799 168.155 582.864C175.87 595.597 188.553 617.324 205.354 618.602C212.642 619.17 216.192 610.65 217.848 605.159L217.801 605.206Z" fill="url(#paint0_radial_1684_966)"/>
<path d="M246.622 523.077C263.849 509.492 235.169 486.534 226.035 479.433C214.724 470.629 201.946 463.812 189.641 456.475C169.764 444.641 150.88 431.766 133.511 416.618C132.754 415.529 132.044 414.393 131.24 413.305C129.915 411.553 126.365 412.784 127.312 415.151C140.232 446.724 156.417 478.439 179.276 503.859C194.184 520.474 223.858 540.97 246.669 523.077H246.622Z" fill="url(#paint1_radial_1684_966)"/>
<path d="M153.484 536.474C154.43 509.208 153.673 479.292 141.274 455.008C141.037 454.582 140.706 454.487 140.327 454.582C140.848 451.742 141.226 448.902 141.463 446.014C141.652 443.553 138.008 443.505 137.346 445.683C131.43 463.813 123.715 481.611 118.368 499.835C114.25 513.894 115.102 528.521 116.143 542.769C116.995 554.698 119.456 580.686 135.784 580.638C153.105 580.544 153.153 546.935 153.531 536.474H153.484Z" fill="url(#paint2_radial_1684_966)"/>
<path d="M124.709 505.658C136.824 470.629 134.552 438.298 127.737 402.986C127.595 402.323 126.98 402.133 126.412 402.228C126.412 397.684 126.034 393.092 125.087 388.311C124.756 386.797 122.626 387.412 122.484 388.785C120.355 412.453 114.723 432.05 103.838 453.493C97.4958 465.943 91.722 478.392 87.6993 491.694C83.6765 504.948 72.8861 538.841 90.5862 546.178C109.611 554.036 120.686 517.35 124.756 505.61L124.709 505.658Z" fill="url(#paint3_radial_1684_966)"/>
<path d="M253.816 451.41C255.898 450.748 256.845 448.239 255.756 446.44C243.025 425.47 216.333 414.488 195.51 403.412C181.927 396.216 167.918 390.063 154.099 383.388C141.557 377.329 130.578 368.667 119.409 360.525C119.219 360.146 119.03 359.815 118.888 359.436C118.509 358.726 117.752 358.584 117.042 358.773C116.758 358.537 116.474 358.347 116.143 358.111C115.386 357.543 114.392 358.537 115.102 359.247C115.291 359.483 115.528 359.673 115.717 359.862C115.623 360.146 115.575 360.478 115.717 360.856C121.68 375.246 124.757 389.258 133.323 402.465C141.557 415.151 153.01 426.228 165.457 434.748C191.156 452.263 222.438 461.304 253.769 451.363L253.816 451.41Z" fill="url(#paint4_radial_1684_966)"/>
<path d="M219.03 396.643C220.639 396.027 221.822 394.276 221.254 392.572C203.602 339.839 135.404 337.046 108.002 292.55C107.34 291.414 105.21 292.314 105.778 293.592C106.819 295.959 108.002 298.231 109.28 300.408C112.309 314.136 111.315 327.958 117.609 340.833C123.525 352.999 132.186 362.561 142.456 371.223C162.854 388.359 190.776 407.388 219.077 396.595L219.03 396.643Z" fill="url(#paint5_radial_1684_966)"/>
<path d="M91.3913 377.566C118.935 350.205 117.421 316.029 105.968 283.509C107.198 280.432 108.192 277.166 108.855 273.757C109.328 271.343 105.921 269.829 104.69 272.243C104.122 273.426 103.507 274.515 102.892 275.698C102.418 275.178 101.425 275.32 101.567 276.124C101.661 276.692 101.708 277.213 101.803 277.781C93.4264 293.213 83.7718 305.189 69.0532 316.313C55.9911 326.159 42.6451 335.295 30.9554 346.845C17.6093 360.051 -3.45093 396.548 23.0046 406.441C46.6678 415.293 75.6316 393.281 91.344 377.613L91.3913 377.566Z" fill="url(#paint6_radial_1684_966)"/>
<path d="M93.6153 460.073C103.175 449.091 109.564 435.884 113.918 422.251C122.295 396.075 121.207 364.833 114.723 338.372C114.676 337.378 114.628 336.384 114.534 335.342C114.486 334.727 114.108 334.348 113.634 334.064C113.492 333.543 113.398 332.975 113.256 332.407C112.783 330.751 110.274 331.271 110.274 332.975C110.274 334.727 110.274 336.478 110.274 338.182C106.488 357.401 101.992 373.306 89.3559 389.732C78.4708 403.885 67.4438 417.849 58.5464 433.376C52.252 444.263 33.7946 487.244 61.7173 483.931C74.1641 482.463 85.9484 468.878 93.568 460.073H93.6153Z" fill="url(#paint7_radial_1684_966)"/>
<path d="M187.559 329.615C210.938 320.005 186.849 286.87 178.472 277.213C155.613 250.752 120.071 238.066 99.2475 209.949C97.4491 207.487 93.8522 209.807 95.1774 212.505C96.2186 214.635 97.4017 216.623 98.6795 218.564C99.0108 219.795 99.3894 221.262 99.91 223.203C107.435 249.948 109.659 279.154 126.697 300.456C139.002 315.887 165.315 338.703 187.559 329.567V329.615Z" fill="url(#paint8_radial_1684_966)"/>
<path d="M41.0358 324.265C56.4642 316.218 70.5202 305.331 82.1625 292.408C108.855 262.87 103.459 228.978 94.8933 194.659C94.9879 193.286 95.1299 191.913 95.1773 190.493C95.1773 188.458 92.385 188.41 91.8171 190.209C85.428 209.428 77.5245 225.664 64.415 241.522C51.4476 257.237 36.0192 270.917 22.6258 286.254C15.2428 294.728 -16.7499 333.685 11.3621 334.443C21.4426 334.727 32.233 328.857 41.0358 324.265Z" fill="url(#paint9_radial_1684_966)"/>
<path d="M66.1665 233.569C76.9097 226.848 88.41 217.002 92.5747 204.647C98.1592 187.937 94.7991 167.677 93.6159 150.636C93.6159 150.021 93.1426 149.642 92.6694 149.406C93.2846 147.701 93.9472 146.092 94.4204 144.293C95.1777 141.453 91.2496 140.128 89.8298 142.589C74.0701 169.381 50.6435 185.854 27.7374 205.878C17.9882 214.398 -7.42614 240.386 12.8296 250.847C27.5955 258.468 53.7197 241.285 66.1665 233.475V233.569Z" fill="url(#paint10_radial_1684_966)"/>
<path d="M156.182 226.658C176.485 216.575 156.134 186.801 147.758 177.002C127.076 152.671 100.053 132.743 85.4287 103.584C84.8607 102.495 83.157 103.394 83.441 104.53C83.8196 105.856 84.3402 107.039 84.7661 108.317C83.8669 108.649 83.157 109.595 83.3936 110.873C86.8485 129.098 85.1447 147.559 87.9843 165.783C90.3033 180.647 97.3076 193.949 106.631 205.309C115.623 216.197 140.185 234.563 156.134 226.658H156.182Z" fill="url(#paint11_radial_1684_966)"/>
<path d="M56.275 172.553C80.3169 146.518 90.0188 115.134 87.3685 80.6258C87.3212 79.8684 86.6113 79.3951 85.9014 79.3951C85.9014 79.253 85.9014 79.1111 85.9014 78.969C85.7594 77.549 83.4877 76.5549 82.7778 78.259C77.1933 91.8918 66.8288 98.0456 57.0796 108.081C49.5546 115.844 42.645 124.222 36.1139 132.838C26.554 145.429 8.00199 167.63 12.9713 184.576C19.4077 206.54 49.3653 180.079 56.275 172.553Z" fill="url(#paint12_radial_1684_966)"/>
<path d="M154.666 145.003C154.051 126.921 142.409 113.24 129.252 102.258C116 91.1818 96.0287 88.1523 87.3679 72.4366C86.8474 70.9219 86.3268 69.3597 85.6642 67.8923C84.3864 65.0048 79.985 66.2356 80.7422 69.5018C85.8062 89.8564 87.6046 111.489 102.323 127.394C114.249 140.269 133.559 148.553 151.401 148.411C153.152 148.411 154.714 146.707 154.666 144.956V145.003Z" fill="url(#paint13_radial_1684_966)"/>
<g style="mix-blend-mode:multiply" opacity="0.6">
<path d="M207.625 618.508C198.917 615.525 191.771 606.248 186.139 596.307C180.743 588.354 176.815 579.266 172.556 570.461C165.741 556.26 158.595 541.208 160.346 524.782C160.724 521.279 164.984 518.297 167.871 521.279C174.496 528.143 178.424 536.474 182.021 545.136C178.85 536.569 176.484 527.717 176.626 518.107C176.626 515.93 178.424 513.942 180.507 513.516C177.478 509.729 174.402 505.942 171.278 502.155C166.404 496.238 162.05 485.729 154.761 482.984C154.004 482.7 153.862 506.557 154.004 523.646C154.714 529.894 154.856 536.853 154.761 543.574C156.512 557.633 160.866 570.935 168.155 583.005C175.869 595.739 188.552 617.466 205.353 618.744C206.158 618.792 206.962 618.744 207.672 618.555L207.625 618.508Z" fill="url(#paint14_radial_1684_966)"/>
<path d="M135.736 580.591C136.256 580.591 136.635 580.449 137.108 580.402C136.777 580.023 136.446 579.597 136.256 579.124C129.299 562.556 131.192 544.474 132.47 526.722C132.896 520.663 135.215 484.167 142.645 481.28C151.117 477.966 152.111 508.829 153.767 521.563C153.767 498.605 151.495 474.889 141.32 454.961C141.084 454.535 140.752 454.44 140.374 454.535C140.847 451.837 141.273 449.138 141.462 446.393C151.779 467.031 164.037 486.865 179.323 503.859C193.143 519.243 219.646 537.988 241.605 526.344C233.844 524.876 225.23 520.048 219.314 516.876C209.234 511.48 199.248 505.279 191.06 497.232C179.134 485.493 160.913 469.966 165.599 451.032C166.167 448.618 168.675 447.245 170.994 447.671C174.023 448.286 176.957 449.233 179.844 450.369C163.611 440.239 148.088 429.21 133.653 416.618C132.896 415.53 132.186 414.394 131.382 413.305C130.956 412.737 130.293 412.5 129.631 412.5C129.11 409.329 128.542 406.157 127.927 402.938C127.785 402.275 127.17 402.086 126.602 402.181C126.602 397.637 126.223 393.045 125.277 388.264C124.945 386.749 122.816 387.364 122.674 388.737C120.544 412.405 114.912 432.003 104.027 453.446C97.6853 465.895 91.9115 478.345 87.8887 491.646C83.866 504.9 73.0755 538.793 90.7756 546.13C101.519 550.58 109.706 540.781 115.575 529.326C115.717 533.776 116.001 538.272 116.332 542.675C117.184 554.603 119.645 580.591 135.972 580.544L135.736 580.591ZM95.8396 538.983C88.6459 535.669 90.6337 525.302 92.0061 518.865C95.6976 501.634 101.093 484.167 107.34 467.647C110.7 458.748 117.231 439.671 128.589 438.156C130.151 437.967 131.571 438.961 132.423 440.144C132.66 440.428 132.754 440.807 132.896 441.139C132.565 435.648 131.997 430.156 131.287 424.618C134.127 431.198 137.156 437.73 140.326 444.215C139.238 443.837 137.723 444.31 137.345 445.635C136.73 447.482 136.067 449.28 135.452 451.126C135.83 460.215 133.133 471.197 131.618 478.013C127.974 494.676 121.822 509.965 113.303 524.592C109.801 532.119 103.648 542.533 95.8396 538.935V538.983Z" fill="url(#paint15_radial_1684_966)"/>
<path d="M93.6151 460.073C103.175 449.091 109.564 435.885 113.918 422.252C119.029 406.347 120.544 388.596 119.597 371.176C123.431 381.969 126.791 392.477 133.322 402.512C141.557 415.199 153.01 426.275 165.457 434.796C185.523 448.476 208.997 456.902 233.228 455.292C218.131 451.6 204.454 445.068 189.925 437.163C175.111 429.068 157.884 419.553 155.518 401.234C155.14 398.158 158.547 396.359 161.103 396.69C197.307 401.471 225.467 426.465 254.43 445.872C255.377 446.488 255.85 447.34 256.134 448.239C256.134 447.624 256.087 447.009 255.708 446.441C242.977 425.471 216.285 414.489 195.462 403.412C181.879 396.217 167.87 390.063 154.051 383.389C141.51 377.33 130.53 368.667 119.361 360.525C119.171 360.147 118.982 359.815 118.84 359.436C118.745 359.294 118.651 359.295 118.556 359.2C117.657 352.052 116.379 345.094 114.723 338.372C114.675 337.378 114.628 336.384 114.533 335.342C114.486 334.727 114.107 334.348 113.634 334.064C113.54 333.591 113.398 333.118 113.303 332.597C113.445 331.319 113.492 329.993 113.54 328.668C114.439 332.786 115.622 336.857 117.562 340.833C123.478 352.999 132.139 362.561 142.409 371.223C162.806 388.359 190.729 407.388 219.03 396.595C220.639 395.98 221.823 394.229 221.255 392.525C217.516 381.401 211.505 372.596 204.122 365.069C210.322 372.028 215.339 379.46 218.604 386.702C218.746 387.081 218.794 387.412 218.841 387.791C219.22 388.501 219.598 389.211 219.929 389.921C221.444 393.045 219.078 397.826 215.008 396.643C187.132 388.548 152.963 370.087 143.166 341.165C142.267 338.514 144.586 335.437 147.378 335.39C154.146 335.2 161.055 336.62 167.776 339.177C146.053 326.869 123.289 315.414 109.47 294.823C108.428 291.036 107.292 287.249 105.92 283.462C107.151 280.385 108.144 277.119 108.807 273.711C109.28 271.296 105.873 269.782 104.642 272.196C104.074 273.379 103.459 274.468 102.844 275.651C102.371 275.131 101.377 275.273 101.519 276.077C101.613 276.645 101.661 277.166 101.755 277.734C93.3785 293.166 83.7239 305.142 69.0054 316.266C55.9433 326.112 42.5972 335.248 30.9076 346.798C17.5615 360.005 -3.49878 396.501 22.9567 406.394C46.62 415.246 75.5837 393.235 91.2961 377.566C97.1646 371.744 101.613 365.638 105.021 359.247C101.708 369.803 97.0226 379.696 89.2611 389.779C78.376 403.933 67.3489 417.897 58.4516 433.423C52.1571 444.31 33.6998 487.292 61.6224 483.978C74.0693 482.511 85.8536 468.925 93.4732 460.121L93.6151 460.073ZM95.0349 369.85C88.8352 376.572 81.7835 383.483 73.7853 388.028C68.3428 391.104 60.8652 394.418 55.3753 390.158C49.2229 385.424 52.867 376.43 55.7066 370.466C58.0256 365.59 61.1492 361.425 64.7933 357.685C62.1904 357.922 59.6347 357.685 57.4104 356.502C45.0109 350.206 61.4805 332.928 66.8284 327.106C72.0343 321.426 85.8063 302.586 94.6563 307.272C99.105 309.639 98.1112 315.414 96.0761 320.479C97.6379 321.378 98.4424 323.082 98.1112 325.165C97.4013 329.709 95.5555 334.112 93.0472 338.183C96.2181 337.046 99.2943 336.715 101.566 337.946C104.69 339.603 105.447 342.869 104.926 346.608C106.867 347.508 108.239 349.307 107.576 351.626C105.589 358.442 99.8622 364.691 95.0823 369.803L95.0349 369.85ZM65.5032 470.582C65.1719 470.629 64.888 470.724 64.5567 470.724C61.7644 471.008 59.3981 468.073 60.2027 465.375C60.4393 464.618 60.6759 463.813 60.9599 463.056C59.824 452.5 72.4602 436.879 77.5241 429.968C86.3269 417.897 96.0288 398.773 112.546 397.069C114.817 396.832 117.231 398.962 117.042 401.234C114.912 427.885 95.1769 462.251 71.703 476.31C67.4909 478.818 63.6575 473.99 65.5505 470.629L65.5032 470.582Z" fill="url(#paint16_radial_1684_966)"/>
<path d="M82.1625 292.408C100.052 272.622 103.507 250.8 101.282 228.268C107.813 253.592 110.748 280.527 126.697 300.503C139.002 315.934 165.315 338.75 187.559 329.615C193.806 327.058 196.598 322.798 197.26 317.78C196.456 318.491 195.367 318.964 194.326 319.106C176.957 320.999 159.589 306.372 148.514 295.154C138.576 285.071 124.141 270.018 125.561 254.303C125.75 251.936 127.312 249.758 129.915 249.711C151.732 249.19 167.965 264.859 180.412 282.704C180.98 283.225 181.595 283.746 182.163 284.314C184.056 286.112 185.997 288.053 187.937 290.136C184.482 284.692 180.838 280.053 178.472 277.308C155.613 250.847 120.071 238.161 99.2473 210.043C98.9634 209.664 98.5848 209.428 98.2535 209.238C97.2596 204.41 96.1238 199.582 94.9406 194.754C94.9406 194.327 94.9406 193.901 95.0353 193.475C95.2719 191.771 95.4139 190.067 95.5085 188.363C98.5848 194.47 102.418 200.15 106.772 205.452C115.764 216.339 140.327 234.705 156.276 226.8C162.712 223.629 165.031 218.469 164.984 212.599C164.889 213.262 164.795 213.925 164.653 214.587C164.179 216.812 162.523 217.806 160.772 217.901C160.582 218.138 160.44 218.374 160.204 218.564C150.171 228.173 134.127 209.191 129.3 202.659C123.005 194.138 117.941 184.908 114.818 174.683C113.54 170.47 111.836 165.405 115.575 161.76C120.734 156.79 128.306 159.062 135.121 163.322C117.799 145.382 98.8687 128.483 86.9898 106.329C87.2737 103.868 87.463 101.406 87.605 98.945C90.5393 109.359 94.704 119.205 102.371 127.489C111.458 137.335 124.898 144.435 138.718 147.228C128.542 138.281 119.503 125.974 117.515 114.045C117.089 111.3 118.604 108.365 121.727 108.27C131.903 107.892 140.185 113.288 146.479 120.767C141.889 113.856 135.783 107.797 129.3 102.353C116.048 91.2765 96.0765 88.247 87.4157 72.5313C86.8951 71.0166 86.3745 69.4545 85.712 67.9871C84.4342 65.0995 80.0328 66.3303 80.79 69.5965C81.5472 72.484 82.1625 75.4189 82.8251 78.3537C77.2405 91.9865 66.876 98.1402 57.1268 108.176C49.6019 115.939 42.6922 124.317 36.1612 132.932C26.6012 145.524 8.04922 167.725 13.0185 184.671C19.4549 206.635 49.4126 180.174 56.3222 172.648C70.9934 156.79 80.2694 138.897 84.7181 119.584C85.8066 129.051 85.9486 138.518 86.4219 147.985C70.8041 171.701 49.1286 187.369 27.737 206.02C17.9878 214.54 -7.42654 240.528 12.8292 250.989C27.5951 258.61 53.7193 241.427 66.1661 233.617C68.9111 231.912 71.7033 229.972 74.4009 227.842C71.4194 232.48 68.1538 237.072 64.4151 241.569C51.4476 257.285 36.0192 270.965 22.6258 286.302C15.2428 294.775 -16.7499 333.733 11.3621 334.49C21.4426 334.774 32.233 328.904 41.0358 324.313C56.4642 316.266 70.5202 305.378 82.1625 292.456V292.408ZM66.6394 134.731C74.3063 139.559 67.4913 148.837 64.557 154.754C63.9891 155.938 63.1372 156.553 62.1907 156.885C61.6701 157.689 61.0549 158.636 60.1557 159.062C56.9848 160.577 53.7666 159.157 53.4353 155.606C53.246 153.334 54.9971 150.778 55.6123 148.648C56.7955 144.482 58.1206 140.27 60.5816 136.625C61.8594 134.731 64.5097 133.406 66.6394 134.731ZM57.4581 235.51C53.53 236.551 49.8858 234.137 49.6019 230.066C49.0813 221.688 57.5054 212.505 63.0426 206.872C65.8822 204.031 69.8576 200.197 74.1643 200.339C78.3764 200.481 80.9793 203.321 80.2221 207.582C78.9916 214.493 73.833 220.836 68.2012 225.995C68.0592 226.658 67.8226 227.321 67.302 227.984C64.8883 231.202 61.3862 234.421 57.4107 235.463L57.4581 235.51ZM56.3222 303.627C50.8324 299.556 54.9498 291.177 59.3038 284.787C57.9787 285.355 56.4642 285.213 55.2337 283.746C54.8078 283.272 54.4765 282.752 54.1925 282.231C54.1925 282.136 54.0979 282.042 54.0506 281.9C50.5484 274.941 56.8428 265.19 60.8182 259.368C65.1723 252.882 71.7033 242.232 79.7962 239.96C83.109 239.013 86.0906 241.711 85.286 245.072C83.7716 251.888 80.5061 257.995 76.578 263.675C80.0328 260.598 83.7243 258.373 87.2737 258.515C89.9714 258.61 92.527 260.93 91.5805 263.864C91.3911 264.48 91.0599 265.095 90.8706 265.711C96.881 272.385 85.8539 286.255 81.6419 291.225C76.4833 297.331 64.983 310.065 56.2749 303.627H56.3222Z" fill="url(#paint17_radial_1684_966)"/>
</g>
<path d="M174.118 522.889C135.405 433.139 119.409 339.697 108.571 242.232C103.318 195.18 99.1055 147.985 93.0004 101.028C88.883 69.2653 93.7103 34.2364 79.5123 4.88796C74.5904 -5.242 60.3451 1.95311 65.2671 12.1304C73.6912 29.4555 73.9278 49.9047 74.969 68.9812C76.0575 89.7145 78.4711 109.974 80.9794 130.566C86.7059 177.476 90.6814 224.67 96.6445 271.533C107.766 359.105 126.744 448.287 171.846 524.119C172.556 525.35 174.781 524.261 174.213 522.936L174.118 522.889Z" fill="url(#paint18_radial_1684_966)"/>
<path style="mix-blend-mode:screen" opacity="0.6" d="M86.6113 52.1298C84.7656 77.502 100.194 231.155 107.198 282.326C117.326 356.312 128.779 437.447 165.978 503.055C133.086 419.364 118.604 332.502 108.523 242.185C103.27 195.133 99.0581 147.938 92.953 100.981C89.4509 74.0465 92.3378 44.7453 84.6709 18.5684C86.6113 29.077 87.5105 39.7277 86.6113 52.0824V52.1298Z" fill="url(#paint19_radial_1684_966)"/>
<path d="M215.008 611.123C224.521 580.923 197.545 548.119 181.122 526.533C180.555 525.823 179.371 526.533 179.845 527.385C186.423 538.983 193.143 550.485 199.201 562.414C207.294 578.225 209.802 593.135 210.796 610.792C210.938 613.206 214.298 613.49 215.008 611.171V611.123Z" fill="url(#paint20_radial_1684_966)"/>
<path d="M242.647 506.226C244.777 494.913 232.992 487.623 224.852 482.416C208.95 472.239 189.783 467.552 176.579 453.351C176.295 453.067 175.822 453.493 176.011 453.777C183.252 465.754 196.03 471.529 207.531 478.771C218.889 485.966 234.885 492.167 238.34 506.415C238.813 508.451 242.221 508.356 242.647 506.226Z" fill="url(#paint21_radial_1684_966)"/>
<path d="M249.793 444.5C232.424 419.411 195.557 412.358 169.575 399.152C168.533 398.631 167.729 400.146 168.675 400.761C181.028 408.761 194.279 415.056 207.483 421.684C221.87 428.926 234.223 437.92 247.332 447.103C248.799 448.097 250.74 445.92 249.746 444.547L249.793 444.5Z" fill="url(#paint22_radial_1684_966)"/>
<path d="M215.15 386.56C213.588 375.152 202.514 367.105 193.806 360.951C181.595 352.336 167.492 346.561 154.43 339.319C153.578 338.845 152.584 340.171 153.341 340.739C161.955 347.413 171.562 352.525 180.838 358.111C194.373 366.3 202.656 375.199 212.026 387.507C212.878 388.643 215.386 388.312 215.15 386.513V386.56Z" fill="url(#paint23_radial_1684_966)"/>
<path d="M189.404 309.875C185.098 282.657 157.128 261.64 135.547 247.912C134.79 247.392 134.08 248.575 134.6 249.19C143.025 258.231 152.679 266.231 161.482 274.894C172.462 285.687 179.466 297.757 186.044 311.437C186.991 313.378 189.594 311.721 189.357 309.875H189.404Z" fill="url(#paint24_radial_1684_966)"/>
<path d="M144.255 571.598C160.536 554.367 148.657 521.516 146.622 501.966C146.574 501.351 145.722 501.398 145.675 501.966C144.634 525.066 148.467 547.077 139.901 569.278C138.907 571.787 142.552 573.349 144.255 571.55V571.598Z" fill="url(#paint25_radial_1684_966)"/>
<path d="M104.359 526.155C127.975 511.433 131.382 470.629 129.347 446.819C129.253 445.636 127.644 445.778 127.549 446.914C126.413 460.642 124 473.896 120.261 487.244C116.38 501.209 108.051 510.913 101.236 523.267C100.1 525.303 102.419 527.386 104.359 526.202V526.155Z" fill="url(#paint26_radial_1684_966)"/>
<path d="M75.5372 472.901C97.4967 456.05 104.028 427.033 114.014 402.938C114.298 402.276 113.398 401.708 112.972 402.418C99.6264 425.518 91.9122 449.991 72.7923 469.541C70.9939 471.387 73.4549 474.511 75.5846 472.901H75.5372Z" fill="url(#paint27_radial_1684_966)"/>
<path d="M66.1193 388.88C74.5434 386.797 82.447 379.27 88.836 373.59C96.1716 367.105 102.513 359.673 106.394 350.727C106.82 349.78 105.542 349.023 104.974 349.969C99.7685 358.632 92.2909 365.874 84.2927 372.028C77.9036 376.998 70.0474 380.17 63.9896 385.424C62.1912 386.986 64.2263 389.306 66.1193 388.832V388.88Z" fill="url(#paint28_radial_1684_966)"/>
<path d="M89.7353 274.373C89.7353 274.373 89.6879 274.184 89.5933 274.278C86.5171 278.255 83.3462 282.089 80.0807 285.876C76.2472 290.278 71.7512 292.976 67.3498 296.574C66.214 297.521 67.4918 299.177 68.7223 298.799C79.702 295.438 84.5293 283.272 89.7353 274.326V274.373Z" fill="url(#paint29_radial_1684_966)"/>
<defs>
<radialGradient id="paint0_radial_1684_966" cx="0" cy="0" r="1" gradientUnits="userSpaceOnUse" gradientTransform="translate(178.716 553.448) rotate(-41.4259) scale(53.2944 53.2958)">
<stop offset="0.07" stop-color="#E3F895"/>
<stop offset="0.5" stop-color="#B8E368"/>
<stop offset="1" stop-color="#89B341"/>
</radialGradient>
<radialGradient id="paint1_radial_1684_966" cx="0" cy="0" r="1" gradientUnits="userSpaceOnUse" gradientTransform="translate(185.264 469.646) rotate(-41.4259) scale(60.0627 60.0643)">
<stop offset="0.07" stop-color="#E3F895"/>
<stop offset="0.5" stop-color="#B8E368"/>
<stop offset="1" stop-color="#89B341"/>
</radialGradient>
<radialGradient id="paint2_radial_1684_966" cx="0" cy="0" r="1" gradientUnits="userSpaceOnUse" gradientTransform="translate(137.075 514.253) rotate(-41.4259) scale(50.5019 50.5032)">
<stop offset="0.07" stop-color="#E3F895"/>
<stop offset="0.5" stop-color="#B8E368"/>
<stop offset="1" stop-color="#89B341"/>
</radialGradient>
<radialGradient id="paint3_radial_1684_966" cx="0" cy="0" r="1" gradientUnits="userSpaceOnUse" gradientTransform="translate(109.386 469.627) rotate(-41.4259) scale(59.5894 59.591)">
<stop offset="0.07" stop-color="#E3F895"/>
<stop offset="0.5" stop-color="#B8E368"/>
<stop offset="1" stop-color="#89B341"/>
</radialGradient>
<radialGradient id="paint4_radial_1684_966" cx="0" cy="0" r="1" gradientUnits="userSpaceOnUse" gradientTransform="translate(180.482 408.343) rotate(-41.4259) scale(61.672 61.6736)">
<stop offset="0.25" stop-color="#B8E368"/>
<stop offset="1" stop-color="#628F23"/>
</radialGradient>
<radialGradient id="paint5_radial_1684_966" cx="0" cy="0" r="1" gradientUnits="userSpaceOnUse" gradientTransform="translate(156.583 349.767) rotate(-41.4259) scale(57.1755 57.177)">
<stop offset="0.25" stop-color="#B8E368"/>
<stop offset="1" stop-color="#628F23"/>
</radialGradient>
<radialGradient id="paint6_radial_1684_966" cx="0" cy="0" r="1" gradientUnits="userSpaceOnUse" gradientTransform="translate(71.9056 347.855) rotate(-41.4259) scale(60.4414 60.4429)">
<stop offset="0.25" stop-color="#B8E368"/>
<stop offset="1" stop-color="#628F23"/>
</radialGradient>
<radialGradient id="paint7_radial_1684_966" cx="0" cy="0" r="1" gradientUnits="userSpaceOnUse" gradientTransform="translate(86.0502 411.187) rotate(-41.4259) scale(59.9207 59.9223)">
<stop offset="0.25" stop-color="#B8E368"/>
<stop offset="1" stop-color="#628F23"/>
</radialGradient>
<radialGradient id="paint8_radial_1684_966" cx="0" cy="0" r="1" gradientUnits="userSpaceOnUse" gradientTransform="translate(138.63 272.816) rotate(-41.4259) scale(57.0336 57.035)">
<stop offset="0.25" stop-color="#B8E368"/>
<stop offset="1" stop-color="#628F23"/>
</radialGradient>
<radialGradient id="paint9_radial_1684_966" cx="0" cy="0" r="1" gradientUnits="userSpaceOnUse" gradientTransform="translate(56.1605 268.829) rotate(-41.4259) scale(63.0919 63.0935)">
<stop offset="0.25" stop-color="#B8E368"/>
<stop offset="1" stop-color="#628F23"/>
</radialGradient>
<radialGradient id="paint10_radial_1684_966" cx="0" cy="0" r="1" gradientUnits="userSpaceOnUse" gradientTransform="translate(59.9809 204.542) rotate(-41.4259) scale(51.0699 51.0712)">
<stop offset="0.25" stop-color="#B8E368"/>
<stop offset="1" stop-color="#628F23"/>
</radialGradient>
<radialGradient id="paint11_radial_1684_966" cx="0" cy="0" r="1" gradientUnits="userSpaceOnUse" gradientTransform="translate(112.126 172.289) rotate(-41.4259) scale(53.0104 53.0118)">
<stop offset="0.1" stop-color="#AADB59"/>
<stop offset="1" stop-color="#3D7411"/>
</radialGradient>
<radialGradient id="paint12_radial_1684_966" cx="0" cy="0" r="1" gradientUnits="userSpaceOnUse" gradientTransform="translate(54.764 138.382) rotate(-41.4259) scale(48.5613 48.5626)">
<stop offset="0.1" stop-color="#AADB59"/>
<stop offset="1" stop-color="#3D7411"/>
</radialGradient>
<radialGradient id="paint13_radial_1684_966" cx="0" cy="0" r="1" gradientUnits="userSpaceOnUse" gradientTransform="translate(113.361 110.725) rotate(-41.4259) scale(40.5625 40.5635)">
<stop offset="0.1" stop-color="#AADB59"/>
<stop offset="1" stop-color="#3D7411"/>
</radialGradient>
<radialGradient id="paint14_radial_1684_966" cx="0" cy="0" r="1" gradientUnits="userSpaceOnUse" gradientTransform="translate(168.168 852.636) rotate(89.3001) scale(347.922 347.85)">
<stop offset="0.1" stop-color="#AADB59"/>
<stop offset="1" stop-color="#3D7411"/>
</radialGradient>
<radialGradient id="paint15_radial_1684_966" cx="0" cy="0" r="1" gradientUnits="userSpaceOnUse" gradientTransform="translate(74.671 415.673) rotate(-41.4259) scale(372.256 372.266)">
<stop offset="0.1" stop-color="#AADB59"/>
<stop offset="1" stop-color="#3D7411"/>
</radialGradient>
<radialGradient id="paint16_radial_1684_966" cx="0" cy="0" r="1" gradientUnits="userSpaceOnUse" gradientTransform="translate(130.354 256.636) rotate(-41.4259) scale(332.546 332.554)">
<stop offset="0.1" stop-color="#AADB59"/>
<stop offset="1" stop-color="#3D7411"/>
</radialGradient>
<radialGradient id="paint17_radial_1684_966" cx="0" cy="0" r="1" gradientUnits="userSpaceOnUse" gradientTransform="translate(158.834 -94.6618) rotate(-41.4259) scale(435.017 435.028)">
<stop offset="0.1" stop-color="#AADB59"/>
<stop offset="1" stop-color="#3D7411"/>
</radialGradient>
<radialGradient id="paint18_radial_1684_966" cx="0" cy="0" r="1" gradientUnits="userSpaceOnUse" gradientTransform="translate(48.9479 659.243) rotate(89.3001) scale(288.775 288.715)">
<stop stop-color="#639221"/>
<stop offset="1" stop-color="#53590B"/>
</radialGradient>
<radialGradient id="paint19_radial_1684_966" cx="0" cy="0" r="1" gradientUnits="userSpaceOnUse" gradientTransform="translate(109.349 617.427) rotate(87.5305) scale(190.15 191.378)">
<stop offset="0.25" stop-color="#B8E368"/>
<stop offset="1" stop-color="#628F23"/>
</radialGradient>
<radialGradient id="paint20_radial_1684_966" cx="0" cy="0" r="1" gradientUnits="userSpaceOnUse" gradientTransform="translate(116.264 927.618) rotate(89.3001) scale(33.5851 33.5781)">
<stop offset="0.1" stop-color="#F5FAE0"/>
<stop offset="1" stop-color="#CCEE7A"/>
</radialGradient>
<radialGradient id="paint21_radial_1684_966" cx="0" cy="0" r="1" gradientUnits="userSpaceOnUse" gradientTransform="translate(127.185 839.432) rotate(89.3001) scale(30.9579 30.9515)">
<stop offset="0.1" stop-color="#F5FAE0"/>
<stop offset="1" stop-color="#CCEE7A"/>
</radialGradient>
<radialGradient id="paint22_radial_1684_966" cx="0" cy="0" r="1" gradientUnits="userSpaceOnUse" gradientTransform="translate(126.911 782.13) rotate(89.3001) scale(33.9401 33.9331)">
<stop offset="0.1" stop-color="#F5FAE0"/>
<stop offset="1" stop-color="#CCEE7A"/>
</radialGradient>
<radialGradient id="paint23_radial_1684_966" cx="0" cy="0" r="1" gradientUnits="userSpaceOnUse" gradientTransform="translate(102.037 721.935) rotate(89.3001) scale(28.3308 28.3249)">
<stop offset="0.1" stop-color="#F5FAE0"/>
<stop offset="1" stop-color="#CCEE7A"/>
</radialGradient>
<radialGradient id="paint24_radial_1684_966" cx="0" cy="0" r="1" gradientUnits="userSpaceOnUse" gradientTransform="translate(80.0638 637.63) rotate(89.3001) scale(30.3899 30.3836)">
<stop offset="0.1" stop-color="#F5FAE0"/>
<stop offset="1" stop-color="#CCEE7A"/>
</radialGradient>
<radialGradient id="paint25_radial_1684_966" cx="0" cy="0" r="1" gradientUnits="userSpaceOnUse" gradientTransform="translate(64.231 893.246) rotate(89.3001) scale(25.3486 25.3433)">
<stop offset="0.1" stop-color="#F5FAE0"/>
<stop offset="1" stop-color="#CCEE7A"/>
</radialGradient>
<radialGradient id="paint26_radial_1684_966" cx="0" cy="0" r="1" gradientUnits="userSpaceOnUse" gradientTransform="translate(33.8535 841.638) rotate(89.3001) scale(29.8218 29.8157)">
<stop offset="0.1" stop-color="#F5FAE0"/>
<stop offset="1" stop-color="#CCEE7A"/>
</radialGradient>
<radialGradient id="paint27_radial_1684_966" cx="0" cy="0" r="1" gradientUnits="userSpaceOnUse" gradientTransform="translate(11.8117 792.414) rotate(89.3001) scale(28.6858 28.6798)">
<stop offset="0.1" stop-color="#F5FAE0"/>
<stop offset="1" stop-color="#CCEE7A"/>
</radialGradient>
<radialGradient id="paint28_radial_1684_966" cx="0" cy="0" r="1" gradientUnits="userSpaceOnUse" gradientTransform="translate(3.58991 723.777) rotate(89.3001) scale(20.1653 20.1611)">
<stop offset="0.1" stop-color="#F5FAE0"/>
<stop offset="1" stop-color="#CCEE7A"/>
</radialGradient>
<radialGradient id="paint29_radial_1684_966" cx="0" cy="0" r="1" gradientUnits="userSpaceOnUse" gradientTransform="translate(-2.88711 641.058) rotate(89.3001) scale(11.6447 11.6423)">
<stop offset="0.1" stop-color="#F5FAE0"/>
<stop offset="1" stop-color="#CCEE7A"/>
</radialGradient>
</defs>
</svg>
