<svg width="362" height="302" viewBox="0 0 362 302" fill="none" xmlns="http://www.w3.org/2000/svg">
<path d="M359.459 275.52C355.862 266.526 346.208 260.277 338.399 255.733C327.75 249.532 316.108 245.603 304.276 242.668C298.361 241.201 292.35 239.923 286.34 238.739C280.897 237.651 273.656 233.722 268.308 235.473C267.456 235.757 291.498 265.106 294.007 267.709C301.815 275.756 310.949 281.863 321.361 285.602C331.489 289.247 348.527 295.685 358.56 288.774C362.914 285.792 361.021 279.354 359.459 275.52Z" fill="url(#paint0_radial_1684_930)"/>
<path d="M338.304 216.207C341.807 200.728 315.256 200.87 306.88 201.012C296.515 201.202 286.198 203.19 275.975 204.657C259.411 207.071 242.942 208.397 226.235 207.781C225.289 207.497 224.39 207.213 223.443 206.977C221.881 206.598 220.461 208.918 222.071 209.77C243.699 221.651 267.22 232.112 291.688 236.041C307.637 238.597 333.666 236.657 338.352 216.16L338.304 216.207Z" fill="url(#paint1_radial_1684_930)"/>
<path d="M292.019 266.147C280.141 250.384 266.085 233.864 248.101 225.864C247.769 225.722 247.533 225.864 247.391 226.054C246.397 224.207 245.308 222.456 244.125 220.705C243.084 219.237 241.049 220.847 241.617 222.409C246.539 235.331 250.278 248.822 255.578 261.508C259.648 271.307 266.794 279.117 273.846 286.691C279.762 292.987 292.966 306.525 302.1 299.046C311.802 291.094 296.563 272.159 292.019 266.147Z" fill="url(#paint2_radial_1684_930)"/>
<path d="M261.778 261.887C252.644 236.656 236.695 219.521 216.77 202.764C216.392 202.432 215.966 202.622 215.682 202.953C213.647 200.397 211.328 197.983 208.583 195.711C207.684 195.001 206.784 196.326 207.352 197.178C216.912 211.474 222.686 225.059 226.283 242.1C228.365 251.993 230.779 261.65 234.565 270.975C238.351 280.253 247.674 304.253 260.973 300.324C275.266 296.111 264.807 270.407 261.73 261.981L261.778 261.887Z" fill="url(#paint3_radial_1684_930)"/>
<path d="M309.767 172.611C310.619 171.285 310.051 169.439 308.584 168.966C291.878 162.954 271.859 168.919 255.105 172.185C244.22 174.315 233.524 177.202 222.686 179.759C212.89 182.078 202.762 182.173 192.776 182.693C192.492 182.599 192.255 182.457 191.971 182.315C191.451 182.078 190.93 182.362 190.646 182.788C190.362 182.788 190.126 182.788 189.842 182.788C189.132 182.788 189.037 183.83 189.794 183.924C190.031 183.924 190.22 183.924 190.457 183.972C190.552 184.208 190.646 184.398 190.93 184.492C200.821 189.889 208.914 196.374 219.752 199.877C230.164 203.237 241.617 204.279 252.502 203.379C274.935 201.533 296.61 192.397 309.767 172.516V172.611Z" fill="url(#paint4_radial_1684_930)"/>
<path d="M265.28 157.605C265.896 156.516 265.754 155.002 264.665 154.339C230.732 132.706 191.072 162.197 155.436 149.605C154.536 149.274 153.779 150.741 154.678 151.215C156.335 152.067 158.039 152.824 159.742 153.439C167.693 159.782 173.42 168.019 182.838 172.374C191.735 176.539 200.916 177.96 210.666 178.149C229.928 178.528 254.301 176.54 265.328 157.558L265.28 157.605Z" fill="url(#paint5_radial_1684_930)"/>
<path d="M184.778 204.989C187.807 177.06 171.432 158.505 150.182 145.44C149.472 143.168 148.526 140.848 147.39 138.623C146.538 137.061 143.935 137.771 144.361 139.665C144.55 140.611 144.74 141.511 144.929 142.41C144.456 142.316 143.935 142.884 144.361 143.262C144.645 143.546 144.976 143.83 145.26 144.067C147.579 156.564 147.579 167.688 144.361 180.658C141.521 192.161 138.114 203.332 136.836 215.166C135.322 228.704 140.054 258.81 159.458 252.325C176.78 246.55 183.074 220.988 184.778 204.989Z" fill="url(#paint6_radial_1684_930)"/>
<path d="M223.585 250.384C223.964 239.875 221.55 229.509 217.812 219.852C210.618 201.296 195.805 184.255 180.092 172.327C179.619 171.806 179.146 171.238 178.625 170.717C178.294 170.386 177.915 170.338 177.537 170.386C177.205 170.149 176.874 169.865 176.59 169.628C175.596 168.918 174.413 170.338 175.17 171.285C175.928 172.279 176.78 173.226 177.537 174.22C184.162 186.764 188.848 197.746 189.226 212.752C189.558 225.675 189.7 238.55 191.735 251.331C193.154 260.325 202.336 292.892 216.534 278.312C222.875 271.827 223.301 258.81 223.585 250.384Z" fill="url(#paint7_radial_1684_930)"/>
<path d="M217.054 134.268C225.81 118.221 197.224 110.553 188.138 108.896C163.244 104.399 137.451 113.44 112.936 107.097C110.806 106.529 109.86 109.464 111.8 110.411C113.362 111.168 114.924 111.736 116.533 112.257C117.29 112.825 118.142 113.488 119.372 114.292C135.795 125.89 150.324 141.321 169.586 145.582C183.547 148.658 208.725 149.511 217.054 134.221V134.268Z" fill="url(#paint8_radial_1684_930)"/>
<path d="M132.197 197.936C137.214 186.386 140.196 173.889 140.858 161.297C142.42 132.517 124.01 115.902 103.565 100.518C102.997 99.7128 102.429 98.8608 101.814 98.0561C100.915 96.8727 99.3054 98.1507 99.7787 99.4288C104.937 113.156 107.872 125.89 107.73 140.753C107.588 155.475 105.127 170.196 104.559 184.965C104.227 193.06 103.991 229.556 120.129 217.201C125.95 212.752 129.31 204.563 132.197 197.983V197.936Z" fill="url(#paint9_radial_1684_930)"/>
<path d="M105.032 135.452C108.014 126.789 110.002 115.996 106.736 107.192C102.287 95.2159 91.1656 85.37 82.7415 76.3287C82.4102 75.9974 82.0316 75.9974 81.653 76.0921C81.2271 74.8613 80.8485 73.6306 80.3279 72.3998C79.476 70.4591 76.6364 71.5004 76.9677 73.5359C80.2805 95.7839 74.6014 115.713 70.8153 137.44C69.2062 146.67 66.7452 172.895 82.8835 169.534C94.6678 167.12 101.53 145.534 104.985 135.499L105.032 135.452Z" fill="url(#paint10_radial_1684_930)"/>
<path d="M152.595 90.5773C159.458 75.6664 134.422 68.1872 125.288 66.4831C102.571 62.2229 78.2929 63.3116 56.8066 53.5603C56.0021 53.1816 55.4342 54.5071 56.0967 54.9804C56.9013 55.5485 57.7532 56.0218 58.5577 56.4952C58.1791 57.1105 58.2264 57.9626 58.9363 58.578C69.2062 67.2878 76.6364 78.4119 86.4803 87.3584C94.5258 94.6482 104.512 98.9558 114.971 101.086C125.004 103.121 147.153 102.269 152.548 90.5773H152.595Z" fill="url(#paint11_radial_1684_930)"/>
<path d="M71.7619 105.63C73.4657 80.021 64.6156 57.9623 47.4361 39.7851C47.0575 39.3591 46.4422 39.4538 46.0636 39.7851C46.0163 39.6905 45.9216 39.5958 45.8743 39.5485C45.1171 38.7911 43.4133 39.2645 43.792 40.5899C46.8682 50.8145 43.7919 58.9563 42.8927 69.0389C42.1828 76.8021 42.1355 84.7072 42.3721 92.5177C42.7034 103.973 42.3722 124.896 52.8786 132.186C66.5087 141.605 71.2886 113.109 71.7619 105.677V105.63Z" fill="url(#paint12_radial_1684_930)"/>
<path d="M114.592 45.3236C106.026 35.4303 93.2482 33.0162 80.8486 32.8268C68.3544 32.6375 55.7656 40.0219 43.6973 35.099C42.7035 34.4836 41.7096 33.8682 40.6684 33.3002C38.6334 32.2588 36.693 34.957 38.6334 36.4244C50.749 45.5603 61.6341 56.921 77.1098 59.1931C89.6513 60.9919 104.323 56.8736 114.308 48.6845C115.302 47.8798 115.397 46.223 114.592 45.2763V45.3236Z" fill="url(#paint13_radial_1684_930)"/>
<g style="mix-blend-mode:multiply" opacity="0.6">
<path d="M359.791 287.638C353.544 289.91 345.309 287.969 337.595 284.94C330.969 282.904 324.627 279.591 318.191 276.561C307.874 271.685 297.036 266.431 290.505 256.443C289.132 254.313 290.126 250.668 293.155 251.047C300.017 251.899 306.028 254.834 311.944 258.005C306.264 254.644 300.917 250.715 296.61 245.272C295.663 244.041 295.758 242.1 296.705 240.917C293.25 240.159 289.795 239.449 286.34 238.739C280.898 237.651 273.657 233.722 268.309 235.473C267.741 235.663 278.531 249.153 286.387 258.668C289.606 261.887 292.918 265.721 295.9 269.508C303.283 276.656 311.802 282.099 321.362 285.602C331.49 289.247 348.527 295.685 358.56 288.774C359.034 288.442 359.459 288.016 359.791 287.638Z" fill="url(#paint14_radial_1684_930)"/>
<path d="M302.1 299.046C302.384 298.809 302.574 298.573 302.81 298.336C302.432 298.289 302.1 298.194 301.769 298.005C290.316 291.851 283.17 280.822 275.787 270.266C273.279 266.668 257.992 245.083 260.832 240.065C264.097 234.385 278.674 251.284 285.394 257.674C274.982 244.751 262.867 232.444 248.101 225.864C247.77 225.722 247.533 225.864 247.391 226.054C246.444 224.302 245.403 222.598 244.267 220.989C259.459 227.9 275.361 233.485 291.689 236.089C306.454 238.456 329.881 236.941 336.933 220.373C331.869 223.071 324.864 224.255 320.084 225.202C311.944 226.764 303.52 227.805 295.238 227C283.17 225.817 265.848 225.391 259.885 212.61C259.128 211.001 259.885 209.06 261.4 208.255C263.387 207.214 265.47 206.409 267.599 205.746C253.875 207.403 240.103 208.303 226.236 207.782C225.289 207.498 224.39 207.214 223.444 206.977C222.923 206.835 222.45 206.977 222.119 207.308C220.368 205.746 218.616 204.232 216.818 202.717C216.439 202.386 216.014 202.575 215.73 202.906C213.695 200.35 211.376 197.936 208.631 195.664C207.731 194.954 206.832 196.279 207.4 197.131C216.96 211.427 222.734 225.012 226.331 242.053C228.413 251.947 230.827 261.603 234.613 270.928C238.399 280.206 247.722 304.206 261.021 300.277C269.067 297.91 269.256 288.632 267.315 279.544C269.445 282.005 271.622 284.372 273.799 286.691C279.715 292.987 292.919 306.525 302.053 299.046H302.1ZM260.737 293.792C255.2 295.212 251.556 288.49 249.426 284.23C243.652 272.822 238.778 260.562 234.755 248.444C232.625 241.911 227.561 228.184 233.288 222.219C234.092 221.367 235.323 221.32 236.364 221.604C236.601 221.651 236.837 221.841 237.074 221.935C234.376 219.001 231.584 216.16 228.65 213.368C233.24 215.782 237.926 218.101 242.658 220.279C241.901 220.563 241.239 221.509 241.617 222.456C242.09 223.782 242.564 225.107 243.037 226.432C247.391 231.403 250.846 238.787 253.117 243.284C258.655 254.313 262.157 265.721 264.003 277.84C265.47 283.662 266.748 292.324 260.69 293.839L260.737 293.792Z" fill="url(#paint15_radial_1684_930)"/>
<path d="M223.586 250.384C223.964 239.876 221.55 229.509 217.812 219.852C213.458 208.586 206.217 197.888 197.745 188.516C204.797 192.823 211.47 197.226 219.752 199.924C230.164 203.285 241.617 204.326 252.502 203.427C270.013 202.007 287.05 196.042 299.97 184.113C289.795 188.894 279.147 191.451 267.362 193.628C255.342 195.853 241.333 198.314 231.678 189.084C230.069 187.522 231.158 184.965 232.767 184.019C255.294 170.244 282.507 171.475 307.637 169.203C308.442 169.108 309.104 169.392 309.672 169.771C309.388 169.392 309.057 169.108 308.631 168.918C291.925 162.907 271.906 168.871 255.152 172.137C244.267 174.267 233.571 177.155 222.734 179.711C212.937 182.031 202.809 182.125 192.823 182.646C192.539 182.551 192.303 182.409 192.019 182.267C191.924 182.267 191.829 182.267 191.735 182.267C187.996 178.67 184.068 175.309 180.092 172.279C179.619 171.759 179.146 171.191 178.625 170.67C178.294 170.339 177.915 170.291 177.537 170.339C177.253 170.102 176.969 169.913 176.685 169.676C176.164 168.871 175.596 168.114 175.029 167.356C177.395 169.297 179.95 171.049 182.837 172.374C191.735 176.54 200.916 177.96 210.665 178.149C229.927 178.528 254.3 176.54 265.327 157.558C265.943 156.469 265.801 154.954 264.712 154.292C257.566 149.747 250.136 147.522 242.563 146.623C249.189 147.712 255.436 149.605 260.547 152.209C260.831 152.351 260.973 152.54 261.163 152.682C261.683 152.919 262.251 153.108 262.725 153.345C264.996 154.386 265.848 158.173 263.008 159.357C243.652 167.498 216.061 172.658 197.319 160.824C195.616 159.735 195.521 156.942 197.035 155.664C200.774 152.493 205.27 150.126 210.239 148.517C192.397 151.499 174.413 155.428 157.234 150.079C154.915 148.422 152.548 146.812 150.087 145.298C149.378 143.026 148.431 140.706 147.295 138.481C146.443 136.919 143.84 137.629 144.266 139.523C144.456 140.469 144.645 141.369 144.834 142.268C144.361 142.174 143.84 142.742 144.266 143.12C144.55 143.404 144.882 143.688 145.166 143.925C147.485 156.422 147.485 167.546 144.266 180.516C141.427 192.019 138.019 203.19 136.741 215.024C135.227 228.562 139.96 258.668 159.363 252.183C176.685 246.408 182.979 220.846 184.683 204.847C185.346 198.93 185.062 193.439 184.068 188.279C187.002 195.758 188.848 203.427 189.084 212.61C189.416 225.533 189.558 238.408 191.593 251.189C193.013 260.183 202.194 292.75 216.392 278.171C222.734 271.685 223.16 258.668 223.444 250.242L223.586 250.384ZM183.358 198.977C182.885 205.557 182.128 212.705 179.667 218.906C178.01 223.118 175.313 228.373 170.249 228.515C164.617 228.657 162.629 221.935 161.493 217.296C160.547 213.509 160.452 209.722 160.783 205.983C159.411 207.308 157.896 208.302 156.098 208.681C146.254 210.764 147.674 193.533 148.052 187.853C148.384 182.267 147.579 165.416 154.678 164.043C158.275 163.333 160.31 167.025 161.493 170.859C162.771 170.67 164.001 171.238 164.759 172.563C166.415 175.451 167.409 178.764 167.835 182.173C169.113 180.09 170.674 178.528 172.52 178.149C175.029 177.676 176.922 179.143 178.341 181.51C179.809 181.131 181.418 181.51 182.128 183.119C184.115 187.853 183.737 194.007 183.358 199.072V198.977ZM212.558 269.082C212.558 269.082 212.274 269.461 212.085 269.603C210.618 271.023 207.968 270.455 207.211 268.561C206.974 268.041 206.785 267.473 206.548 266.905C201.105 261.461 201.105 246.976 200.821 240.728C200.301 229.935 197.035 214.74 205.554 206.267C206.737 205.131 209.009 205.178 210.003 206.598C220.935 222.55 225.479 250.858 218.616 269.461C217.386 272.774 213.032 271.827 212.558 269.035V269.082Z" fill="url(#paint16_radial_1684_930)"/>
<path d="M140.859 161.297C141.9 141.984 133.949 128.162 122.401 116.517C137.593 127.831 151.507 141.606 169.586 145.629C183.547 148.706 208.725 149.558 217.054 134.268C219.373 130.008 219.042 126.316 217.149 123.192C217.007 123.996 216.628 124.707 216.108 125.275C207.21 134.268 190.788 133.937 179.477 132.659C169.302 131.523 154.299 129.629 148.005 120.115C147.058 118.695 146.916 116.754 148.383 115.523C160.404 105.299 176.685 106.719 191.782 111.121C192.35 111.121 192.918 111.168 193.486 111.216C195.379 111.358 197.366 111.547 199.354 111.878C194.953 110.411 190.788 109.417 188.185 108.944C163.291 104.447 137.498 113.488 112.983 107.145C112.652 107.05 112.321 107.097 112.037 107.145C109.292 104.873 106.452 102.695 103.565 100.518C103.376 100.281 103.187 99.9969 102.997 99.7603C102.335 98.7189 101.672 97.6775 100.962 96.6834C105.458 98.7189 110.191 100.186 115.066 101.18C125.099 103.216 147.248 102.364 152.643 90.6717C154.82 85.9381 153.779 81.9619 151.081 78.6957C151.318 79.1217 151.602 79.5477 151.791 79.9737C152.548 81.4412 152.075 82.7666 151.128 83.6186C151.128 83.808 151.128 84.0447 151.128 84.234C149.851 94.222 132.198 90.8137 126.519 89.3463C119.088 87.4055 112.037 84.518 105.648 80.2104C102.997 78.4116 99.7319 76.3762 100.205 72.5893C100.868 67.4296 106.121 65.2995 111.895 64.5895C93.9581 62.412 75.6427 61.4653 58.8891 54.4122C57.9426 52.8974 56.9014 51.43 55.8602 49.9625C62.2493 54.4595 69.0643 58.1517 77.1572 59.2878C86.7644 60.6605 97.5549 58.5777 106.594 53.8441C96.7976 53.4181 86.1019 50.6253 79.5708 44.8029C78.1037 43.4775 77.5831 41.1107 79.2868 39.6432C84.824 34.8149 91.9703 34.0576 98.88 35.383C93.1535 33.5842 86.9537 32.9688 80.8486 32.8268C68.3544 32.6375 55.7656 40.0219 43.6973 35.099C42.7035 34.4836 41.7096 33.8682 40.6684 33.3002C38.6334 32.2588 36.693 34.957 38.6334 36.4244C40.3845 37.7025 42.0882 39.0752 43.7447 40.448C46.8209 50.6726 43.7447 58.8144 42.8455 68.897C42.1356 76.6602 42.0882 84.5653 42.3249 92.3758C42.6561 103.831 42.3249 124.754 52.8313 132.044C66.4614 141.464 71.2413 112.967 71.7146 105.535C72.7558 89.9143 69.8216 75.6188 63.5745 62.7433C68.4964 67.5716 72.8978 72.826 77.4411 77.9383C79.4288 98.3875 74.3649 117.085 70.8627 137.298C69.2536 146.528 66.7926 172.753 82.931 169.392C94.7153 166.978 101.578 145.392 105.032 135.357C105.79 133.132 106.5 130.813 107.067 128.351C107.493 132.328 107.73 136.351 107.683 140.611C107.541 155.333 105.08 170.055 104.512 184.824C104.181 192.918 103.944 229.414 120.082 217.06C125.903 212.61 129.264 204.421 132.151 197.841C137.167 186.291 140.149 173.794 140.811 161.203L140.859 161.297ZM60.3563 79.6424C66.8873 78.8377 67.2659 87.1688 68.3071 91.8551C68.4964 92.7545 68.3071 93.5119 67.9285 94.1273C68.0231 94.8373 68.0705 95.642 67.7865 96.2574C66.698 98.5769 64.237 99.1923 62.4386 97.3461C61.3028 96.1627 61.1135 93.9379 60.4982 92.4705C59.2677 89.583 58.1319 86.6008 57.8479 83.4293C57.706 81.7725 58.6052 79.8317 60.4036 79.6424H60.3563ZM101.057 140.517C99.3059 142.884 96.1824 143.215 94.1947 141.037C90.0773 136.541 90.6452 127.547 91.2131 121.866C91.4971 118.979 91.9703 115.003 94.4786 113.109C96.8923 111.263 99.6372 111.689 101.199 114.435C103.66 118.884 103.66 124.801 102.808 130.245C103.045 130.671 103.187 131.192 103.234 131.76C103.329 134.647 102.855 138.055 101.057 140.469V140.517ZM131.441 179.38C126.471 179.569 125.004 172.989 124.531 167.404C124.058 168.35 123.111 168.919 121.739 168.682C121.265 168.587 120.839 168.445 120.461 168.303C120.414 168.303 120.319 168.209 120.224 168.209C115.113 165.889 114.214 157.558 113.788 152.493C113.315 146.86 112.131 137.866 115.681 132.943C117.148 130.908 119.988 131.097 121.123 133.322C123.348 137.866 124.342 142.742 124.72 147.759C125.241 144.446 126.329 141.511 128.364 139.996C129.926 138.813 132.387 138.955 133.239 141.037C133.428 141.464 133.523 141.937 133.665 142.41C140.101 143.452 140.149 156.232 140.101 160.966C140.007 166.741 139.297 179.143 131.488 179.475L131.441 179.38Z" fill="url(#paint17_radial_1684_930)"/>
</g>
<path d="M297.414 249.106C234.801 216.255 183.31 170.954 132.812 121.014C108.439 96.9202 84.5867 72.3053 59.7876 48.6372C42.9867 32.6376 29.7826 10.7209 8.4384 0.68558C1.05547 -2.76997 -3.67718 7.78602 3.70575 11.2416C16.3419 17.1586 25.7599 28.5193 35.0359 38.8386C45.0691 50.01 55.6702 60.3293 66.4133 70.7432C90.9758 94.5534 114.686 119.263 139.343 142.931C185.439 187.143 236.694 228.704 296.562 250.81C297.509 251.189 298.266 249.58 297.319 249.059L297.414 249.106Z" fill="url(#paint18_radial_1684_930)"/>
<path style="mix-blend-mode:screen" opacity="0.6" d="M34.042 24.0698C44.5484 39.17 123.11 118.6 150.37 144.209C189.746 181.226 233.097 221.651 283.878 241.627C227.323 209.533 179.618 167.262 132.86 121.014C108.487 96.9203 84.634 72.3054 59.8349 48.6373C45.5896 35.0518 33.9 17.3007 17.667 6.03467C23.5355 11.0523 28.8834 16.638 33.9946 24.0224L34.042 24.0698Z" fill="url(#paint19_radial_1684_930)"/>
<path d="M360.594 280.111C352.217 258.81 322.118 252.609 303.045 247.97C302.382 247.828 302.051 248.775 302.714 249.011C311.706 252.562 320.698 255.97 329.548 259.899C341.285 265.106 349.472 272.348 358.086 281.815C359.269 283.094 361.257 281.721 360.641 280.111H360.594Z" fill="url(#paint20_radial_1684_930)"/>
<path d="M328.413 208.539C324.437 201.202 314.499 202.48 307.542 203.237C293.959 204.752 281.039 210.859 267.172 208.871C266.888 208.871 266.794 209.297 267.078 209.391C276.59 212.847 286.387 210.243 296.183 209.107C305.838 207.971 317.67 204.184 326.094 210.669C327.324 211.616 329.17 210.007 328.413 208.587V208.539Z" fill="url(#paint21_radial_1684_930)"/>
<path d="M304.324 170.528C283.121 164.327 259.174 177.108 238.54 181.51C237.735 181.699 237.972 182.883 238.777 182.788C249.378 181.652 259.695 179.19 270.154 176.871C281.56 174.409 292.587 173.841 304.134 173.037C305.412 172.942 305.507 170.812 304.324 170.481V170.528Z" fill="url(#paint22_radial_1684_930)"/>
<path d="M258.512 153.724C252.454 147.996 242.563 148.517 234.849 149.037C224.058 149.747 213.504 152.919 202.856 154.812C202.146 154.907 202.193 156.138 202.903 156.091C210.76 155.901 218.521 154.434 226.283 153.345C237.641 151.783 246.349 153.014 257.187 155.665C258.181 155.901 259.459 154.576 258.465 153.676L258.512 153.724Z" fill="url(#paint23_radial_1684_930)"/>
<path d="M209.15 122.292C194.337 108.943 169.064 109.843 150.654 111.926C149.992 112.02 150.134 112.967 150.702 113.062C159.552 114.292 168.591 114.434 177.536 115.287C188.61 116.328 198.028 119.973 208.014 124.659C209.434 125.322 210.144 123.192 209.15 122.292Z" fill="url(#paint24_radial_1684_930)"/>
<path d="M302.762 290.1C304.087 273.011 282.459 259.946 272.426 249.816C272.142 249.485 271.668 249.911 271.905 250.29C281.844 263.781 294.006 274.384 299.307 290.81C299.922 292.656 302.62 291.898 302.762 290.1Z" fill="url(#paint25_radial_1684_930)"/>
<path d="M259.695 282.715C266.321 263.686 249.615 239.213 237.641 226.716C237.073 226.101 236.174 226.906 236.694 227.568C242.279 235.805 246.964 244.373 250.94 253.556C255.104 263.165 254.82 272.443 256.619 282.478C256.903 284.135 259.174 284.277 259.695 282.715Z" fill="url(#paint26_radial_1684_930)"/>
<path d="M219.23 265.863C223.916 246.408 214.403 227.095 209.055 209.012C208.913 208.492 208.156 208.634 208.203 209.202C211.232 228.278 218 245.556 216.107 265.248C215.918 267.094 218.757 267.757 219.183 265.863H219.23Z" fill="url(#paint27_radial_1684_930)"/>
<path d="M175.69 222.882C179.476 217.864 180.517 210.054 181.511 203.948C182.695 196.942 182.884 189.889 180.991 183.12C180.801 182.41 179.713 182.552 179.855 183.356C180.849 190.599 179.95 198.078 178.293 205.178C176.968 210.859 173.986 216.255 172.945 221.935C172.661 223.592 174.838 224.018 175.69 222.882Z" fill="url(#paint28_radial_1684_930)"/>
<path d="M136.882 147.665C136.882 147.665 136.788 147.617 136.788 147.665C136.835 151.309 136.788 154.907 136.74 158.505C136.598 162.717 135.273 166.268 134.421 170.339C134.185 171.38 135.699 171.759 136.22 170.954C140.858 164.043 138.018 155.002 136.882 147.617V147.665Z" fill="url(#paint29_radial_1684_930)"/>
<g style="mix-blend-mode:multiply" opacity="0.8">
<path d="M266.51 237.746C268.213 238.598 269.917 239.402 271.621 240.254C273.656 242.905 276.448 246.408 279.335 250.006C279.335 250.006 279.382 250.1 279.43 250.1C279.666 250.384 279.903 250.668 280.092 250.952C282.222 253.556 284.399 256.254 286.339 258.621C290.078 263.165 293.154 266.81 293.959 267.662C295.426 269.177 296.988 270.597 298.55 271.97C298.597 271.97 298.644 272.064 298.739 272.112C299.638 272.869 300.49 273.626 301.389 274.336C301.531 274.431 301.673 274.573 301.815 274.668C302.667 275.331 303.519 275.946 304.371 276.561C304.607 276.751 304.844 276.893 305.081 277.082C305.885 277.603 306.643 278.171 307.447 278.691C307.778 278.928 308.157 279.117 308.536 279.354C309.245 279.78 309.955 280.253 310.713 280.632C311.233 280.916 311.706 281.2 312.227 281.437C312.842 281.768 313.458 282.1 314.073 282.431C314.783 282.762 315.493 283.094 316.202 283.425C316.676 283.614 317.102 283.851 317.575 284.04C318.805 284.561 320.036 285.034 321.266 285.508C331.394 289.153 348.432 295.59 358.465 288.679C362.819 285.697 360.926 279.259 359.364 275.425C355.767 266.431 346.113 260.183 338.304 255.639C327.655 249.438 316.013 245.509 304.182 242.574C301.673 241.958 299.165 241.39 296.609 240.822C296.609 240.822 296.515 240.822 296.467 240.822C293.06 240.065 289.652 239.355 286.245 238.645C282.175 237.793 277.063 235.379 272.52 235C268.687 232.681 264.901 230.314 261.162 227.9C267.03 230.03 272.993 231.876 279.051 233.391C279.382 233.485 279.761 233.58 280.092 233.627C281.56 234.006 283.074 234.337 284.588 234.621C285.062 234.716 285.582 234.811 286.055 234.953C287.901 235.331 289.747 235.663 291.593 235.947C292.066 236.041 292.539 236.089 293.06 236.183C293.249 236.183 293.438 236.183 293.628 236.278C293.912 236.278 294.243 236.373 294.527 236.373C294.764 236.373 295.048 236.42 295.284 236.467C295.521 236.467 295.757 236.515 296.041 236.562C296.373 236.562 296.657 236.609 296.988 236.657C297.225 236.657 297.414 236.657 297.603 236.704C297.934 236.704 298.313 236.704 298.644 236.751C298.834 236.751 299.023 236.751 299.212 236.751C299.591 236.751 299.969 236.751 300.395 236.751C300.537 236.751 300.679 236.751 300.821 236.751C301.247 236.751 301.673 236.751 302.146 236.751C302.241 236.751 302.336 236.751 302.43 236.751C302.904 236.751 303.377 236.751 303.898 236.751C303.898 236.751 303.945 236.751 303.992 236.751C318.521 236.515 334.707 231.734 338.257 216.018C341.759 200.539 315.209 200.681 306.832 200.823C296.467 201.013 286.15 203.001 275.928 204.468C273.088 204.894 270.248 205.226 267.362 205.604C267.409 205.604 267.456 205.604 267.504 205.557C259.079 206.598 250.703 207.308 242.278 207.592C241.853 207.592 241.427 207.592 241.048 207.592C239.818 207.592 238.54 207.64 237.309 207.687C236.363 207.687 235.416 207.687 234.47 207.687C233.665 207.687 232.861 207.687 232.056 207.687C229.69 205.936 227.371 204.184 225.004 202.433C224.342 201.912 223.632 201.391 222.969 200.871C222.827 200.729 222.638 200.634 222.496 200.492C232.151 203.19 242.515 203.995 252.454 203.19C253.732 203.095 255.009 202.953 256.24 202.811C256.666 202.764 257.044 202.717 257.47 202.669C258.322 202.575 259.174 202.433 260.026 202.291C260.499 202.196 260.972 202.149 261.446 202.054C262.25 201.912 263.055 201.77 263.812 201.581C264.285 201.486 264.759 201.391 265.279 201.297C266.415 201.06 267.504 200.776 268.639 200.492C269.302 200.35 269.917 200.161 270.532 199.971C271.053 199.829 271.574 199.687 272.094 199.498C272.804 199.261 273.514 199.024 274.224 198.788C274.602 198.646 275.028 198.504 275.407 198.362C276.212 198.078 276.969 197.794 277.773 197.51C277.915 197.462 278.057 197.368 278.247 197.32C281.086 196.184 283.879 194.906 286.529 193.439C286.623 193.439 286.671 193.344 286.718 193.344C287.617 192.823 288.564 192.303 289.463 191.782C293.107 189.557 296.562 186.954 299.78 183.972C299.78 183.972 299.828 183.972 299.875 183.924C303.472 180.563 306.785 176.729 309.671 172.374C310.523 171.049 309.955 169.203 308.488 168.729C291.782 162.718 271.763 168.682 255.009 171.948C244.124 174.078 233.428 176.966 222.591 179.522C215.018 181.321 207.257 181.794 199.448 182.125C198.644 181.463 197.839 180.8 197.082 180.137C195.899 179.143 194.715 178.149 193.532 177.155C192.87 176.587 192.207 176.019 191.545 175.451C197.697 177.155 203.991 177.865 210.522 178.007C229.784 178.386 254.157 176.398 265.185 157.416C265.8 156.327 265.658 154.812 264.569 154.15C263.623 153.534 262.629 152.966 261.682 152.446C261.162 152.162 260.641 151.925 260.121 151.641C259.695 151.452 259.316 151.215 258.89 151.025C258.133 150.694 257.376 150.363 256.618 150.031C256.524 150.031 256.429 149.937 256.334 149.889C241.616 143.925 225.951 145.819 210.191 148.422C195.047 150.931 179.76 154.15 165.042 151.783C164.9 151.641 164.758 151.499 164.616 151.357C163.149 149.984 161.682 148.611 160.214 147.239C158.416 145.535 156.618 143.878 154.867 142.174C153.589 140.99 152.358 139.807 151.08 138.576C150.134 137.677 149.14 136.73 148.193 135.831C148.288 135.925 148.43 135.973 148.525 136.067C149.045 136.399 149.519 136.73 150.039 137.061C150.56 137.393 151.08 137.677 151.554 137.961C152.074 138.245 152.595 138.576 153.115 138.86C153.636 139.144 154.157 139.428 154.677 139.712C155.198 139.996 155.718 140.28 156.239 140.517C156.807 140.801 157.327 141.038 157.895 141.322C158.416 141.558 158.937 141.795 159.457 142.032C160.025 142.268 160.64 142.505 161.208 142.742C161.729 142.931 162.202 143.168 162.723 143.357C163.385 143.594 164.095 143.83 164.758 144.067C165.184 144.209 165.61 144.351 166.083 144.493C167.219 144.824 168.355 145.156 169.538 145.393C183.499 148.469 208.677 149.321 217.006 134.032C217.29 133.511 217.527 132.99 217.763 132.517C217.763 132.422 217.811 132.328 217.858 132.186C218 131.76 218.142 131.381 218.237 131.002C218.237 130.955 218.237 130.86 218.284 130.813C218.379 130.387 218.473 129.961 218.521 129.535C220.13 117.085 198.123 110.742 189.131 108.944C189.131 108.944 189.084 108.944 189.036 108.944C188.658 108.849 188.326 108.802 188.042 108.754C165.61 104.731 142.514 111.594 120.224 108.423C117.526 105.725 114.828 103.027 112.178 100.376C113.077 100.612 114.024 100.802 114.923 101.038C124.956 103.074 147.105 102.222 152.5 90.5298C152.737 90.0091 152.926 89.441 153.115 88.9203C153.163 88.7783 153.21 88.6363 153.257 88.4943C153.352 88.1156 153.447 87.737 153.494 87.3583C153.494 87.2163 153.541 87.0742 153.589 86.9322C153.636 86.5535 153.683 86.1275 153.683 85.7488C153.683 85.6542 153.683 85.6068 153.683 85.5121C153.683 84.5181 153.494 83.5714 153.21 82.672C153.21 82.6246 153.21 82.5773 153.163 82.53C153.021 82.1039 152.879 81.7252 152.69 81.2992C152.69 81.2992 152.689 81.2045 152.642 81.2045C148.335 72.4947 132.197 67.8557 125.24 66.5303C117.526 65.0629 109.622 64.2582 101.672 63.4061C90.8338 62.2227 79.996 60.992 69.5369 58.0571C69.1583 57.6784 68.7796 57.3471 68.401 56.9684C68.4484 56.9684 68.543 57.0157 68.5903 57.063C69.2056 57.2997 69.8208 57.4891 70.4361 57.6784C70.72 57.7731 71.0513 57.9151 71.3353 57.9624C71.9979 58.1518 72.6604 58.3411 73.323 58.4831C73.6069 58.5305 73.8436 58.6251 74.1275 58.7198C75.0741 58.9565 76.0679 59.0985 77.0618 59.2405C78.1503 59.3825 79.2388 59.4772 80.3273 59.5719C80.5639 59.5719 80.8006 59.5719 81.0845 59.5719C83.3562 59.6665 85.6752 59.5719 87.9942 59.3825C88.1362 59.3825 88.2782 59.3825 88.3728 59.3825C97.7434 58.3411 107.161 54.5542 114.26 48.7319C115.254 47.9272 115.349 46.2704 114.544 45.3237C105.978 35.4304 93.2001 33.0162 80.8006 32.8269C69.8682 32.6376 58.8884 38.2706 48.24 36.4244C36.2664 22.8863 24.7187 8.35405 8.4384 0.68558C1.05547 -2.76997 -3.67718 7.78602 3.70575 11.2416C16.3419 17.1586 25.7599 28.5193 35.0359 38.8386C38.3014 42.4835 41.6616 46.0337 45.0691 49.5366C45.1164 55.9743 43.5073 62.0334 42.8447 69.0391C42.1348 76.8023 42.0875 84.7074 42.3242 92.5179C42.6554 103.973 42.3242 124.896 52.8306 132.186C66.4607 141.606 71.2406 113.109 71.7139 105.677C71.8085 103.879 71.9032 102.08 71.9032 100.328C71.9032 99.8077 71.9032 99.287 71.9032 98.7663C71.9032 97.4882 71.9032 96.2101 71.8085 94.9794C71.8085 94.4114 71.7612 93.8907 71.7139 93.3226C71.6192 92.0446 71.5246 90.7665 71.3826 89.4884C71.3353 89.0624 71.288 88.589 71.2406 88.163C71.004 86.5535 70.7674 84.9441 70.4834 83.3347C70.4834 83.2873 70.4834 83.24 70.4834 83.1927C69.7735 79.6898 68.8743 76.2342 67.7858 72.9207C67.7858 72.7787 67.6911 72.684 67.6438 72.542C67.5492 72.1633 67.4072 71.832 67.2652 71.4533C70.8147 74.8615 74.3168 78.317 77.819 81.8199C78.9075 100.802 74.2222 118.411 70.9567 137.44C69.3476 146.671 66.8866 172.895 83.0249 169.534C94.8092 167.12 101.672 145.535 105.126 135.499C105.884 133.274 106.593 130.955 107.114 128.541C107.209 129.488 107.303 130.434 107.398 131.381C107.493 132.47 107.587 133.558 107.635 134.647C107.635 135.168 107.635 135.736 107.682 136.257C107.682 137.771 107.777 139.286 107.729 140.801C107.587 155.522 105.126 170.244 104.558 185.013C104.227 193.107 103.991 229.604 120.129 217.249C125.95 212.799 129.31 204.61 132.197 198.03C137.214 186.48 140.195 173.984 140.858 161.392C140.905 160.303 140.953 159.262 140.953 158.173C140.953 157.842 140.953 157.558 140.953 157.274C140.953 156.469 140.953 155.712 140.858 154.907C140.858 154.623 140.858 154.339 140.858 154.102C140.716 152.067 140.479 150.031 140.101 148.138C140.101 147.949 140.006 147.759 140.006 147.57C139.864 146.718 139.675 145.913 139.438 145.061C139.438 144.919 139.391 144.824 139.343 144.682C139.154 143.878 138.917 143.073 138.681 142.316C138.917 142.552 139.201 142.836 139.438 143.073C141.615 145.156 143.839 147.286 146.064 149.369C147.484 159.83 147.105 169.676 144.36 180.8C141.52 192.303 138.113 203.474 136.835 215.308C135.321 228.846 140.053 258.952 159.457 252.467C176.779 246.692 183.073 221.13 184.777 205.131C184.919 203.711 185.013 202.338 185.061 200.965C185.061 200.871 185.061 200.729 185.061 200.587C185.203 196.421 184.919 192.492 184.209 188.753C184.919 190.551 185.534 192.35 186.102 194.196C186.954 196.989 187.664 199.877 188.184 202.859C188.232 203.095 188.279 203.332 188.279 203.616C188.374 204.326 188.516 205.036 188.563 205.746C188.61 206.078 188.658 206.362 188.658 206.693C188.752 207.403 188.8 208.113 188.847 208.823C188.847 209.154 188.894 209.438 188.942 209.77C189.036 210.811 189.084 211.805 189.084 212.894C189.415 225.817 189.557 238.692 191.592 251.473C193.012 260.467 202.193 293.034 216.391 278.455C222.733 271.97 223.159 258.952 223.443 250.526C223.821 240.018 221.408 229.651 217.669 219.994C217.148 218.716 216.628 217.391 216.06 216.113C215.87 215.734 215.681 215.355 215.492 214.929C215.066 214.03 214.593 213.083 214.167 212.184C213.977 211.805 213.741 211.427 213.551 211.048C213.031 210.054 212.51 209.06 211.942 208.113C211.8 207.829 211.658 207.592 211.516 207.308C210.428 205.462 209.245 203.616 208.014 201.817C209.292 202.764 210.57 203.711 211.848 204.61C218.71 216.35 223.206 228.089 226.235 242.195C228.317 252.088 230.731 261.745 234.517 271.07C238.303 280.348 247.626 304.348 260.925 300.419C261.398 300.277 261.824 300.087 262.25 299.898C262.392 299.851 262.534 299.756 262.676 299.661C262.913 299.519 263.197 299.425 263.433 299.283C263.575 299.188 263.717 299.093 263.859 298.951C264.049 298.809 264.285 298.667 264.427 298.478C264.569 298.383 264.711 298.241 264.853 298.099C265.043 297.957 265.185 297.768 265.327 297.579C265.468 297.437 265.563 297.295 265.705 297.153C265.847 296.963 265.989 296.774 266.131 296.584C266.226 296.442 266.32 296.253 266.415 296.111C266.51 295.922 266.652 295.685 266.746 295.496C266.841 295.354 266.888 295.164 266.983 295.022C267.078 294.786 267.172 294.502 267.267 294.265C267.314 294.123 267.362 293.981 267.409 293.839C267.551 293.413 267.646 292.987 267.74 292.561C267.74 292.466 267.74 292.372 267.788 292.23C267.835 291.898 267.929 291.52 267.977 291.188C267.977 291.046 267.977 290.857 268.024 290.715C268.024 290.383 268.119 290.099 268.119 289.768C268.119 289.579 268.119 289.389 268.119 289.247C268.119 288.916 268.119 288.632 268.119 288.301C268.119 288.111 268.119 287.922 268.119 287.78C268.119 287.449 268.119 287.07 268.119 286.739C268.119 286.549 268.119 286.407 268.119 286.218C268.119 285.839 268.071 285.46 268.024 285.082C268.024 284.94 268.024 284.798 268.024 284.656C267.977 284.182 267.929 283.756 267.835 283.283C267.835 283.236 267.835 283.141 267.835 283.094C267.693 282.005 267.456 280.869 267.22 279.733C267.22 279.733 267.22 279.733 267.267 279.78C268.308 280.964 269.349 282.147 270.438 283.33C271.526 284.514 272.615 285.697 273.703 286.881C279.619 293.176 292.823 306.714 301.957 299.235C311.659 291.283 296.42 272.348 291.877 266.337C284.872 257.059 277.158 247.544 268.308 239.639C268.308 239.592 268.213 239.544 268.166 239.497C267.551 238.976 266.983 238.456 266.415 237.935L266.51 237.746ZM242.373 224.539C242.61 225.154 242.799 225.769 243.036 226.337C243.036 226.337 243.036 226.385 243.083 226.432C243.604 227.9 244.124 229.367 244.645 230.834C241.9 227.284 238.966 223.829 235.842 220.515C238.019 221.841 240.196 223.213 242.373 224.491V224.539Z" fill="#007745"/>
</g>
<defs>
<radialGradient id="paint0_radial_1684_930" cx="0" cy="0" r="1" gradientUnits="userSpaceOnUse" gradientTransform="translate(314.022 264.363) rotate(-80.3819) scale(38.5788 38.5713)">
<stop offset="0.07" stop-color="#E3F895"/>
<stop offset="0.5" stop-color="#B8E368"/>
<stop offset="1" stop-color="#89B341"/>
</radialGradient>
<radialGradient id="paint1_radial_1684_930" cx="0" cy="0" r="1" gradientUnits="userSpaceOnUse" gradientTransform="translate(279.552 214.253) rotate(-80.3819) scale(43.4544 43.446)">
<stop offset="0.07" stop-color="#E3F895"/>
<stop offset="0.5" stop-color="#B8E368"/>
<stop offset="1" stop-color="#89B341"/>
</radialGradient>
<radialGradient id="paint2_radial_1684_930" cx="0" cy="0" r="1" gradientUnits="userSpaceOnUse" gradientTransform="translate(272.74 261.254) rotate(-80.3819) scale(36.5434 36.5363)">
<stop offset="0.07" stop-color="#E3F895"/>
<stop offset="0.5" stop-color="#B8E368"/>
<stop offset="1" stop-color="#89B341"/>
</radialGradient>
<radialGradient id="paint3_radial_1684_930" cx="0" cy="0" r="1" gradientUnits="userSpaceOnUse" gradientTransform="translate(236.844 248.734) rotate(-80.3819) scale(43.1231 43.1147)">
<stop offset="0.07" stop-color="#E3F895"/>
<stop offset="0.5" stop-color="#B8E368"/>
<stop offset="1" stop-color="#89B341"/>
</radialGradient>
<radialGradient id="paint4_radial_1684_930" cx="0" cy="0" r="1" gradientUnits="userSpaceOnUse" gradientTransform="translate(248.987 181.897) rotate(-80.382) scale(44.6378 44.6291)">
<stop offset="0.25" stop-color="#B8E368"/>
<stop offset="1" stop-color="#628F23"/>
</radialGradient>
<radialGradient id="paint5_radial_1684_930" cx="0" cy="0" r="1" gradientUnits="userSpaceOnUse" gradientTransform="translate(208.901 159.833) rotate(-80.3819) scale(41.3716 41.3636)">
<stop offset="0.25" stop-color="#B8E368"/>
<stop offset="1" stop-color="#628F23"/>
</radialGradient>
<radialGradient id="paint6_radial_1684_930" cx="0" cy="0" r="1" gradientUnits="userSpaceOnUse" gradientTransform="translate(160.364 197.264) rotate(-80.3819) scale(43.7384 43.7299)">
<stop offset="0.25" stop-color="#B8E368"/>
<stop offset="1" stop-color="#628F23"/>
</radialGradient>
<radialGradient id="paint7_radial_1684_930" cx="0" cy="0" r="1" gradientUnits="userSpaceOnUse" gradientTransform="translate(197.124 226.493) rotate(-80.382) scale(43.3598 43.3513)">
<stop offset="0.25" stop-color="#B8E368"/>
<stop offset="1" stop-color="#628F23"/>
</radialGradient>
<radialGradient id="paint8_radial_1684_930" cx="0" cy="0" r="1" gradientUnits="userSpaceOnUse" gradientTransform="translate(163.785 124.674) rotate(-80.3819) scale(41.277 41.2689)">
<stop offset="0.25" stop-color="#B8E368"/>
<stop offset="1" stop-color="#628F23"/>
</radialGradient>
<radialGradient id="paint9_radial_1684_930" cx="0" cy="0" r="1" gradientUnits="userSpaceOnUse" gradientTransform="translate(115.557 159.996) rotate(-80.3819) scale(45.6319 45.623)">
<stop offset="0.25" stop-color="#B8E368"/>
<stop offset="1" stop-color="#628F23"/>
</radialGradient>
<radialGradient id="paint10_radial_1684_930" cx="0" cy="0" r="1" gradientUnits="userSpaceOnUse" gradientTransform="translate(88.4769 122.085) rotate(-80.3819) scale(36.9694 36.9622)">
<stop offset="0.25" stop-color="#B8E368"/>
<stop offset="1" stop-color="#628F23"/>
</radialGradient>
<radialGradient id="paint11_radial_1684_930" cx="0" cy="0" r="1" gradientUnits="userSpaceOnUse" gradientTransform="translate(103.11 80.2041) rotate(-80.382) scale(38.3895 38.382)">
<stop offset="0.1" stop-color="#AADB59"/>
<stop offset="1" stop-color="#3D7411"/>
</radialGradient>
<radialGradient id="paint12_radial_1684_930" cx="0" cy="0" r="1" gradientUnits="userSpaceOnUse" gradientTransform="translate(55.4048 87.2398) rotate(-80.3819) scale(35.1233 35.1165)">
<stop offset="0.1" stop-color="#AADB59"/>
<stop offset="1" stop-color="#3D7411"/>
</radialGradient>
<radialGradient id="paint13_radial_1684_930" cx="0" cy="0" r="1" gradientUnits="userSpaceOnUse" gradientTransform="translate(75.8125 44.9928) rotate(-80.3819) scale(29.3483 29.3426)">
<stop offset="0.1" stop-color="#AADB59"/>
<stop offset="1" stop-color="#3D7411"/>
</radialGradient>
<radialGradient id="paint14_radial_1684_930" cx="0" cy="0" r="1" gradientUnits="userSpaceOnUse" gradientTransform="translate(444.055 440.163) rotate(50.3358) scale(251.76 251.751)">
<stop offset="0.1" stop-color="#AADB59"/>
<stop offset="1" stop-color="#3D7411"/>
</radialGradient>
<radialGradient id="paint15_radial_1684_930" cx="0" cy="0" r="1" gradientUnits="userSpaceOnUse" gradientTransform="translate(192.801 234.162) rotate(-80.382) scale(269.389 269.336)">
<stop offset="0.1" stop-color="#AADB59"/>
<stop offset="1" stop-color="#3D7411"/>
</radialGradient>
<radialGradient id="paint16_radial_1684_930" cx="0" cy="0" r="1" gradientUnits="userSpaceOnUse" gradientTransform="translate(151.771 119.373) rotate(-80.382) scale(240.656 240.609)">
<stop offset="0.1" stop-color="#AADB59"/>
<stop offset="1" stop-color="#3D7411"/>
</radialGradient>
<radialGradient id="paint17_radial_1684_930" cx="0" cy="0" r="1" gradientUnits="userSpaceOnUse" gradientTransform="translate(7.93726 -91.2479) rotate(-80.3819) scale(314.832 314.77)">
<stop offset="0.1" stop-color="#AADB59"/>
<stop offset="1" stop-color="#3D7411"/>
</radialGradient>
<radialGradient id="paint18_radial_1684_930" cx="0" cy="0" r="1" gradientUnits="userSpaceOnUse" gradientTransform="translate(289.02 385.658) rotate(50.3358) scale(208.948 208.94)">
<stop stop-color="#639221"/>
<stop offset="1" stop-color="#53590B"/>
</radialGradient>
<radialGradient id="paint19_radial_1684_930" cx="0" cy="0" r="1" gradientUnits="userSpaceOnUse" gradientTransform="translate(305.686 336.82) rotate(48.5759) scale(137.594 138.508)">
<stop offset="0.25" stop-color="#B8E368"/>
<stop offset="1" stop-color="#628F23"/>
</radialGradient>
<radialGradient id="paint20_radial_1684_930" cx="0" cy="0" r="1" gradientUnits="userSpaceOnUse" gradientTransform="translate(449.006 505.977) rotate(50.3358) scale(24.2815 24.2805)">
<stop offset="0.1" stop-color="#F5FAE0"/>
<stop offset="1" stop-color="#CCEE7A"/>
</radialGradient>
<radialGradient id="paint21_radial_1684_930" cx="0" cy="0" r="1" gradientUnits="userSpaceOnUse" gradientTransform="translate(414.979 451.368) rotate(50.3359) scale(22.3645 22.3637)">
<stop offset="0.1" stop-color="#F5FAE0"/>
<stop offset="1" stop-color="#CCEE7A"/>
</radialGradient>
<radialGradient id="paint22_radial_1684_930" cx="0" cy="0" r="1" gradientUnits="userSpaceOnUse" gradientTransform="translate(388.778 419.322) rotate(50.3358) scale(24.5654 24.5645)">
<stop offset="0.1" stop-color="#F5FAE0"/>
<stop offset="1" stop-color="#CCEE7A"/>
</radialGradient>
<radialGradient id="paint23_radial_1684_930" cx="0" cy="0" r="1" gradientUnits="userSpaceOnUse" gradientTransform="translate(347.429 396.705) rotate(50.3358) scale(20.4475 20.4467)">
<stop offset="0.1" stop-color="#F5FAE0"/>
<stop offset="1" stop-color="#CCEE7A"/>
</radialGradient>
<radialGradient id="paint24_radial_1684_930" cx="0" cy="0" r="1" gradientUnits="userSpaceOnUse" gradientTransform="translate(296.672 359.293) rotate(50.3358) scale(21.9385 21.9377)">
<stop offset="0.1" stop-color="#F5FAE0"/>
<stop offset="1" stop-color="#CCEE7A"/>
</radialGradient>
<radialGradient id="paint25_radial_1684_930" cx="0" cy="0" r="1" gradientUnits="userSpaceOnUse" gradientTransform="translate(404.032 510.352) rotate(50.3358) scale(18.3176 18.3169)">
<stop offset="0.1" stop-color="#F5FAE0"/>
<stop offset="1" stop-color="#CCEE7A"/>
</radialGradient>
<radialGradient id="paint26_radial_1684_930" cx="0" cy="0" r="1" gradientUnits="userSpaceOnUse" gradientTransform="translate(363.457 495.12) rotate(50.3359) scale(21.5835 21.5827)">
<stop offset="0.1" stop-color="#F5FAE0"/>
<stop offset="1" stop-color="#CCEE7A"/>
</radialGradient>
<radialGradient id="paint27_radial_1684_930" cx="0" cy="0" r="1" gradientUnits="userSpaceOnUse" gradientTransform="translate(328.705 477.455) rotate(50.3358) scale(20.7315 20.7308)">
<stop offset="0.1" stop-color="#F5FAE0"/>
<stop offset="1" stop-color="#CCEE7A"/>
</radialGradient>
<radialGradient id="paint28_radial_1684_930" cx="0" cy="0" r="1" gradientUnits="userSpaceOnUse" gradientTransform="translate(292.839 442.542) rotate(50.3359) scale(14.6257 14.6251)">
<stop offset="0.1" stop-color="#F5FAE0"/>
<stop offset="1" stop-color="#CCEE7A"/>
</radialGradient>
<radialGradient id="paint29_radial_1684_930" cx="0" cy="0" r="1" gradientUnits="userSpaceOnUse" gradientTransform="translate(251.576 399.006) rotate(50.3359) scale(8.3778 8.37748)">
<stop offset="0.1" stop-color="#F5FAE0"/>
<stop offset="1" stop-color="#CCEE7A"/>
</radialGradient>
</defs>
</svg>
