<svg width="78" height="61" viewBox="0 0 78 61" fill="none" xmlns="http://www.w3.org/2000/svg">
<g filter="url(#filter0_f_1265_4818)">
<path d="M6 32C6 36.2023 6.84275 40.3634 8.48014 44.2459C10.1175 48.1283 12.5175 51.6559 15.543 54.6274C18.5685 57.5989 22.1603 59.956 26.1133 61.5641C30.0663 63.1723 34.3031 64 38.5818 64C42.8605 64 47.0973 63.1723 51.0503 61.5641C55.0033 59.956 58.5951 57.5989 61.6206 54.6274C64.6461 51.6559 67.0461 48.1283 68.6835 44.2459C70.3209 40.3635 71.1636 36.2023 71.1636 32H66.9197C66.9197 35.6549 66.1867 39.2741 64.7626 42.6508C63.3385 46.0275 61.2511 49.0957 58.6197 51.6801C55.9883 54.2645 52.8644 56.3146 49.4263 57.7133C45.9881 59.112 42.3032 59.8319 38.5818 59.8318C34.8604 59.8318 31.1755 59.112 27.7374 57.7133C24.2993 56.3146 21.1753 54.2645 18.5439 51.6801C15.9125 49.0957 13.8251 46.0275 12.401 42.6508C10.9769 39.2741 10.2439 35.6549 10.2439 32H6Z" fill="url(#paint0_linear_1265_4818)"/>
</g>
<path d="M38.8548 61.6578C55.5314 61.6578 69.0505 48.1387 69.0505 31.4621C69.0505 14.7855 55.5314 1.26648 38.8548 1.26648C22.1782 1.26648 8.65918 14.7855 8.65918 31.4621C8.65918 48.1387 22.1782 61.6578 38.8548 61.6578Z" fill="url(#paint1_linear_1265_4818)"/>
<g filter="url(#filter1_f_1265_4818)">
<path d="M19.0049 33.0693C19.0049 35.6671 19.5166 38.2394 20.5107 40.6395C21.5048 43.0395 22.9619 45.2202 24.7988 47.0572C26.6358 48.8941 28.8165 50.3512 31.2165 51.3453C33.6166 52.3394 36.1889 52.8511 38.7867 52.8511C41.3845 52.8511 43.9568 52.3394 46.3569 51.3453C48.7569 50.3512 50.9376 48.8941 52.7746 47.0572C54.6115 45.2202 56.0686 43.0395 57.0627 40.6395C58.0568 38.2394 58.5685 35.6671 58.5685 33.0693H55.9918C55.9918 35.3287 55.5468 37.566 54.6822 39.6534C53.8175 41.7408 52.5502 43.6375 50.9526 45.2352C49.3549 46.8328 47.4582 48.1001 45.3708 48.9648C43.2834 49.8294 41.0461 50.2744 38.7867 50.2744C36.5273 50.2744 34.29 49.8294 32.2026 48.9648C30.1152 48.1001 28.2185 46.8328 26.6208 45.2352C25.0232 43.6375 23.7559 41.7408 22.8912 39.6534C22.0266 37.566 21.5816 35.3287 21.5816 33.0693H19.0049Z" fill="url(#paint2_linear_1265_4818)"/>
</g>
<path d="M45.217 49.506C54.9398 46.1087 60.0677 35.4728 56.6704 25.7499C53.2732 16.0271 42.6372 10.8992 32.9143 14.2964C23.1915 17.6937 18.0636 28.3297 21.4609 38.0526C24.8582 47.7754 35.4941 52.9033 45.217 49.506Z" fill="url(#paint3_linear_1265_4818)"/>
<defs>
<filter id="filter0_f_1265_4818" x="0" y="26" width="77.1641" height="44" filterUnits="userSpaceOnUse" color-interpolation-filters="sRGB">
<feFlood flood-opacity="0" result="BackgroundImageFix"/>
<feBlend mode="normal" in="SourceGraphic" in2="BackgroundImageFix" result="shape"/>
<feGaussianBlur stdDeviation="3" result="effect1_foregroundBlur_1265_4818"/>
</filter>
<filter id="filter1_f_1265_4818" x="11.0049" y="25.0693" width="55.5635" height="35.7817" filterUnits="userSpaceOnUse" color-interpolation-filters="sRGB">
<feFlood flood-opacity="0" result="BackgroundImageFix"/>
<feBlend mode="normal" in="SourceGraphic" in2="BackgroundImageFix" result="shape"/>
<feGaussianBlur stdDeviation="4" result="effect1_foregroundBlur_1265_4818"/>
</filter>
<linearGradient id="paint0_linear_1265_4818" x1="38.6024" y1="35.0563" x2="38.5825" y2="64" gradientUnits="userSpaceOnUse">
<stop stop-opacity="0"/>
<stop offset="1" stop-opacity="0.78"/>
</linearGradient>
<linearGradient id="paint1_linear_1265_4818" x1="23.757" y1="57.6155" x2="53.9563" y2="5.30871" gradientUnits="userSpaceOnUse">
<stop offset="0.45" stop-color="#A56C0B"/>
<stop offset="0.52" stop-color="#A76F0E"/>
<stop offset="0.58" stop-color="#AE7A18"/>
<stop offset="0.64" stop-color="#BA8C29"/>
<stop offset="0.7" stop-color="#CCA540"/>
<stop offset="0.76" stop-color="#E2C65F"/>
<stop offset="0.8" stop-color="#F8E67D"/>
</linearGradient>
<linearGradient id="paint2_linear_1265_4818" x1="38.7992" y1="34.9586" x2="38.7867" y2="52.8511" gradientUnits="userSpaceOnUse">
<stop stop-opacity="0"/>
<stop offset="1" stop-opacity="0.89"/>
</linearGradient>
<linearGradient id="paint3_linear_1265_4818" x1="29.7186" y1="48.0971" x2="48.3708" y2="15.7886" gradientUnits="userSpaceOnUse">
<stop stop-color="#A56C0B"/>
<stop offset="0.37" stop-color="#CBA53F"/>
<stop offset="0.5" stop-color="#F8EDB6"/>
<stop offset="0.76" stop-color="#F8E999"/>
<stop offset="1" stop-color="#F8E67D"/>
</linearGradient>
</defs>
</svg>
