<svg width="54" height="54" viewBox="0 0 54 54" fill="none" xmlns="http://www.w3.org/2000/svg">
<path d="M37.405 52.8867C36.6571 53.0674 35.5142 53.3507 33.6535 53.5054C31.8515 53.6527 30.0713 53.4823 30.0545 53.482C29.5614 53.4324 28.9095 53.3719 28.4169 53.2888C27.8574 53.2046 27.1228 53.0758 26.5726 52.9332C25.5974 52.675 24.3142 52.3032 23.3567 51.9783C22.8405 51.8027 22.167 51.5159 21.6598 51.2986C21.2358 51.1161 19.8479 50.4832 18.5708 49.7264C18.1146 49.4597 17.5179 49.0819 17.0787 48.7988C16.5569 48.4473 15.8614 47.9676 15.3738 47.5665C14.9193 47.1993 14.2992 46.7124 13.8616 46.3288C13.4075 45.9282 12.8049 45.3914 12.3764 44.9661C11.981 44.558 11.4202 44.0302 11.0503 43.5975C10.672 43.173 10.1704 42.6042 9.80877 42.18C9.43919 41.7305 8.95484 41.1285 8.61077 40.6543C8.07805 39.9344 6.97195 38.4186 5.63732 36.0035C5.36869 35.5221 5.02727 34.8806 4.80088 34.3747C4.58246 33.8942 4.27425 33.2699 4.07257 32.7896C3.86265 32.3008 3.59665 31.652 3.39524 31.155C3.19356 30.6747 2.96108 30.0264 2.79314 29.5299C2.48968 28.6044 2.09931 27.351 1.84633 26.4095C1.71983 25.9387 1.56224 25.3168 1.46922 24.8466C1.38417 24.4016 1.2513 23.8052 1.16626 23.3602C1.08121 22.9152 0.990282 22.3111 0.930473 21.8581C0.80156 21.0107 0.605636 19.1075 0.594635 17.6843C0.590589 16.8806 0.575311 15.1979 0.866595 13.1852C1.26038 10.5128 2.04153 8.2232 3.19252 6.36637C4.05132 4.99041 5.06423 3.92661 6.38427 3.0267C8.22046 1.775 10.2382 1.22092 11.003 1.02374C8.49835 1.67056 6.49584 2.85267 5.19765 4.48954C6.48761 2.84417 8.50685 1.66233 11.003 1.02374C12.0197 0.780312 12.1289 0.756935 13.1442 0.597192C13.8156 0.490609 14.8634 0.398334 14.8716 0.406835C16.1704 0.318535 16.6643 0.317982 17.5681 0.332259C18.2628 0.334863 18.5553 0.364584 19.8178 0.459863C20.9381 0.544525 22.7083 0.82362 24.1347 1.13912C26.3703 1.62645 28.0526 2.17202 28.7019 2.39991C29.7176 2.75078 31.4157 3.34681 33.4593 4.33335C35.8103 5.46704 37.3268 6.43686 38.139 6.95192C38.7743 7.35817 39.7785 8.08275 41.1516 9.12566C41.5982 9.46754 42.1511 9.97014 42.5807 10.3285C42.5889 10.337 43.7866 11.352 45.3337 13.0338C46.6175 14.4269 47.6088 15.7902 47.879 16.1712C49.1074 17.8982 49.8226 19.2488 50.0177 19.6202C50.4805 20.5231 51.0388 21.7457 51.4342 22.6811C51.6441 23.1699 51.8593 23.8513 52.0355 24.3563C52.3079 25.1307 52.7732 26.9378 52.8949 27.7098C52.9784 28.2552 53.1259 28.9858 53.1674 29.5389C53.2442 30.5027 53.2991 31.801 53.309 32.7638C53.309 32.7638 53.3022 34.2537 52.9716 36.1067C52.8704 36.6827 52.7076 37.4502 52.5397 38.0084C52.3357 38.7334 52.0027 39.6824 51.7238 40.3811C51.6977 40.4393 51.1652 41.8288 50.1005 43.5196C47.9194 47.0008 45.3279 48.9018 44.3623 49.6232C43.4899 50.2707 42.1802 51.0452 41.1851 51.515C40.4261 51.8713 40.1899 51.9848 39.0701 52.394C38.5733 52.5787 37.9005 52.7857 37.388 52.9031L37.405 52.8867Z" fill="url(#paint0_radial_1631_7933)"/>
<defs>
<radialGradient id="paint0_radial_1631_7933" cx="0" cy="0" r="1" gradientUnits="userSpaceOnUse" gradientTransform="translate(23.7978 22.5471) rotate(-44.095) scale(26.7975 38.8564)">
<stop stop-color="#F0C57C"/>
<stop offset="0.38" stop-color="#B98E53"/>
<stop offset="0.72" stop-color="#8B6031"/>
<stop offset="0.78" stop-color="#8F6232"/>
<stop offset="0.84" stop-color="#9C6A37"/>
<stop offset="0.91" stop-color="#B3763F"/>
<stop offset="0.98" stop-color="#D1884A"/>
<stop offset="1" stop-color="#DC8E4E"/>
</radialGradient>
</defs>
</svg>
