<svg width="162" height="61" viewBox="0 0 162 61" fill="none" xmlns="http://www.w3.org/2000/svg">
<path d="M1.33128 0.82795C0.810176 0.644992 0.239424 0.919109 0.0564659 1.44021C-0.126493 1.96131 0.147625 2.53206 0.668724 2.71502L1.33128 0.82795ZM82.5 58.9997L81.7693 59.6824L82.4935 60.4577L83.2247 59.6889L82.5 58.9997ZM126 21.2008L125.455 20.3626L126 21.2008ZM39.5 21.2008L40.0465 20.3633L39.5 21.2008ZM82.5 58.9997C83.2247 59.6889 83.2247 59.6888 83.2248 59.6887C83.225 59.6885 83.2252 59.6883 83.2255 59.6879C83.2262 59.6873 83.2272 59.6862 83.2285 59.6848C83.2313 59.6819 83.2355 59.6775 83.241 59.6717C83.2522 59.66 83.2691 59.6423 83.2915 59.6188C83.3363 59.5719 83.4034 59.5018 83.492 59.4097C83.6691 59.2254 83.9319 58.9528 84.2738 58.6011C84.9575 57.8975 85.9572 56.8772 87.2191 55.6121C89.7432 53.0817 93.3148 49.5735 97.5037 45.6639C105.892 37.835 116.716 28.4336 126.545 22.0391L125.455 20.3626C115.475 26.8548 104.549 36.3529 96.1391 44.2018C91.9292 48.131 88.3401 51.6563 85.8032 54.1996C84.5346 55.4714 83.5287 56.498 82.8395 57.2072C82.4949 57.5618 82.2294 57.837 82.0498 58.024C81.96 58.1174 81.8917 58.1888 81.8457 58.2369C81.8227 58.261 81.8052 58.2793 81.7935 58.2916C81.7876 58.2978 81.7831 58.3025 81.7801 58.3056C81.7786 58.3072 81.7774 58.3084 81.7766 58.3093C81.7762 58.3097 81.7759 58.31 81.7757 58.3102C81.7755 58.3105 81.7753 58.3106 82.5 58.9997ZM126.545 22.0391C136.271 15.712 145.114 10.8722 151.524 7.61488C154.729 5.98645 157.324 4.75413 159.117 3.92978C160.013 3.51762 160.708 3.20749 161.178 3.00087C161.413 2.89756 161.592 2.82013 161.711 2.76877C161.771 2.74309 161.816 2.72393 161.845 2.71131C161.86 2.705 161.871 2.70032 161.878 2.69728C161.882 2.69576 161.884 2.69465 161.886 2.69395C161.887 2.6936 161.887 2.69336 161.888 2.69321C161.888 2.69314 161.888 2.69311 161.888 2.69307C161.888 2.69306 161.888 2.69308 161.5 1.77148C161.112 0.849885 161.112 0.849956 161.111 0.850052C161.111 0.850119 161.111 0.850241 161.111 0.850374C161.11 0.850639 161.109 0.851008 161.108 0.851479C161.106 0.852421 161.103 0.853774 161.098 0.855538C161.09 0.859064 161.078 0.864233 161.062 0.87104C161.03 0.884655 160.983 0.904825 160.921 0.931528C160.797 0.984933 160.613 1.06447 160.373 1.16995C159.893 1.38092 159.188 1.69568 158.281 2.11278C156.467 2.94694 153.848 4.19057 150.618 5.83188C144.159 9.11409 135.252 13.9889 125.455 20.3626L126.545 22.0391ZM1 1.77148C0.668724 2.71502 0.668668 2.715 0.668683 2.715C0.668784 2.71504 0.668872 2.71507 0.669073 2.71514C0.669477 2.71528 0.670167 2.71553 0.671143 2.71587C0.673095 2.71656 0.67619 2.71765 0.68042 2.71914C0.688878 2.72214 0.701873 2.72674 0.719336 2.73296C0.754262 2.74539 0.807058 2.76428 0.87717 2.7896C1.0174 2.84025 1.22688 2.91664 1.50119 3.01867C2.04983 3.22271 2.85772 3.52926 3.88944 3.93738C5.95302 4.75369 8.91124 5.97605 12.4809 7.59713C19.6226 10.8403 29.2001 15.6742 38.9535 22.0383L40.0465 20.3633C30.185 13.9287 20.5125 9.04789 13.3079 5.77611C9.70444 4.13969 6.71546 2.90449 4.62512 2.0776C3.57988 1.66413 2.75913 1.35267 2.19837 1.14411C1.91798 1.03983 1.70257 0.961272 1.55658 0.908542C1.48359 0.882177 1.42795 0.86227 1.39021 0.848833C1.37134 0.842115 1.35695 0.837014 1.34711 0.833533C1.34218 0.831793 1.3384 0.830457 1.33576 0.829527C1.33443 0.829061 1.3334 0.828697 1.33265 0.828435C1.33228 0.828303 1.33194 0.828182 1.33175 0.828116C1.33148 0.828021 1.33128 0.82795 1 1.77148ZM38.9535 22.0383C48.7221 28.4123 59.4196 37.8118 67.6971 45.645C71.8306 49.5566 75.3505 53.0679 77.8367 55.601C79.0797 56.8674 80.064 57.889 80.737 58.5934C81.0735 58.9456 81.3321 59.2185 81.5064 59.403C81.5935 59.4952 81.6595 59.5654 81.7036 59.6124C81.7256 59.6358 81.7422 59.6535 81.7532 59.6652C81.7587 59.6711 81.7628 59.6755 81.7654 59.6783C81.7668 59.6798 81.7678 59.6808 81.7684 59.6815C81.7687 59.6818 81.7689 59.6821 81.7691 59.6822C81.7692 59.6824 81.7693 59.6824 82.5 58.9997C83.2307 58.3171 83.2306 58.3169 83.2304 58.3167C83.2302 58.3165 83.2298 58.3161 83.2295 58.3157C83.2287 58.3149 83.2275 58.3137 83.226 58.3121C83.2231 58.3089 83.2187 58.3042 83.2129 58.298C83.2013 58.2856 83.1841 58.2673 83.1615 58.2432C83.1162 58.195 83.0489 58.1235 82.9605 58.0298C82.7837 57.8426 82.5224 57.5669 82.1831 57.2118C81.5045 56.5015 80.5139 55.4735 79.2641 54.2001C76.7647 51.6535 73.2268 48.1243 69.0718 44.1923C60.7722 36.3383 49.9697 26.8383 40.0465 20.3633L38.9535 22.0383Z" fill="url(#paint0_linear_4001_2245)"/>
<defs>
<linearGradient id="paint0_linear_4001_2245" x1="1.00107" y1="30.3856" x2="161.5" y2="30.3856" gradientUnits="userSpaceOnUse">
<stop stop-color="#A56C0B"/>
<stop offset="0.01" stop-color="#AD7816"/>
<stop offset="0.06" stop-color="#C79F3A"/>
<stop offset="0.1" stop-color="#DCBE57"/>
<stop offset="0.14" stop-color="#EBD46C"/>
<stop offset="0.19" stop-color="#F4E178"/>
<stop offset="0.22" stop-color="#F8E67D"/>
<stop offset="0.27" stop-color="#F4E077"/>
<stop offset="0.34" stop-color="#E8D068"/>
<stop offset="0.41" stop-color="#D6B64F"/>
<stop offset="0.45" stop-color="#C9A33D"/>
<stop offset="0.57" stop-color="#C38F1B"/>
<stop offset="0.75" stop-color="#E6C95C"/>
<stop offset="0.84" stop-color="#F8E67D"/>
<stop offset="0.86" stop-color="#F4E077"/>
<stop offset="0.9" stop-color="#E9D167"/>
<stop offset="0.94" stop-color="#D8B94C"/>
<stop offset="0.98" stop-color="#C19728"/>
<stop offset="1" stop-color="#B48514"/>
</linearGradient>
</defs>
</svg>
