<svg width="36" height="36" viewBox="0 0 36 36" fill="none" xmlns="http://www.w3.org/2000/svg">
<path d="M18 33C25.689 33 30 27.7845 30 19.5C30 11.2155 23.349 3 18 3C12.651 3 6 11.2155 6 19.5C6 27.7845 10.311 33 18 33Z" stroke="white" stroke-width="1.5"/>
<path d="M18 33C25.689 33 30 27.7845 30 19.5C30 11.2155 23.349 3 18 3C12.651 3 6 11.2155 6 19.5C6 27.7845 10.311 33 18 33Z" stroke="url(#paint0_linear_1655_4137)" stroke-width="1.5"/>
<path d="M16.9874 27.4874C16.6592 27.8156 16.2141 28 15.75 28C15.2859 28 14.8408 27.8156 14.5126 27.4874C14.1844 27.1592 14 26.7141 14 26.25C14 25.7859 14.1844 25.3408 14.5126 25.0126C14.8408 24.6844 15.2859 24.5 15.75 24.5C16.2141 24.5 16.6592 24.6844 16.9874 25.0126C17.3156 25.3408 17.5 25.7859 17.5 26.25C17.5 26.7141 17.3156 27.1592 16.9874 27.4874Z" fill="white"/>
<path d="M16.9874 27.4874C16.6592 27.8156 16.2141 28 15.75 28C15.2859 28 14.8408 27.8156 14.5126 27.4874C14.1844 27.1592 14 26.7141 14 26.25C14 25.7859 14.1844 25.3408 14.5126 25.0126C14.8408 24.6844 15.2859 24.5 15.75 24.5C16.2141 24.5 16.6592 24.6844 16.9874 25.0126C17.3156 25.3408 17.5 25.7859 17.5 26.25C17.5 26.7141 17.3156 27.1592 16.9874 27.4874Z" fill="url(#paint1_linear_1655_4137)"/>
<path d="M16.9874 27.4874C16.6592 27.8156 16.2141 28 15.75 28C15.2859 28 14.8408 27.8156 14.5126 27.4874C14.1844 27.1592 14 26.7141 14 26.25C14 25.7859 14.1844 25.3408 14.5126 25.0126C14.8408 24.6844 15.2859 24.5 15.75 24.5C16.2141 24.5 16.6592 24.6844 16.9874 25.0126C17.3156 25.3408 17.5 25.7859 17.5 26.25C17.5 26.7141 17.3156 27.1592 16.9874 27.4874Z" stroke="white"/>
<path d="M16.9874 27.4874C16.6592 27.8156 16.2141 28 15.75 28C15.2859 28 14.8408 27.8156 14.5126 27.4874C14.1844 27.1592 14 26.7141 14 26.25C14 25.7859 14.1844 25.3408 14.5126 25.0126C14.8408 24.6844 15.2859 24.5 15.75 24.5C16.2141 24.5 16.6592 24.6844 16.9874 25.0126C17.3156 25.3408 17.5 25.7859 17.5 26.25C17.5 26.7141 17.3156 27.1592 16.9874 27.4874Z" stroke="url(#paint2_linear_1655_4137)"/>
<path d="M12.7071 21.4581C12.5196 21.6457 12.2652 21.751 12 21.751C11.7348 21.751 11.4804 21.6457 11.2929 21.4581C11.1054 21.2706 11 21.0162 11 20.751C11 20.4858 11.1054 20.2314 11.2929 20.0439C11.4804 19.8564 11.7348 19.751 12 19.751C12.2652 19.751 12.5196 19.8564 12.7071 20.0439C12.8946 20.2314 13 20.4858 13 20.751C13 21.0162 12.8946 21.2706 12.7071 21.4581Z" fill="white"/>
<path d="M12.7071 21.4581C12.5196 21.6457 12.2652 21.751 12 21.751C11.7348 21.751 11.4804 21.6457 11.2929 21.4581C11.1054 21.2706 11 21.0162 11 20.751C11 20.4858 11.1054 20.2314 11.2929 20.0439C11.4804 19.8564 11.7348 19.751 12 19.751C12.2652 19.751 12.5196 19.8564 12.7071 20.0439C12.8946 20.2314 13 20.4858 13 20.751C13 21.0162 12.8946 21.2706 12.7071 21.4581Z" fill="url(#paint3_linear_1655_4137)"/>
<path d="M12.7071 21.4581C12.5196 21.6457 12.2652 21.751 12 21.751C11.7348 21.751 11.4804 21.6457 11.2929 21.4581C11.1054 21.2706 11 21.0162 11 20.751C11 20.4858 11.1054 20.2314 11.2929 20.0439C11.4804 19.8564 11.7348 19.751 12 19.751C12.2652 19.751 12.5196 19.8564 12.7071 20.0439C12.8946 20.2314 13 20.4858 13 20.751C13 21.0162 12.8946 21.2706 12.7071 21.4581Z" stroke="white"/>
<path d="M12.7071 21.4581C12.5196 21.6457 12.2652 21.751 12 21.751C11.7348 21.751 11.4804 21.6457 11.2929 21.4581C11.1054 21.2706 11 21.0162 11 20.751C11 20.4858 11.1054 20.2314 11.2929 20.0439C11.4804 19.8564 11.7348 19.751 12 19.751C12.2652 19.751 12.5196 19.8564 12.7071 20.0439C12.8946 20.2314 13 20.4858 13 20.751C13 21.0162 12.8946 21.2706 12.7071 21.4581Z" stroke="url(#paint4_linear_1655_4137)"/>
<defs>
<linearGradient id="paint0_linear_1655_4137" x1="6.00016" y1="18" x2="30" y2="18" gradientUnits="userSpaceOnUse">
<stop stop-color="#A56C0B"/>
<stop offset="0.01" stop-color="#AD7816"/>
<stop offset="0.06" stop-color="#C79F3A"/>
<stop offset="0.1" stop-color="#DCBE57"/>
<stop offset="0.14" stop-color="#EBD46C"/>
<stop offset="0.19" stop-color="#F4E178"/>
<stop offset="0.22" stop-color="#F8E67D"/>
<stop offset="0.27" stop-color="#F4E077"/>
<stop offset="0.34" stop-color="#E8D068"/>
<stop offset="0.41" stop-color="#D6B64F"/>
<stop offset="0.45" stop-color="#C9A33D"/>
<stop offset="0.57" stop-color="#C38F1B"/>
<stop offset="0.75" stop-color="#E6C95C"/>
<stop offset="0.84" stop-color="#F8E67D"/>
<stop offset="0.86" stop-color="#F4E077"/>
<stop offset="0.9" stop-color="#E9D167"/>
<stop offset="0.94" stop-color="#D8B94C"/>
<stop offset="0.98" stop-color="#C19728"/>
<stop offset="1" stop-color="#B48514"/>
</linearGradient>
<linearGradient id="paint1_linear_1655_4137" x1="13.5" y1="26.25" x2="18" y2="26.25" gradientUnits="userSpaceOnUse">
<stop stop-color="#A56C0B"/>
<stop offset="0.01" stop-color="#AD7816"/>
<stop offset="0.06" stop-color="#C79F3A"/>
<stop offset="0.1" stop-color="#DCBE57"/>
<stop offset="0.14" stop-color="#EBD46C"/>
<stop offset="0.19" stop-color="#F4E178"/>
<stop offset="0.22" stop-color="#F8E67D"/>
<stop offset="0.27" stop-color="#F4E077"/>
<stop offset="0.34" stop-color="#E8D068"/>
<stop offset="0.41" stop-color="#D6B64F"/>
<stop offset="0.45" stop-color="#C9A33D"/>
<stop offset="0.57" stop-color="#C38F1B"/>
<stop offset="0.75" stop-color="#E6C95C"/>
<stop offset="0.84" stop-color="#F8E67D"/>
<stop offset="0.86" stop-color="#F4E077"/>
<stop offset="0.9" stop-color="#E9D167"/>
<stop offset="0.94" stop-color="#D8B94C"/>
<stop offset="0.98" stop-color="#C19728"/>
<stop offset="1" stop-color="#B48514"/>
</linearGradient>
<linearGradient id="paint2_linear_1655_4137" x1="13.5" y1="26.25" x2="18" y2="26.25" gradientUnits="userSpaceOnUse">
<stop stop-color="#A56C0B"/>
<stop offset="0.01" stop-color="#AD7816"/>
<stop offset="0.06" stop-color="#C79F3A"/>
<stop offset="0.1" stop-color="#DCBE57"/>
<stop offset="0.14" stop-color="#EBD46C"/>
<stop offset="0.19" stop-color="#F4E178"/>
<stop offset="0.22" stop-color="#F8E67D"/>
<stop offset="0.27" stop-color="#F4E077"/>
<stop offset="0.34" stop-color="#E8D068"/>
<stop offset="0.41" stop-color="#D6B64F"/>
<stop offset="0.45" stop-color="#C9A33D"/>
<stop offset="0.57" stop-color="#C38F1B"/>
<stop offset="0.75" stop-color="#E6C95C"/>
<stop offset="0.84" stop-color="#F8E67D"/>
<stop offset="0.86" stop-color="#F4E077"/>
<stop offset="0.9" stop-color="#E9D167"/>
<stop offset="0.94" stop-color="#D8B94C"/>
<stop offset="0.98" stop-color="#C19728"/>
<stop offset="1" stop-color="#B48514"/>
</linearGradient>
<linearGradient id="paint3_linear_1655_4137" x1="10.5" y1="20.751" x2="13.5" y2="20.751" gradientUnits="userSpaceOnUse">
<stop stop-color="#A56C0B"/>
<stop offset="0.01" stop-color="#AD7816"/>
<stop offset="0.06" stop-color="#C79F3A"/>
<stop offset="0.1" stop-color="#DCBE57"/>
<stop offset="0.14" stop-color="#EBD46C"/>
<stop offset="0.19" stop-color="#F4E178"/>
<stop offset="0.22" stop-color="#F8E67D"/>
<stop offset="0.27" stop-color="#F4E077"/>
<stop offset="0.34" stop-color="#E8D068"/>
<stop offset="0.41" stop-color="#D6B64F"/>
<stop offset="0.45" stop-color="#C9A33D"/>
<stop offset="0.57" stop-color="#C38F1B"/>
<stop offset="0.75" stop-color="#E6C95C"/>
<stop offset="0.84" stop-color="#F8E67D"/>
<stop offset="0.86" stop-color="#F4E077"/>
<stop offset="0.9" stop-color="#E9D167"/>
<stop offset="0.94" stop-color="#D8B94C"/>
<stop offset="0.98" stop-color="#C19728"/>
<stop offset="1" stop-color="#B48514"/>
</linearGradient>
<linearGradient id="paint4_linear_1655_4137" x1="10.5" y1="20.751" x2="13.5" y2="20.751" gradientUnits="userSpaceOnUse">
<stop stop-color="#A56C0B"/>
<stop offset="0.01" stop-color="#AD7816"/>
<stop offset="0.06" stop-color="#C79F3A"/>
<stop offset="0.1" stop-color="#DCBE57"/>
<stop offset="0.14" stop-color="#EBD46C"/>
<stop offset="0.19" stop-color="#F4E178"/>
<stop offset="0.22" stop-color="#F8E67D"/>
<stop offset="0.27" stop-color="#F4E077"/>
<stop offset="0.34" stop-color="#E8D068"/>
<stop offset="0.41" stop-color="#D6B64F"/>
<stop offset="0.45" stop-color="#C9A33D"/>
<stop offset="0.57" stop-color="#C38F1B"/>
<stop offset="0.75" stop-color="#E6C95C"/>
<stop offset="0.84" stop-color="#F8E67D"/>
<stop offset="0.86" stop-color="#F4E077"/>
<stop offset="0.9" stop-color="#E9D167"/>
<stop offset="0.94" stop-color="#D8B94C"/>
<stop offset="0.98" stop-color="#C19728"/>
<stop offset="1" stop-color="#B48514"/>
</linearGradient>
</defs>
</svg>
