<svg width="72" height="72" viewBox="0 0 72 72" fill="none" xmlns="http://www.w3.org/2000/svg">
<g clip-path="url(#clip0_2787_2704)">
<path fill-rule="evenodd" clip-rule="evenodd" d="M35.9997 71.1818V71.1818C16.5676 71.1818 0.817871 55.432 0.817871 35.9999V35.9999C0.817871 16.5678 16.5676 0.818115 35.9997 0.818115V0.818115C55.4318 0.818115 71.1815 16.5678 71.1815 35.9999V35.9999C71.1815 55.432 55.4318 71.1818 35.9997 71.1818Z" fill="#FFEC8A" fill-opacity="0.07" stroke="url(#paint0_linear_2787_2704)" stroke-opacity="0.5" stroke-width="1.63636" stroke-linecap="round" stroke-linejoin="round"/>
<g filter="url(#filter0_d_2787_2704)">
<path fill-rule="evenodd" clip-rule="evenodd" d="M35.9997 62.1818V62.1818C21.5386 62.1818 9.81787 50.461 9.81787 35.9999V35.9999C9.81787 21.5388 21.5386 9.81812 35.9997 9.81812V9.81812C50.4608 9.81812 62.1815 21.5388 62.1815 35.9999V35.9999C62.1815 50.461 50.4608 62.1818 35.9997 62.1818Z" fill="url(#paint1_linear_2787_2704)"/>
</g>
<g clip-path="url(#clip1_2787_2704)">
<g filter="url(#filter1_ddi_2787_2704)">
<path fill-rule="evenodd" clip-rule="evenodd" d="M42.0873 27.8066C42.1354 25.3639 39.4155 23.8966 37.401 25.2905L37.395 25.2947L29.4548 30.8726H26.702C25.0183 30.8726 23.625 32.2659 23.625 33.9497V38.0524C23.625 39.7362 25.0183 41.1295 26.702 41.1295H29.4488L37.2013 46.7009L37.2163 46.7116C39.209 48.0903 42.033 46.6625 42.087 44.2292L42.0873 44.2064V27.8066ZM47.0385 31.9433C46.4969 31.2886 45.527 31.1968 44.8724 31.7384C44.2176 32.28 44.1259 33.2498 44.6675 33.9045C45.1364 34.4714 45.3769 35.1929 45.3418 35.9278C45.3395 35.9766 45.3395 36.0254 45.3418 36.0741C45.3769 36.809 45.1364 37.5305 44.6675 38.0974C44.1259 38.7522 44.2176 39.722 44.8724 40.2635C45.527 40.8051 46.4969 40.7134 47.0385 40.0586C47.9803 38.92 48.4707 37.476 48.4184 36.001C48.4707 34.5259 47.9803 33.0819 47.0385 31.9433Z" fill="white"/>
</g>
</g>
</g>
<defs>
<filter id="filter0_d_2787_2704" x="4.66333" y="4.66357" width="62.6729" height="62.6726" filterUnits="userSpaceOnUse" color-interpolation-filters="sRGB">
<feFlood flood-opacity="0" result="BackgroundImageFix"/>
<feColorMatrix in="SourceAlpha" type="matrix" values="0 0 0 0 0 0 0 0 0 0 0 0 0 0 0 0 0 0 127 0" result="hardAlpha"/>
<feOffset/>
<feGaussianBlur stdDeviation="2.57727"/>
<feComposite in2="hardAlpha" operator="out"/>
<feColorMatrix type="matrix" values="0 0 0 0 0.885 0 0 0 0 0.768439 0 0 0 0 0 0 0 0 1 0"/>
<feBlend mode="normal" in2="BackgroundImageFix" result="effect1_dropShadow_2787_2704"/>
<feBlend mode="normal" in="SourceGraphic" in2="effect1_dropShadow_2787_2704" result="shape"/>
</filter>
<filter id="filter1_ddi_2787_2704" x="20.3523" y="19.8409" width="31.3428" height="32.3182" filterUnits="userSpaceOnUse" color-interpolation-filters="sRGB">
<feFlood flood-opacity="0" result="BackgroundImageFix"/>
<feColorMatrix in="SourceAlpha" type="matrix" values="0 0 0 0 0 0 0 0 0 0 0 0 0 0 0 0 0 0 127 0" result="hardAlpha"/>
<feOffset dy="1.63636"/>
<feGaussianBlur stdDeviation="1.63636"/>
<feComposite in2="hardAlpha" operator="out"/>
<feColorMatrix type="matrix" values="0 0 0 0 0 0 0 0 0 0 0 0 0 0 0 0 0 0 0.15 0"/>
<feBlend mode="normal" in2="BackgroundImageFix" result="effect1_dropShadow_2787_2704"/>
<feColorMatrix in="SourceAlpha" type="matrix" values="0 0 0 0 0 0 0 0 0 0 0 0 0 0 0 0 0 0 127 0" result="hardAlpha"/>
<feOffset dy="-1.63636"/>
<feGaussianBlur stdDeviation="1.63636"/>
<feComposite in2="hardAlpha" operator="out"/>
<feColorMatrix type="matrix" values="0 0 0 0 0 0 0 0 0 0 0 0 0 0 0 0 0 0 0.15 0"/>
<feBlend mode="normal" in2="effect1_dropShadow_2787_2704" result="effect2_dropShadow_2787_2704"/>
<feBlend mode="normal" in="SourceGraphic" in2="effect2_dropShadow_2787_2704" result="shape"/>
<feColorMatrix in="SourceAlpha" type="matrix" values="0 0 0 0 0 0 0 0 0 0 0 0 0 0 0 0 0 0 127 0" result="hardAlpha"/>
<feOffset dx="1" dy="1"/>
<feGaussianBlur stdDeviation="1"/>
<feComposite in2="hardAlpha" operator="arithmetic" k2="-1" k3="1"/>
<feColorMatrix type="matrix" values="0 0 0 0 0.478333 0 0 0 0 0.3444 0 0 0 0 0 0 0 0 0.7 0"/>
<feBlend mode="normal" in2="shape" result="effect3_innerShadow_2787_2704"/>
</filter>
<linearGradient id="paint0_linear_2787_2704" x1="0.818339" y1="35.9999" x2="71.1815" y2="35.9999" gradientUnits="userSpaceOnUse">
<stop stop-color="#A56C0B"/>
<stop offset="0.01" stop-color="#AD7816"/>
<stop offset="0.06" stop-color="#C79F3A"/>
<stop offset="0.1" stop-color="#DCBE57"/>
<stop offset="0.14" stop-color="#EBD46C"/>
<stop offset="0.19" stop-color="#F4E178"/>
<stop offset="0.22" stop-color="#F8E67D"/>
<stop offset="0.27" stop-color="#F4E077"/>
<stop offset="0.34" stop-color="#E8D068"/>
<stop offset="0.41" stop-color="#D6B64F"/>
<stop offset="0.45" stop-color="#C9A33D"/>
<stop offset="0.57" stop-color="#C38F1B"/>
<stop offset="0.75" stop-color="#E6C95C"/>
<stop offset="0.84" stop-color="#F8E67D"/>
<stop offset="0.86" stop-color="#F4E077"/>
<stop offset="0.9" stop-color="#E9D167"/>
<stop offset="0.94" stop-color="#D8B94C"/>
<stop offset="0.98" stop-color="#C19728"/>
<stop offset="1" stop-color="#B48514"/>
</linearGradient>
<linearGradient id="paint1_linear_2787_2704" x1="28.227" y1="8.18175" x2="52.7724" y2="57.2727" gradientUnits="userSpaceOnUse">
<stop stop-color="#EECC50"/>
<stop offset="0.074345" stop-color="#EAC546"/>
<stop offset="0.156695" stop-color="#EAC13B"/>
<stop offset="0.231415" stop-color="#CCA433"/>
<stop offset="0.300427" stop-color="#B78B2D"/>
<stop offset="0.459" stop-color="#A07722"/>
<stop offset="0.634" stop-color="#855F17"/>
<stop offset="0.764" stop-color="#714F0F"/>
<stop offset="0.864" stop-color="#624208"/>
<stop offset="1" stop-color="#4E3000"/>
</linearGradient>
<clipPath id="clip0_2787_2704">
<rect width="72" height="72" fill="white"/>
</clipPath>
<clipPath id="clip1_2787_2704">
<rect width="32" height="32" fill="white" transform="translate(20 20)"/>
</clipPath>
</defs>
</svg>
