<svg width="439" height="439" viewBox="0 0 439 439" fill="none" xmlns="http://www.w3.org/2000/svg">
<path d="M225.74 238.34C235.927 234.78 241.3 223.637 237.74 213.45C234.181 203.263 223.038 197.891 212.851 201.45C202.664 205.01 197.292 216.153 200.851 226.34C204.41 236.526 215.554 241.899 225.74 238.34Z" fill="url(#paint0_linear_1631_7843)"/>
<path d="M219.293 0.84375C98.6664 0.84375 0.548828 98.9882 0.548828 219.615C0.548828 340.241 98.6664 438.359 219.293 438.359C339.919 438.359 438.037 340.241 438.037 219.615C438.037 98.9882 339.919 0.84375 219.293 0.84375ZM219.293 418.24C109.757 418.24 20.6673 329.123 20.6673 219.615C20.6673 116.113 100.23 30.8197 201.415 21.7655L219.166 63.1054L237.194 21.7655C338.382 30.8428 417.918 116.113 417.918 219.615C417.918 329.123 328.828 418.24 219.293 418.24Z" fill="url(#paint1_linear_1631_7843)"/>
<path d="M222.968 15.1419C225.3 12.8096 225.3 9.02828 222.968 6.69601C220.635 4.36375 216.854 4.36376 214.522 6.69603C212.189 9.02829 212.189 12.8096 214.522 15.1419C216.854 17.4741 220.635 17.4742 222.968 15.1419Z" fill="url(#paint2_linear_1631_7843)"/>
<path d="M170.432 16.6348C171.286 19.8207 169.395 23.0951 166.209 23.9521C163.023 24.8052 159.749 22.9144 158.892 19.7285C158.035 16.5426 159.929 13.2683 163.115 12.4113C166.301 11.5581 169.575 13.4489 170.432 16.6348Z" fill="url(#paint3_linear_1631_7843)"/>
<path d="M119.48 36.2073C121.129 39.0627 120.153 42.7174 117.293 44.3661C114.438 46.0148 110.783 45.0387 109.134 42.1794C107.486 39.324 108.466 35.6692 111.321 34.0206C114.177 32.3719 117.831 33.348 119.48 36.2073Z" fill="url(#paint4_linear_1631_7843)"/>
<path d="M75.3265 68.3013C77.6593 70.6341 77.6593 74.4157 75.3265 76.7484C72.9938 79.0811 69.2122 79.0811 66.8794 76.7484C64.5467 74.4157 64.5467 70.6341 66.8794 68.3013C69.2122 65.9686 72.9938 65.9686 75.3265 68.3013Z" fill="url(#paint5_linear_1631_7843)"/>
<path d="M40.9857 110.728C43.8411 112.376 44.8211 116.031 43.1724 118.887C41.5237 121.742 37.8689 122.722 35.0135 121.073C32.1581 119.425 31.1782 115.77 32.8269 112.914C34.4755 110.059 38.1303 109.079 40.9857 110.728Z" fill="url(#paint6_linear_1631_7843)"/>
<path d="M18.7896 160.601C21.9755 161.454 23.8663 164.728 23.0131 167.918C22.1599 171.104 18.8856 172.995 15.6959 172.142C12.51 171.288 10.6192 168.014 11.4723 164.824C12.3255 161.638 15.5998 159.748 18.7896 160.601Z" fill="url(#paint7_linear_1631_7843)"/>
<path d="M10.2651 214.519C13.5624 214.519 16.2372 217.193 16.2372 220.491C16.2372 223.788 13.5624 226.463 10.2651 226.463C6.96772 226.463 4.29297 223.788 4.29297 220.491C4.29297 217.193 6.96772 214.519 10.2651 214.519Z" fill="url(#paint8_linear_1631_7843)"/>
<path d="M15.9849 268.802C19.1708 267.949 22.4452 269.84 23.3022 273.025C24.1553 276.211 22.2645 279.486 19.0786 280.343C15.8927 281.196 12.6184 279.305 11.7614 276.119C10.9082 272.933 12.799 269.659 15.9849 268.802Z" fill="url(#paint9_linear_1631_7843)"/>
<path d="M35.5546 319.758C38.41 318.109 42.0648 319.089 43.7134 321.944C45.3621 324.8 44.3822 328.454 41.5267 330.103C38.6713 331.752 35.0165 330.776 33.3679 327.916C31.7192 325.061 32.6992 321.406 35.5546 319.758Z" fill="url(#paint10_linear_1631_7843)"/>
<path d="M67.6509 363.914C69.9837 361.581 73.7653 361.581 76.098 363.914C78.4307 366.247 78.4307 370.028 76.098 372.361C73.7653 374.694 69.9837 374.694 67.6509 372.361C65.3182 370.028 65.3182 366.247 67.6509 363.914Z" fill="url(#paint11_linear_1631_7843)"/>
<path d="M110.079 398.256C111.727 395.4 115.382 394.42 118.238 396.069C121.093 397.718 122.073 401.372 120.424 404.228C118.776 407.083 115.121 408.063 112.265 406.415C109.41 404.766 108.43 401.111 110.079 398.256Z" fill="url(#paint12_linear_1631_7843)"/>
<path d="M159.951 420.446C160.804 417.26 164.078 415.37 167.268 416.223C170.454 417.076 172.345 420.35 171.492 423.54C170.638 426.726 167.364 428.617 164.174 427.764C160.988 426.91 159.098 423.636 159.951 420.446Z" fill="url(#paint13_linear_1631_7843)"/>
<path d="M213.863 428.974C213.863 425.677 216.538 423.002 219.835 423.002C223.133 423.002 225.808 425.677 225.808 428.974C225.808 432.271 223.133 434.946 219.835 434.946C216.538 434.946 213.863 432.271 213.863 428.974Z" fill="url(#paint14_linear_1631_7843)"/>
<path d="M268.153 423.255C267.3 420.069 269.191 416.795 272.377 415.938C275.562 415.085 278.837 416.975 279.694 420.161C280.547 423.347 278.656 426.621 275.47 427.478C272.284 428.332 269.01 426.441 268.153 423.255Z" fill="url(#paint15_linear_1631_7843)"/>
<path d="M319.108 403.682C317.459 400.827 318.439 397.172 321.295 395.523C324.15 393.875 327.805 394.851 329.454 397.71C331.102 400.566 330.126 404.22 327.267 405.869C324.412 407.518 320.757 406.538 319.108 403.682Z" fill="url(#paint16_linear_1631_7843)"/>
<path d="M363.264 371.59C360.931 369.257 360.931 365.475 363.264 363.143C365.597 360.81 369.379 360.81 371.711 363.143C374.044 365.475 374.044 369.257 371.711 371.59C369.379 373.922 365.597 373.922 363.264 371.59Z" fill="url(#paint17_linear_1631_7843)"/>
<path d="M397.602 329.161C394.746 327.512 393.766 323.857 395.415 321.002C397.063 318.146 400.718 317.166 403.574 318.815C406.429 320.464 407.409 324.119 405.76 326.974C404.112 329.829 400.457 330.809 397.602 329.161Z" fill="url(#paint18_linear_1631_7843)"/>
<path d="M419.793 279.289C416.607 278.436 414.716 275.162 415.569 271.972C416.422 268.786 419.696 266.896 422.886 267.749C426.072 268.602 427.963 271.876 427.11 275.066C426.257 278.252 422.982 280.143 419.793 279.289Z" fill="url(#paint19_linear_1631_7843)"/>
<path d="M428.322 225.372C425.024 225.372 422.35 222.697 422.35 219.399C422.35 216.102 425.024 213.427 428.322 213.427C431.619 213.427 434.294 216.102 434.294 219.399C434.294 222.697 431.619 225.372 428.322 225.372Z" fill="url(#paint20_linear_1631_7843)"/>
<path d="M422.607 171.088C419.421 171.941 416.147 170.051 415.29 166.865C414.437 163.679 416.327 160.405 419.513 159.548C422.699 158.694 425.973 160.585 426.83 163.771C427.684 166.957 425.793 170.231 422.607 171.088Z" fill="url(#paint21_linear_1631_7843)"/>
<path d="M403.03 120.133C400.175 121.782 396.52 120.805 394.872 117.946C393.223 115.091 394.199 111.436 397.058 109.787C399.914 108.139 403.568 109.119 405.217 111.974C406.866 114.829 405.886 118.484 403.03 120.133Z" fill="url(#paint22_linear_1631_7843)"/>
<path d="M370.933 75.9759C368.6 78.3087 364.819 78.3087 362.486 75.9759C360.153 73.6432 360.153 69.8616 362.486 67.5289C364.819 65.1961 368.6 65.1961 370.933 67.5289C373.266 69.8616 373.266 73.6432 370.933 75.9759Z" fill="url(#paint23_linear_1631_7843)"/>
<path d="M328.508 41.6346C326.86 44.49 323.205 45.47 320.349 43.8213C317.494 42.1727 316.514 38.5179 318.163 35.6625C319.811 32.8071 323.466 31.8271 326.322 33.4758C329.177 35.1245 330.157 38.7792 328.508 41.6346Z" fill="url(#paint24_linear_1631_7843)"/>
<path d="M278.637 19.4448C277.784 22.6307 274.51 24.5215 271.32 23.6684C268.134 22.8152 266.243 19.5409 267.096 16.3511C267.95 13.1652 271.224 11.2745 274.414 12.1276C277.6 12.9808 279.49 16.2551 278.637 19.4448Z" fill="url(#paint25_linear_1631_7843)"/>
<defs>
<linearGradient id="paint0_linear_1631_7843" x1="209.503" y1="236.863" x2="229.045" y2="203.014" gradientUnits="userSpaceOnUse">
<stop stop-color="#A56C0B"/>
<stop offset="0.37" stop-color="#CBA53F"/>
<stop offset="0.5" stop-color="#F8EDB6"/>
<stop offset="0.76" stop-color="#F8E999"/>
<stop offset="1" stop-color="#F8E67D"/>
</linearGradient>
<linearGradient id="paint1_linear_1631_7843" x1="438.037" y1="220.187" x2="0.552673" y2="219.015" gradientUnits="userSpaceOnUse">
<stop stop-color="#A56C0B"/>
<stop offset="0.01" stop-color="#AD7816"/>
<stop offset="0.06" stop-color="#C79F3A"/>
<stop offset="0.1" stop-color="#DCBE57"/>
<stop offset="0.14" stop-color="#EBD46C"/>
<stop offset="0.19" stop-color="#F4E178"/>
<stop offset="0.22" stop-color="#F8E67D"/>
<stop offset="0.27" stop-color="#F4E077"/>
<stop offset="0.34" stop-color="#E8D068"/>
<stop offset="0.41" stop-color="#D6B64F"/>
<stop offset="0.45" stop-color="#C9A33D"/>
<stop offset="0.57" stop-color="#C38F1B"/>
<stop offset="0.75" stop-color="#E6C95C"/>
<stop offset="0.84" stop-color="#F8E67D"/>
<stop offset="0.86" stop-color="#F4E077"/>
<stop offset="0.9" stop-color="#E9D167"/>
<stop offset="0.94" stop-color="#D8B94C"/>
<stop offset="0.98" stop-color="#C19728"/>
<stop offset="1" stop-color="#B48514"/>
</linearGradient>
<linearGradient id="paint2_linear_1631_7843" x1="218.745" y1="16.8902" x2="218.745" y2="4.94597" gradientUnits="userSpaceOnUse">
<stop stop-color="#A56C0B"/>
<stop offset="0.37" stop-color="#CBA53F"/>
<stop offset="0.5" stop-color="#F8EDB6"/>
<stop offset="0.76" stop-color="#F8E999"/>
<stop offset="1" stop-color="#F8E67D"/>
</linearGradient>
<linearGradient id="paint3_linear_1631_7843" x1="166.227" y1="23.9424" x2="163.135" y2="12.4014" gradientUnits="userSpaceOnUse">
<stop stop-color="#A56C0B"/>
<stop offset="0.37" stop-color="#CBA53F"/>
<stop offset="0.5" stop-color="#F8EDB6"/>
<stop offset="0.76" stop-color="#F8E999"/>
<stop offset="1" stop-color="#F8E67D"/>
</linearGradient>
<linearGradient id="paint4_linear_1631_7843" x1="117.309" y1="44.3678" x2="111.337" y2="34.0237" gradientUnits="userSpaceOnUse">
<stop stop-color="#A56C0B"/>
<stop offset="0.37" stop-color="#CBA53F"/>
<stop offset="0.5" stop-color="#F8EDB6"/>
<stop offset="0.76" stop-color="#F8E999"/>
<stop offset="1" stop-color="#F8E67D"/>
</linearGradient>
<linearGradient id="paint5_linear_1631_7843" x1="75.3306" y1="76.7467" x2="66.8847" y2="68.3008" gradientUnits="userSpaceOnUse">
<stop stop-color="#A56C0B"/>
<stop offset="0.37" stop-color="#CBA53F"/>
<stop offset="0.5" stop-color="#F8EDB6"/>
<stop offset="0.76" stop-color="#F8E999"/>
<stop offset="1" stop-color="#F8E67D"/>
</linearGradient>
<linearGradient id="paint6_linear_1631_7843" x1="43.1747" y1="118.873" x2="32.8273" y2="112.899" gradientUnits="userSpaceOnUse">
<stop stop-color="#A56C0B"/>
<stop offset="0.37" stop-color="#CBA53F"/>
<stop offset="0.5" stop-color="#F8EDB6"/>
<stop offset="0.76" stop-color="#F8E999"/>
<stop offset="1" stop-color="#F8E67D"/>
</linearGradient>
<linearGradient id="paint7_linear_1631_7843" x1="23.0318" y1="167.905" x2="11.4908" y2="164.812" gradientUnits="userSpaceOnUse">
<stop stop-color="#A56C0B"/>
<stop offset="0.37" stop-color="#CBA53F"/>
<stop offset="0.5" stop-color="#F8EDB6"/>
<stop offset="0.76" stop-color="#F8E999"/>
<stop offset="1" stop-color="#F8E67D"/>
</linearGradient>
<linearGradient id="paint8_linear_1631_7843" x1="16.2411" y1="220.491" x2="4.29681" y2="220.491" gradientUnits="userSpaceOnUse">
<stop stop-color="#A56C0B"/>
<stop offset="0.37" stop-color="#CBA53F"/>
<stop offset="0.5" stop-color="#F8EDB6"/>
<stop offset="0.76" stop-color="#F8E999"/>
<stop offset="1" stop-color="#F8E67D"/>
</linearGradient>
<linearGradient id="paint9_linear_1631_7843" x1="23.2932" y1="273.005" x2="11.7522" y2="276.097" gradientUnits="userSpaceOnUse">
<stop stop-color="#A56C0B"/>
<stop offset="0.37" stop-color="#CBA53F"/>
<stop offset="0.5" stop-color="#F8EDB6"/>
<stop offset="0.76" stop-color="#F8E999"/>
<stop offset="1" stop-color="#F8E67D"/>
</linearGradient>
<linearGradient id="paint10_linear_1631_7843" x1="43.7209" y1="321.931" x2="33.3735" y2="327.905" gradientUnits="userSpaceOnUse">
<stop stop-color="#A56C0B"/>
<stop offset="0.37" stop-color="#CBA53F"/>
<stop offset="0.5" stop-color="#F8EDB6"/>
<stop offset="0.76" stop-color="#F8E999"/>
<stop offset="1" stop-color="#F8E67D"/>
</linearGradient>
<linearGradient id="paint11_linear_1631_7843" x1="76.0913" y1="363.909" x2="67.6454" y2="372.355" gradientUnits="userSpaceOnUse">
<stop stop-color="#A56C0B"/>
<stop offset="0.37" stop-color="#CBA53F"/>
<stop offset="0.5" stop-color="#F8EDB6"/>
<stop offset="0.76" stop-color="#F8E999"/>
<stop offset="1" stop-color="#F8E67D"/>
</linearGradient>
<linearGradient id="paint12_linear_1631_7843" x1="118.222" y1="396.068" x2="112.248" y2="406.415" gradientUnits="userSpaceOnUse">
<stop stop-color="#A56C0B"/>
<stop offset="0.37" stop-color="#CBA53F"/>
<stop offset="0.5" stop-color="#F8EDB6"/>
<stop offset="0.76" stop-color="#F8E999"/>
<stop offset="1" stop-color="#F8E67D"/>
</linearGradient>
<linearGradient id="paint13_linear_1631_7843" x1="167.253" y1="416.209" x2="164.161" y2="427.747" gradientUnits="userSpaceOnUse">
<stop stop-color="#A56C0B"/>
<stop offset="0.37" stop-color="#CBA53F"/>
<stop offset="0.5" stop-color="#F8EDB6"/>
<stop offset="0.76" stop-color="#F8E999"/>
<stop offset="1" stop-color="#F8E67D"/>
</linearGradient>
<linearGradient id="paint14_linear_1631_7843" x1="219.835" y1="423.002" x2="219.835" y2="434.946" gradientUnits="userSpaceOnUse">
<stop stop-color="#A56C0B"/>
<stop offset="0.37" stop-color="#CBA53F"/>
<stop offset="0.5" stop-color="#F8EDB6"/>
<stop offset="0.76" stop-color="#F8E999"/>
<stop offset="1" stop-color="#F8E67D"/>
</linearGradient>
<linearGradient id="paint15_linear_1631_7843" x1="272.358" y1="415.948" x2="275.449" y2="427.485" gradientUnits="userSpaceOnUse">
<stop stop-color="#A56C0B"/>
<stop offset="0.37" stop-color="#CBA53F"/>
<stop offset="0.5" stop-color="#F8EDB6"/>
<stop offset="0.76" stop-color="#F8E999"/>
<stop offset="1" stop-color="#F8E67D"/>
</linearGradient>
<linearGradient id="paint16_linear_1631_7843" x1="321.276" y1="395.52" x2="327.25" y2="405.868" gradientUnits="userSpaceOnUse">
<stop stop-color="#A56C0B"/>
<stop offset="0.37" stop-color="#CBA53F"/>
<stop offset="0.5" stop-color="#F8EDB6"/>
<stop offset="0.76" stop-color="#F8E999"/>
<stop offset="1" stop-color="#F8E67D"/>
</linearGradient>
<linearGradient id="paint17_linear_1631_7843" x1="363.258" y1="363.144" x2="371.704" y2="371.59" gradientUnits="userSpaceOnUse">
<stop stop-color="#A56C0B"/>
<stop offset="0.37" stop-color="#CBA53F"/>
<stop offset="0.5" stop-color="#F8EDB6"/>
<stop offset="0.76" stop-color="#F8E999"/>
<stop offset="1" stop-color="#F8E67D"/>
</linearGradient>
<linearGradient id="paint18_linear_1631_7843" x1="395.412" y1="321.012" x2="405.76" y2="326.987" gradientUnits="userSpaceOnUse">
<stop stop-color="#A56C0B"/>
<stop offset="0.37" stop-color="#CBA53F"/>
<stop offset="0.5" stop-color="#F8EDB6"/>
<stop offset="0.76" stop-color="#F8E999"/>
<stop offset="1" stop-color="#F8E67D"/>
</linearGradient>
<linearGradient id="paint19_linear_1631_7843" x1="415.554" y1="271.988" x2="427.095" y2="275.081" gradientUnits="userSpaceOnUse">
<stop stop-color="#A56C0B"/>
<stop offset="0.37" stop-color="#CBA53F"/>
<stop offset="0.5" stop-color="#F8EDB6"/>
<stop offset="0.76" stop-color="#F8E999"/>
<stop offset="1" stop-color="#F8E67D"/>
</linearGradient>
<linearGradient id="paint20_linear_1631_7843" x1="422.35" y1="219.399" x2="434.298" y2="219.399" gradientUnits="userSpaceOnUse">
<stop stop-color="#A56C0B"/>
<stop offset="0.37" stop-color="#CBA53F"/>
<stop offset="0.5" stop-color="#F8EDB6"/>
<stop offset="0.76" stop-color="#F8E999"/>
<stop offset="1" stop-color="#F8E67D"/>
</linearGradient>
<linearGradient id="paint21_linear_1631_7843" x1="415.297" y1="166.882" x2="426.838" y2="163.79" gradientUnits="userSpaceOnUse">
<stop stop-color="#A56C0B"/>
<stop offset="0.37" stop-color="#CBA53F"/>
<stop offset="0.5" stop-color="#F8EDB6"/>
<stop offset="0.76" stop-color="#F8E999"/>
<stop offset="1" stop-color="#F8E67D"/>
</linearGradient>
<linearGradient id="paint22_linear_1631_7843" x1="394.867" y1="117.962" x2="405.215" y2="111.988" gradientUnits="userSpaceOnUse">
<stop stop-color="#A56C0B"/>
<stop offset="0.37" stop-color="#CBA53F"/>
<stop offset="0.5" stop-color="#F8EDB6"/>
<stop offset="0.76" stop-color="#F8E999"/>
<stop offset="1" stop-color="#F8E67D"/>
</linearGradient>
<linearGradient id="paint23_linear_1631_7843" x1="362.49" y1="75.9811" x2="370.936" y2="67.5352" gradientUnits="userSpaceOnUse">
<stop stop-color="#A56C0B"/>
<stop offset="0.37" stop-color="#CBA53F"/>
<stop offset="0.5" stop-color="#F8EDB6"/>
<stop offset="0.76" stop-color="#F8E999"/>
<stop offset="1" stop-color="#F8E67D"/>
</linearGradient>
<linearGradient id="paint24_linear_1631_7843" x1="320.363" y1="43.8267" x2="326.337" y2="33.4793" gradientUnits="userSpaceOnUse">
<stop stop-color="#A56C0B"/>
<stop offset="0.37" stop-color="#CBA53F"/>
<stop offset="0.5" stop-color="#F8EDB6"/>
<stop offset="0.76" stop-color="#F8E999"/>
<stop offset="1" stop-color="#F8E67D"/>
</linearGradient>
<linearGradient id="paint25_linear_1631_7843" x1="271.335" y1="23.6805" x2="274.426" y2="12.1432" gradientUnits="userSpaceOnUse">
<stop stop-color="#A56C0B"/>
<stop offset="0.37" stop-color="#CBA53F"/>
<stop offset="0.5" stop-color="#F8EDB6"/>
<stop offset="0.76" stop-color="#F8E999"/>
<stop offset="1" stop-color="#F8E67D"/>
</linearGradient>
</defs>
</svg>
