<svg width="776" height="527" viewBox="0 0 776 527" fill="none" xmlns="http://www.w3.org/2000/svg">
<path d="M689.105 377.631C672.876 380.675 655.141 372.589 641.444 365.602C622.823 356.01 606.476 342.864 591.423 328.633C583.839 321.51 576.59 314.015 569.341 306.52C562.773 299.746 550.517 292.979 548.16 283.688C547.794 282.24 611.839 289.836 617.918 291.045C636.603 294.842 653.696 302.386 668.59 313.845C683.106 325.028 707.939 343.522 707.197 364.246C706.892 373.238 695.983 376.41 689.04 377.682L689.105 377.631Z" fill="url(#paint0_radial_2223_20226)"/>
<path d="M584.701 401.612C565.722 420.817 541.578 382.59 534.147 370.444C524.93 355.402 518.347 338.838 511.061 322.781C499.315 296.846 486.159 271.984 470.016 248.662C468.788 247.587 467.496 246.563 466.275 245.429C464.314 243.568 466.307 239.396 469.072 240.878C505.915 261.013 542.484 285.161 570.437 316.607C588.713 337.12 609.709 376.225 584.695 401.67L584.701 401.612Z" fill="url(#paint1_radial_2223_20226)"/>
<path d="M613.808 289.529C580.331 286.946 543.845 281.914 515.846 263.417C515.357 263.069 515.287 262.651 515.455 262.201C511.909 262.448 508.384 262.521 504.82 262.414C501.783 262.308 502.225 257.844 504.979 257.333C527.965 252.585 550.792 245.592 573.816 241.552C591.576 238.446 609.348 241.495 626.632 244.723C641.105 247.402 672.552 253.978 670.253 273.941C667.761 295.114 626.649 290.56 613.802 289.587L613.808 289.529Z" fill="url(#paint2_radial_2223_20226)"/>
<path d="M580.067 250.108C535.562 260.119 496.331 252.904 454.077 239.724C453.286 239.459 453.138 238.681 453.332 237.999C447.774 237.375 442.21 236.282 436.493 234.469C434.686 233.855 435.73 231.335 437.429 231.35C466.669 231.993 491.41 227.794 519.13 217.423C535.227 211.375 551.246 206.022 568.067 202.927C584.829 199.825 627.763 191.279 634.308 213.934C641.308 238.281 594.919 246.792 580.003 250.159L580.067 250.108Z" fill="url(#paint3_radial_2223_20226)"/>
<path d="M496.068 400.518C494.972 402.974 491.773 403.788 489.723 402.21C465.822 383.762 456.053 349.608 445.363 322.62C438.427 305.02 432.822 287.042 426.555 269.224C420.866 253.054 411.778 238.436 403.352 223.658C402.915 223.375 402.536 223.098 402.092 222.872C401.275 222.312 401.206 221.366 401.535 220.524C401.284 220.144 401.092 219.771 400.848 219.333C400.257 218.329 401.609 217.25 402.38 218.216C402.643 218.48 402.843 218.795 403.048 219.052C403.466 218.982 403.82 218.963 404.264 219.189C421.046 228.457 437.761 234.142 452.738 246.431C467.124 258.243 479.1 273.771 487.813 290.164C505.708 323.998 512.474 363.499 496.017 400.454L496.068 400.518Z" fill="url(#paint4_radial_2223_20226)"/>
<path d="M433.791 350.51C432.818 352.394 430.514 353.601 428.507 352.672C366.434 323.846 372.376 240.053 321.715 200.432C320.416 199.466 321.808 196.985 323.294 197.855C326.046 199.453 328.662 201.212 331.15 203.074C347.524 208.662 364.566 209.343 379.45 218.808C393.517 227.713 404.023 239.618 413.209 253.367C431.368 280.666 450.811 317.428 433.727 350.562L433.791 350.51Z" fill="url(#paint5_radial_2223_20226)"/>
<path d="M427.974 191.781C390.731 221.715 349.139 215.173 310.936 196.703C307.004 197.785 302.873 198.553 298.613 198.896C295.596 199.143 294.211 194.768 297.332 193.594C298.858 193.062 300.274 192.459 301.805 191.869C301.233 191.218 301.544 190.022 302.508 190.306C303.19 190.5 303.82 190.629 304.502 190.823C324.525 182.695 340.498 172.53 356.123 156.055C369.957 141.43 382.963 126.361 398.693 113.648C416.677 99.1375 464.204 78.3874 472.674 112.102C480.254 142.258 449.358 174.662 428.039 191.73L427.974 191.781Z" fill="url(#paint6_radial_2223_20226)"/>
<path d="M528.638 205.83C513.895 216.015 496.865 222.017 479.594 225.472C446.428 232.125 408.367 226.507 376.893 214.946C375.683 214.752 374.474 214.557 373.213 214.299C372.467 214.156 372.056 213.641 371.774 213.023C371.156 212.778 370.475 212.585 369.799 212.333C367.838 211.527 368.812 208.588 370.903 208.764C373.045 209.005 375.187 209.245 377.272 209.479C401.29 207.543 421.366 204.169 443.19 190.968C461.994 179.597 480.587 168.026 500.797 159.275C514.977 153.07 570.079 136.393 562.194 170.09C558.692 185.112 540.459 197.661 528.645 205.772L528.638 205.83Z" fill="url(#paint7_radial_2223_20226)"/>
<path d="M356.189 302.827C341.228 330.103 304.006 296.093 293.345 284.523C264.118 252.934 253.48 207.723 221.947 178.396C219.183 175.859 222.514 171.778 225.632 173.769C228.094 175.335 230.364 177.054 232.562 178.884C234.022 179.458 235.765 180.122 238.067 181.025C269.745 193.899 305.161 200.627 328.876 224.388C346.062 241.555 370.357 276.869 356.131 302.82L356.189 302.827Z" fill="url(#paint8_radial_2223_20226)"/>
<path d="M369.758 122.828C357.799 140.593 342.612 156.297 325.151 168.757C285.362 197.35 244.649 186.101 203.85 170.915C202.158 170.842 200.46 170.827 198.716 170.69C196.227 170.411 196.552 166.989 198.83 166.542C223.212 161.364 244.155 153.926 265.349 140.068C286.349 126.365 305.198 109.372 325.794 95.0953C337.17 87.2282 389.208 53.4447 386.277 87.9314C385.241 100.3 376.582 112.691 369.758 122.828Z" fill="url(#paint9_radial_2223_20226)"/>
<path d="M255.317 141.17C245.622 153.387 232.002 166.102 216.319 169.501C195.116 174.038 170.798 167.148 150.118 163.363C149.365 163.278 148.967 162.647 148.743 162.036C146.632 162.561 144.514 163.144 142.25 163.476C138.672 164.013 137.59 159.026 140.795 157.628C175.784 142.035 199.089 115.637 226.722 90.3691C238.481 79.6143 273.752 52.097 283.768 78.3066C291.063 97.4119 266.462 127.006 255.201 141.157L255.317 141.17Z" fill="url(#paint10_radial_2223_20226)"/>
<path d="M234.572 250.323C219.454 273.771 185.83 244.796 174.995 233.206C148.075 204.572 127.409 168.786 93.7523 146.899C92.4987 146.055 93.8325 144.094 95.183 144.598C96.7521 145.243 98.1281 146.042 99.6328 146.738C100.161 145.684 101.417 144.946 102.947 145.41C124.763 152.137 147.576 152.586 169.476 158.56C187.337 163.436 202.645 173.828 215.26 186.789C227.342 199.281 246.435 231.843 234.578 250.265L234.572 250.323Z" fill="url(#paint11_radial_2223_20226)"/>
<path d="M182.106 120.706C146.964 146.539 107.249 154.098 65.4065 146.122C64.4867 145.96 64.0052 145.027 64.1026 144.159C63.9289 144.139 63.7552 144.12 63.5815 144.1C61.8642 143.732 60.96 140.817 63.1417 140.182C80.5818 135.223 89.5304 123.391 103.142 112.844C113.669 104.706 124.865 97.4042 136.298 90.5984C153.01 80.6338 182.709 60.9899 202.753 69.3931C228.734 80.2791 192.259 113.288 182.106 120.706Z" fill="url(#paint12_radial_2223_20226)"/>
<path d="M134.91 237.266C112.878 234.032 97.7437 217.915 86.1174 200.317C74.3882 182.59 73.4234 157.747 55.3906 144.998C53.6094 144.153 51.7702 143.302 50.0664 142.29C46.7101 140.331 48.8194 135.117 52.7103 136.492C76.9104 145.478 103.122 150.646 120.555 170.83C134.666 187.184 142.148 211.937 139.526 233.739C139.286 235.881 136.987 237.557 134.852 237.259L134.91 237.266Z" fill="url(#paint13_radial_2223_20226)"/>
<g style="mix-blend-mode:multiply" opacity="0.6">
<path d="M706.719 366.946C704.266 355.887 693.899 345.873 682.514 337.621C673.528 329.931 662.951 323.879 652.767 317.462C636.334 307.178 618.903 296.372 598.573 296.26C594.237 296.242 590.005 301.043 593.257 304.983C600.742 314.028 610.451 319.982 620.494 325.563C610.45 320.51 599.948 316.401 588.176 315.256C585.513 314.957 582.835 316.884 582.028 319.372C577.812 315.148 573.602 310.866 569.399 306.526C562.831 299.752 550.576 292.985 548.218 283.694C547.975 282.729 577.173 285.829 598.054 288.348C605.599 290.073 614.09 291.202 622.324 292.008C639.279 296.079 654.95 303.23 668.713 313.8C683.228 324.982 708.062 343.476 707.32 364.2C707.267 365.191 707.099 366.168 706.77 367.011L706.719 366.946Z" fill="url(#paint14_radial_2223_20226)"/>
<path d="M670.261 273.883C670.189 274.52 669.964 274.963 669.841 275.536C669.423 275.079 668.948 274.615 668.395 274.318C649.086 263.536 626.71 263.37 604.824 262.497C597.355 262.187 552.399 260.015 547.848 268.707C542.633 278.613 580.244 284.064 595.591 287.837C567.512 284.686 538.818 278.654 515.84 263.474C515.352 263.126 515.281 262.708 515.449 262.258C512.084 262.467 508.726 262.617 505.342 262.472C529.168 277.923 551.744 295.636 570.431 316.664C587.351 335.677 606.641 370.664 589.385 395.924C588.656 386.23 583.932 375.033 580.865 367.362C575.648 354.293 569.434 341.228 560.715 330.11C547.994 313.913 531.504 289.497 507.703 292.629C504.673 292.993 502.65 295.872 502.852 298.767C503.189 302.556 503.945 306.275 504.938 309.961C494.776 288.717 483.416 268.218 469.997 248.836C468.769 247.76 467.477 246.736 466.256 245.603C465.62 245.004 465.421 244.161 465.512 243.351C461.704 242.279 457.903 241.149 454.051 239.955C453.26 239.69 453.113 238.912 453.306 238.23C447.749 237.607 442.185 236.514 436.467 234.7C434.66 234.087 435.705 231.566 437.403 231.581C466.643 232.224 491.385 228.025 519.105 217.654C535.202 211.606 551.22 206.253 568.041 203.158C584.804 200.057 627.737 191.51 634.282 214.165C638.25 227.915 625.142 236.584 610.327 242.19C615.749 242.974 621.21 243.939 626.549 244.948C641.022 247.627 672.469 254.203 670.17 274.166L670.261 273.883ZM624.845 219.378C621.78 210.125 608.828 211.134 600.766 211.929C579.185 214.079 557.082 218.281 536.019 223.655C524.673 226.543 500.445 231.914 497.034 245.598C496.588 247.482 497.609 249.355 498.94 250.559C499.255 250.888 499.705 251.055 500.091 251.274C493.42 250.116 486.782 248.668 480.106 247.04C487.764 251.415 495.338 256.016 502.834 260.784C502.52 259.401 503.365 257.62 504.98 257.333C507.323 256.833 509.614 256.27 511.956 255.771C523.02 257.481 536.822 255.689 545.366 254.772C566.246 252.601 585.79 247.174 604.849 238.762C614.535 235.512 628.116 229.416 624.787 219.371L624.845 219.378Z" fill="url(#paint15_radial_2223_20226)"/>
<path d="M528.638 205.83C513.895 216.015 496.865 222.017 479.594 225.472C459.44 229.54 437.521 228.957 416.346 225.409C429.02 231.579 441.411 237.13 452.789 246.495C467.175 258.308 479.151 273.835 487.864 290.228C501.842 316.648 508.927 346.514 503.633 375.93C501.189 356.958 495.076 339.333 487.401 320.478C479.534 301.25 470.261 278.875 448.18 273.467C444.469 272.582 441.801 276.503 441.856 279.674C442.735 324.611 469.44 362.481 489.203 400.569C489.825 401.811 490.803 402.507 491.864 402.977C491.111 402.893 490.365 402.751 489.722 402.21C465.821 383.761 456.052 349.608 445.362 322.62C438.426 305.02 432.822 287.042 426.555 269.224C420.865 253.053 411.777 238.436 403.352 223.658C402.914 223.375 402.535 223.098 402.091 222.872C401.931 222.737 401.944 222.621 401.841 222.492C393.222 220.412 384.887 217.894 376.893 214.946C375.684 214.751 374.474 214.557 373.214 214.298C372.468 214.156 372.056 213.641 371.774 213.023C371.208 212.843 370.648 212.604 370.025 212.417C368.442 212.415 366.814 212.291 365.187 212.167C370.1 213.832 374.917 215.838 379.514 218.757C393.581 227.661 404.088 239.566 413.273 253.315C431.432 280.614 450.875 317.377 433.791 350.51C432.818 352.394 430.513 353.601 428.507 352.672C415.415 346.573 405.471 338.013 397.279 327.951C404.939 336.488 413.34 343.644 421.75 348.632C422.193 348.857 422.592 348.961 423.049 349.07C423.865 349.631 424.682 350.191 425.505 350.694C429.118 352.975 435.29 350.737 434.401 345.597C428.326 310.392 410.436 266.068 376.406 250.117C373.287 248.653 369.206 251.067 368.765 254.476C367.604 262.727 368.393 271.373 370.597 279.943C358.525 251.686 347.638 222.272 324.35 202.545C319.861 200.752 315.386 198.843 310.942 196.645C307.01 197.727 302.879 198.495 298.62 198.838C295.602 199.085 294.217 194.71 297.339 193.536C298.864 193.004 300.28 192.401 301.812 191.81C301.24 191.16 301.55 189.964 302.515 190.248C303.196 190.442 303.827 190.571 304.508 190.765C324.532 182.637 340.504 172.472 356.129 155.997C369.964 141.372 382.969 126.303 398.699 113.59C416.684 99.0796 464.211 78.3293 472.681 112.044C480.26 142.2 449.364 174.604 428.045 191.672C420.119 198.05 412.04 202.653 403.756 205.944C417.121 203.341 429.864 198.968 443.261 190.858C462.066 179.487 480.658 167.917 500.868 159.165C515.048 152.961 570.15 136.284 562.265 169.98C558.763 185.002 540.53 197.551 528.716 205.662L528.638 205.83ZM418.095 195.186C427.167 188.525 436.587 180.849 443.243 171.69C447.753 165.456 452.831 156.765 448.374 149.466C443.429 141.292 431.929 144.514 424.244 147.169C417.963 149.336 412.439 152.585 407.366 156.529C408.012 153.378 408.073 150.219 406.931 147.337C400.933 131.307 377.534 149.138 369.686 154.822C362.024 160.41 337.092 174.668 341.609 186.136C343.894 191.902 351.093 191.478 357.567 189.684C358.453 191.718 360.427 192.936 363.02 192.816C368.675 192.572 374.313 190.918 379.636 188.409C377.811 192.131 376.984 195.848 378.177 198.796C379.775 202.843 383.666 204.218 388.311 204.094C389.145 206.591 391.156 208.516 394.084 208.024C402.694 206.528 411.122 200.382 418.031 195.237L418.095 195.186ZM545.349 172.889C545.452 172.49 545.607 172.156 545.652 171.751C546.383 168.374 543.118 165.078 539.707 165.691C538.749 165.877 537.732 166.056 536.767 166.299C524.012 163.461 503.172 176.773 494.025 182.018C478.054 191.128 453.333 200.37 448.982 220.337C448.381 223.083 450.655 226.328 453.518 226.414C486.405 227.467 531.145 208.045 551.561 181.264C555.208 176.457 549.828 171.105 545.458 172.96L545.349 172.889Z" fill="url(#paint16_radial_2223_20226)"/>
<path d="M325.146 168.815C298.491 187.98 271.327 189.211 244.074 183.399C274.152 194.862 306.691 202.146 328.935 224.394C346.12 241.561 370.415 276.875 356.189 302.827C352.205 310.117 346.612 312.947 340.384 313.069C341.363 312.182 342.091 310.916 342.408 309.662C347.107 288.679 331.6 265.428 319.399 250.344C308.431 236.805 292.001 217.085 272.585 216.665C269.664 216.572 266.786 218.183 266.371 221.36C262.741 247.973 279.677 269.977 299.795 287.649C300.354 288.415 300.907 289.239 301.523 290.012C303.464 292.574 305.571 295.214 307.852 297.873C301.668 292.9 296.495 287.807 293.461 284.536C264.235 252.947 253.596 207.736 222.063 178.409C221.639 178.01 221.402 177.514 221.215 177.083C215.446 175.205 209.697 173.153 203.954 171.043C203.433 170.985 202.912 170.927 202.378 170.984C200.261 171.039 198.157 170.979 196.06 170.861C203.107 175.462 209.528 180.93 215.415 186.982C227.497 199.474 246.59 232.036 234.733 250.458C229.971 257.895 223.342 260.023 216.169 259.16C216.993 259.135 217.816 259.11 218.646 259.027C221.432 258.754 222.875 256.864 223.232 254.736C223.547 254.537 223.856 254.395 224.12 254.132C237.25 243.179 216.235 220.952 208.908 214.151C199.35 205.284 188.756 197.824 176.679 192.6C171.702 190.459 165.74 187.681 160.77 191.753C153.983 197.381 155.723 206.954 159.998 215.873C140.432 192.226 122.362 166.754 96.8965 149.185C93.847 149.195 90.8105 149.089 87.7804 148.925C100.115 153.942 111.586 160.387 120.665 170.901C131.461 183.366 138.301 200.779 139.82 218.064C130.274 204.392 116.462 191.647 102.145 187.579C98.8452 186.681 95.0479 188.131 94.5035 191.938C92.6441 204.331 98.1078 215.201 106.392 223.926C98.5688 217.363 91.9958 209.065 86.2275 200.388C74.4984 182.66 73.5336 157.818 55.5008 145.069C53.7196 144.224 51.8804 143.373 50.1766 142.361C46.8203 140.402 48.9295 135.188 52.8204 136.562C56.2481 137.885 59.7532 139.04 63.2518 140.253C80.692 135.294 89.6406 123.461 103.252 112.914C113.78 104.776 124.975 97.4749 136.408 90.6692C153.12 80.7045 182.819 61.0607 202.864 69.4638C228.844 80.3499 192.37 113.359 182.216 120.777C160.808 136.545 137.651 145.435 113.419 148.226C124.849 150.856 136.408 152.329 147.922 154.207C179.071 138.36 201.209 113.999 226.955 90.3949C238.714 79.6401 273.986 52.1228 284.001 78.3324C291.296 97.4377 266.695 127.031 255.435 141.183C252.974 144.306 250.217 147.455 247.241 150.462C253.324 147.452 259.388 144.088 265.401 140.133C286.402 126.429 305.251 109.436 325.847 95.1599C337.223 87.2927 389.261 53.5093 386.33 87.9959C385.294 100.364 376.634 112.756 369.81 122.892C357.851 140.658 342.664 156.362 325.203 168.821L325.146 168.815ZM134.426 128.193C139.222 138.226 151.562 131.17 159.202 128.394C160.727 127.861 161.596 126.904 162.132 125.792C163.187 125.265 164.43 124.643 165.074 123.602C167.362 119.931 166.067 115.8 161.77 114.908C159.017 114.365 155.65 116.156 152.961 116.616C147.703 117.491 142.369 118.534 137.573 121.044C135.082 122.347 133.097 125.406 134.426 128.193ZM258.945 130.792C260.758 126.131 258.305 121.343 253.365 120.437C243.131 118.644 230.802 127.693 223.152 133.693C219.289 136.776 214.054 141.112 213.637 146.399C213.232 151.57 216.349 155.143 221.663 154.802C230.285 154.245 238.751 148.806 245.834 142.626C246.664 142.544 247.507 142.345 248.389 141.799C252.657 139.289 257.075 135.447 258.894 130.728L258.945 130.792ZM342.413 138.75C338.187 131.477 327.374 135.363 318.961 139.812C319.838 138.269 319.872 136.397 318.246 134.691C317.725 134.105 317.134 133.628 316.536 133.209C316.42 133.196 316.317 133.068 316.15 132.99C308.12 127.752 295.33 134.112 287.663 138.176C279.134 142.611 265.212 149.138 261.322 158.724C259.71 162.646 262.601 166.663 266.822 166.14C275.366 165.223 283.283 162.067 290.769 158.042C286.532 161.845 283.304 166.055 282.991 170.416C282.737 173.728 285.223 177.172 288.942 176.417C289.721 176.27 290.519 175.949 291.298 175.802C298.636 184.069 317.113 172.486 323.77 168.016C331.946 162.545 349.098 150.226 342.419 138.692L342.413 138.75Z" fill="url(#paint17_radial_2223_20226)"/>
</g>
<path d="M594.361 312.902C489.904 253.238 377.814 220.852 260.094 194.222C203.267 181.341 146.123 169.713 89.5289 155.803C51.2461 146.408 7.74111 147.506 -26.2058 126.114C-37.92 118.704 -27.1652 102.268 -15.393 109.685C4.64071 122.365 29.619 125.461 52.8079 129.352C78.0167 133.528 102.465 139.26 127.305 145.153C183.894 158.594 241.07 169.933 297.568 183.656C403.148 209.275 509.619 244.724 596.178 310.293C597.586 311.33 595.949 313.901 594.406 313.025L594.361 312.902Z" fill="url(#paint18_radial_2223_20226)"/>
<path style="mix-blend-mode:screen" opacity="0.6" d="M30.6001 141.279C61.8853 142.503 247.697 182.457 309.32 198.045C398.421 220.585 496.082 245.726 571.221 300.225C473.375 248.512 369.124 218.88 260.043 194.158C203.216 181.276 146.072 169.649 89.478 155.738C57.0161 147.759 20.7827 147.269 -10.1814 134.3C2.40515 138.115 15.3082 140.677 30.5423 141.272L30.6001 141.279Z" fill="url(#paint19_radial_2223_20226)"/>
<path d="M696.667 375.021C658.424 382.511 622.005 345.017 597.858 321.969C597.067 321.177 598.098 319.827 599.075 320.523C612.357 330.16 625.503 339.958 639.262 349.004C657.488 361.072 675.381 366.185 696.84 369.824C699.773 370.329 699.659 374.477 696.725 375.027L696.667 375.021Z" fill="url(#paint20_radial_2223_20226)"/>
<path d="M564.643 394.379C550.514 395.432 543.215 380.019 537.963 369.348C527.698 348.503 524.596 324.417 509.04 306.319C508.731 305.933 509.317 305.412 509.638 305.683C523.292 316.182 528.544 332.597 535.882 347.663C543.124 362.542 548.513 382.957 565.465 389.138C567.89 389.996 567.307 394.151 564.643 394.379Z" fill="url(#paint21_radial_2223_20226)"/>
<path d="M488.103 394.702C459.802 370.016 456.234 323.957 443.647 290.366C443.153 289.022 445.116 288.245 445.739 289.488C453.828 305.693 459.71 322.764 466.003 339.823C472.887 358.413 482.192 374.755 491.625 392.049C492.639 393.98 489.71 396.054 488.167 394.65L488.103 394.702Z" fill="url(#paint22_radial_2223_20226)"/>
<path d="M422.05 344.387C408.312 340.911 399.989 326.262 393.658 314.767C384.796 298.651 379.668 280.61 372.603 263.64C372.14 262.533 373.898 261.5 374.489 262.504C381.47 273.954 386.404 286.406 391.963 298.518C400.122 316.196 409.87 327.547 423.637 340.696C424.909 341.894 424.16 344.917 421.992 344.38L422.05 344.387Z" fill="url(#paint23_radial_2223_20226)"/>
<path d="M331.792 302.375C299.151 293.38 277.226 256.28 263.398 228.001C262.865 227.004 264.41 226.298 265.084 227.077C274.986 238.621 283.446 251.527 292.833 263.482C304.526 278.392 318.329 288.615 334.158 298.538C336.401 299.962 334.018 302.918 331.792 302.375Z" fill="url(#paint24_radial_2223_20226)"/>
<path d="M658.098 283.01C634.79 300.558 596.241 281.521 572.609 276.35C571.863 276.207 572.038 275.172 572.739 275.192C601.135 277.088 627.53 284.797 655.859 277.367C659.064 276.495 660.474 281.167 658.04 283.004L658.098 283.01Z" fill="url(#paint25_radial_2223_20226)"/>
<path d="M607.987 228.037C586.741 254.901 536.367 253.469 507.525 247.713C506.091 247.435 506.485 245.486 507.888 245.527C524.833 246.021 541.375 244.888 558.215 242.147C575.826 239.316 588.838 230.46 604.884 223.821C607.529 222.711 609.758 225.833 608.045 228.044L607.987 228.037Z" fill="url(#paint26_radial_2223_20226)"/>
<path d="M546.809 185.479C523.185 210.024 486.799 214.03 455.96 222.938C455.052 223.187 454.539 222.016 455.466 221.593C485.55 208.439 516.541 202.362 543.075 181.66C545.58 179.714 549.063 183.153 546.802 185.536L546.809 185.479Z" fill="url(#paint27_radial_2223_20226)"/>
<path d="M445.285 162.366C441.582 172.384 431.292 181.017 423.468 188.052C414.53 196.134 404.57 202.871 393.095 206.39C391.879 206.781 391.128 205.114 392.364 204.549C403.673 199.371 413.557 191.219 422.181 182.281C429.079 175.142 434.093 165.975 441.351 159.287C443.508 157.302 446.066 160.109 445.227 162.36L445.285 162.366Z" fill="url(#paint28_radial_2223_20226)"/>
<path d="M301.99 175.595C301.99 175.595 301.765 175.511 301.894 175.409C307.179 172.192 312.304 168.84 317.383 165.365C323.294 161.281 327.211 156.152 332.215 151.263C333.528 150.004 335.379 151.794 334.747 153.247C329.13 166.215 313.589 170.449 301.932 175.589L301.99 175.595Z" fill="url(#paint29_radial_2223_20226)"/>
<g style="mix-blend-mode:multiply" opacity="0.8">
<path d="M549.805 278.949C552.55 280.605 555.354 282.268 558.086 284.04C563.773 284.56 571.312 285.289 579.186 286.172C579.244 286.179 579.36 286.192 579.417 286.198C580.054 286.27 580.633 286.335 581.27 286.406C587.002 287.049 592.791 287.699 597.995 288.341C607.94 289.574 615.917 290.586 617.924 290.987C621.474 291.737 624.896 292.59 628.356 293.623C628.472 293.636 628.588 293.649 628.697 293.72C630.627 294.288 632.44 294.843 634.299 295.521C634.582 295.611 634.865 295.701 635.148 295.792C636.839 296.392 638.531 296.992 640.209 297.708C640.659 297.875 641.103 298.101 641.611 298.275C643.122 298.914 644.633 299.552 646.08 300.242C646.749 300.551 647.418 300.861 648.029 301.164C649.308 301.776 650.588 302.389 651.861 303.059C652.749 303.51 653.571 304.013 654.459 304.464C655.507 305.051 656.555 305.637 657.539 306.275C658.696 306.932 659.782 307.699 660.933 308.414C661.64 308.904 662.412 309.342 663.119 309.832C664.971 311.094 666.816 312.415 668.597 313.787C683.112 324.969 707.945 343.464 707.203 364.187C706.898 373.179 695.99 376.352 689.046 377.624C672.818 380.668 655.082 372.583 641.386 365.595C622.765 356.004 606.418 342.858 591.365 328.626C588.126 325.625 585.015 322.521 581.911 319.359C581.911 319.359 581.808 319.231 581.757 319.166C577.592 315.006 573.441 310.731 569.289 306.455C564.347 301.388 556.24 296.317 551.479 290.156C544.65 286.752 537.802 283.522 530.947 280.35C539.368 286.804 547.506 293.696 555.193 300.947C555.617 301.346 556.092 301.81 556.517 302.209C558.368 303.999 560.27 305.854 562.057 307.695C562.635 308.288 563.271 308.887 563.85 309.479C566.054 311.778 568.252 314.134 570.392 316.484C570.97 317.077 571.484 317.721 572.056 318.371C572.262 318.629 572.467 318.886 572.673 319.144C572.981 319.53 573.348 319.923 573.707 320.373C573.964 320.695 574.273 321.081 574.53 321.403C574.787 321.725 575.044 322.047 575.294 322.427C575.603 322.813 575.963 323.264 576.264 323.708C576.464 324.023 576.669 324.281 576.933 324.545C577.286 325.053 577.646 325.504 577.999 326.013C578.205 326.27 578.352 326.521 578.558 326.779C578.911 327.287 579.316 327.86 579.663 328.427C579.817 328.62 579.913 328.806 580.068 328.999C580.466 329.63 580.928 330.21 581.327 330.84C581.429 330.969 581.532 331.098 581.577 331.22C582.027 331.915 582.476 332.611 582.926 333.306C582.926 333.306 582.977 333.37 583.029 333.434C595.97 354.463 603.951 382.085 584.708 401.554C565.728 420.759 541.584 382.532 534.153 370.386C524.936 355.344 518.353 338.78 511.068 322.723C509.046 318.277 506.959 313.881 504.88 309.427C504.867 309.543 504.918 309.608 504.963 309.73C498.742 296.724 492.078 284.019 484.788 271.655C484.448 271.03 484.043 270.457 483.703 269.833C482.618 268.012 481.532 266.19 480.383 264.42C479.541 263.036 478.642 261.646 477.794 260.32C477.043 259.18 476.298 257.983 475.546 256.844C470.884 255.031 466.273 253.283 461.597 251.586C460.247 251.083 458.896 250.58 457.488 250.07C457.147 249.973 456.87 249.825 456.529 249.728C469.211 261.057 479.934 275.213 487.806 290.221C488.82 292.152 489.777 294.077 490.727 296.059C491.009 296.677 491.35 297.301 491.625 297.977C492.242 299.277 492.852 300.634 493.461 301.992C493.789 302.732 494.11 303.53 494.437 304.27C494.937 305.557 495.444 306.786 495.945 308.073C496.266 308.871 496.535 309.605 496.856 310.403C497.53 312.237 498.203 314.071 498.754 315.95C499.107 316.986 499.453 318.079 499.742 319.167C499.992 320.074 500.3 320.988 500.556 321.837C500.889 323.047 501.216 324.314 501.543 325.582C501.703 326.244 501.915 326.972 502.068 327.692C502.382 329.075 502.696 330.459 502.952 331.836C503.035 332.138 503.067 332.376 503.092 332.672C504.097 337.825 504.754 342.94 505.109 348.137C505.096 348.253 505.077 348.427 505.122 348.549C505.216 350.318 505.305 352.145 505.341 353.907C505.462 361.189 504.934 368.514 503.588 375.807C503.588 375.807 503.575 375.923 503.568 375.981C502.054 384.251 499.607 392.475 496.002 400.57C494.906 403.026 491.708 403.839 489.657 402.261C465.756 383.813 455.987 349.66 445.297 322.671C438.361 305.071 432.757 287.093 426.49 269.275C422.09 256.766 415.649 245.2 409.079 233.737C407.381 233.195 405.741 232.659 404.037 232.175C401.548 231.368 398.995 230.613 396.499 229.864C395.084 229.412 393.663 229.019 392.19 228.56C400.231 235.792 407.087 244.181 413.26 253.431C431.419 280.73 450.861 317.493 433.778 350.626C432.804 352.509 430.5 353.716 428.493 352.788C426.712 351.943 425.047 351.112 423.394 350.164C422.507 349.713 421.684 349.21 420.81 348.643C420.154 348.218 419.434 347.844 418.778 347.419C417.576 346.639 416.431 345.866 415.293 345.035C415.133 344.9 415.023 344.829 414.856 344.752C392.812 329.091 381.212 304.989 370.539 279.937C370.539 279.937 370.539 279.937 370.532 279.995C360.27 255.985 350.858 231.191 333.996 212.185C333.649 212.146 333.314 211.991 332.974 211.894C329.668 211.054 326.368 210.157 323.062 209.317C319.017 208.277 314.964 207.295 310.861 206.248C308.012 205.518 305.162 204.788 302.249 204.109C300.081 203.573 297.856 203.031 295.682 202.552C295.913 202.578 296.074 202.713 296.292 202.855C297.244 203.255 298.189 203.713 299.077 204.164C300.029 204.564 300.909 205.073 301.797 205.524C302.742 205.982 303.629 206.433 304.517 206.884C305.404 207.336 306.285 207.845 307.166 208.354C308.047 208.863 308.934 209.314 309.757 209.817C310.638 210.326 311.512 210.893 312.387 211.46C313.21 211.962 314.033 212.465 314.849 213.025C315.717 213.65 316.585 214.275 317.511 214.907C318.269 215.461 319.034 215.957 319.735 216.504C320.706 217.258 321.618 218.005 322.583 218.817C323.174 219.293 323.823 219.776 324.408 220.311C325.906 221.592 327.391 222.99 328.869 224.445C346.054 241.613 370.349 276.926 356.123 302.878C355.614 303.759 355.111 304.582 354.615 305.346C354.48 305.507 354.351 305.61 354.273 305.777C353.855 306.375 353.384 306.908 352.914 307.441C352.843 307.551 352.779 307.602 352.65 307.705C352.116 308.29 351.587 308.816 351.014 309.221C334.646 322.917 305.407 297.188 294.597 285.894C294.597 285.894 294.539 285.888 294.494 285.765C294.077 285.308 293.652 284.909 293.286 284.516C266.99 256.07 255.701 216.647 230.699 187.642C224.408 186.233 218.053 184.875 211.763 183.466C212.926 184.593 214.089 185.72 215.195 186.84C227.277 199.332 246.37 231.894 234.513 250.316C233.952 251.132 233.391 251.948 232.786 252.642C232.644 252.861 232.451 253.015 232.251 253.227C231.781 253.761 231.324 254.178 230.86 254.654C230.667 254.808 230.474 254.962 230.274 255.174C229.753 255.643 229.18 256.048 228.613 256.394C228.491 256.439 228.362 256.542 228.233 256.645C226.785 257.537 225.304 258.192 223.734 258.602C223.618 258.589 223.554 258.64 223.432 258.685C222.705 258.896 221.99 258.992 221.218 259.081C221.16 259.075 221.102 259.068 220.987 259.055C204.54 260.903 183.098 241.969 174.878 233.192C165.714 223.431 157.285 212.873 148.797 202.308C137.167 187.874 125.422 173.428 111.738 161.108C110.882 160.894 110.027 160.681 109.165 160.526C109.281 160.539 109.383 160.668 109.435 160.732C110.296 161.415 111.158 162.098 112.019 162.78C112.45 163.122 112.88 163.463 113.311 163.805C114.224 164.552 115.072 165.35 115.914 166.207C116.287 166.542 116.602 166.87 116.975 167.205C118.131 168.39 119.288 169.574 120.432 170.875C121.621 172.298 122.745 173.772 123.869 175.246C124.126 175.568 124.377 175.948 124.634 176.27C126.857 179.45 128.88 182.842 130.652 186.381C130.748 186.568 130.844 186.755 130.934 186.999C137.996 201.39 141.253 218.342 139.403 233.784C139.163 235.926 136.864 237.602 134.729 237.304C112.697 234.07 97.563 217.954 85.9366 200.355C75.7105 184.906 73.6672 163.929 61.2903 150.407C30.8709 145.646 -0.53438 142.357 -26.3803 126.094C-38.0946 118.684 -27.3397 102.249 -15.5676 109.665C4.46614 122.346 29.4445 125.441 52.6334 129.332C60.867 130.666 69.0103 132.283 77.0956 133.894C86.4239 128.083 93.5798 120.211 103.019 112.888C113.546 104.75 124.742 97.4488 136.175 90.6431C152.887 80.6784 182.586 61.0346 202.63 69.4377C228.611 80.3237 192.136 113.333 181.983 120.751C179.491 122.582 177.012 124.296 174.489 125.889C173.729 126.39 172.976 126.833 172.223 127.276C170.394 128.419 168.566 129.562 166.693 130.582C165.882 131.019 165.071 131.455 164.253 131.95C162.322 132.964 160.391 133.978 158.466 134.934C157.784 135.268 157.102 135.602 156.419 135.935C153.883 137.116 151.354 138.239 148.779 139.24C148.721 139.233 148.657 139.285 148.593 139.336C142.948 141.575 137.175 143.389 131.383 144.849C131.145 144.881 130.959 144.977 130.721 145.009C130.116 145.176 129.453 145.336 128.854 145.444C137.023 147.357 145.192 149.27 153.367 151.125C181.582 135.3 202.553 112.45 226.78 90.3753C238.538 79.6205 273.81 52.1031 283.826 78.3127C291.121 97.4181 266.52 127.012 255.259 141.163C252.798 144.287 250.041 147.436 247.124 150.449C248.553 149.73 249.982 149.011 251.417 148.235C253.04 147.362 254.72 146.495 256.29 145.558C257.044 145.115 257.861 144.62 258.672 144.184C260.874 142.848 263.069 141.571 265.284 140.119C286.285 126.416 305.133 109.423 325.729 95.1467C337.106 87.2796 389.143 53.4961 386.212 87.9828C385.176 100.351 376.517 112.743 369.693 122.879C357.734 140.645 342.547 156.349 325.086 168.808C323.618 169.875 322.099 170.876 320.579 171.878C320.135 172.18 319.697 172.424 319.253 172.726C318.12 173.419 316.987 174.113 315.803 174.742C315.365 174.986 314.985 175.236 314.612 175.429C311.548 177.136 308.451 178.606 305.381 179.844C305.072 179.985 304.763 180.126 304.461 180.21C303.109 180.761 301.764 181.255 300.368 181.685C300.181 181.781 299.943 181.813 299.756 181.909C298.418 182.345 297.079 182.781 295.747 183.159C296.319 183.282 296.95 183.411 297.516 183.592C302.539 184.8 307.556 186.066 312.573 187.333C328.896 179.786 342.629 170.249 356.058 156.106C369.892 141.481 382.897 126.412 398.628 113.7C416.612 99.1888 464.139 78.4387 472.609 112.153C480.189 142.309 449.293 174.714 427.973 191.781C426.106 193.271 424.187 194.697 422.34 196.014C422.211 196.116 422.018 196.271 421.831 196.367C415.985 200.4 410.063 203.545 404.103 205.983C407.34 205.35 410.474 204.588 413.678 203.717C418.46 202.377 423.216 200.742 427.953 198.754C428.32 198.619 428.751 198.433 429.125 198.24C430.232 197.778 431.345 197.258 432.459 196.739C432.955 196.501 433.45 196.264 433.946 196.026C435.001 195.5 436.064 194.916 437.177 194.396C437.673 194.159 438.111 193.915 438.613 193.619C440.113 192.791 441.677 191.912 443.19 190.968C461.994 179.597 480.586 168.026 500.797 159.275C514.976 153.07 570.078 136.393 562.194 170.09C558.691 185.112 540.458 197.661 528.644 205.772C513.901 215.957 496.871 221.959 479.6 225.414C477.264 225.855 474.928 226.296 472.547 226.615C471.833 226.711 471.119 226.807 470.347 226.896C468.622 227.113 466.898 227.33 465.18 227.489C464.408 227.578 463.7 227.615 462.992 227.653C461.101 227.793 459.209 227.932 457.266 228.007C456.739 228.007 456.262 228.071 455.735 228.07C452.087 228.188 448.394 228.184 444.65 228.116C447.177 229.103 449.647 230.083 452.174 231.07C475.259 230.143 496.256 225.876 519.143 217.307C535.239 211.259 551.258 205.906 568.079 202.811C584.841 199.709 627.775 191.163 634.32 213.818C634.525 214.603 634.724 215.446 634.813 216.218C634.845 216.456 634.87 216.752 634.896 217.047C634.96 217.524 635.023 218 635.023 218.527C634.984 218.874 634.951 219.164 634.919 219.453C634.873 219.858 634.828 220.264 634.776 220.727C634.737 221.074 634.705 221.363 634.672 221.653C634.627 222.058 634.523 222.457 634.369 222.791C634.336 223.08 634.181 223.415 634.091 223.698C633.994 224.039 633.833 224.431 633.678 224.765C633.53 225.041 633.439 225.324 633.291 225.601C633.079 225.929 632.917 226.321 632.705 226.649C632.556 226.925 632.408 227.201 632.209 227.413C631.931 227.793 631.654 228.172 631.377 228.551C631.236 228.77 631.094 228.988 630.894 229.2C630.417 229.791 629.947 230.325 629.361 230.845C629.232 230.948 629.097 231.109 628.968 231.211C628.511 231.629 628.112 232.053 627.603 232.406C627.41 232.56 627.153 232.766 626.959 232.92C626.567 233.286 626.122 233.588 625.678 233.89C625.427 234.038 625.169 234.243 624.918 234.391C624.474 234.693 624.03 234.995 623.586 235.296C623.335 235.444 623.077 235.65 622.826 235.797C622.324 236.093 621.822 236.388 621.32 236.683C621.069 236.831 620.818 236.979 620.566 237.126C620.006 237.415 619.44 237.762 618.822 238.044C618.635 238.141 618.384 238.288 618.198 238.385C617.515 238.718 616.775 239.045 616.035 239.373C615.919 239.36 615.848 239.469 615.726 239.514C613.994 240.316 612.212 241.054 610.377 241.727C610.377 241.727 610.493 241.74 610.551 241.747C613.201 242.161 615.851 242.576 618.495 243.048C618.495 243.048 618.495 243.048 618.553 243.055C621.255 243.534 623.956 244.013 626.6 244.485C641.073 247.164 672.519 253.74 670.221 273.703C667.728 294.875 626.616 290.321 613.769 289.349C594.065 287.842 573.345 285.458 553.908 279.995C553.793 279.982 553.677 279.969 553.561 279.956C552.255 279.576 551.001 279.259 549.702 278.82L549.805 278.949ZM508.776 256.41C509.857 256.18 510.88 255.943 511.961 255.713C512.019 255.719 512.077 255.726 512.135 255.732C514.722 255.143 517.309 254.555 519.902 253.908C512.24 253.224 504.682 252.141 497.105 250.705C500.995 252.607 504.95 254.457 508.776 256.41Z" fill="#007745"/>
</g>
<path d="M258.477 245.521C262.547 240.399 266.671 235.423 271.255 230.846C280.002 222.131 287.803 211.892 296.109 202.659C304.591 193.212 312.333 182.254 319.414 171.457C323.734 164.847 330.747 153.523 324.684 145.389C318.535 137.112 305.129 145.628 299.452 149.389C294.869 152.396 290.922 155.32 287.276 159.775C283.687 164.146 280.77 168.965 277.45 173.569C270.18 183.701 264.803 196.076 259.413 207.572C256.39 213.937 253.659 220.724 250.147 226.731C248.75 229.095 247.43 231.525 246.034 233.888C244.947 235.752 244.008 237.444 242.576 239.008C240.581 241.219 238.078 239.515 237.004 237.012C235.841 226.213 242.784 213.826 247.185 204.947C254.357 190.386 262.56 176.42 270.48 162.375C275.355 153.74 280.186 145.035 284.874 136.272C288.352 129.733 292.065 123.164 291.809 115.157C291.6 108.292 288.682 101.817 281.693 101.766C270.132 101.658 261.93 115.893 256.948 125.805C250.532 138.582 247.814 153.599 244.671 167.713C243.829 171.46 243.446 175.338 242.393 179.036C239.532 189.017 236.789 200.169 232.361 209.359C229.837 214.587 226.495 221.644 220.912 223.249C215.1 224.921 213.005 218.225 212.566 212.998C211.609 200.373 216.793 187.295 222.837 177.169C225.33 173.017 228.159 169.089 231.506 165.745C233.889 163.369 236.808 160.923 237.262 157.073C237.548 154.548 236.742 152.278 234.267 152.102C230.25 151.857 226.036 156.922 222.627 158.742C221.26 159.494 218.418 162.006 217.531 159.633C217.064 158.392 218.889 155.13 219.47 154.098C222.024 149.631 226.527 146.788 230.161 143.56C234.465 139.709 238.85 135.963 243.489 132.604C246.696 130.274 250.113 128.261 252.858 125.263C255.87 121.962 257.302 120.13 259.009 115.697C260.307 112.313 260.801 109.033 259.691 105.463C256.22 94.1971 242.223 107.346 238.7 111.44C236.6 113.895 234.985 116.937 232.808 119.326C229.075 123.371 226.449 120.189 228.666 114.962C230.669 110.185 233.295 105.747 235.97 101.418C239.822 95.1374 243.156 88.8086 243.313 80.8246C243.411 74.4944 239.157 69.5329 233.654 70.1702C227.178 70.9336 222.775 76.9032 219.223 82.3413C215.127 88.5775 212.953 97.5506 211.407 105.064C209.392 114.744 210.663 124.802 209.376 134.579C207.289 138.448 205.816 138.908 204.894 136.002C204.552 135.204 204.306 134.356 204.093 133.503C203.721 132.211 203.388 130.953 202.92 129.711C201.975 127.154 200.099 127.397 198.519 128.866C195.051 132.072 195.781 138.486 195.96 143.019C196.305 152.508 200.738 161.467 202.978 170.595C203.839 174.082 206.655 182.14 203.752 184.967C200.853 187.831 197.706 177.481 196.648 175.895C195.932 174.84 195.151 172.758 193.786 172.476C191.583 172.034 189.112 173.733 188.823 176.489C188.263 182.152 190.368 187.086 192.75 192.06C195.874 198.547 198.983 204.92 201.824 211.597C203.78 216.167 205.59 221.982 205.627 226.993C205.689 236.135 196.989 231.827 192.901 228.146C189.355 224.968 186.563 221.042 183.614 217.213C177.629 209.413 173.12 200.388 166.142 193.597C161.813 189.373 157.928 190.145 157.908 197.078C157.916 198.455 158.719 199.92 159.277 201.073C160.577 203.738 161.333 205.631 162.403 208.364C163.266 210.549 160.45 208.54 158.666 207.125C157.532 205.741 156.595 204.293 155.846 203.241C153.347 199.737 150.849 196.232 148.441 192.639C144.309 186.513 139.142 176.616 131.532 175.727C126.03 175.063 128.729 183.786 129.924 186.694C130.463 187.965 131.132 189.448 131.987 190.524C133.865 192.922 133.972 195.588 132.242 198.531C130.759 198.647 129.35 198.293 128.017 197.471C125.28 196.065 122.872 194.041 120.32 192.228C112.494 185.203 105.245 177.108 94.5971 176.689C88.196 176.448 81.8416 181.292 80.6682 188.527C80.0086 192.633 81.3588 198.316 84.0498 202.255C86.5356 206.45 90.3251 209.405 94.2423 211.768C97.4212 213.691 100.615 215.727 104.122 216.766C105.717 217.248 111.257 217.678 111.039 220.463C110.822 223.516 106.108 222.098 101.857 220.314C101.579 220.273 101.301 220.233 101.019 220.155C98.7819 219.717 96.5639 219.163 94.2658 219.04C90.1049 218.737 86.1227 219.024 82.167 220.303C76.3793 222.164 72.2707 227.253 72.6285 234.213C72.9864 241.173 80.8215 244.33 85.9762 243.891C90.0156 243.52 94.1186 241.801 97.8726 240.281C110.718 235.054 124.477 231.891 138.318 232.239C153.111 232.579 167.562 237.635 181.711 242.461C186.096 243.96 190.533 245.873 194.67 248.093C196.938 249.292 206.639 253.701 206.389 257.294C206.215 260.15 199.669 261.42 197.846 261.809C193.837 262.674 189.72 262.71 185.662 263.198C185.293 263.246 184.958 263.29 184.59 263.337C180.354 263.772 176.162 264.278 171.926 264.444C165.727 264.712 159.539 265.323 153.335 265.554C149.673 265.684 145.888 266.175 142.169 266.39C131.132 265.601 119.78 263.168 108.855 264.815C99.7681 266.185 89.0009 269.572 87.2056 280.679C86.5795 282.942 86.6234 285.119 87.1747 287.268C87.6575 290.728 88.9639 294.234 91.3723 296.257C91.641 296.49 92.1351 296.886 92.7394 297.343C97.3335 302.299 105.456 303.466 112.525 303.085C120.75 303.205 128.6 300.962 136.396 298.036C145.884 294.508 154.476 288.531 163.965 285.003C168.446 283.312 172.788 281.332 177.245 279.72C180.077 278.702 182.995 277.825 185.864 276.841C187.113 276.487 188.323 276.101 189.567 275.71C196.201 273.547 204.12 272.099 211.113 273.489C216.951 274.646 216.991 278.891 212.202 281.886C208.58 284.423 204.707 286.342 200.801 288.265C197.311 289.982 193.806 291.585 190.301 293.188C190.234 293.197 190.172 293.243 190.11 293.289C182.179 295.697 174.346 299.125 166.656 302.075C156.369 306.013 146.079 308.879 135.27 310.626C125.728 312.17 117.5 316.491 111.231 324.617C108.168 328.575 108.285 333.423 110.636 337.1C112.662 341.431 117.472 344.368 121.392 345.965C128.901 348.973 136.01 347.056 143.019 343.849C150.125 340.592 156.125 335.64 162.187 330.642C164.686 328.902 167.185 327.161 169.776 325.6C176.023 321.765 182.149 317.524 188.502 313.982C195.806 309.895 203.066 305.201 211.118 303.199C214.486 302.379 217.849 301.522 221.338 301.376C233.573 300.899 222.335 316.408 219.109 320.426C215.234 325.216 210.921 329.26 206.398 333.254C198.326 340.351 189.441 345.906 181.081 352.619C169.821 361.66 147.557 380.935 163.103 398.1C168.158 403.724 176.625 403.085 181.898 398.572C189.249 392.22 193.697 382.914 197.962 373.784C200.905 367.583 204.7 361.654 208.439 356.077C211.868 350.999 214.985 345.617 218.841 340.944C222.258 336.825 225.872 333.178 229.851 329.714C232.574 327.332 239.903 321.863 241.477 328.742C243.157 336.182 235.867 344.057 232.693 349.523C228.928 355.946 224.548 361.836 219.78 367.355C209.862 378.864 198.367 389.774 196.88 406.928C196.374 413.005 197.075 421.299 202.259 425.029C206.998 428.473 212.827 425.879 216.84 422.679C228.506 413.355 230.798 396.096 234.504 381.602C236.807 372.574 239.129 361.323 244.769 354.121C246.2 352.289 247.972 350.719 250.339 351.369C253.587 352.249 255.724 355.073 255.36 358.567C254.869 363.186 253.658 366.981 252.161 371.195C250.569 375.728 247.181 380.073 244.813 384.132C242.063 388.93 238.78 393.3 236.141 398.16C232.372 405.081 228.449 413.439 227.968 421.809C227.872 423.698 227.964 425.715 228.256 427.706C228.634 433.247 230.409 438.53 234.495 441.408C235.694 442.248 236.907 442.665 238.118 442.814C242.615 443.609 247.443 439.078 250.015 435.796C255.798 428.384 256.795 417.687 257.685 408.268C258.729 397.144 259.642 385.54 263.119 375.057C264.069 372.139 264.814 365.802 267.678 364.511C273.215 362.032 274.833 372.925 275.206 376.591C276.006 384.336 274.072 391.746 271.687 398.832C266.965 412.846 258.959 428.854 261.958 444.622C262.754 448.654 264.909 452.663 267.807 455.312C270.859 458.094 276.511 459.39 279.692 456.603C288.595 448.825 283.803 428.427 283.398 417.682C283.126 410.596 280.732 399.497 287.12 394.648C294.344 389.155 299.514 404.067 301.467 409.404C307.59 426.145 309.848 444.077 318.553 459.718C324.156 469.826 334.299 480.533 345.636 477.339C355.692 474.503 356.342 463.239 353.565 453.644C351.029 444.861 347.458 437.284 343.105 429.464C337.184 418.746 329.702 409.379 321.618 400.626C317.264 395.945 312.528 391.735 308.288 386.887C306.329 384.652 304.495 382.325 302.626 380.002C301.733 378.893 296.863 372.595 300.709 371.521C302.125 371.146 303.974 371.749 305.382 372.102C315.37 374.52 322.869 382.698 332.195 386.581C336.138 389.668 340.86 392.463 345.029 394.143C348.331 395.438 354.311 394.011 357.227 392.331C360.87 390.212 363.277 386.186 363.629 381.546C364.563 368.79 351.992 361.423 342.611 358.697C336.096 356.785 329.45 356.231 322.823 355.559C316.124 354.858 309.038 354.59 302.423 353.227C296.302 351.992 280.455 344.055 281.313 335.176C281.545 334.074 282.222 332.99 283.622 331.967C286.608 329.78 289.984 330.069 293.337 330.974C298.885 332.514 304.615 334.412 309.978 336.626C321.101 341.233 332.961 345.744 344.698 347.208C351.345 348.03 362.575 347.952 363.973 338.773C367.152 335.183 363.974 328.014 360.84 324.86C352.93 316.927 343.908 317.485 334.13 316.685C324.114 315.879 313.949 317.351 303.925 317.273C298.606 317.235 293.326 317.231 287.988 317.043C285.216 316.943 282.481 316.608 279.722 316.085C277.275 315.599 275.329 314.511 273.601 313.013C271.907 309.404 272.168 306.69 274.495 304.933C276.037 303.431 277.964 302.53 279.94 302.006C285.016 300.697 291.554 301.993 296.734 302.278C306.477 302.813 316.194 304.195 325.952 304.844C335.844 305.475 345.346 305.199 354.527 301.137C360.681 298.424 366.728 291.208 365.779 283.367C365.622 282.162 365.495 281.183 365.288 280.368C365.121 271.469 354.694 269.337 348.61 269.437C343.272 269.517 338.351 271.495 333.174 272.55C328.662 273.479 324.108 274.606 319.625 275.762C309.143 278.462 298.759 281.914 288.34 284.836C283.542 286.186 278.734 287.192 274.003 288.801C269.402 290.355 263.468 291.087 260.284 287.288C259.311 284.773 258.662 281.87 259.628 279.869C261.167 276.759 265.318 275.149 268.062 273.721C273.808 270.755 279.979 268.959 286.131 267.28C298.038 264.013 310.383 263.599 322.247 260.26C336.608 256.215 365.703 244.707 359.134 222.165C356.14 211.948 343.516 213.892 336.501 214.955C331.089 215.772 325.83 218.56 320.925 220.919C315.828 223.38 310.698 225.845 305.89 228.957C295.762 235.44 286.548 243.182 277.238 250.975C272.442 254.966 267.371 258.151 262.132 261.358C259.766 262.813 257.371 264.043 254.856 265.135C252.274 266.235 250.65 265.795 249.65 264.393C248.082 257.552 255.124 250.13 258.555 245.856L258.477 245.521Z" fill="url(#paint30_linear_2223_20226)"/>
<path d="M258.477 245.522C262.547 240.399 266.671 235.423 271.255 230.847C280.002 222.131 287.803 211.892 296.109 202.659C304.591 193.213 312.333 182.254 319.414 171.457C323.734 164.847 330.747 153.524 324.684 145.389C318.535 137.113 305.129 145.628 299.452 149.39C294.869 152.396 290.922 155.32 287.276 159.775C283.687 164.146 280.77 168.965 277.45 173.569C270.18 183.701 264.803 196.076 259.413 207.573C256.39 213.938 253.659 220.724 250.147 226.731C248.75 229.095 247.431 231.525 246.034 233.888C244.947 235.752 244.009 237.444 242.576 239.008C240.581 241.219 238.078 239.515 237.004 237.012C235.841 226.213 242.784 213.826 247.185 204.947C254.357 190.387 262.56 176.42 270.48 162.375C275.355 153.741 280.187 145.035 284.875 136.272C288.352 129.733 292.065 123.164 291.809 115.157C291.6 108.292 288.683 101.817 281.693 101.767C270.132 101.658 261.93 115.893 256.948 125.805C250.532 138.582 247.814 153.599 244.671 167.713C243.829 171.46 243.446 175.338 242.393 179.036C239.532 189.017 236.789 200.17 232.361 209.359C229.837 214.587 226.495 221.644 220.912 223.249C215.1 224.922 213.005 218.225 212.566 212.999C211.609 200.373 216.793 187.295 222.837 177.169C225.33 173.017 228.159 169.09 231.506 165.746C233.889 163.369 236.808 160.923 237.262 157.074C237.548 154.548 236.742 152.279 234.267 152.102C230.25 151.857 226.036 156.922 222.627 158.742C221.26 159.494 218.418 162.007 217.531 159.633C217.064 158.392 218.889 155.13 219.47 154.098C222.025 149.632 226.527 146.789 230.161 143.56C234.465 139.71 238.85 135.963 243.489 132.604C246.696 130.274 250.113 128.261 252.858 125.263C255.87 121.963 257.302 120.131 259.009 115.698C260.307 112.313 260.801 109.033 259.691 105.463C256.22 94.1974 242.223 107.346 238.7 111.44C236.6 113.895 234.985 116.938 232.809 119.326C229.075 123.371 226.449 120.189 228.666 114.963C230.669 110.185 233.295 105.747 235.97 101.419C239.822 95.1376 243.156 88.8088 243.313 80.8248C243.412 74.4946 239.157 69.5331 233.654 70.1705C227.179 70.9338 222.775 76.9034 219.223 82.3416C215.127 88.5777 212.953 97.5509 211.407 105.064C209.392 114.744 210.663 124.802 209.376 134.579C207.289 138.449 205.816 138.908 204.894 136.003C204.552 135.205 204.306 134.356 204.093 133.503C203.721 132.211 203.388 130.953 202.92 129.712C201.975 127.154 200.099 127.397 198.519 128.866C195.051 132.072 195.781 138.487 195.96 143.019C196.306 152.508 200.738 161.467 202.978 170.595C203.839 174.082 206.655 182.14 203.752 184.967C200.853 187.832 197.706 177.481 196.648 175.895C195.932 174.84 195.151 172.759 193.786 172.476C191.583 172.035 189.112 173.733 188.823 176.489C188.263 182.152 190.368 187.086 192.75 192.061C195.874 198.547 198.983 204.921 201.824 211.597C203.78 216.167 205.59 221.982 205.627 226.993C205.634 228.102 205.512 228.999 205.303 229.753C214.193 242.613 221.162 257.215 228.647 271.062C234.558 281.972 240.819 292.685 246.764 303.591C252.839 314.71 258.852 325.876 264.96 336.991C273.214 352.039 281.672 366.831 291.02 381.125C300.282 395.277 310.064 408.978 319.483 423.033C327.287 434.617 334.393 446.598 341.486 458.734C344.554 464.003 347.631 469.346 350.068 475.003C355.782 470.472 355.802 461.433 353.517 453.536C350.981 444.753 347.409 437.176 343.057 429.355C337.136 418.637 329.654 409.27 321.569 400.517C317.215 395.837 312.48 391.627 308.24 386.779C306.281 384.544 304.446 382.217 302.578 379.894C301.685 378.784 296.815 372.486 300.661 371.413C302.077 371.038 303.926 371.64 305.334 371.994C315.322 374.412 322.821 382.59 332.147 386.472C336.09 389.56 340.812 392.355 344.981 394.035C348.283 395.329 354.263 393.903 357.179 392.223C360.821 390.104 363.229 386.078 363.581 381.438C364.515 368.682 351.944 361.315 342.563 358.588C336.048 356.677 329.402 356.122 322.775 355.45C316.076 354.75 308.99 354.482 302.375 353.119C296.254 351.884 280.407 343.947 281.265 335.068C281.497 333.965 282.174 332.882 283.574 331.858C286.56 329.671 289.936 329.961 293.289 330.866C298.837 332.405 304.567 334.304 309.93 336.518C321.053 341.125 332.912 345.636 344.65 347.099C351.296 347.922 362.527 347.843 363.925 338.665C367.104 335.074 363.926 327.906 360.792 324.752C352.882 316.819 343.86 317.376 334.082 316.577C324.065 315.771 313.901 317.242 303.877 317.164C298.558 317.127 293.278 317.122 287.94 316.934C285.167 316.834 282.433 316.5 279.674 315.977C277.227 315.491 275.28 314.403 273.553 312.904C271.859 309.295 272.12 306.581 274.447 304.824C275.989 303.323 277.916 302.422 279.892 301.898C284.968 300.588 291.506 301.884 296.686 302.169C306.429 302.705 316.146 304.087 325.904 304.735C335.796 305.366 345.298 305.091 354.479 301.029C360.633 298.316 366.68 291.099 365.731 283.259C365.574 282.054 365.447 281.075 365.239 280.259C365.073 271.36 354.646 269.229 348.561 269.329C343.224 269.408 338.303 271.387 333.126 272.441C328.614 273.371 324.06 274.498 319.577 275.654C309.095 278.353 298.711 281.806 288.292 284.727C283.494 286.077 278.686 287.084 273.955 288.693C269.354 290.247 263.42 290.978 260.236 287.18C259.263 284.664 258.614 281.762 259.58 279.76C261.118 276.651 265.27 275.041 268.014 273.613C273.76 270.647 279.931 268.851 286.083 267.172C297.99 263.905 310.335 263.49 322.199 260.152C336.559 256.107 365.655 244.599 359.086 222.057C356.092 211.84 343.468 213.784 336.453 214.847C331.041 215.664 325.782 218.452 320.877 220.811C315.78 223.272 310.65 225.737 305.842 228.849C295.714 235.331 286.5 243.074 277.19 250.867C272.394 254.858 267.323 258.043 262.084 261.249C259.718 262.705 257.323 263.934 254.808 265.026C252.225 266.127 250.601 265.687 249.602 264.285C248.033 257.444 255.075 250.021 258.506 245.748L258.477 245.522Z" fill="url(#paint31_linear_2223_20226)"/>
<path d="M299.723 249.169C288.692 255.768 277.409 261.75 265.954 267.447C259.939 270.448 253.971 273.022 247.508 274.664C242.561 275.918 237.236 277.145 232.348 274.908C231.621 273.509 230.89 272.072 230.197 270.669C233.253 269.545 236.417 265.574 238.571 263.533C242.668 259.671 246.336 254.333 249.641 249.616C257.43 238.498 265.204 227.266 272.763 215.948C280.183 204.878 286.759 193.075 294.112 182.013C300.383 172.585 306.428 162.727 314.076 154.729C315.799 152.782 317.561 150.869 319.399 149.022C310.402 155.55 304.031 165.259 297.66 174.7C290.258 185.653 283.274 196.935 276.103 208.087C269.041 219.035 261.765 230.163 254.084 240.54C250.229 245.749 246.384 251.034 242.573 256.314C240.47 259.267 238.164 261.978 235.586 264.418C233.8 266.143 231.891 268.496 229.841 270.026C227.363 265.102 224.947 260.132 222.316 255.342C222.225 255.163 222.1 254.988 222.008 254.808C221.642 251.984 223.096 247.699 223.804 245.539C224.735 242.739 225.268 239.76 226.304 236.983C228.629 230.747 231.198 224.556 233.744 218.445C238.63 206.746 242.898 194.744 247.933 183.141C253.287 170.846 257.946 158.181 264.076 146.359C269.607 135.687 274.152 123.726 280.795 113.752C281.2 112.934 281.576 112.157 281.981 111.339C274.242 121.264 268.994 133.852 263.24 145.166C256.829 157.713 251.813 171.037 246.14 184.024C243.361 190.434 240.467 197.012 238.273 203.729C235.907 210.966 232.421 217.697 229.84 224.847C227.644 231.028 224.633 236.702 223.017 243.153C222.354 245.919 221.018 249.538 220.869 252.85C220.162 251.602 219.426 250.395 218.691 249.189C217.81 247.389 216.924 245.551 216.015 243.793C212.008 232.597 209.828 220.513 209.414 208.659C208.838 193.19 208.554 177.605 210.692 162.319C215.073 130.968 220.663 98.6945 236.972 72.3815C237.058 72.2555 236.928 72.0426 236.847 72.2063C228.501 84.2774 222.794 98.8393 218.762 113.452C214.432 129.175 211.458 145.642 209.495 162.015C207.61 177.421 206.938 193.245 208.112 208.867C208.722 216.981 209.595 225.023 211.243 233.002C211.674 235.014 212.297 236.924 213.077 238.737C211.261 236.025 210.07 232.887 208.187 230.183C207.562 229.307 206.484 227.302 205.274 227.689C204.356 227.961 204.049 229.801 204.301 230.687C204.673 231.979 205.942 232.312 206.734 233.166C207.723 234.225 208.593 235.414 209.433 236.645C211.082 239.111 212.477 241.725 213.967 244.288C214.847 245.821 215.761 247.348 216.641 248.881C214.17 246.636 211.312 244.824 208.608 243.146C203.942 240.267 199.192 237.782 194.289 235.431C181.831 229.467 169.551 223.287 156.557 218.962C144.626 214.958 132.559 211.737 120.615 207.888C107.645 203.751 93.094 198.976 83.0229 188.299C82.9413 188.194 82.8318 188.4 82.9086 188.466C90.6207 197.765 101.665 203.339 112.235 207.099C124.703 211.569 137.489 215.079 150.113 218.917C163.024 222.87 175.561 228.136 187.837 234.277C193.048 236.894 198.467 239.024 203.521 242.006C208.579 245.026 214.614 247.957 218.829 252.617C220.55 255.648 222.239 258.684 223.903 261.799C224.942 263.77 225.948 265.745 226.953 267.72C223.535 265.79 218.56 265.248 215.222 264.724C210.073 263.899 204.239 264.349 199.152 265.047C186.796 266.689 174.992 269.177 162.893 272.278C150.627 275.4 138.53 279.305 126.095 281.645C114.357 283.857 102.372 286.254 90.3496 283.908C90.2826 283.917 90.2637 284.034 90.3356 284.063C100.43 287.042 110.744 286.202 120.845 284.241C133.242 281.867 145.701 278.911 157.836 275.307C169.154 271.963 180.525 268.765 192.25 267.245C198.313 266.458 204.368 266.132 210.481 265.99C215 265.902 223.321 266.239 227.69 269.195C229.022 271.855 230.35 274.478 231.683 277.138C228.478 277.898 225.598 280.646 222.994 282.63C218.47 286.088 213.734 289.229 209.133 292.621C200.155 299.299 189.332 303.575 179.522 308.561C168.913 313.957 158.444 319.642 147.748 324.896C137.947 329.69 126.704 334.135 115.779 334.212C115.779 334.212 115.722 334.296 115.789 334.287C125.231 334.862 134.29 331.696 143.076 328.527C154.043 324.577 164.535 318.545 174.89 313.029C185.307 307.466 196.257 302.868 206.256 296.44C210.595 293.657 214.815 290.736 218.972 287.593C222.694 284.775 227.922 279.387 232.626 278.892C234.945 283.377 237.326 287.816 239.994 292.102C240.388 292.779 240.816 293.451 241.211 294.127C239.753 306.262 230.641 316.632 223.458 325.068C216.662 333.071 208.919 339.819 201.638 347.234C194.141 354.83 186.947 362.655 180.56 371.447C174.664 379.563 168.755 388.37 166.637 398.829C166.647 398.904 166.729 399.008 166.748 398.891C170.235 386.646 178.28 376.452 185.781 367.056C192.638 358.471 200.67 350.805 208.488 343.321C215.761 336.366 222.937 329.194 229.202 321.031C234.913 313.59 240.804 305.436 242.023 295.4C245.985 302.046 249.703 308.914 253.416 315.746C250.291 336.558 236.609 353.188 226.01 369.687C220.884 377.703 216.368 386.214 212.556 395.17C210.648 399.629 208.908 404.334 207.647 409.054C207.031 411.393 206.481 413.723 206.037 416.078C205.697 417.921 205.963 420.49 205.369 422.214C205.378 422.289 205.388 422.364 205.445 422.28C205.845 421.425 205.833 420.545 205.979 419.569C206.411 416.068 207.369 412.689 208.409 409.414C210.014 404.191 212.04 399.065 214.196 394.153C218.845 383.519 224.919 373.886 231.037 364.325C236.954 355.058 242.982 346.121 248.146 336.3C250.794 331.247 254.137 324.19 254.455 317.717C255.167 319.003 255.879 320.289 256.591 321.575C260.058 327.825 263.684 333.978 267.371 340.086C267.311 348.287 263.421 356.372 260.936 363.739C257.915 372.746 253.815 381.318 250.611 390.233C247.631 398.507 244.728 406.847 242.61 415.469C241.425 420.255 240.739 425.207 240.187 430.141C239.921 432.817 240.601 436.481 239.942 439.017C239.923 439.134 240.038 439.234 240.086 439.075C240.974 436.471 240.472 433.128 240.791 430.33C241.41 425.388 242.379 420.514 243.602 415.761C246.256 405.501 249.917 395.645 253.51 385.799C256.724 376.959 260.34 368.335 263.592 359.528C265.66 353.938 268.085 347.689 268.121 341.405C270.544 345.379 272.934 349.357 275.357 353.331C277.184 356.386 279.016 359.48 280.814 362.578C281.84 378.104 277.228 393.749 274.552 408.837C271.952 423.455 269.45 439.094 272.203 454.014C272.213 454.089 272.27 454.005 272.27 454.005C269.894 436.74 274.003 418.786 277.048 402.081C278.563 393.806 279.93 385.435 281.517 377.189C282.183 373.656 282.78 369.329 282.396 365.32C291.629 381.352 300.432 397.746 310.501 413.133C317.518 423.9 324.009 435.08 331.122 445.797C334.212 450.45 337.589 454.951 340.301 459.845C342.889 464.563 346.406 469.62 349.849 473.576C350.046 473.781 350.198 473.378 350.073 473.203C337.105 452.793 324.738 431.77 311.454 411.554C299.189 392.891 288.868 372.674 277.439 353.367C286.959 361.895 301.721 363.043 312.824 365.662C321.188 367.64 329.556 369.388 337.787 372.187C346.019 374.986 353.81 379.642 361.281 384.454C361.353 384.483 361.415 384.437 361.439 384.357C361.357 384.253 361.237 384.115 361.155 384.011C355.199 379.845 349.175 375.687 342.709 372.582C335.548 369.108 328.128 367.046 320.507 365.278C312.57 363.436 304.581 361.983 296.649 360.179C289.732 358.588 281.769 356.021 275.92 350.846C275.795 350.67 275.699 350.453 275.574 350.278C269.66 340.401 263.99 330.301 258.354 320.197C263.138 324.516 269.398 325.771 275.55 326.198C284.801 326.875 294.062 327.894 303.259 328.424C312.629 328.97 322.228 329.179 331.523 330.462C334.018 330.79 336.518 331.154 339.057 331.553C339.124 331.544 339.19 331.535 339.291 331.522C339.396 331.547 339.54 331.605 339.679 331.625C344.21 332.416 348.708 333.479 352.968 335.338C354.497 335.829 355.996 336.362 357.477 337.012C343.613 327.554 324.261 328.571 308.929 327.229C300.215 326.483 291.504 325.507 282.752 324.996C274.34 324.479 264.464 324.765 257.459 318.552C252.582 309.843 247.677 301.175 242.557 292.689C243.99 293.498 245.705 293.85 247.247 294.186C249.25 294.654 251.385 294.836 253.491 294.793C256.695 295.066 259.864 295.077 262.406 295.244C273.217 295.871 284.594 294.817 295.217 293.209C306.812 291.475 318.09 289.4 329.871 289.097C339.957 288.861 351.08 288.222 361.12 290.518C361.762 290.474 362.403 290.429 363.044 290.384C354.626 287.723 345.612 287.821 336.961 287.565C325.912 287.198 314.787 287.569 303.901 289.517C292.915 291.478 281.974 292.477 270.812 293.082C265.906 293.336 261.06 293.007 256.206 293.139C255.766 293.158 255.287 293.143 254.813 293.166C253.329 293.014 251.854 292.938 250.418 292.894C247.066 292.525 243.516 291.684 240.918 290.03C240.398 289.178 239.874 288.289 239.317 287.404C236.985 283.61 234.845 279.714 232.795 275.73C239.393 279.852 248.509 276.602 254.999 274.114C267.294 269.379 279.245 262.775 290.838 256.294C302.014 250.02 312.93 243.32 324.343 237.552C329.841 234.771 335.58 232.534 341.184 230.046C345.047 228.319 348.777 226.61 352.71 225.679C353.742 225.239 354.742 224.803 355.78 224.4C347.351 225.072 339.277 229.527 331.516 232.716C320.545 237.164 309.995 243.012 299.752 249.127L299.723 249.169Z" fill="url(#paint32_linear_2223_20226)"/>
<g opacity="0.4">
<path style="mix-blend-mode:multiply" d="M201.891 248.075C198.255 245.254 194.224 243.327 190.141 241.521C183.81 238.667 177.441 236.047 170.801 234.228C157.057 230.421 143.536 229.648 129.813 232.309C132.613 232.099 135.394 232.006 138.233 232.097C153.026 232.437 167.477 237.493 181.626 242.319C186.011 243.818 190.448 245.731 194.585 247.951C196.599 249.03 204.31 252.547 205.994 255.813C206.648 253.24 204.246 249.952 201.896 248.113L201.891 248.075Z" fill="url(#paint33_linear_2223_20226)"/>
<path style="mix-blend-mode:multiply" d="M186.513 221.431C189.204 225.37 192.044 229.673 195.919 232.234C198.676 234.058 204.261 236.933 207.261 234.591C210.515 232.101 209.144 226 208.067 222.426C206.749 218.041 204.847 213.884 202.664 209.918C200.519 205.984 198.125 202.237 195.798 198.48C197.853 202.769 199.837 207.03 201.734 211.417C203.69 215.987 205.5 221.802 205.537 226.813C205.598 235.955 196.899 231.647 192.81 227.966C189.533 225.022 186.853 221.426 184.139 217.834C184.908 219.036 185.705 220.196 186.503 221.356L186.513 221.431Z" fill="url(#paint34_linear_2223_20226)"/>
<path style="mix-blend-mode:multiply" d="M258.478 245.521C261.465 241.764 264.495 238.078 267.689 234.601C263.834 237.973 260.066 241.486 256.515 245.355C253.025 249.176 249.416 253.129 246.819 257.792C245.161 260.764 241.71 268.295 247.555 268.455C251.38 268.533 254.894 266.737 258.183 264.779C262.862 261.99 267.316 258.771 271.596 255.267C272.766 254.311 273.903 253.36 275.007 252.413C270.86 255.631 266.51 258.339 262.06 261.06C259.695 262.516 257.299 263.745 254.784 264.837C252.202 265.938 250.578 265.498 249.578 264.096C248.01 257.255 255.052 249.832 258.483 245.559L258.478 245.521Z" fill="url(#paint35_linear_2223_20226)"/>
<path style="mix-blend-mode:multiply" d="M240.896 335.02C241.271 333.976 241.58 332.941 241.811 331.838C242.303 329.592 242.669 326.635 241.343 324.548C239.723 322.04 236.989 321.973 234.569 322.747C225.045 325.743 218.616 336.838 213.219 345.387C209.605 351.14 206.188 357.096 203.399 363.431C205.001 360.811 206.713 358.253 208.396 355.738C211.825 350.66 214.942 345.278 218.798 340.605C222.215 336.486 225.829 332.84 229.808 329.375C232.531 326.993 239.86 321.524 241.434 328.403C241.923 330.599 241.632 332.819 240.924 334.978L240.896 335.02Z" fill="url(#paint36_linear_2223_20226)"/>
<path style="mix-blend-mode:multiply" d="M273.605 392.075C275.757 385.823 277.483 379.435 277.715 372.819C277.837 369.817 277.757 366.573 276.706 363.723C275.727 361.17 273.344 357.497 270.46 358.637C266.662 360.087 264.599 365.715 263.336 369.631C261.859 374.264 261.106 379.224 260.626 384.187C261.269 381.002 262.055 377.875 263.024 374.84C263.974 371.922 264.719 365.584 267.583 364.294C273.12 361.815 274.737 372.708 275.111 376.373C275.675 381.775 274.889 387.008 273.538 392.084L273.605 392.075Z" fill="url(#paint37_linear_2223_20226)"/>
<path style="mix-blend-mode:multiply" d="M301.401 409.145C302.191 411.301 302.915 413.466 303.61 415.673C302.795 411.491 301.98 407.308 300.835 403.207C299.361 397.885 297.09 391.67 292.315 388.997C287.353 386.195 283.572 390.131 281.756 395.038C280.092 399.542 279.813 404.479 280.141 409.375C280.624 416.511 282.093 423.633 284.466 430.37C284.041 425.524 283.417 420.973 283.298 417.427C283.026 410.341 280.632 399.242 287.02 394.393C294.244 388.9 299.414 403.812 301.367 409.149L301.401 409.145Z" fill="url(#paint38_linear_2223_20226)"/>
<path style="mix-blend-mode:multiply" d="M325.293 381.426C320.315 377.975 315.28 374.608 309.959 371.929C306.24 370.038 301.988 367.986 297.829 368.487C291.053 369.29 296.542 377.728 299.006 380.969C302.488 385.495 306.648 389.205 311.037 392.579C314.404 395.167 317.929 397.658 321.364 400.237C317.053 395.628 312.355 391.451 308.193 386.669C306.234 384.435 304.399 382.108 302.531 379.785C301.638 378.675 296.767 372.377 300.613 371.304C302.029 370.929 303.879 371.531 305.287 371.885C315.275 374.303 322.773 382.481 332.099 386.363C334.45 388.202 337.097 389.965 339.738 391.422C334.833 388.268 330.056 384.791 325.265 381.468L325.293 381.426Z" fill="url(#paint39_linear_2223_20226)"/>
<path style="mix-blend-mode:multiply" d="M259.552 279.534C259.871 278.842 260.372 278.241 260.917 277.711C259.353 278.526 257.786 279.572 256.928 281.1C255.57 283.497 256.683 286.3 258.64 287.999C260.833 289.935 263.558 290.195 266.324 289.721C263.958 289.607 261.778 288.817 260.208 286.953C259.234 284.438 258.585 281.536 259.552 279.534Z" fill="url(#paint40_linear_2223_20226)"/>
<path style="mix-blend-mode:multiply" d="M273.257 301.686C271.166 302.11 268.525 302.759 267.142 304.7C265.587 306.892 266.529 310.216 268.295 312.016C271.319 315.108 275.926 315.697 279.775 315.964C280.12 315.996 280.422 315.957 280.733 315.993C280.383 315.923 280.033 315.854 279.684 315.784C277.236 315.298 275.29 314.21 273.563 312.711C271.868 309.102 272.129 306.388 274.456 304.632C275.999 303.13 277.926 302.229 279.901 301.705C281.451 301.312 283.098 301.137 284.835 301.141C284.218 301.106 283.639 301.105 283.054 301.066C279.775 300.994 276.438 301.005 273.223 301.69L273.257 301.686Z" fill="url(#paint41_linear_2223_20226)"/>
<path style="mix-blend-mode:multiply" d="M288.236 329.721C285.397 329.362 281.911 329.01 279.363 330.643C275.368 333.19 276.807 338.249 279.674 341.438C282.823 344.973 286.982 348.147 291.218 349.818C293.48 350.712 295.995 351.457 298.518 351.743C291.311 348.964 280.595 342.237 281.313 334.907C281.545 333.805 282.222 332.722 283.622 331.698C286.608 329.511 289.984 329.801 293.337 330.706C295.919 331.443 298.54 332.213 301.175 333.097C296.954 331.539 292.632 330.261 288.303 329.713L288.236 329.721Z" fill="url(#paint42_linear_2223_20226)"/>
<path style="mix-blend-mode:multiply" d="M253.879 365.267C255.05 362.474 255.851 359.46 255.991 356.34C256.126 352.647 255.309 346.091 250.786 346.142C245.716 346.187 242.868 351.802 241.218 356.419C239.593 360.956 238.298 365.68 236.999 370.367C235.372 376.206 233.893 382.141 232.765 388.145C233.319 385.853 233.835 383.527 234.399 381.31C236.702 372.281 239.023 361.03 244.663 353.828C246.095 351.996 247.867 350.426 250.233 351.076C253.481 351.957 255.619 354.781 255.255 358.274C254.964 360.762 254.51 363.041 253.875 365.23L253.879 365.267Z" fill="url(#paint43_linear_2223_20226)"/>
<path style="mix-blend-mode:multiply" d="M232.621 349.226C233.991 347.44 235.288 345.626 236.504 343.707C237.577 341.998 238.611 340.255 239.492 338.38C237.425 342.4 234.409 346.199 232.621 349.226Z" fill="url(#paint44_linear_2223_20226)"/>
<path style="mix-blend-mode:multiply" d="M225.336 310.391C226.862 308.24 228.411 305.742 228.692 303.178C229.562 295.446 219.594 296.854 215.657 297.748C200.304 301.233 187.839 310.966 175.812 321.447C179.994 318.761 184.142 316.079 188.43 313.685C195.734 309.598 202.994 304.904 211.046 302.902C214.414 302.082 217.777 301.225 221.266 301.079C228.078 300.808 227.626 305.461 225.331 310.353L225.336 310.391Z" fill="url(#paint45_linear_2223_20226)"/>
<path style="mix-blend-mode:multiply" d="M212.136 281.626C208.513 284.164 204.641 286.083 200.735 288.006C197.244 289.722 193.739 291.325 190.235 292.929C190.168 292.937 190.105 292.984 190.043 293.03C183.82 294.948 177.67 297.43 171.616 299.862C183.193 296.943 194.833 293.979 205.667 288.744C209.703 286.766 213.708 284.562 216.945 281.156C218.172 279.848 219.791 278.145 220.039 276.121C220.349 273.516 217.78 272.356 215.94 271.829C209.578 270.051 203.282 271.403 197.121 273.543C201.777 272.671 206.611 272.388 211.056 273.305C216.895 274.462 216.934 278.707 212.145 281.702L212.136 281.626Z" fill="url(#paint46_linear_2223_20226)"/>
<path style="mix-blend-mode:multiply" d="M247.142 204.876C248.166 202.79 249.229 200.738 250.291 198.686C244.623 206.198 239.795 214.673 236.108 223.536C234.029 228.515 230.829 236.932 234.275 242.228C237.548 247.241 241.848 245.726 245.064 241.901C252.195 233.586 254.208 221.533 257.776 210.962C255.367 216.29 252.974 221.731 250.071 226.664C248.674 229.027 247.354 231.458 245.958 233.821C244.871 235.685 243.933 237.377 242.5 238.941C240.505 241.152 238.002 239.448 236.928 236.945C235.765 226.146 242.708 213.759 247.109 204.88L247.142 204.876Z" fill="url(#paint47_linear_2223_20226)"/>
<path style="mix-blend-mode:multiply" d="M215.995 191.113C214.732 193.459 213.547 195.871 212.615 198.404C210.557 204.07 209.531 211.133 210.873 217.276C211.973 222.341 215.618 228.913 221.095 227.015C225.428 225.496 228.251 220.995 230.212 216.682C231.987 212.776 233.255 208.63 234.417 204.459C233.746 206.116 233.037 207.739 232.285 209.292C229.761 214.52 226.419 221.577 220.836 223.182C215.024 224.855 212.929 218.158 212.489 212.932C211.949 205.612 213.428 198.108 216 191.15L215.995 191.113Z" fill="url(#paint48_linear_2223_20226)"/>
</g>
<path style="mix-blend-mode:screen" opacity="0.4" d="M340.472 470.351C337.055 466.851 333.581 463.703 330.669 459.639C327.931 455.859 325.713 451.629 323.347 447.571C318.674 439.639 314.411 431.463 309.962 423.425C309.736 422.995 309.379 423.654 309.452 423.951C313.994 442.429 319.23 469.661 339.719 473.206C341.045 473.455 341.293 471.164 340.506 470.347L340.472 470.351Z" fill="url(#paint49_radial_2223_20226)"/>
<path style="mix-blend-mode:screen" opacity="0.4" d="M178.417 390.639C173.427 386.309 164.872 386.27 163.104 378.152C162.954 377.521 162.379 377.557 162.18 378.119C157.986 389.115 167.881 402.113 177.96 395.522C179.375 394.611 179.842 391.909 178.421 390.676L178.417 390.639Z" fill="url(#paint50_radial_2223_20226)"/>
<path style="mix-blend-mode:screen" opacity="0.4" d="M215.402 412.91C211.757 412.12 209.079 411.433 205.947 408.815C202.967 406.33 202.516 400.224 202.712 396.485C202.74 395.907 202.222 395.859 202.008 396.308C199.57 401.41 197.059 411.461 200.84 416.714C205.202 422.771 212.319 421.963 215.937 415.981C216.414 415.191 216.629 413.172 215.402 412.91Z" fill="url(#paint51_radial_2223_20226)"/>
<path style="mix-blend-mode:screen" opacity="0.4" d="M247.272 429.873C244.916 427.728 241.921 428.538 239.185 427.667C236.023 426.661 231.955 423.13 230.701 419.77C230.547 419.369 230.179 419.685 230.147 419.957C229.16 425.216 230.526 431.547 234.308 435.23C238.329 439.188 244.883 439.027 247.559 433.664C248.155 432.477 248.351 430.843 247.272 429.873Z" fill="url(#paint52_radial_2223_20226)"/>
<path style="mix-blend-mode:screen" opacity="0.4" d="M277.673 445.762C275.821 444.355 273.287 443.727 271.089 443.323C268.263 442.809 266.434 440.787 264.628 438.418C264.296 437.963 263.834 438.598 263.887 439.012C264.209 443.067 264.727 447.058 266.656 450.637C268.748 454.424 272.929 457.25 276.755 455.491C279.714 454.15 280.464 447.85 277.673 445.762Z" fill="url(#paint53_radial_2223_20226)"/>
<path style="mix-blend-mode:screen" opacity="0.4" d="M141.319 334.421C136.35 334.185 131.358 334.833 126.399 334.94C122.187 335.027 113.859 333.848 111.425 329.531C111.247 329.21 111 329.663 110.99 329.856C111.138 336.766 115.868 340.939 121.361 343.366C128.147 346.314 136.976 343.216 141.98 338.202C142.973 337.193 143.038 334.543 141.324 334.459L141.319 334.421Z" fill="url(#paint54_radial_2223_20226)"/>
<path style="mix-blend-mode:screen" opacity="0.4" d="M123.257 293.117C120.45 292.486 117.629 292.277 114.841 291.529C112.02 290.784 109.364 289.482 106.519 288.818C101.461 287.636 93.5236 285.794 89.8354 281.257C89.5904 280.944 89.3042 281.364 89.3098 281.67C89.7839 300.292 111.785 301.841 123.24 295.876C124.005 295.47 124.349 293.397 123.261 293.155L123.257 293.117Z" fill="url(#paint55_radial_2223_20226)"/>
<path style="mix-blend-mode:screen" opacity="0.4" d="M101.356 231.942C97.1285 231.916 92.812 232.514 88.5758 232.681C84.6794 232.841 78.0746 233.392 74.7401 230.532C74.4331 230.265 74.2048 230.869 74.2725 231.128C77.6304 244.936 93.9997 240.094 101.622 235.047C102.564 234.427 102.888 231.934 101.356 231.942Z" fill="url(#paint56_radial_2223_20226)"/>
<path style="mix-blend-mode:screen" opacity="0.4" d="M112.16 213.081C107.094 209.22 101.642 205.525 96.1481 202.562C91.6369 200.084 86.4134 196.052 83.3142 191.592C83.1509 191.383 82.9554 191.715 82.9798 191.903C87.1109 206.682 98.5549 213.238 111.372 215.94C112.599 216.202 113.105 213.801 112.16 213.081Z" fill="url(#paint57_radial_2223_20226)"/>
<path style="mix-blend-mode:screen" opacity="0.4" d="M131.887 181.079C131.58 180.813 131.333 181.534 131.467 181.785C133.109 185.247 135.052 188.939 138.145 190.988C139.339 191.79 140.233 189.492 139.69 188.452C137.804 184.944 134.717 183.469 131.887 181.079Z" fill="url(#paint58_radial_2223_20226)"/>
<path style="mix-blend-mode:screen" opacity="0.4" d="M184.766 221.888C181.375 217.542 177.803 213.372 174.412 209.026C171.069 204.789 168.074 200.085 164.402 196.197C163.965 195.717 163.609 196.644 163.868 197.07C166.988 201.949 169.184 207.331 172.495 212.108C175.806 216.886 179.229 220.692 183.69 224.095C184.707 224.843 185.376 222.651 184.766 221.888Z" fill="url(#paint59_radial_2223_20226)"/>
<defs>
<radialGradient id="paint0_radial_2223_20226" cx="0" cy="0" r="1" gradientUnits="userSpaceOnUse" gradientTransform="translate(631.237 322.67) rotate(137.827) scale(65.5915 65.5932)">
<stop offset="0.07" stop-color="#E3F895"/>
<stop offset="0.5" stop-color="#B8E368"/>
<stop offset="1" stop-color="#89B341"/>
</radialGradient>
<radialGradient id="paint1_radial_2223_20226" cx="0" cy="0" r="1" gradientUnits="userSpaceOnUse" gradientTransform="translate(527.886 319.142) rotate(137.827) scale(73.9215 73.9234)">
<stop offset="0.07" stop-color="#E3F895"/>
<stop offset="0.5" stop-color="#B8E368"/>
<stop offset="1" stop-color="#89B341"/>
</radialGradient>
<radialGradient id="paint2_radial_2223_20226" cx="0" cy="0" r="1" gradientUnits="userSpaceOnUse" gradientTransform="translate(589.056 266.323) rotate(137.827) scale(62.1548 62.1563)">
<stop offset="0.07" stop-color="#E3F895"/>
<stop offset="0.5" stop-color="#B8E368"/>
<stop offset="1" stop-color="#89B341"/>
</radialGradient>
<radialGradient id="paint3_radial_2223_20226" cx="0" cy="0" r="1" gradientUnits="userSpaceOnUse" gradientTransform="translate(538.274 226.336) rotate(137.827) scale(73.339 73.3409)">
<stop offset="0.07" stop-color="#E3F895"/>
<stop offset="0.5" stop-color="#B8E368"/>
<stop offset="1" stop-color="#89B341"/>
</radialGradient>
<radialGradient id="paint4_radial_2223_20226" cx="0" cy="0" r="1" gradientUnits="userSpaceOnUse" gradientTransform="translate(453.564 304.88) rotate(137.827) scale(75.9021 75.9041)">
<stop offset="0.25" stop-color="#B8E368"/>
<stop offset="1" stop-color="#628F23"/>
</radialGradient>
<radialGradient id="paint5_radial_2223_20226" cx="0" cy="0" r="1" gradientUnits="userSpaceOnUse" gradientTransform="translate(385.201 267.614) rotate(137.827) scale(70.3682 70.37)">
<stop offset="0.25" stop-color="#B8E368"/>
<stop offset="1" stop-color="#628F23"/>
</radialGradient>
<radialGradient id="paint6_radial_2223_20226" cx="0" cy="0" r="1" gradientUnits="userSpaceOnUse" gradientTransform="translate(394.44 163.823) rotate(137.827) scale(74.3876 74.3895)">
<stop offset="0.25" stop-color="#B8E368"/>
<stop offset="1" stop-color="#628F23"/>
</radialGradient>
<radialGradient id="paint7_radial_2223_20226" cx="0" cy="0" r="1" gradientUnits="userSpaceOnUse" gradientTransform="translate(470 189.774) rotate(137.827) scale(73.7468 73.7487)">
<stop offset="0.25" stop-color="#B8E368"/>
<stop offset="1" stop-color="#628F23"/>
</radialGradient>
<radialGradient id="paint8_radial_2223_20226" cx="0" cy="0" r="1" gradientUnits="userSpaceOnUse" gradientTransform="translate(293.506 235.135) rotate(137.827) scale(70.1934 70.1952)">
<stop offset="0.25" stop-color="#B8E368"/>
<stop offset="1" stop-color="#628F23"/>
</radialGradient>
<radialGradient id="paint9_radial_2223_20226" cx="0" cy="0" r="1" gradientUnits="userSpaceOnUse" gradientTransform="translate(299.945 133.722) rotate(137.827) scale(77.6497 77.6517)">
<stop offset="0.25" stop-color="#B8E368"/>
<stop offset="1" stop-color="#628F23"/>
</radialGradient>
<radialGradient id="paint10_radial_2223_20226" cx="0" cy="0" r="1" gradientUnits="userSpaceOnUse" gradientTransform="translate(220.837 129.534) rotate(137.827) scale(62.8537 62.8553)">
<stop offset="0.25" stop-color="#B8E368"/>
<stop offset="1" stop-color="#628F23"/>
</radialGradient>
<radialGradient id="paint11_radial_2223_20226" cx="0" cy="0" r="1" gradientUnits="userSpaceOnUse" gradientTransform="translate(174.235 188.885) rotate(137.827) scale(65.2421 65.2437)">
<stop offset="0.1" stop-color="#AADB59"/>
<stop offset="1" stop-color="#3D7411"/>
</radialGradient>
<radialGradient id="paint12_radial_2223_20226" cx="0" cy="0" r="1" gradientUnits="userSpaceOnUse" gradientTransform="translate(140.635 114.075) rotate(137.827) scale(59.7664 59.7679)">
<stop offset="0.1" stop-color="#AADB59"/>
<stop offset="1" stop-color="#3D7411"/>
</radialGradient>
<radialGradient id="paint13_radial_2223_20226" cx="0" cy="0" r="1" gradientUnits="userSpaceOnUse" gradientTransform="translate(98.7685 181.949) rotate(137.827) scale(49.9218 49.9231)">
<stop offset="0.1" stop-color="#AADB59"/>
<stop offset="1" stop-color="#3D7411"/>
</radialGradient>
<radialGradient id="paint14_radial_2223_20226" cx="0" cy="0" r="1" gradientUnits="userSpaceOnUse" gradientTransform="translate(937.589 357.243) rotate(7.10126) scale(428.2 428.112)">
<stop offset="0.1" stop-color="#AADB59"/>
<stop offset="1" stop-color="#3D7411"/>
</radialGradient>
<radialGradient id="paint15_radial_2223_20226" cx="0" cy="0" r="1" gradientUnits="userSpaceOnUse" gradientTransform="translate(477.006 176.511) rotate(137.827) scale(458.151 458.162)">
<stop offset="0.1" stop-color="#AADB59"/>
<stop offset="1" stop-color="#3D7411"/>
</radialGradient>
<radialGradient id="paint16_radial_2223_20226" cx="0" cy="0" r="1" gradientUnits="userSpaceOnUse" gradientTransform="translate(274.895 222.754) rotate(137.827) scale(409.277 409.288)">
<stop offset="0.1" stop-color="#AADB59"/>
<stop offset="1" stop-color="#3D7411"/>
</radialGradient>
<radialGradient id="paint17_radial_2223_20226" cx="0" cy="0" r="1" gradientUnits="userSpaceOnUse" gradientTransform="translate(-158.672 209.381) rotate(137.827) scale(535.392 535.406)">
<stop offset="0.1" stop-color="#AADB59"/>
<stop offset="1" stop-color="#3D7411"/>
</radialGradient>
<radialGradient id="paint18_radial_2223_20226" cx="0" cy="0" r="1" gradientUnits="userSpaceOnUse" gradientTransform="translate(717.415 184.892) rotate(7.10126) scale(355.406 355.333)">
<stop stop-color="#639221"/>
<stop offset="1" stop-color="#53590B"/>
</radialGradient>
<radialGradient id="paint19_radial_2223_20226" cx="0" cy="0" r="1" gradientUnits="userSpaceOnUse" gradientTransform="translate(660.06 241.933) rotate(8.87089) scale(234.025 235.536)">
<stop offset="0.25" stop-color="#B8E368"/>
<stop offset="1" stop-color="#628F23"/>
</radialGradient>
<radialGradient id="paint20_radial_2223_20226" cx="0" cy="0" r="1" gradientUnits="userSpaceOnUse" gradientTransform="translate(1036.51 304.061) rotate(7.10126) scale(41.3345 41.3259)">
<stop offset="0.1" stop-color="#F5FAE0"/>
<stop offset="1" stop-color="#CCEE7A"/>
</radialGradient>
<radialGradient id="paint21_radial_2223_20226" cx="0" cy="0" r="1" gradientUnits="userSpaceOnUse" gradientTransform="translate(927.074 305.22) rotate(7.10126) scale(38.1011 38.0932)">
<stop offset="0.1" stop-color="#F5FAE0"/>
<stop offset="1" stop-color="#CCEE7A"/>
</radialGradient>
<radialGradient id="paint22_radial_2223_20226" cx="0" cy="0" r="1" gradientUnits="userSpaceOnUse" gradientTransform="translate(857.116 297.033) rotate(7.10126) scale(41.7714 41.7628)">
<stop offset="0.1" stop-color="#F5FAE0"/>
<stop offset="1" stop-color="#CCEE7A"/>
</radialGradient>
<radialGradient id="paint23_radial_2223_20226" cx="0" cy="0" r="1" gradientUnits="userSpaceOnUse" gradientTransform="translate(786.807 258.426) rotate(7.10126) scale(34.8678 34.8606)">
<stop offset="0.1" stop-color="#F5FAE0"/>
<stop offset="1" stop-color="#CCEE7A"/>
</radialGradient>
<radialGradient id="paint24_radial_2223_20226" cx="0" cy="0" r="1" gradientUnits="userSpaceOnUse" gradientTransform="translate(686.723 219.896) rotate(7.10126) scale(37.402 37.3943)">
<stop offset="0.1" stop-color="#F5FAE0"/>
<stop offset="1" stop-color="#CCEE7A"/>
</radialGradient>
<radialGradient id="paint25_radial_2223_20226" cx="0" cy="0" r="1" gradientUnits="userSpaceOnUse" gradientTransform="translate(1001.53 235.606) rotate(7.10126) scale(31.1975 31.1912)">
<stop offset="0.1" stop-color="#F5FAE0"/>
<stop offset="1" stop-color="#CCEE7A"/>
</radialGradient>
<radialGradient id="paint26_radial_2223_20226" cx="0" cy="0" r="1" gradientUnits="userSpaceOnUse" gradientTransform="translate(942.579 191.372) rotate(7.10126) scale(36.7029 36.6953)">
<stop offset="0.1" stop-color="#F5FAE0"/>
<stop offset="1" stop-color="#CCEE7A"/>
</radialGradient>
<radialGradient id="paint27_radial_2223_20226" cx="0" cy="0" r="1" gradientUnits="userSpaceOnUse" gradientTransform="translate(885.399 157.658) rotate(7.10126) scale(35.3047 35.2975)">
<stop offset="0.1" stop-color="#F5FAE0"/>
<stop offset="1" stop-color="#CCEE7A"/>
</radialGradient>
<radialGradient id="paint28_radial_2223_20226" cx="0" cy="0" r="1" gradientUnits="userSpaceOnUse" gradientTransform="translate(802.568 138.271) rotate(7.10126) scale(24.8182 24.8131)">
<stop offset="0.1" stop-color="#F5FAE0"/>
<stop offset="1" stop-color="#CCEE7A"/>
</radialGradient>
<radialGradient id="paint29_radial_2223_20226" cx="0" cy="0" r="1" gradientUnits="userSpaceOnUse" gradientTransform="translate(702.299 118.912) rotate(7.10126) scale(14.3316 14.3287)">
<stop offset="0.1" stop-color="#F5FAE0"/>
<stop offset="1" stop-color="#CCEE7A"/>
</radialGradient>
<linearGradient id="paint30_linear_2223_20226" x1="157.666" y1="381.403" x2="349.225" y2="241.998" gradientUnits="userSpaceOnUse">
<stop offset="0.22" stop-color="#63A71F"/>
<stop offset="0.51" stop-color="#006D20"/>
<stop offset="0.87" stop-color="#272F1B"/>
</linearGradient>
<linearGradient id="paint31_linear_2223_20226" x1="194.854" y1="334.432" x2="429.882" y2="208.902" gradientUnits="userSpaceOnUse">
<stop offset="0.22" stop-color="#63A71F"/>
<stop offset="0.51" stop-color="#006D20"/>
<stop offset="0.87" stop-color="#272F1B"/>
</linearGradient>
<linearGradient id="paint32_linear_2223_20226" x1="402.827" y1="552.419" x2="170.735" y2="233.784" gradientUnits="userSpaceOnUse">
<stop stop-color="#F1EEC2"/>
<stop offset="0.13" stop-color="#CADA95"/>
<stop offset="0.33" stop-color="#92BE55"/>
<stop offset="0.48" stop-color="#70AD2E"/>
<stop offset="0.55" stop-color="#63A71F"/>
<stop offset="0.66" stop-color="#78B138"/>
<stop offset="0.87" stop-color="#B0CD78"/>
<stop offset="1" stop-color="#D5E0A2"/>
</linearGradient>
<linearGradient id="paint33_linear_2223_20226" x1="101.336" y1="303.991" x2="292.884" y2="164.554" gradientUnits="userSpaceOnUse">
<stop offset="0.22" stop-color="#63A71F"/>
<stop offset="0.51" stop-color="#006D20"/>
<stop offset="0.87" stop-color="#272F1B"/>
</linearGradient>
<linearGradient id="paint34_linear_2223_20226" x1="102.553" y1="305.687" x2="294.113" y2="166.281" gradientUnits="userSpaceOnUse">
<stop offset="0.22" stop-color="#63A71F"/>
<stop offset="0.51" stop-color="#006D20"/>
<stop offset="0.87" stop-color="#272F1B"/>
</linearGradient>
<linearGradient id="paint35_linear_2223_20226" x1="142.023" y1="359.911" x2="333.571" y2="220.474" gradientUnits="userSpaceOnUse">
<stop offset="0.22" stop-color="#63A71F"/>
<stop offset="0.51" stop-color="#006D20"/>
<stop offset="0.87" stop-color="#272F1B"/>
</linearGradient>
<linearGradient id="paint36_linear_2223_20226" x1="165.734" y1="392.499" x2="357.324" y2="253.078" gradientUnits="userSpaceOnUse">
<stop offset="0.22" stop-color="#63A71F"/>
<stop offset="0.51" stop-color="#006D20"/>
<stop offset="0.87" stop-color="#272F1B"/>
</linearGradient>
<linearGradient id="paint37_linear_2223_20226" x1="200.127" y1="439.767" x2="391.717" y2="300.346" gradientUnits="userSpaceOnUse">
<stop offset="0.22" stop-color="#63A71F"/>
<stop offset="0.51" stop-color="#006D20"/>
<stop offset="0.87" stop-color="#272F1B"/>
</linearGradient>
<linearGradient id="paint38_linear_2223_20226" x1="221.107" y1="468.625" x2="412.696" y2="329.204" gradientUnits="userSpaceOnUse">
<stop offset="0.22" stop-color="#63A71F"/>
<stop offset="0.51" stop-color="#006D20"/>
<stop offset="0.87" stop-color="#272F1B"/>
</linearGradient>
<linearGradient id="paint39_linear_2223_20226" x1="220.544" y1="467.791" x2="412.073" y2="328.402" gradientUnits="userSpaceOnUse">
<stop offset="0.22" stop-color="#63A71F"/>
<stop offset="0.51" stop-color="#006D20"/>
<stop offset="0.87" stop-color="#272F1B"/>
</linearGradient>
<linearGradient id="paint40_linear_2223_20226" x1="156.503" y1="379.806" x2="348.063" y2="240.401" gradientUnits="userSpaceOnUse">
<stop offset="0.22" stop-color="#63A71F"/>
<stop offset="0.51" stop-color="#006D20"/>
<stop offset="0.87" stop-color="#272F1B"/>
</linearGradient>
<linearGradient id="paint41_linear_2223_20226" x1="172.415" y1="401.655" x2="363.974" y2="262.251" gradientUnits="userSpaceOnUse">
<stop offset="0.22" stop-color="#63A71F"/>
<stop offset="0.51" stop-color="#006D20"/>
<stop offset="0.87" stop-color="#272F1B"/>
</linearGradient>
<linearGradient id="paint42_linear_2223_20226" x1="191.954" y1="428.473" x2="383.483" y2="289.084" gradientUnits="userSpaceOnUse">
<stop offset="0.22" stop-color="#63A71F"/>
<stop offset="0.51" stop-color="#006D20"/>
<stop offset="0.87" stop-color="#272F1B"/>
</linearGradient>
<linearGradient id="paint43_linear_2223_20226" x1="184.18" y1="417.852" x2="375.739" y2="278.447" gradientUnits="userSpaceOnUse">
<stop offset="0.22" stop-color="#63A71F"/>
<stop offset="0.51" stop-color="#006D20"/>
<stop offset="0.87" stop-color="#272F1B"/>
</linearGradient>
<linearGradient id="paint44_linear_2223_20226" x1="172.146" y1="401.297" x2="363.735" y2="261.876" gradientUnits="userSpaceOnUse">
<stop offset="0.22" stop-color="#63A71F"/>
<stop offset="0.51" stop-color="#006D20"/>
<stop offset="0.87" stop-color="#272F1B"/>
</linearGradient>
<linearGradient id="paint45_linear_2223_20226" x1="145.855" y1="365.191" x2="337.402" y2="225.755" gradientUnits="userSpaceOnUse">
<stop offset="0.22" stop-color="#63A71F"/>
<stop offset="0.51" stop-color="#006D20"/>
<stop offset="0.87" stop-color="#272F1B"/>
</linearGradient>
<linearGradient id="paint46_linear_2223_20226" x1="131.459" y1="345.377" x2="323.018" y2="205.972" gradientUnits="userSpaceOnUse">
<stop offset="0.22" stop-color="#63A71F"/>
<stop offset="0.51" stop-color="#006D20"/>
<stop offset="0.87" stop-color="#272F1B"/>
</linearGradient>
<linearGradient id="paint47_linear_2223_20226" x1="122.513" y1="333.074" x2="314.042" y2="193.685" gradientUnits="userSpaceOnUse">
<stop offset="0.22" stop-color="#63A71F"/>
<stop offset="0.51" stop-color="#006D20"/>
<stop offset="0.87" stop-color="#272F1B"/>
</linearGradient>
<linearGradient id="paint48_linear_2223_20226" x1="106.233" y1="310.754" x2="297.81" y2="171.302" gradientUnits="userSpaceOnUse">
<stop offset="0.22" stop-color="#63A71F"/>
<stop offset="0.51" stop-color="#006D20"/>
<stop offset="0.87" stop-color="#272F1B"/>
</linearGradient>
<radialGradient id="paint49_radial_2223_20226" cx="0" cy="0" r="1" gradientUnits="userSpaceOnUse" gradientTransform="translate(316.986 455.527) rotate(-32.9298) scale(31.3893 33.9148)">
<stop offset="0.17" stop-color="#E6FBB7"/>
<stop offset="0.65" stop-color="#006839"/>
<stop offset="0.74" stop-color="#004224"/>
<stop offset="0.87" stop-color="#00120A"/>
<stop offset="0.93"/>
</radialGradient>
<radialGradient id="paint50_radial_2223_20226" cx="0" cy="0" r="1" gradientUnits="userSpaceOnUse" gradientTransform="translate(164.113 393.678) rotate(-32.9298) scale(22.3162 24.1117)">
<stop offset="0.17" stop-color="#E6FBB7"/>
<stop offset="0.65" stop-color="#006839"/>
<stop offset="0.74" stop-color="#004224"/>
<stop offset="0.87" stop-color="#00120A"/>
<stop offset="0.93"/>
</radialGradient>
<radialGradient id="paint51_radial_2223_20226" cx="0" cy="0" r="1" gradientUnits="userSpaceOnUse" gradientTransform="translate(202.035 419.611) rotate(-32.9299) scale(22.6827 24.5078)">
<stop offset="0.17" stop-color="#E6FBB7"/>
<stop offset="0.65" stop-color="#006839"/>
<stop offset="0.74" stop-color="#004224"/>
<stop offset="0.87" stop-color="#00120A"/>
<stop offset="0.93"/>
</radialGradient>
<radialGradient id="paint52_radial_2223_20226" cx="0" cy="0" r="1" gradientUnits="userSpaceOnUse" gradientTransform="translate(239.913 436.253) rotate(-32.9299) scale(21.308 23.0225)">
<stop offset="0.17" stop-color="#E6FBB7"/>
<stop offset="0.65" stop-color="#006839"/>
<stop offset="0.74" stop-color="#004224"/>
<stop offset="0.87" stop-color="#00120A"/>
<stop offset="0.93"/>
</radialGradient>
<radialGradient id="paint53_radial_2223_20226" cx="0" cy="0" r="1" gradientUnits="userSpaceOnUse" gradientTransform="translate(274.696 457.375) rotate(-32.9298) scale(20.4374 22.0818)">
<stop offset="0.17" stop-color="#E6FBB7"/>
<stop offset="0.65" stop-color="#006839"/>
<stop offset="0.74" stop-color="#004224"/>
<stop offset="0.87" stop-color="#00120A"/>
<stop offset="0.93"/>
</radialGradient>
<radialGradient id="paint54_radial_2223_20226" cx="0" cy="0" r="1" gradientUnits="userSpaceOnUse" gradientTransform="translate(124.953 345.365) rotate(-32.9299) scale(22.9577 24.8049)">
<stop offset="0.17" stop-color="#E6FBB7"/>
<stop offset="0.65" stop-color="#006839"/>
<stop offset="0.74" stop-color="#004224"/>
<stop offset="0.87" stop-color="#00120A"/>
<stop offset="0.93"/>
</radialGradient>
<radialGradient id="paint55_radial_2223_20226" cx="0" cy="0" r="1" gradientUnits="userSpaceOnUse" gradientTransform="translate(102.883 296.484) rotate(-32.9298) scale(22.7744 24.6068)">
<stop offset="0.17" stop-color="#E6FBB7"/>
<stop offset="0.65" stop-color="#006839"/>
<stop offset="0.74" stop-color="#004224"/>
<stop offset="0.87" stop-color="#00120A"/>
<stop offset="0.93"/>
</radialGradient>
<radialGradient id="paint56_radial_2223_20226" cx="0" cy="0" r="1" gradientUnits="userSpaceOnUse" gradientTransform="translate(88.6935 247.334) rotate(-32.9299) scale(29.0522 31.3897)">
<stop offset="0.17" stop-color="#E6FBB7"/>
<stop offset="0.65" stop-color="#006839"/>
<stop offset="0.74" stop-color="#004224"/>
<stop offset="0.87" stop-color="#00120A"/>
<stop offset="0.93"/>
</radialGradient>
<radialGradient id="paint57_radial_2223_20226" cx="0" cy="0" r="1" gradientUnits="userSpaceOnUse" gradientTransform="translate(100.012 200.777) rotate(-32.9298) scale(13.2431 14.3086)">
<stop offset="0.17" stop-color="#E6FBB7"/>
<stop offset="0.65" stop-color="#006839"/>
<stop offset="0.74" stop-color="#004224"/>
<stop offset="0.87" stop-color="#00120A"/>
<stop offset="0.93"/>
</radialGradient>
<radialGradient id="paint58_radial_2223_20226" cx="0" cy="0" r="1" gradientUnits="userSpaceOnUse" gradientTransform="translate(138.189 182.893) rotate(-32.9298) scale(4.30744 4.65401)">
<stop offset="0.17" stop-color="#E6FBB7"/>
<stop offset="0.65" stop-color="#006839"/>
<stop offset="0.74" stop-color="#004224"/>
<stop offset="0.87" stop-color="#00120A"/>
<stop offset="0.93"/>
</radialGradient>
<radialGradient id="paint59_radial_2223_20226" cx="0" cy="0" r="1" gradientUnits="userSpaceOnUse" gradientTransform="translate(176.951 207.103) rotate(-32.9299) scale(11.5934 12.5262)">
<stop offset="0.17" stop-color="#E6FBB7"/>
<stop offset="0.65" stop-color="#006839"/>
<stop offset="0.74" stop-color="#004224"/>
<stop offset="0.87" stop-color="#00120A"/>
<stop offset="0.93"/>
</radialGradient>
</defs>
</svg>
