<svg width="483" height="485" viewBox="0 0 483 485" fill="none" xmlns="http://www.w3.org/2000/svg">
<path d="M242.205 479.152C373.692 479.152 480.283 372.561 480.283 241.074C480.283 109.587 373.692 2.99561 242.205 2.99561C110.718 2.99561 4.12695 109.587 4.12695 241.074C4.12695 372.561 110.718 479.152 242.205 479.152Z" fill="url(#paint0_radial_1631_7843)"/>
<path d="M242.206 481.244C109.775 481.244 2.03516 373.504 2.03516 241.073C2.03516 108.643 109.778 0.902832 242.206 0.902832C374.633 0.902832 482.376 108.643 482.376 241.073C482.376 373.504 374.636 481.244 242.206 481.244ZM242.206 5.08401C112.081 5.08401 6.21633 110.949 6.21633 241.073C6.21633 371.198 112.081 477.062 242.206 477.062C372.33 477.062 478.195 371.198 478.195 241.073C478.195 110.949 372.333 5.08401 242.206 5.08401Z" fill="url(#paint1_linear_1631_7843)"/>
<path d="M242.289 240.945V33.2036C204.442 33.2036 168.994 43.3762 138.434 61.0582L242.289 240.945Z" fill="#9E6C18"/>
<path d="M242.289 240.945V33.2036C204.442 33.2036 168.994 43.3762 138.434 61.0582L242.289 240.945Z" fill="url(#paint2_radial_1631_7843)"/>
<path d="M242.289 240.945V33.2036C204.442 33.2036 168.994 43.3762 138.434 61.0582L242.289 240.945Z" fill="url(#paint3_radial_1631_7843)" fill-opacity="0.5"/>
<path d="M242.289 240.945V33.2036C204.442 33.2036 168.994 43.3762 138.434 61.0582L242.289 240.945Z" fill="url(#paint4_radial_1631_7843)"/>
<path d="M242.289 240.945L346.144 61.0582C315.584 43.3762 280.136 33.2036 242.289 33.2036V240.945Z" fill="url(#paint5_radial_1631_7843)"/>
<path d="M242.289 240.945L346.144 61.0582C315.584 43.3762 280.136 33.2036 242.289 33.2036V240.945Z" fill="url(#paint6_radial_1631_7843)"/>
<path d="M242.289 240.945L422.176 137.09C403.936 105.569 377.669 79.3017 346.148 61.0625L242.293 240.949L242.289 240.945Z" fill="#9E6C18"/>
<path d="M242.289 240.945L422.176 137.09C403.936 105.569 377.669 79.3017 346.148 61.0625L242.293 240.949L242.289 240.945Z" fill="url(#paint7_radial_1631_7843)"/>
<path d="M242.289 240.945L422.176 137.09C403.936 105.569 377.669 79.3017 346.148 61.0625L242.293 240.949L242.289 240.945Z" fill="url(#paint8_radial_1631_7843)"/>
<path d="M242.289 240.945L422.176 137.09C403.936 105.569 377.669 79.3017 346.148 61.0625L242.293 240.949L242.289 240.945Z" fill="url(#paint9_radial_1631_7843)"/>
<path d="M450.03 240.945C450.03 203.098 439.858 167.649 422.176 137.089L242.289 240.945H450.027H450.03Z" fill="url(#paint10_radial_1631_7843)"/>
<path d="M450.03 240.945C450.03 203.098 439.858 167.649 422.176 137.089L242.289 240.945H450.027H450.03Z" fill="url(#paint11_radial_1631_7843)"/>
<path d="M450.03 240.945C450.03 203.098 439.858 167.649 422.176 137.089L242.289 240.945H450.027H450.03Z" fill="url(#paint12_radial_1631_7843)"/>
<path d="M242.29 240.945L138.435 61.0581C106.914 79.2973 80.6465 105.565 62.4072 137.086L242.294 240.941L242.29 240.945Z" fill="url(#paint13_radial_1631_7843)"/>
<path d="M242.29 240.945L138.435 61.0581C106.914 79.2973 80.6465 105.565 62.4072 137.086L242.294 240.941L242.29 240.945Z" fill="url(#paint14_radial_1631_7843)"/>
<path d="M242.29 240.945L138.435 61.0581C106.914 79.2973 80.6465 105.565 62.4072 137.086L242.294 240.941L242.29 240.945Z" fill="url(#paint15_radial_1631_7843)"/>
<path d="M242.289 448.686C280.136 448.686 315.584 438.513 346.144 420.831L242.289 240.944V448.686Z" fill="#9E6C18"/>
<path d="M242.289 448.686C280.136 448.686 315.584 438.513 346.144 420.831L242.289 240.944V448.686Z" fill="url(#paint16_radial_1631_7843)"/>
<path d="M242.289 448.686C280.136 448.686 315.584 438.513 346.144 420.831L242.289 240.944V448.686Z" fill="url(#paint17_radial_1631_7843)" fill-opacity="0.7"/>
<path d="M242.289 448.686C280.136 448.686 315.584 438.513 346.144 420.831L242.289 240.944V448.686Z" fill="url(#paint18_radial_1631_7843)"/>
<path d="M346.148 420.833C377.669 402.593 403.936 376.326 422.176 344.805L242.289 240.95L346.144 420.836L346.148 420.833Z" fill="url(#paint19_radial_1631_7843)"/>
<path d="M346.148 420.833C377.669 402.593 403.936 376.326 422.176 344.805L242.289 240.95L346.144 420.836L346.148 420.833Z" fill="url(#paint20_radial_1631_7843)" fill-opacity="0.8"/>
<path d="M346.148 420.833C377.669 402.593 403.936 376.326 422.176 344.805L242.289 240.95L346.144 420.836L346.148 420.833Z" fill="url(#paint21_radial_1631_7843)"/>
<path d="M242.289 240.944L422.176 344.8C439.858 314.239 450.03 278.791 450.03 240.944H242.293H242.289Z" fill="#9E6C18"/>
<path d="M242.289 240.944L422.176 344.8C439.858 314.239 450.03 278.791 450.03 240.944H242.293H242.289Z" fill="url(#paint22_radial_1631_7843)"/>
<path d="M242.289 240.944L422.176 344.8C439.858 314.239 450.03 278.791 450.03 240.944H242.293H242.289Z" fill="url(#paint23_radial_1631_7843)" fill-opacity="0.5"/>
<path d="M242.289 240.944L422.176 344.8C439.858 314.239 450.03 278.791 450.03 240.944H242.293H242.289Z" fill="url(#paint24_radial_1631_7843)"/>
<path d="M138.434 420.831C168.994 438.513 204.442 448.686 242.289 448.686V240.944L138.434 420.831Z" fill="url(#paint25_radial_1631_7843)"/>
<path d="M138.434 420.831C168.994 438.513 204.442 448.686 242.289 448.686V240.944L138.434 420.831Z" fill="url(#paint26_radial_1631_7843)"/>
<path d="M138.434 420.831C168.994 438.513 204.442 448.686 242.289 448.686V240.944L138.434 420.831Z" fill="url(#paint27_radial_1631_7843)"/>
<path d="M62.4081 344.801C80.6474 376.322 106.915 402.589 138.436 420.829L242.291 240.942L62.4043 344.797L62.4081 344.801Z" fill="#9E6C18"/>
<path d="M62.4081 344.801C80.6474 376.322 106.915 402.589 138.436 420.829L242.291 240.942L62.4043 344.797L62.4081 344.801Z" fill="url(#paint28_radial_1631_7843)"/>
<path d="M62.4081 344.801C80.6474 376.322 106.915 402.589 138.436 420.829L242.291 240.942L62.4043 344.797L62.4081 344.801Z" fill="url(#paint29_radial_1631_7843)" fill-opacity="0.7"/>
<path d="M62.4081 344.801C80.6474 376.322 106.915 402.589 138.436 420.829L242.291 240.942L62.4043 344.797L62.4081 344.801Z" fill="url(#paint30_radial_1631_7843)"/>
<path d="M62.4073 137.089C44.7253 167.649 34.5527 203.098 34.5527 240.945H242.29L62.4035 137.089H62.4073Z" fill="#9E6C18"/>
<path d="M62.4073 137.089C44.7253 167.649 34.5527 203.098 34.5527 240.945H242.29L62.4035 137.089H62.4073Z" fill="url(#paint31_radial_1631_7843)"/>
<path d="M62.4073 137.089C44.7253 167.649 34.5527 203.098 34.5527 240.945H242.29L62.4035 137.089H62.4073Z" fill="url(#paint32_radial_1631_7843)" fill-opacity="0.5"/>
<path d="M62.4073 137.089C44.7253 167.649 34.5527 203.098 34.5527 240.945H242.29L62.4035 137.089H62.4073Z" fill="url(#paint33_radial_1631_7843)"/>
<path d="M242.29 240.944H34.5527C34.5527 278.791 44.7253 314.239 62.4073 344.8L242.294 240.944H242.29Z" fill="url(#paint34_radial_1631_7843)"/>
<path d="M242.29 240.944H34.5527C34.5527 278.791 44.7253 314.239 62.4073 344.8L242.294 240.944H242.29Z" fill="url(#paint35_radial_1631_7843)" fill-opacity="0.5"/>
<path d="M242.29 240.944H34.5527C34.5527 278.791 44.7253 314.239 62.4073 344.8L242.294 240.944H242.29Z" fill="url(#paint36_radial_1631_7843)"/>
<path d="M343.137 64.0163L241.822 240.351L242.912 240.977L344.227 64.6423L343.137 64.0163Z" fill="url(#paint37_linear_1631_7843)"/>
<path d="M241.646 37.3144L241.22 240.962L242.476 240.965L242.903 37.317L241.646 37.3144Z" fill="url(#paint38_linear_1631_7843)"/>
<path d="M141.042 65.2694L139.954 65.8979L241.044 240.92L242.132 240.292L141.042 65.2694Z" fill="url(#paint39_linear_1631_7843)"/>
<path d="M65.6756 138.552L65.0488 139.641L241.962 241.453L242.589 240.364L65.6756 138.552Z" fill="url(#paint40_linear_1631_7843)"/>
<path d="M39.3284 239.998L39.3262 241.254L242.332 241.609L242.335 240.352L39.3284 239.998Z" fill="url(#paint41_linear_1631_7843)"/>
<path d="M241.22 240.01L65.3604 342.239L65.9919 343.326L241.851 241.096L241.22 240.01Z" fill="url(#paint42_linear_1631_7843)"/>
<path d="M241.149 240.394L138.898 417.711L139.987 418.339L242.237 241.022L241.149 240.394Z" fill="url(#paint43_linear_1631_7843)"/>
<path d="M242.191 240.65L240.935 240.654L241.619 447.099L242.876 447.095L242.191 240.65Z" fill="url(#paint44_linear_1631_7843)"/>
<path d="M242.132 240.29L241.044 240.918L343.252 418.019L344.341 417.391L242.132 240.29Z" fill="url(#paint45_linear_1631_7843)"/>
<path d="M241.903 240.058L241.273 241.146L419.63 344.37L420.26 343.282L241.903 240.058Z" fill="url(#paint46_linear_1631_7843)"/>
<path d="M446.669 240.364H241.741V241.621H446.669V240.364Z" fill="url(#paint47_linear_1631_7843)"/>
<path d="M419.822 137.485L241.254 240.042L241.88 241.132L420.448 138.575L419.822 137.485Z" fill="url(#paint48_linear_1631_7843)"/>
<g filter="url(#filter0_f_1631_7843)">
<path d="M179.833 240.899C179.833 249.385 181.441 257.787 184.566 265.626C187.691 273.466 192.27 280.589 198.044 286.589C203.818 292.589 210.672 297.348 218.216 300.596C225.759 303.843 233.845 305.514 242.01 305.514C250.175 305.514 258.26 303.843 265.804 300.596C273.347 297.348 280.202 292.589 285.975 286.589C291.749 280.589 296.329 273.466 299.453 265.626C302.578 257.787 304.186 249.385 304.186 240.899H296.088C296.088 248.279 294.689 255.587 291.971 262.405C289.253 269.224 285.27 275.419 280.249 280.638C275.227 285.856 269.265 289.996 262.704 292.82C256.143 295.644 249.111 297.098 242.01 297.098C234.908 297.098 227.876 295.644 221.315 292.82C214.754 289.996 208.792 285.856 203.771 280.638C198.749 275.419 194.766 269.224 192.048 262.405C189.331 255.587 187.932 248.279 187.932 240.899H179.833Z" fill="url(#paint49_linear_1631_7843)"/>
</g>
<path d="M242.29 298.303C273.967 298.303 299.647 272.623 299.647 240.945C299.647 209.267 273.967 183.587 242.29 183.587C210.612 183.587 184.932 209.267 184.932 240.945C184.932 272.623 210.612 298.303 242.29 298.303Z" fill="url(#paint50_radial_1631_7843)"/>
<g filter="url(#filter1_f_1631_7843)">
<path d="M207.872 241.509C207.872 245.911 208.755 250.271 210.471 254.339C212.186 258.406 214.7 262.102 217.87 265.215C221.04 268.329 224.803 270.798 228.945 272.483C233.087 274.168 237.525 275.035 242.008 275.035C246.491 275.035 250.93 274.168 255.072 272.483C259.213 270.798 262.976 268.329 266.146 265.215C269.316 262.102 271.831 258.406 273.546 254.339C275.262 250.271 276.145 245.911 276.145 241.509H271.698C271.698 245.338 270.93 249.13 269.438 252.667C267.946 256.205 265.759 259.42 263.002 262.128C260.245 264.835 256.972 266.983 253.37 268.449C249.768 269.914 245.907 270.668 242.008 270.668C238.109 270.668 234.249 269.914 230.646 268.449C227.044 266.983 223.771 264.835 221.014 262.128C218.257 259.42 216.071 256.205 214.578 252.667C213.086 249.13 212.318 245.338 212.318 241.509H207.872Z" fill="url(#paint51_linear_1631_7843)"/>
</g>
<path d="M242.291 299.563C209.971 299.563 183.677 273.269 183.677 240.945C183.677 208.621 209.971 182.33 242.291 182.33C274.612 182.33 300.906 208.624 300.906 240.945C300.906 273.265 274.612 299.563 242.291 299.563ZM242.291 184.843C211.355 184.843 186.19 210.012 186.19 240.945C186.19 271.878 211.358 297.046 242.291 297.046C273.224 297.046 298.393 271.878 298.393 240.945C298.393 210.012 273.224 184.843 242.291 184.843Z" fill="url(#paint52_linear_1631_7843)"/>
<path d="M242.292 272.581C259.765 272.581 273.929 258.417 273.929 240.945C273.929 223.473 259.765 209.309 242.292 209.309C224.82 209.309 210.656 223.473 210.656 240.945C210.656 258.417 224.82 272.581 242.292 272.581Z" fill="url(#paint53_linear_1631_7843)"/>
<g filter="url(#filter2_f_1631_7843)">
<path d="M16.4785 257.081C16.4785 284.914 22.2837 312.475 33.5627 338.189C44.8416 363.904 61.3734 387.269 82.2142 406.95C103.055 426.63 127.797 442.242 155.026 452.894C182.256 463.545 211.441 469.027 240.914 469.027C270.387 469.027 299.572 463.545 326.802 452.894C354.032 442.242 378.773 426.631 399.614 406.95C420.455 387.269 436.987 363.904 448.266 338.189C459.545 312.475 465.35 284.914 465.35 257.081H436.116C436.116 281.289 431.067 305.26 421.257 327.625C411.447 349.99 397.069 370.311 378.943 387.429C360.816 404.546 339.298 418.124 315.615 427.388C291.932 436.652 266.548 441.42 240.914 441.42C215.28 441.42 189.897 436.652 166.214 427.388C142.531 418.124 121.012 404.546 102.886 387.428C84.7594 370.311 70.381 349.99 60.5712 327.625C50.7614 305.26 45.7123 281.289 45.7123 257.081H16.4785Z" fill="url(#paint54_linear_1631_7843)"/>
</g>
<g filter="url(#filter3_f_1631_7843)">
<path d="M221.282 242.119C221.282 244.84 221.818 247.535 222.86 250.05C223.901 252.564 225.428 254.849 227.353 256.774C229.277 258.698 231.562 260.225 234.076 261.267C236.591 262.308 239.286 262.844 242.008 262.844C244.73 262.844 247.425 262.308 249.939 261.267C252.454 260.225 254.738 258.698 256.663 256.774C258.588 254.849 260.114 252.564 261.156 250.05C262.197 247.535 262.733 244.84 262.733 242.119H260.034C260.034 244.486 259.567 246.83 258.662 249.017C257.756 251.204 256.428 253.191 254.754 254.865C253.08 256.539 251.093 257.867 248.906 258.772C246.719 259.678 244.375 260.145 242.008 260.145C239.641 260.145 237.297 259.678 235.11 258.772C232.923 257.867 230.935 256.539 229.262 254.865C227.588 253.191 226.26 251.204 225.354 249.017C224.448 246.83 223.982 244.486 223.982 242.119H221.282Z" fill="url(#paint55_linear_1631_7843)"/>
</g>
<path d="M248.74 259.34C258.927 255.78 264.3 244.637 260.74 234.45C257.181 224.263 246.038 218.891 235.851 222.45C225.664 226.01 220.292 237.153 223.851 247.34C227.41 257.526 238.554 262.899 248.74 259.34Z" fill="url(#paint56_linear_1631_7843)"/>
<defs>
<filter id="filter0_f_1631_7843" x="164.254" y="225.32" width="155.512" height="95.7737" filterUnits="userSpaceOnUse" color-interpolation-filters="sRGB">
<feFlood flood-opacity="0" result="BackgroundImageFix"/>
<feBlend mode="normal" in="SourceGraphic" in2="BackgroundImageFix" result="shape"/>
<feGaussianBlur stdDeviation="7.78962" result="effect1_foregroundBlur_1631_7843"/>
</filter>
<filter id="filter1_f_1631_7843" x="198.525" y="232.161" width="86.9675" height="52.2215" filterUnits="userSpaceOnUse" color-interpolation-filters="sRGB">
<feFlood flood-opacity="0" result="BackgroundImageFix"/>
<feBlend mode="normal" in="SourceGraphic" in2="BackgroundImageFix" result="shape"/>
<feGaussianBlur stdDeviation="4.67377" result="effect1_foregroundBlur_1631_7843"/>
</filter>
<filter id="filter2_f_1631_7843" x="0.89928" y="241.502" width="480.03" height="243.104" filterUnits="userSpaceOnUse" color-interpolation-filters="sRGB">
<feFlood flood-opacity="0" result="BackgroundImageFix"/>
<feBlend mode="normal" in="SourceGraphic" in2="BackgroundImageFix" result="shape"/>
<feGaussianBlur stdDeviation="7.78962" result="effect1_foregroundBlur_1631_7843"/>
</filter>
<filter id="filter3_f_1631_7843" x="208.819" y="229.655" width="66.378" height="45.6524" filterUnits="userSpaceOnUse" color-interpolation-filters="sRGB">
<feFlood flood-opacity="0" result="BackgroundImageFix"/>
<feBlend mode="normal" in="SourceGraphic" in2="BackgroundImageFix" result="shape"/>
<feGaussianBlur stdDeviation="6.23169" result="effect1_foregroundBlur_1631_7843"/>
</filter>
<radialGradient id="paint0_radial_1631_7843" cx="0" cy="0" r="1" gradientUnits="userSpaceOnUse" gradientTransform="translate(242.205 241.074) scale(238.078 238.078)">
<stop stop-color="#242424"/>
<stop offset="1" stop-color="#121212"/>
</radialGradient>
<linearGradient id="paint1_linear_1631_7843" x1="2.03835" y1="241.073" x2="482.376" y2="241.073" gradientUnits="userSpaceOnUse">
<stop stop-color="#A56C0B"/>
<stop offset="0.01" stop-color="#AD7816"/>
<stop offset="0.06" stop-color="#C79F3A"/>
<stop offset="0.1" stop-color="#DCBE57"/>
<stop offset="0.14" stop-color="#EBD46C"/>
<stop offset="0.19" stop-color="#F4E178"/>
<stop offset="0.22" stop-color="#F8E67D"/>
<stop offset="0.27" stop-color="#F4E077"/>
<stop offset="0.34" stop-color="#E8D068"/>
<stop offset="0.41" stop-color="#D6B64F"/>
<stop offset="0.45" stop-color="#C9A33D"/>
<stop offset="0.57" stop-color="#C38F1B"/>
<stop offset="0.75" stop-color="#E6C95C"/>
<stop offset="0.84" stop-color="#F8E67D"/>
<stop offset="0.86" stop-color="#F4E077"/>
<stop offset="0.9" stop-color="#E9D167"/>
<stop offset="0.94" stop-color="#D8B94C"/>
<stop offset="0.98" stop-color="#C19728"/>
<stop offset="1" stop-color="#B48514"/>
</linearGradient>
<radialGradient id="paint2_radial_1631_7843" cx="0" cy="0" r="1" gradientUnits="userSpaceOnUse" gradientTransform="translate(242.287 33.2036) scale(103.853 415.536)">
<stop stop-color="#242424"/>
<stop offset="1" stop-color="#121212"/>
</radialGradient>
<radialGradient id="paint3_radial_1631_7843" cx="0" cy="0" r="1" gradientUnits="userSpaceOnUse" gradientTransform="translate(190.8 78.7523) rotate(54.2299) scale(139.74 131.742)">
<stop stop-color="#DF2FCD"/>
<stop offset="1"/>
</radialGradient>
<radialGradient id="paint4_radial_1631_7843" cx="0" cy="0" r="1" gradientUnits="userSpaceOnUse" gradientTransform="translate(196.876 79.4138) rotate(115.868) scale(202.244 929.228)">
<stop stop-color="#FC8D0A"/>
<stop offset="1"/>
</radialGradient>
<radialGradient id="paint5_radial_1631_7843" cx="0" cy="0" r="1" gradientUnits="userSpaceOnUse" gradientTransform="translate(242.289 240.945) scale(207.737 207.737)">
<stop stop-color="#242424"/>
<stop offset="1" stop-color="#121212"/>
</radialGradient>
<radialGradient id="paint6_radial_1631_7843" cx="0" cy="0" r="1" gradientUnits="userSpaceOnUse" gradientTransform="translate(288.074 84.4803) rotate(99.1382) scale(382.82 224.197)">
<stop stop-color="#D60909"/>
<stop offset="1"/>
</radialGradient>
<radialGradient id="paint7_radial_1631_7843" cx="0" cy="0" r="1" gradientUnits="userSpaceOnUse" gradientTransform="translate(422.172 61.0625) scale(179.883 359.82)">
<stop stop-color="#242424"/>
<stop offset="1" stop-color="#121212"/>
</radialGradient>
<radialGradient id="paint8_radial_1631_7843" cx="0" cy="0" r="1" gradientUnits="userSpaceOnUse" gradientTransform="translate(352.948 115.937) rotate(121.538) scale(212.17 197.542)">
<stop stop-color="#D60909"/>
<stop offset="1"/>
</radialGradient>
<radialGradient id="paint9_radial_1631_7843" cx="0" cy="0" r="1" gradientUnits="userSpaceOnUse" gradientTransform="translate(355.965 142.239) rotate(142.044) scale(251.242 936.73)">
<stop stop-color="#FC8D0A"/>
<stop offset="1"/>
</radialGradient>
<radialGradient id="paint10_radial_1631_7843" cx="0" cy="0" r="1" gradientUnits="userSpaceOnUse" gradientTransform="translate(242.289 240.945) scale(207.737 207.737)">
<stop stop-color="#242424"/>
<stop offset="1" stop-color="#121212"/>
</radialGradient>
<radialGradient id="paint11_radial_1631_7843" cx="0" cy="0" r="1" gradientUnits="userSpaceOnUse" gradientTransform="translate(396.497 196.449) rotate(165.645) scale(220.697 487.253)">
<stop stop-color="#FC8D0A"/>
<stop offset="1"/>
</radialGradient>
<radialGradient id="paint12_radial_1631_7843" cx="0" cy="0" r="1" gradientUnits="userSpaceOnUse" gradientTransform="translate(425.376 189.356) rotate(150.39) scale(452.214 462.457)">
<stop stop-color="#D60909"/>
<stop offset="1"/>
</radialGradient>
<radialGradient id="paint13_radial_1631_7843" cx="0" cy="0" r="1" gradientUnits="userSpaceOnUse" gradientTransform="translate(152.351 151.001) scale(89.9433 89.9433)">
<stop stop-color="#242424"/>
<stop offset="1" stop-color="#121212"/>
</radialGradient>
<radialGradient id="paint14_radial_1631_7843" cx="0" cy="0" r="1" gradientUnits="userSpaceOnUse" gradientTransform="translate(195.938 163.875) rotate(152.891) scale(207.988 775.46)">
<stop stop-color="#FC8D0A"/>
<stop offset="1"/>
</radialGradient>
<radialGradient id="paint15_radial_1631_7843" cx="0" cy="0" r="1" gradientUnits="userSpaceOnUse" gradientTransform="translate(136.077 122.479) rotate(15.0576) scale(296.435 275.998)">
<stop stop-color="#D60909"/>
<stop offset="1"/>
</radialGradient>
<radialGradient id="paint16_radial_1631_7843" cx="0" cy="0" r="1" gradientUnits="userSpaceOnUse" gradientTransform="translate(346.142 240.944) scale(103.853 415.536)">
<stop stop-color="#242424"/>
<stop offset="1" stop-color="#121212"/>
</radialGradient>
<radialGradient id="paint17_radial_1631_7843" cx="0" cy="0" r="1" gradientUnits="userSpaceOnUse" gradientTransform="translate(281.019 367.081) rotate(-98.1301) scale(163.793 125.566)">
<stop stop-color="#FF00D6"/>
<stop offset="1"/>
</radialGradient>
<radialGradient id="paint18_radial_1631_7843" cx="0" cy="0" r="1" gradientUnits="userSpaceOnUse" gradientTransform="translate(285.54 388.976) rotate(-53.8925) scale(213.217 979.645)">
<stop stop-color="#FC8D0A"/>
<stop offset="1"/>
</radialGradient>
<radialGradient id="paint19_radial_1631_7843" cx="0" cy="0" r="1" gradientUnits="userSpaceOnUse" gradientTransform="translate(242.289 240.946) scale(207.737 207.737)">
<stop stop-color="#242424"/>
<stop offset="1" stop-color="#121212"/>
</radialGradient>
<radialGradient id="paint20_radial_1631_7843" cx="0" cy="0" r="1" gradientUnits="userSpaceOnUse" gradientTransform="translate(341.366 337.213) rotate(82.7676) scale(121.049 121.049)">
<stop stop-color="#FFE600"/>
<stop offset="1"/>
</radialGradient>
<radialGradient id="paint21_radial_1631_7843" cx="0" cy="0" r="1" gradientUnits="userSpaceOnUse" gradientTransform="translate(339.752 341.352) rotate(-163.034) scale(312.525 290.979)">
<stop stop-color="#D60909"/>
<stop offset="1"/>
</radialGradient>
<radialGradient id="paint22_radial_1631_7843" cx="0" cy="0" r="1" gradientUnits="userSpaceOnUse" gradientTransform="translate(450.027 240.944) scale(207.737 207.737)">
<stop stop-color="#242424"/>
<stop offset="1" stop-color="#121212"/>
</radialGradient>
<radialGradient id="paint23_radial_1631_7843" cx="0" cy="0" r="1" gradientUnits="userSpaceOnUse" gradientTransform="translate(404.153 281.13) rotate(-177.93) scale(202.511 146.649)">
<stop stop-color="#0569FF"/>
<stop offset="1"/>
</radialGradient>
<radialGradient id="paint24_radial_1631_7843" cx="0" cy="0" r="1" gradientUnits="userSpaceOnUse" gradientTransform="translate(396.497 300.304) rotate(165.645) scale(220.697 487.252)">
<stop stop-color="#FC8D0A"/>
<stop offset="1"/>
</radialGradient>
<radialGradient id="paint25_radial_1631_7843" cx="0" cy="0" r="1" gradientUnits="userSpaceOnUse" gradientTransform="translate(242.289 240.944) scale(207.737 207.737)">
<stop stop-color="#242424"/>
<stop offset="1" stop-color="#121212"/>
</radialGradient>
<radialGradient id="paint26_radial_1631_7843" cx="0" cy="0" r="1" gradientUnits="userSpaceOnUse" gradientTransform="translate(200.93 397.589) rotate(-29.7785) scale(214.229 984.294)">
<stop stop-color="#FC8D0A"/>
<stop offset="1"/>
</radialGradient>
<radialGradient id="paint27_radial_1631_7843" cx="0" cy="0" r="1" gradientUnits="userSpaceOnUse" gradientTransform="translate(196.876 395.563) rotate(-86.9447) scale(323.195 189.278)">
<stop stop-color="#D60909"/>
<stop offset="1"/>
</radialGradient>
<radialGradient id="paint28_radial_1631_7843" cx="0" cy="0" r="1" gradientUnits="userSpaceOnUse" gradientTransform="translate(242.288 240.942) scale(179.883 359.82)">
<stop stop-color="#242424"/>
<stop offset="1" stop-color="#121212"/>
</radialGradient>
<radialGradient id="paint29_radial_1631_7843" cx="0" cy="0" r="1" gradientUnits="userSpaceOnUse" gradientTransform="translate(137.77 338.432) rotate(-43.6397) scale(163.408 152.142)">
<stop stop-color="#19FF05"/>
<stop offset="1"/>
</radialGradient>
<radialGradient id="paint30_radial_1631_7843" cx="0" cy="0" r="1" gradientUnits="userSpaceOnUse" gradientTransform="translate(142.667 344.392) rotate(1.91925) scale(287.432 1071.66)">
<stop stop-color="#FC8D0A"/>
<stop offset="1"/>
</radialGradient>
<radialGradient id="paint31_radial_1631_7843" cx="0" cy="0" r="1" gradientUnits="userSpaceOnUse" gradientTransform="translate(242.286 137.089) scale(207.734 207.737)">
<stop stop-color="#242424"/>
<stop offset="1" stop-color="#121212"/>
</radialGradient>
<radialGradient id="paint32_radial_1631_7843" cx="0" cy="0" r="1" gradientUnits="userSpaceOnUse" gradientTransform="translate(90.8313 181.16) rotate(43.6981) scale(113.823 218.941)">
<stop stop-color="#2FDFD5"/>
<stop offset="1"/>
</radialGradient>
<radialGradient id="paint33_radial_1631_7843" cx="0" cy="0" r="1" gradientUnits="userSpaceOnUse" gradientTransform="translate(138.612 209.116) rotate(111.102) scale(192.789 425.645)">
<stop stop-color="#FC8D0A"/>
<stop offset="1"/>
</radialGradient>
<radialGradient id="paint34_radial_1631_7843" cx="0" cy="0" r="1" gradientUnits="userSpaceOnUse" gradientTransform="translate(242.29 240.944) scale(207.737 207.737)">
<stop stop-color="#242424"/>
<stop offset="1" stop-color="#121212"/>
</radialGradient>
<radialGradient id="paint35_radial_1631_7843" cx="0" cy="0" r="1" gradientUnits="userSpaceOnUse" gradientTransform="translate(103.023 276.254) rotate(67.6713) scale(73.8065 141.971)">
<stop stop-color="white"/>
<stop offset="1"/>
</radialGradient>
<radialGradient id="paint36_radial_1631_7843" cx="0" cy="0" r="1" gradientUnits="userSpaceOnUse" gradientTransform="translate(88.4535 278.526) rotate(-36.0344) scale(305.745 312.671)">
<stop stop-color="#D60909"/>
<stop offset="1"/>
</radialGradient>
<linearGradient id="paint37_linear_1631_7843" x1="241.781" y1="152.464" x2="344.292" y2="152.464" gradientUnits="userSpaceOnUse">
<stop stop-color="#A56C0B"/>
<stop offset="0.01" stop-color="#AD7816"/>
<stop offset="0.06" stop-color="#C79F3A"/>
<stop offset="0.1" stop-color="#DCBE57"/>
<stop offset="0.14" stop-color="#EBD46C"/>
<stop offset="0.19" stop-color="#F4E178"/>
<stop offset="0.22" stop-color="#F8E67D"/>
<stop offset="0.27" stop-color="#F4E077"/>
<stop offset="0.34" stop-color="#E8D068"/>
<stop offset="0.41" stop-color="#D6B64F"/>
<stop offset="0.45" stop-color="#C9A33D"/>
<stop offset="0.57" stop-color="#C38F1B"/>
<stop offset="0.75" stop-color="#E6C95C"/>
<stop offset="0.84" stop-color="#F8E67D"/>
<stop offset="0.86" stop-color="#F4E077"/>
<stop offset="0.9" stop-color="#E9D167"/>
<stop offset="0.94" stop-color="#D8B94C"/>
<stop offset="0.98" stop-color="#C19728"/>
<stop offset="1" stop-color="#B48514"/>
</linearGradient>
<linearGradient id="paint38_linear_1631_7843" x1="241.181" y1="139.092" x2="242.983" y2="139.092" gradientUnits="userSpaceOnUse">
<stop stop-color="#A56C0B"/>
<stop offset="0.01" stop-color="#AD7816"/>
<stop offset="0.06" stop-color="#C79F3A"/>
<stop offset="0.1" stop-color="#DCBE57"/>
<stop offset="0.14" stop-color="#EBD46C"/>
<stop offset="0.19" stop-color="#F4E178"/>
<stop offset="0.22" stop-color="#F8E67D"/>
<stop offset="0.27" stop-color="#F4E077"/>
<stop offset="0.34" stop-color="#E8D068"/>
<stop offset="0.41" stop-color="#D6B64F"/>
<stop offset="0.45" stop-color="#C9A33D"/>
<stop offset="0.57" stop-color="#C38F1B"/>
<stop offset="0.75" stop-color="#E6C95C"/>
<stop offset="0.84" stop-color="#F8E67D"/>
<stop offset="0.86" stop-color="#F4E077"/>
<stop offset="0.9" stop-color="#E9D167"/>
<stop offset="0.94" stop-color="#D8B94C"/>
<stop offset="0.98" stop-color="#C19728"/>
<stop offset="1" stop-color="#B48514"/>
</linearGradient>
<linearGradient id="paint39_linear_1631_7843" x1="139.951" y1="153.098" x2="242.131" y2="153.098" gradientUnits="userSpaceOnUse">
<stop stop-color="#A56C0B"/>
<stop offset="0.01" stop-color="#AD7816"/>
<stop offset="0.06" stop-color="#C79F3A"/>
<stop offset="0.1" stop-color="#DCBE57"/>
<stop offset="0.14" stop-color="#EBD46C"/>
<stop offset="0.19" stop-color="#F4E178"/>
<stop offset="0.22" stop-color="#F8E67D"/>
<stop offset="0.27" stop-color="#F4E077"/>
<stop offset="0.34" stop-color="#E8D068"/>
<stop offset="0.41" stop-color="#D6B64F"/>
<stop offset="0.45" stop-color="#C9A33D"/>
<stop offset="0.57" stop-color="#C38F1B"/>
<stop offset="0.75" stop-color="#E6C95C"/>
<stop offset="0.84" stop-color="#F8E67D"/>
<stop offset="0.86" stop-color="#F4E077"/>
<stop offset="0.9" stop-color="#E9D167"/>
<stop offset="0.94" stop-color="#D8B94C"/>
<stop offset="0.98" stop-color="#C19728"/>
<stop offset="1" stop-color="#B48514"/>
</linearGradient>
<linearGradient id="paint40_linear_1631_7843" x1="65.0339" y1="190.032" x2="242.567" y2="190.03" gradientUnits="userSpaceOnUse">
<stop stop-color="#A56C0B"/>
<stop offset="0.01" stop-color="#AD7816"/>
<stop offset="0.06" stop-color="#C79F3A"/>
<stop offset="0.1" stop-color="#DCBE57"/>
<stop offset="0.14" stop-color="#EBD46C"/>
<stop offset="0.19" stop-color="#F4E178"/>
<stop offset="0.22" stop-color="#F8E67D"/>
<stop offset="0.27" stop-color="#F4E077"/>
<stop offset="0.34" stop-color="#E8D068"/>
<stop offset="0.41" stop-color="#D6B64F"/>
<stop offset="0.45" stop-color="#C9A33D"/>
<stop offset="0.57" stop-color="#C38F1B"/>
<stop offset="0.75" stop-color="#E6C95C"/>
<stop offset="0.84" stop-color="#F8E67D"/>
<stop offset="0.86" stop-color="#F4E077"/>
<stop offset="0.9" stop-color="#E9D167"/>
<stop offset="0.94" stop-color="#D8B94C"/>
<stop offset="0.98" stop-color="#C19728"/>
<stop offset="1" stop-color="#B48514"/>
</linearGradient>
<linearGradient id="paint41_linear_1631_7843" x1="39.3504" y1="240.763" x2="242.361" y2="240.763" gradientUnits="userSpaceOnUse">
<stop stop-color="#A56C0B"/>
<stop offset="0.01" stop-color="#AD7816"/>
<stop offset="0.06" stop-color="#C79F3A"/>
<stop offset="0.1" stop-color="#DCBE57"/>
<stop offset="0.14" stop-color="#EBD46C"/>
<stop offset="0.19" stop-color="#F4E178"/>
<stop offset="0.22" stop-color="#F8E67D"/>
<stop offset="0.27" stop-color="#F4E077"/>
<stop offset="0.34" stop-color="#E8D068"/>
<stop offset="0.41" stop-color="#D6B64F"/>
<stop offset="0.45" stop-color="#C9A33D"/>
<stop offset="0.57" stop-color="#C38F1B"/>
<stop offset="0.75" stop-color="#E6C95C"/>
<stop offset="0.84" stop-color="#F8E67D"/>
<stop offset="0.86" stop-color="#F4E077"/>
<stop offset="0.9" stop-color="#E9D167"/>
<stop offset="0.94" stop-color="#D8B94C"/>
<stop offset="0.98" stop-color="#C19728"/>
<stop offset="1" stop-color="#B48514"/>
</linearGradient>
<linearGradient id="paint42_linear_1631_7843" x1="65.3308" y1="291.629" x2="241.936" y2="291.628" gradientUnits="userSpaceOnUse">
<stop stop-color="#A56C0B"/>
<stop offset="0.01" stop-color="#AD7816"/>
<stop offset="0.06" stop-color="#C79F3A"/>
<stop offset="0.1" stop-color="#DCBE57"/>
<stop offset="0.14" stop-color="#EBD46C"/>
<stop offset="0.19" stop-color="#F4E178"/>
<stop offset="0.22" stop-color="#F8E67D"/>
<stop offset="0.27" stop-color="#F4E077"/>
<stop offset="0.34" stop-color="#E8D068"/>
<stop offset="0.41" stop-color="#D6B64F"/>
<stop offset="0.45" stop-color="#C9A33D"/>
<stop offset="0.57" stop-color="#C38F1B"/>
<stop offset="0.75" stop-color="#E6C95C"/>
<stop offset="0.84" stop-color="#F8E67D"/>
<stop offset="0.86" stop-color="#F4E077"/>
<stop offset="0.9" stop-color="#E9D167"/>
<stop offset="0.94" stop-color="#D8B94C"/>
<stop offset="0.98" stop-color="#C19728"/>
<stop offset="1" stop-color="#B48514"/>
</linearGradient>
<linearGradient id="paint43_linear_1631_7843" x1="139.018" y1="329.316" x2="242.19" y2="329.316" gradientUnits="userSpaceOnUse">
<stop stop-color="#A56C0B"/>
<stop offset="0.01" stop-color="#AD7816"/>
<stop offset="0.06" stop-color="#C79F3A"/>
<stop offset="0.1" stop-color="#DCBE57"/>
<stop offset="0.14" stop-color="#EBD46C"/>
<stop offset="0.19" stop-color="#F4E178"/>
<stop offset="0.22" stop-color="#F8E67D"/>
<stop offset="0.27" stop-color="#F4E077"/>
<stop offset="0.34" stop-color="#E8D068"/>
<stop offset="0.41" stop-color="#D6B64F"/>
<stop offset="0.45" stop-color="#C9A33D"/>
<stop offset="0.57" stop-color="#C38F1B"/>
<stop offset="0.75" stop-color="#E6C95C"/>
<stop offset="0.84" stop-color="#F8E67D"/>
<stop offset="0.86" stop-color="#F4E077"/>
<stop offset="0.9" stop-color="#E9D167"/>
<stop offset="0.94" stop-color="#D8B94C"/>
<stop offset="0.98" stop-color="#C19728"/>
<stop offset="1" stop-color="#B48514"/>
</linearGradient>
<linearGradient id="paint44_linear_1631_7843" x1="240.958" y1="343.827" x2="242.914" y2="343.827" gradientUnits="userSpaceOnUse">
<stop stop-color="#A56C0B"/>
<stop offset="0.01" stop-color="#AD7816"/>
<stop offset="0.06" stop-color="#C79F3A"/>
<stop offset="0.1" stop-color="#DCBE57"/>
<stop offset="0.14" stop-color="#EBD46C"/>
<stop offset="0.19" stop-color="#F4E178"/>
<stop offset="0.22" stop-color="#F8E67D"/>
<stop offset="0.27" stop-color="#F4E077"/>
<stop offset="0.34" stop-color="#E8D068"/>
<stop offset="0.41" stop-color="#D6B64F"/>
<stop offset="0.45" stop-color="#C9A33D"/>
<stop offset="0.57" stop-color="#C38F1B"/>
<stop offset="0.75" stop-color="#E6C95C"/>
<stop offset="0.84" stop-color="#F8E67D"/>
<stop offset="0.86" stop-color="#F4E077"/>
<stop offset="0.9" stop-color="#E9D167"/>
<stop offset="0.94" stop-color="#D8B94C"/>
<stop offset="0.98" stop-color="#C19728"/>
<stop offset="1" stop-color="#B48514"/>
</linearGradient>
<linearGradient id="paint45_linear_1631_7843" x1="241.044" y1="329.158" x2="344.342" y2="329.158" gradientUnits="userSpaceOnUse">
<stop stop-color="#A56C0B"/>
<stop offset="0.01" stop-color="#AD7816"/>
<stop offset="0.06" stop-color="#C79F3A"/>
<stop offset="0.1" stop-color="#DCBE57"/>
<stop offset="0.14" stop-color="#EBD46C"/>
<stop offset="0.19" stop-color="#F4E178"/>
<stop offset="0.22" stop-color="#F8E67D"/>
<stop offset="0.27" stop-color="#F4E077"/>
<stop offset="0.34" stop-color="#E8D068"/>
<stop offset="0.41" stop-color="#D6B64F"/>
<stop offset="0.45" stop-color="#C9A33D"/>
<stop offset="0.57" stop-color="#C38F1B"/>
<stop offset="0.75" stop-color="#E6C95C"/>
<stop offset="0.84" stop-color="#F8E67D"/>
<stop offset="0.86" stop-color="#F4E077"/>
<stop offset="0.9" stop-color="#E9D167"/>
<stop offset="0.94" stop-color="#D8B94C"/>
<stop offset="0.98" stop-color="#C19728"/>
<stop offset="1" stop-color="#B48514"/>
</linearGradient>
<linearGradient id="paint46_linear_1631_7843" x1="241.273" y1="292.217" x2="420.257" y2="292.218" gradientUnits="userSpaceOnUse">
<stop stop-color="#A56C0B"/>
<stop offset="0.01" stop-color="#AD7816"/>
<stop offset="0.06" stop-color="#C79F3A"/>
<stop offset="0.1" stop-color="#DCBE57"/>
<stop offset="0.14" stop-color="#EBD46C"/>
<stop offset="0.19" stop-color="#F4E178"/>
<stop offset="0.22" stop-color="#F8E67D"/>
<stop offset="0.27" stop-color="#F4E077"/>
<stop offset="0.34" stop-color="#E8D068"/>
<stop offset="0.41" stop-color="#D6B64F"/>
<stop offset="0.45" stop-color="#C9A33D"/>
<stop offset="0.57" stop-color="#C38F1B"/>
<stop offset="0.75" stop-color="#E6C95C"/>
<stop offset="0.84" stop-color="#F8E67D"/>
<stop offset="0.86" stop-color="#F4E077"/>
<stop offset="0.9" stop-color="#E9D167"/>
<stop offset="0.94" stop-color="#D8B94C"/>
<stop offset="0.98" stop-color="#C19728"/>
<stop offset="1" stop-color="#B48514"/>
</linearGradient>
<linearGradient id="paint47_linear_1631_7843" x1="241.741" y1="240.995" x2="446.669" y2="240.995" gradientUnits="userSpaceOnUse">
<stop stop-color="#A56C0B"/>
<stop offset="0.01" stop-color="#AD7816"/>
<stop offset="0.06" stop-color="#C79F3A"/>
<stop offset="0.1" stop-color="#DCBE57"/>
<stop offset="0.14" stop-color="#EBD46C"/>
<stop offset="0.19" stop-color="#F4E178"/>
<stop offset="0.22" stop-color="#F8E67D"/>
<stop offset="0.27" stop-color="#F4E077"/>
<stop offset="0.34" stop-color="#E8D068"/>
<stop offset="0.41" stop-color="#D6B64F"/>
<stop offset="0.45" stop-color="#C9A33D"/>
<stop offset="0.57" stop-color="#C38F1B"/>
<stop offset="0.75" stop-color="#E6C95C"/>
<stop offset="0.84" stop-color="#F8E67D"/>
<stop offset="0.86" stop-color="#F4E077"/>
<stop offset="0.9" stop-color="#E9D167"/>
<stop offset="0.94" stop-color="#D8B94C"/>
<stop offset="0.98" stop-color="#C19728"/>
<stop offset="1" stop-color="#B48514"/>
</linearGradient>
<linearGradient id="paint48_linear_1631_7843" x1="241.29" y1="189.287" x2="420.438" y2="189.288" gradientUnits="userSpaceOnUse">
<stop stop-color="#A56C0B"/>
<stop offset="0.01" stop-color="#AD7816"/>
<stop offset="0.06" stop-color="#C79F3A"/>
<stop offset="0.1" stop-color="#DCBE57"/>
<stop offset="0.14" stop-color="#EBD46C"/>
<stop offset="0.19" stop-color="#F4E178"/>
<stop offset="0.22" stop-color="#F8E67D"/>
<stop offset="0.27" stop-color="#F4E077"/>
<stop offset="0.34" stop-color="#E8D068"/>
<stop offset="0.41" stop-color="#D6B64F"/>
<stop offset="0.45" stop-color="#C9A33D"/>
<stop offset="0.57" stop-color="#C38F1B"/>
<stop offset="0.75" stop-color="#E6C95C"/>
<stop offset="0.84" stop-color="#F8E67D"/>
<stop offset="0.86" stop-color="#F4E077"/>
<stop offset="0.9" stop-color="#E9D167"/>
<stop offset="0.94" stop-color="#D8B94C"/>
<stop offset="0.98" stop-color="#C19728"/>
<stop offset="1" stop-color="#B48514"/>
</linearGradient>
<linearGradient id="paint49_linear_1631_7843" x1="242.049" y1="247.07" x2="242.007" y2="305.514" gradientUnits="userSpaceOnUse">
<stop stop-opacity="0"/>
<stop offset="1" stop-opacity="0.65"/>
</linearGradient>
<radialGradient id="paint50_radial_1631_7843" cx="0" cy="0" r="1" gradientUnits="userSpaceOnUse" gradientTransform="translate(242.29 240.945) scale(57.3579 57.3579)">
<stop stop-color="#44414D"/>
<stop offset="1" stop-color="#29272E"/>
</radialGradient>
<linearGradient id="paint51_linear_1631_7843" x1="242.03" y1="244.711" x2="242.009" y2="275.035" gradientUnits="userSpaceOnUse">
<stop stop-opacity="0"/>
<stop offset="1" stop-opacity="0.78"/>
</linearGradient>
<linearGradient id="paint52_linear_1631_7843" x1="183.677" y1="240.945" x2="300.91" y2="240.945" gradientUnits="userSpaceOnUse">
<stop stop-color="#A56C0B"/>
<stop offset="0.01" stop-color="#AD7816"/>
<stop offset="0.06" stop-color="#C79F3A"/>
<stop offset="0.1" stop-color="#DCBE57"/>
<stop offset="0.14" stop-color="#EBD46C"/>
<stop offset="0.19" stop-color="#F4E178"/>
<stop offset="0.22" stop-color="#F8E67D"/>
<stop offset="0.27" stop-color="#F4E077"/>
<stop offset="0.34" stop-color="#E8D068"/>
<stop offset="0.41" stop-color="#D6B64F"/>
<stop offset="0.45" stop-color="#C9A33D"/>
<stop offset="0.57" stop-color="#C38F1B"/>
<stop offset="0.75" stop-color="#E6C95C"/>
<stop offset="0.84" stop-color="#F8E67D"/>
<stop offset="0.86" stop-color="#F4E077"/>
<stop offset="0.9" stop-color="#E9D167"/>
<stop offset="0.94" stop-color="#D8B94C"/>
<stop offset="0.98" stop-color="#C19728"/>
<stop offset="1" stop-color="#B48514"/>
</linearGradient>
<linearGradient id="paint53_linear_1631_7843" x1="226.474" y1="268.346" x2="258.114" y2="213.544" gradientUnits="userSpaceOnUse">
<stop offset="0.45" stop-color="#A56C0B"/>
<stop offset="0.52" stop-color="#A76F0E"/>
<stop offset="0.58" stop-color="#AE7A18"/>
<stop offset="0.64" stop-color="#BA8C29"/>
<stop offset="0.7" stop-color="#CCA540"/>
<stop offset="0.76" stop-color="#E2C65F"/>
<stop offset="0.8" stop-color="#F8E67D"/>
</linearGradient>
<linearGradient id="paint54_linear_1631_7843" x1="241.056" y1="277.324" x2="240.93" y2="469.027" gradientUnits="userSpaceOnUse">
<stop stop-opacity="0"/>
<stop offset="1" stop-opacity="0.65"/>
</linearGradient>
<linearGradient id="paint55_linear_1631_7843" x1="242.021" y1="244.098" x2="242.008" y2="262.844" gradientUnits="userSpaceOnUse">
<stop stop-opacity="0"/>
<stop offset="1" stop-opacity="0.89"/>
</linearGradient>
<linearGradient id="paint56_linear_1631_7843" x1="232.503" y1="257.863" x2="252.045" y2="224.014" gradientUnits="userSpaceOnUse">
<stop stop-color="#A56C0B"/>
<stop offset="0.37" stop-color="#CBA53F"/>
<stop offset="0.5" stop-color="#F8EDB6"/>
<stop offset="0.76" stop-color="#F8E999"/>
<stop offset="1" stop-color="#F8E67D"/>
</linearGradient>
</defs>
</svg>
