<svg width="925" height="678" viewBox="0 0 925 678" fill="none" xmlns="http://www.w3.org/2000/svg">
<path d="M92.7897 271.707C108.246 265.897 127.114 270.788 141.813 275.298C161.815 281.518 180.192 291.634 197.482 303.043C206.185 308.744 214.623 314.87 223.061 320.996C230.703 326.53 243.946 331.071 247.877 339.813C248.488 341.176 184.096 344.79 177.9 344.651C158.839 344.149 140.698 339.68 124.043 330.974C107.81 322.475 80.1486 308.563 77.2896 288.024C76.0327 279.115 86.2265 274.101 92.8442 271.645L92.7897 271.707Z" fill="url(#paint0_radial_1684_1160)"/>
<path d="M191.461 230.003C206.827 207.8 237.228 241.267 246.65 251.942C258.333 265.16 267.686 280.333 277.643 294.885C293.704 318.393 310.969 340.6 330.908 360.773C332.303 361.619 333.753 362.404 335.152 363.309C337.405 364.802 336.166 369.257 333.186 368.276C293.412 354.828 253.213 337.38 220.235 311.252C198.682 294.215 171.228 259.337 191.457 229.944L191.461 230.003Z" fill="url(#paint1_radial_1684_1160)"/>
<path d="M182.21 345.432C215.629 342.178 252.435 340.813 283.215 354.18C283.756 354.438 283.898 354.838 283.811 355.31C287.26 354.453 290.719 353.77 294.248 353.258C297.257 352.836 297.595 357.309 294.971 358.29C273.155 366.948 251.885 377.789 229.909 385.756C212.956 391.893 194.923 391.968 177.342 391.783C162.624 391.652 130.513 390.622 129.319 370.563C128.106 349.279 169.385 346.642 182.207 345.374L182.21 345.432Z" fill="url(#paint2_radial_1684_1160)"/>
<path d="M222.269 378.413C264.367 360.844 304.255 361.153 348.154 366.815C348.979 366.939 349.259 367.68 349.186 368.385C354.768 368.036 360.437 368.149 366.382 368.945C368.268 369.236 367.676 371.899 366.001 372.179C337.091 376.611 313.451 385.032 287.947 400.048C273.141 408.793 258.292 416.84 242.262 422.802C226.29 428.76 185.486 444.615 175.115 423.436C164.003 400.67 208.216 384.252 222.324 378.352L222.269 378.413Z" fill="url(#paint3_radial_1684_1160)"/>
<path d="M278.944 215.726C279.598 213.117 282.607 211.762 284.9 212.961C311.635 226.99 327.173 258.934 342.377 283.663C352.257 299.795 360.89 316.531 370.149 332.993C378.554 347.934 390.037 360.756 400.895 373.851C401.375 374.054 401.796 374.261 402.272 374.407C403.174 374.817 403.406 375.737 403.228 376.623C403.541 376.954 403.795 377.288 404.111 377.677C404.867 378.563 403.722 379.86 402.795 379.043C402.49 378.828 402.239 378.552 401.992 378.334C401.593 378.476 401.247 378.556 400.771 378.411C382.638 372.19 365.191 369.486 348.311 359.978C332.096 350.836 317.611 337.617 306.19 322.982C282.705 292.759 269.199 255.027 279.005 215.78L278.944 215.726Z" fill="url(#paint4_radial_1684_1160)"/>
<path d="M348.942 254.19C349.574 252.166 351.635 250.578 353.772 251.145C419.9 268.783 428.563 352.339 485.322 382.584C486.768 383.31 485.827 385.995 484.213 385.396C481.226 384.299 478.344 383.019 475.572 381.617C458.477 378.95 441.575 381.231 425.277 374.487C409.879 368.154 397.469 358.249 386.041 346.299C363.427 322.558 337.911 289.72 348.996 254.128L348.942 254.19Z" fill="url(#paint5_radial_1684_1160)"/>
<path d="M382.167 409.511C413.662 373.578 455.759 372.816 496.584 384.39C500.269 382.642 504.205 381.171 508.34 380.095C511.269 379.329 513.391 383.398 510.52 385.095C509.11 385.883 507.82 386.722 506.414 387.569C507.09 388.11 506.991 389.342 505.992 389.229C505.287 389.157 504.644 389.139 503.939 389.066C485.626 400.539 471.656 413.317 459.121 432.25C448.029 449.051 437.831 466.145 424.541 481.39C409.342 498.797 366.128 527.467 351.946 495.729C339.257 467.342 364.072 430.075 382.113 409.573L382.167 409.511Z" fill="url(#paint6_radial_1684_1160)"/>
<path d="M280.591 413.113C293.348 400.528 309.08 391.667 325.492 385.272C357.003 372.974 395.463 371.914 428.463 377.848C429.688 377.83 430.913 377.812 432.199 377.848C432.959 377.859 433.453 378.295 433.838 378.855C434.489 378.989 435.194 379.062 435.902 379.193C437.974 379.647 437.523 382.71 435.433 382.899C433.282 383.033 431.131 383.168 429.037 383.298C405.717 389.365 386.529 396.167 367.322 412.948C350.772 427.405 334.465 442.021 316.076 454.142C303.186 462.709 251.806 488.679 253.734 454.126C254.581 438.724 270.365 423.207 280.595 413.172L280.591 413.113Z" fill="url(#paint7_radial_1684_1160)"/>
<path d="M433.631 287.709C443.641 258.254 486.191 285.302 498.695 294.85C532.952 320.898 551.262 363.583 587.398 387.004C590.56 389.025 587.987 393.621 584.571 392.2C581.874 391.085 579.341 389.784 576.859 388.363C575.322 388.051 573.491 387.698 571.067 387.208C537.637 380.016 501.591 379.525 474.119 360.231C454.219 346.301 424.174 315.729 433.69 287.706L433.631 287.709Z" fill="url(#paint8_radial_1684_1160)"/>
<path d="M451.448 467.338C460.149 447.769 472.385 429.671 487.424 414.375C521.659 379.322 563.705 383.349 606.517 391.238C608.196 391.016 609.871 390.736 611.612 390.569C614.112 390.413 614.385 393.839 612.219 394.675C589.102 403.998 569.765 414.952 551.292 432.271C532.983 449.405 517.362 469.406 499.551 487.035C489.709 496.754 444.31 539.041 441.223 504.568C440.101 492.207 446.483 478.503 451.448 467.338Z" fill="url(#paint9_radial_1684_1160)"/>
<path d="M560.981 429.448C568.413 415.736 579.625 400.854 594.482 394.79C614.578 386.649 639.722 389.222 660.745 389.367C661.501 389.32 662.003 389.873 662.33 390.436C664.318 389.553 666.302 388.612 668.475 387.893C671.906 386.745 673.835 391.468 670.921 393.401C639.161 414.818 620.782 444.855 597.944 474.527C588.226 487.157 558.255 520.368 543.85 496.29C533.356 478.737 552.458 445.329 561.097 429.441L560.981 429.448Z" fill="url(#paint10_radial_1684_1160)"/>
<path d="M562.506 318.352C573.333 292.639 611.468 315.352 624.146 324.89C655.62 348.427 682.172 380.092 719.112 395.818C720.493 396.432 719.519 398.594 718.101 398.333C716.444 397.969 714.951 397.421 713.348 396.996C713.01 398.126 711.902 399.07 710.314 398.877C687.663 396.032 665.117 399.541 642.513 397.451C624.077 395.743 607.201 388.16 592.531 377.58C578.468 367.37 554.023 338.608 562.509 318.41L562.506 318.352Z" fill="url(#paint11_radial_1684_1160)"/>
<path d="M636.634 436.92C666.77 405.391 704.576 391.065 747.167 391.673C748.101 391.673 748.737 392.509 748.791 393.381C748.966 393.37 749.14 393.359 749.314 393.348C751.07 393.414 752.465 396.128 750.426 397.131C734.109 405.036 727.345 418.24 715.766 430.985C706.808 440.824 697.046 449.954 686.965 458.638C672.232 471.347 646.385 495.838 625.188 491.034C597.715 484.813 627.919 445.985 636.634 436.92Z" fill="url(#paint12_radial_1684_1160)"/>
<path d="M662.922 313.947C685.181 313.316 702.878 326.567 717.377 341.885C732 357.313 737.254 381.612 757.222 391.045C759.123 391.568 761.082 392.088 762.935 392.789C766.58 394.137 765.406 399.638 761.336 398.958C735.945 394.3 709.234 393.751 688.568 376.891C671.838 363.23 660.181 340.147 658.986 318.22C658.852 316.069 660.825 314.02 662.98 313.944L662.922 313.947Z" fill="url(#paint13_radial_1684_1160)"/>
<g style="mix-blend-mode:multiply" opacity="0.6">
<path d="M77.2929 285.28C81.6242 295.748 93.5689 303.814 106.212 309.969C116.394 315.986 127.859 320.114 139.001 324.67C156.967 331.952 176.006 339.575 196.048 336.164C200.322 335.43 203.658 329.969 199.773 326.652C190.834 319.04 180.241 314.858 169.382 311.101C180.15 314.338 191.205 316.566 202.997 315.654C205.672 315.487 207.976 313.125 208.34 310.535C213.224 313.965 218.111 317.453 223.003 320.999C230.645 326.533 243.887 331.075 247.819 339.817C248.226 340.725 218.931 342.73 197.93 343.867C190.2 343.474 181.642 343.833 173.393 344.465C155.989 343.393 139.316 339.066 123.93 331.039C107.697 322.54 80.0354 308.628 77.1764 288.089C77.0566 287.104 77.053 286.112 77.2311 285.225L77.2929 285.28Z" fill="url(#paint14_radial_1684_1160)"/>
<path d="M129.321 370.621C129.281 369.981 129.427 369.505 129.448 368.92C129.939 369.298 130.488 369.673 131.084 369.869C151.968 377.143 174.035 373.43 195.741 370.499C203.151 369.511 247.803 363.862 250.78 354.514C254.2 343.854 216.213 345.001 200.445 343.943C228.645 342.182 257.95 343.152 283.21 354.122C283.752 354.38 283.893 354.78 283.806 355.252C287.084 354.464 290.366 353.733 293.724 353.29C267.581 342.201 242.277 328.666 220.23 311.193C200.273 295.398 175.214 264.282 187.833 236.415C190.231 245.836 196.822 256.046 201.172 263.069C208.574 275.037 216.957 286.828 227.47 296.267C242.805 310.016 263.275 331.206 286.173 323.998C289.095 323.115 290.589 319.929 289.888 317.113C288.9 313.44 287.512 309.908 285.895 306.449C299.583 325.612 314.322 343.833 330.896 360.598C332.292 361.444 333.741 362.229 335.141 363.134C335.871 363.614 336.213 364.409 336.263 365.223C340.199 365.619 344.138 366.073 348.139 366.582C348.964 366.706 349.244 367.447 349.171 368.152C354.753 367.803 360.423 367.916 366.368 368.712C368.254 369.002 367.661 371.666 365.986 371.945C337.077 376.377 313.437 384.799 287.932 399.815C273.127 408.56 258.277 416.607 242.247 422.569C226.275 428.527 185.471 444.382 175.1 423.203C168.811 410.348 180.218 399.54 193.839 391.452C188.363 391.619 182.817 391.615 177.384 391.546C162.666 391.415 130.556 390.386 129.361 370.327L129.321 370.621ZM183.492 416.435C188.114 425.017 200.695 421.78 208.498 419.6C229.379 413.743 250.421 405.776 270.234 396.835C280.908 392.025 303.839 382.539 304.829 368.471C304.941 366.538 303.611 364.87 302.092 363.914C301.725 363.645 301.253 363.558 300.835 363.409C307.605 363.395 314.394 363.671 321.251 364.118C312.951 361.135 304.695 357.916 296.485 354.518C297.034 355.826 296.511 357.727 294.97 358.29C292.749 359.187 290.591 360.139 288.37 361.036C277.177 361.269 263.895 365.425 255.638 367.808C235.45 373.563 217.141 382.293 199.828 393.879C190.852 398.759 178.532 407.115 183.55 416.431L183.492 416.435Z" fill="url(#paint15_radial_1684_1160)"/>
<path d="M280.591 413.113C293.347 400.527 309.08 391.666 325.491 385.272C344.636 377.773 366.324 374.551 387.794 374.377C374.243 370.496 361.077 367.175 348.249 359.923C332.034 350.781 317.55 337.562 306.128 322.927C287.785 299.328 275.634 271.14 275.752 241.253C281.445 259.514 290.519 275.813 301.344 293.054C312.423 310.628 325.432 331.059 348.116 332.56C351.925 332.789 353.873 328.465 353.27 325.352C344.619 281.246 311.758 248.575 285.696 214.486C284.867 213.371 283.785 212.855 282.658 212.575C283.414 212.528 284.173 212.539 284.9 212.96C311.635 226.989 327.173 258.934 342.377 283.663C352.257 299.795 360.891 316.53 370.149 332.993C378.554 347.933 390.037 360.755 400.895 373.85C401.375 374.054 401.796 374.261 402.272 374.406C402.454 374.512 402.461 374.628 402.585 374.737C411.434 375.293 420.079 376.329 428.463 377.848C429.688 377.829 430.912 377.811 432.199 377.848C432.958 377.859 433.453 378.295 433.838 378.854C434.426 378.934 435.019 379.072 435.666 379.148C437.225 378.876 438.849 378.716 440.474 378.556C435.346 377.768 430.255 376.627 425.222 374.548C409.824 368.215 397.414 358.31 385.986 346.36C363.372 322.619 337.856 289.781 348.941 254.189C349.574 252.165 351.634 250.578 353.771 251.144C367.722 254.884 378.998 261.591 388.81 270.082C379.787 263.001 370.273 257.409 361.126 253.953C360.65 253.808 360.24 253.775 359.771 253.746C358.87 253.336 357.968 252.925 357.071 252.572C353.117 250.952 347.426 254.225 349.192 259.134C361.273 292.754 386.572 333.309 422.85 343.124C426.175 344.025 429.777 340.94 429.621 337.507C429.334 329.179 427.059 320.801 423.404 312.742C440.188 338.481 456.006 365.564 482.36 380.959C487.091 381.948 491.83 383.052 496.587 384.447C500.272 382.7 504.208 381.228 508.343 380.153C511.272 379.387 513.395 383.456 510.524 385.153C509.113 385.941 507.823 386.78 506.417 387.627C507.093 388.168 506.995 389.4 505.995 389.287C505.29 389.215 504.647 389.196 503.942 389.124C485.629 400.597 471.659 413.375 459.125 432.308C448.032 449.108 437.834 466.203 424.544 481.448C409.345 498.855 366.131 527.525 351.949 495.787C339.26 467.4 364.076 430.133 382.116 409.631C388.818 401.976 395.977 396.042 403.565 391.367C390.853 396.246 379.06 402.76 367.271 413.068C350.721 427.524 334.414 442.141 316.025 454.261C303.134 462.828 251.755 488.798 253.682 454.245C254.53 438.843 270.313 423.326 280.544 413.291L280.591 413.113ZM391.307 404.446C383.526 412.577 375.578 421.77 370.61 431.943C367.248 438.864 363.751 448.303 369.406 454.72C375.692 461.914 386.46 456.748 393.569 452.802C399.38 449.58 404.257 445.423 408.571 440.66C408.48 443.875 408.966 446.997 410.591 449.638C419.275 464.386 439.231 442.772 445.976 435.814C452.554 428.984 474.639 410.621 468.204 400.11C464.955 394.827 457.938 396.491 451.873 399.379C450.648 397.53 448.493 396.672 445.96 397.239C440.433 398.46 435.167 401.065 430.359 404.458C431.511 400.476 431.682 396.672 429.996 393.976C427.721 390.266 423.651 389.587 419.097 390.513C417.844 388.199 415.529 386.651 412.731 387.643C404.51 390.607 397.274 398.121 391.361 404.384L391.307 404.446ZM269.84 448.45C269.807 448.861 269.712 449.217 269.738 449.624C269.603 453.075 273.39 455.757 276.642 454.561C277.555 454.213 278.525 453.86 279.433 453.454C292.487 454.039 310.705 437.319 318.806 430.568C332.958 418.829 355.704 405.445 356.53 385.025C356.646 382.217 353.845 379.415 351.01 379.826C318.438 384.487 277.738 411.365 262.27 441.278C259.512 446.644 265.737 450.983 269.72 448.399L269.84 448.45Z" fill="url(#paint16_radial_1684_1160)"/>
<path d="M487.42 414.317C510.352 390.824 536.892 384.906 564.74 385.91C533.131 379.83 499.821 378.293 474.06 360.234C454.161 346.304 424.116 315.732 433.631 287.709C436.292 279.839 441.311 276.082 447.423 274.883C446.613 275.926 446.115 277.299 446.02 278.589C445.027 300.069 464.327 320.282 478.957 333.025C492.104 344.459 511.702 361.034 530.897 358.085C533.79 357.671 536.345 355.585 536.203 352.384C535.169 325.545 514.677 306.807 491.802 292.887C491.118 292.23 490.432 291.514 489.69 290.86C487.335 288.673 484.803 286.438 482.095 284.214C489.047 288.04 495.025 292.161 498.579 294.857C532.836 320.905 551.146 363.59 587.282 387.011C587.769 387.331 588.089 387.778 588.347 388.17C594.354 389.02 600.372 390.045 606.393 391.128C606.917 391.095 607.44 391.063 607.956 390.914C610.031 390.492 612.113 390.187 614.199 389.94C606.463 386.63 599.191 382.357 592.345 377.415C578.281 367.205 553.836 338.444 562.323 318.246C565.725 310.097 571.885 306.852 579.098 306.46C578.292 306.627 577.485 306.794 576.682 307.02C573.985 307.772 572.891 309.882 572.909 312.041C572.633 312.291 572.353 312.484 572.139 312.789C561.105 325.851 585.652 344.101 594.047 349.53C604.996 356.608 616.723 362.12 629.522 365.172C634.795 366.419 641.147 368.123 645.337 363.251C651.047 356.533 647.675 347.406 641.919 339.361C665.285 359.262 687.495 381.218 715.619 394.11C718.62 393.572 721.629 393.151 724.642 392.788C711.625 389.983 699.211 385.622 688.448 376.84C675.656 366.434 665.903 350.469 661.412 333.708C673.182 345.52 688.994 355.68 703.799 357.206C707.204 357.519 710.693 355.433 710.57 351.589C710.254 339.061 702.99 329.302 693.32 322.144C702.161 327.253 710.073 334.287 717.257 341.834C731.879 357.261 737.133 381.561 757.102 390.994C759.002 391.517 760.961 392.037 762.814 392.738C766.459 394.086 765.285 399.587 761.215 398.907C757.61 398.199 753.958 397.668 750.302 397.079C733.985 404.985 727.221 418.188 715.642 430.934C706.684 440.773 696.922 449.903 686.841 458.586C672.108 471.295 646.261 495.787 625.064 490.983C597.591 484.762 627.795 445.934 636.51 436.869C654.863 417.631 676.13 404.864 699.512 397.917C687.8 397.307 676.16 397.859 664.494 398.004C636.562 419.007 618.979 446.834 597.711 474.542C587.993 487.171 558.021 520.382 543.617 496.304C533.122 478.751 552.225 445.343 560.864 429.455C562.746 425.952 564.916 422.374 567.326 418.896C561.856 422.915 556.467 427.278 551.23 432.216C532.92 449.35 517.3 469.351 499.489 486.98C489.647 496.699 444.248 538.986 441.161 504.513C440.039 492.152 446.421 478.447 451.386 467.282C460.087 447.713 472.323 429.616 487.362 414.32L487.42 414.317ZM682.293 421.286C675.832 412.236 664.9 421.322 657.857 425.381C656.447 426.169 655.757 427.263 655.422 428.451C654.474 429.152 653.358 429.98 652.904 431.117C651.286 435.129 653.278 438.973 657.664 439.107C660.47 439.166 663.475 436.818 666.044 435.899C671.07 434.126 676.144 432.175 680.432 428.873C682.66 427.158 684.084 423.801 682.293 421.286ZM559.206 440.297C558.228 445.202 561.473 449.493 566.496 449.529C576.885 449.522 587.461 438.473 593.956 431.24C597.226 427.534 601.631 422.356 601.126 417.077C600.629 411.914 596.94 408.935 591.765 410.192C583.37 412.233 575.975 419.057 570.069 426.37C569.266 426.596 568.47 426.937 567.696 427.627C563.927 430.839 560.242 435.388 559.268 440.351L559.206 440.297ZM475.622 446.918C481.044 453.349 491.02 447.649 498.535 441.81C497.939 443.481 498.23 445.331 500.127 446.73C500.741 447.217 501.406 447.584 502.067 447.893C502.184 447.885 502.307 447.994 502.485 448.042C511.301 451.809 522.796 443.33 529.643 438C537.275 432.154 549.857 423.314 552.027 413.199C552.935 409.057 549.392 405.602 545.326 406.848C537.069 409.231 529.819 413.711 523.143 418.972C526.657 414.492 529.107 409.787 528.66 405.438C528.337 402.131 525.291 399.17 521.759 400.558C521.018 400.838 520.287 401.292 519.546 401.572C510.886 394.701 494.696 409.31 488.914 414.865C481.809 421.67 467.05 436.774 475.626 446.976L475.622 446.918Z" fill="url(#paint17_radial_1684_1160)"/>
</g>
<path d="M197.315 319.044C310.529 359.711 426.535 372.19 547.087 378.025C605.287 380.867 663.581 382.42 721.729 386.316C761.061 388.937 803.718 380.32 840.857 395.508C853.678 400.777 845.933 418.827 833.054 413.562C811.126 404.543 785.99 405.822 762.477 406.006C736.926 406.26 711.855 404.85 686.369 403.349C628.308 399.914 570.032 398.652 512.01 394.922C403.588 387.98 292.587 371.511 195.977 321.928C194.411 321.151 195.578 318.335 197.249 318.931L197.315 319.044Z" fill="url(#paint18_radial_1684_1160)"/>
<path style="mix-blend-mode:screen" opacity="0.6" d="M782.283 390.413C751.259 394.627 561.335 387.465 497.943 382.787C406.285 376.023 305.745 368.18 222.302 327.521C327.626 361.503 435.434 372.627 547.149 378.08C605.348 380.922 663.642 382.475 721.79 386.372C755.144 388.607 790.914 382.813 823.657 390.222C810.6 388.645 797.448 388.357 782.341 390.41L782.283 390.413Z" fill="url(#paint19_radial_1684_1160)"/>
<path d="M85.7946 275.586C122.161 261.585 164.526 292.204 192.3 310.72C193.216 311.363 192.434 312.871 191.351 312.355C176.601 305.164 161.956 297.792 146.839 291.266C126.797 282.538 108.289 280.601 86.5248 280.735C83.5485 280.746 82.9418 276.64 85.7364 275.59L85.7946 275.586Z" fill="url(#paint20_radial_1684_1160)"/>
<path d="M212.469 233.65C226.202 230.166 236.061 244.082 243.081 253.681C256.803 272.433 264.03 295.618 282.486 310.747C282.857 311.074 282.37 311.688 282.006 311.478C266.74 303.502 258.724 288.246 248.887 274.679C239.178 261.279 230.333 242.105 212.567 238.955C210.03 238.53 209.885 234.337 212.469 233.65Z" fill="url(#paint21_radial_1684_1160)"/>
<path d="M287.797 220.075C319.947 239.485 331.439 284.229 349.655 315.131C350.374 316.37 348.576 317.475 347.747 316.359C336.973 301.8 328.223 286.006 319.069 270.295C309.069 253.178 297.074 238.696 284.788 223.297C283.454 221.571 285.98 219.021 287.743 220.136L287.797 220.075Z" fill="url(#paint22_radial_1684_1160)"/>
<path d="M361.567 258.186C375.7 259.229 386.434 272.214 394.661 282.439C406.181 296.776 414.356 313.657 424.255 329.146C424.902 330.156 423.35 331.478 422.594 330.592C413.735 320.524 406.718 309.115 399.145 298.149C388.047 282.152 376.481 272.661 360.644 262.095C359.183 261.136 359.398 258.029 361.625 258.182L361.567 258.186Z" fill="url(#paint23_radial_1684_1160)"/>
<path d="M457.737 283.927C491.443 287.132 519.464 319.873 537.982 345.328C538.679 346.218 537.28 347.181 536.481 346.531C524.729 336.877 514.161 325.631 502.845 315.483C488.746 302.824 473.381 295.147 456.073 288.116C453.616 287.102 455.451 283.778 457.737 283.927Z" fill="url(#paint24_radial_1684_1160)"/>
<path d="M139.72 359.525C159.636 338.205 200.9 350.276 225.07 351.276C225.83 351.287 225.837 352.337 225.143 352.438C196.848 355.49 169.516 352.47 142.903 364.695C139.898 366.109 137.7 361.752 139.778 359.521L139.72 359.525Z" fill="url(#paint25_radial_1684_1160)"/>
<path d="M198.596 404.986C214.867 374.848 264.727 367.532 294.13 368.205C295.591 368.23 295.54 370.218 294.152 370.421C277.377 372.87 261.282 376.851 245.172 382.468C228.316 388.306 217.036 399.282 202.383 408.602C199.97 410.153 197.233 407.464 198.538 404.99L198.596 404.986Z" fill="url(#paint26_radial_1684_1160)"/>
<path d="M266.221 436.304C285.236 408.037 320.378 397.788 349.208 383.673C350.058 383.27 350.767 384.335 349.927 384.912C322.576 403.078 293.107 414.432 270.56 439.418C268.43 441.768 264.404 438.985 266.217 436.246L266.221 436.304Z" fill="url(#paint27_radial_1684_1160)"/>
<path d="M370.214 441.48C372.126 430.972 380.765 420.687 387.252 412.403C394.655 402.895 403.297 394.534 413.989 389.081C415.119 388.485 416.148 389.997 415.028 390.767C404.787 397.826 396.465 407.567 389.519 417.864C383.962 426.09 380.611 435.987 374.622 443.831C372.841 446.16 369.836 443.838 370.272 441.476L370.214 441.48Z" fill="url(#paint28_radial_1684_1160)"/>
<path d="M509.051 403.628C509.051 403.628 509.288 403.672 509.179 403.795C504.53 407.879 500.064 412.068 495.663 416.37C490.549 421.416 487.58 427.146 483.499 432.829C482.423 434.296 480.29 432.854 480.661 431.313C483.947 417.569 498.519 410.706 509.109 403.624L509.051 403.628Z" fill="url(#paint29_radial_1684_1160)"/>
<g style="mix-blend-mode:multiply" opacity="0.8">
<path d="M247.079 344.765C244.088 343.61 241.039 342.458 238.041 341.186C232.35 341.658 224.799 342.247 216.891 342.741C216.833 342.744 216.716 342.752 216.658 342.755C216.019 342.795 215.437 342.832 214.798 342.872C209.041 343.231 203.227 343.594 197.99 343.863C187.982 344.371 179.95 344.756 177.904 344.709C174.278 344.586 170.76 344.338 167.173 343.92C167.057 343.928 166.94 343.935 166.821 343.884C164.822 343.659 162.939 343.426 160.991 343.081C160.697 343.041 160.403 343.001 160.108 342.961C158.339 342.663 156.569 342.365 154.792 341.951C154.319 341.864 153.843 341.718 153.313 341.635C151.714 341.268 150.115 340.901 148.57 340.472C147.858 340.283 147.146 340.094 146.492 339.901C145.125 339.52 143.759 339.138 142.389 338.699C141.437 338.408 140.539 338.056 139.587 337.765C138.453 337.369 137.319 336.973 136.24 336.515C134.986 336.068 133.784 335.501 132.526 334.996C131.745 334.636 130.909 334.338 130.128 333.979C128.086 333.056 126.04 332.075 124.048 331.032C107.815 322.533 80.1534 308.621 77.2944 288.081C76.0375 279.172 86.2313 274.159 92.849 271.703C108.305 265.893 127.173 270.784 141.872 275.294C161.874 281.514 180.251 291.63 197.541 303.039C201.252 305.433 204.853 307.951 208.458 310.528C208.458 310.528 208.581 310.637 208.643 310.691C213.465 314.067 218.295 317.558 223.124 321.05C228.87 325.185 237.733 328.775 243.489 334.018C250.804 336.187 258.109 338.182 265.409 340.119C255.997 335.221 246.789 329.843 237.962 324.033C237.475 323.713 236.926 323.339 236.439 323.019C234.306 321.577 232.111 320.08 230.033 318.576C229.36 318.093 228.63 317.613 227.958 317.13C225.389 315.248 222.816 313.307 220.301 311.363C219.629 310.88 219.011 310.335 218.335 309.794C218.088 309.576 217.841 309.358 217.594 309.14C217.223 308.813 216.794 308.489 216.362 308.108C216.053 307.835 215.682 307.508 215.373 307.236C215.065 306.963 214.756 306.691 214.443 306.36C214.073 306.033 213.64 305.652 213.266 305.267C213.015 304.99 212.768 304.772 212.463 304.558C212.027 304.118 211.594 303.737 211.158 303.297C210.911 303.079 210.722 302.858 210.475 302.64C210.039 302.2 209.541 301.706 209.101 301.208C208.916 301.044 208.789 300.877 208.604 300.714C208.102 300.162 207.546 299.671 207.045 299.119C206.921 299.01 206.798 298.901 206.732 298.788C206.169 298.182 205.606 297.575 205.042 296.968C205.042 296.968 204.981 296.913 204.919 296.859C188.53 278.39 175.885 252.568 191.465 230.06C206.831 207.857 237.232 241.324 246.655 251.999C258.338 265.217 267.691 280.39 277.647 294.942C280.409 298.972 283.225 302.939 286.045 306.965C286.038 306.849 285.976 306.794 285.911 306.682C294.29 318.414 303.055 329.772 312.376 340.687C312.819 341.243 313.317 341.737 313.76 342.293C315.145 343.899 316.529 345.505 317.968 347.049C319.037 348.266 320.163 349.479 321.228 350.639C322.166 351.63 323.107 352.68 324.044 353.672C328.95 354.65 333.794 355.573 338.693 356.434C340.11 356.696 341.528 356.957 343.003 357.215C343.356 357.252 343.654 357.35 344.006 357.386C329.554 348.426 316.541 336.341 306.188 322.923C304.854 321.197 303.579 319.468 302.3 317.68C301.915 317.121 301.471 316.565 301.083 315.947C300.25 314.773 299.415 313.542 298.579 312.31C298.128 311.638 297.674 310.908 297.223 310.235C296.508 309.055 295.795 307.932 295.08 306.751C294.625 306.021 294.233 305.345 293.779 304.615C292.798 302.925 291.816 301.236 290.948 299.481C290.421 298.521 289.891 297.504 289.418 296.483C289.015 295.633 288.553 294.786 288.154 293.994C287.616 292.861 287.074 291.669 286.533 290.477C286.26 289.852 285.926 289.173 285.65 288.49C285.101 287.182 284.553 285.874 284.062 284.562C283.928 284.279 283.855 284.05 283.779 283.763C281.897 278.861 280.363 273.938 279.113 268.881C279.106 268.764 279.095 268.59 279.03 268.477C278.63 266.751 278.227 264.967 277.885 263.238C276.505 256.087 275.756 248.781 275.819 241.365C275.819 241.365 275.811 241.249 275.808 241.191C275.866 232.783 276.852 224.26 279 215.663C279.654 213.055 282.663 211.699 284.956 212.898C311.691 226.927 327.229 258.872 342.433 283.601C352.313 299.733 360.947 316.468 370.205 332.931C376.706 344.489 385.053 354.764 393.509 364.916C395.275 365.155 396.983 365.399 398.746 365.581C401.337 365.944 403.982 366.246 406.57 366.551C408.042 366.751 409.51 366.893 411.04 367.089C401.867 361.359 393.662 354.285 385.98 346.244C363.366 322.503 337.85 289.665 348.935 254.073C349.568 252.049 351.628 250.461 353.765 251.028C355.666 251.551 357.45 252.082 359.242 252.729C360.194 253.019 361.091 253.372 362.051 253.779C362.77 254.084 363.544 254.327 364.264 254.633C365.583 255.192 366.844 255.755 368.109 256.377C368.29 256.482 368.41 256.533 368.588 256.58C393.012 268.186 408.612 289.913 423.464 312.738C423.464 312.738 423.464 312.738 423.46 312.68C437.726 334.549 451.291 357.338 471.19 373.136C471.539 373.114 471.895 373.209 472.248 373.245C475.649 373.499 479.054 373.812 482.456 374.066C486.621 374.39 490.782 374.655 495.004 374.975C497.937 375.2 500.87 375.426 503.857 375.589C506.085 375.742 508.37 375.891 510.594 375.986C510.362 376 510.18 375.895 509.94 375.793C508.934 375.564 507.923 375.277 506.971 374.986C505.965 374.757 505.009 374.409 504.057 374.118C503.047 373.831 502.094 373.54 501.142 373.249C500.19 372.959 499.234 372.61 498.279 372.261C497.323 371.912 496.371 371.622 495.473 371.269C494.518 370.92 493.558 370.513 492.599 370.107C491.701 369.754 490.804 369.402 489.902 368.991C488.939 368.526 487.976 368.061 486.955 367.599C486.112 367.185 485.273 366.829 484.488 366.411C483.401 365.837 482.373 365.259 481.283 364.627C480.618 364.26 479.894 363.897 479.226 363.472C477.529 362.469 475.824 361.35 474.116 360.172C454.217 346.242 424.172 315.67 433.687 287.647C434.036 286.691 434.389 285.794 434.745 284.954C434.85 284.773 434.96 284.649 435.007 284.471C435.316 283.81 435.686 283.203 436.057 282.596C436.108 282.477 436.162 282.415 436.272 282.291C436.697 281.623 437.126 281.012 437.62 280.515C451.368 264.19 484.623 284.465 497.225 293.716C497.225 293.716 497.283 293.712 497.349 293.825C497.839 294.203 498.326 294.523 498.755 294.846C529.582 318.307 547.528 355.179 577.178 379.414C583.617 379.712 590.111 379.948 596.551 380.246C595.21 379.338 593.869 378.429 592.586 377.517C578.523 367.307 554.078 338.545 562.564 318.348C562.975 317.447 563.386 316.546 563.862 315.757C563.964 315.517 564.127 315.332 564.287 315.089C564.658 314.482 565.036 313.991 565.41 313.443C565.574 313.258 565.737 313.072 565.897 312.829C566.33 312.277 566.824 311.779 567.322 311.339C567.434 311.274 567.543 311.15 567.652 311.027C568.924 309.897 570.269 308.996 571.745 308.32C571.861 308.313 571.915 308.251 572.028 308.186C572.708 307.851 573.394 307.633 574.14 307.412C574.198 307.408 574.256 307.404 574.372 307.397C590.25 302.729 614.648 317.662 624.263 324.882C634.98 332.908 645.111 341.847 655.301 350.781C669.255 362.982 683.325 375.176 698.937 384.939C699.816 385.001 700.696 385.063 701.571 385.066C701.455 385.074 701.332 384.965 701.27 384.91C700.303 384.387 699.337 383.864 698.37 383.34C697.887 383.079 697.403 382.817 696.92 382.556C695.892 381.978 694.918 381.338 693.94 380.641C693.515 380.376 693.148 380.107 692.723 379.841C691.378 378.875 690.034 377.908 688.682 376.826C687.265 375.63 685.902 374.373 684.539 373.116C684.23 372.843 683.918 372.513 683.609 372.24C680.869 369.493 678.289 366.503 675.931 363.324C675.803 363.157 675.676 362.99 675.545 362.764C666.097 349.815 659.953 333.683 659.1 318.154C658.965 316.003 660.939 313.954 663.094 313.878C685.353 313.246 703.05 326.497 717.549 341.816C730.297 355.259 735.943 375.566 750.475 386.739C781.259 386.158 812.759 383.957 841.032 395.497C853.853 400.766 846.108 418.816 833.229 413.551C811.301 404.533 786.164 405.811 762.652 405.996C754.312 406.108 746.011 405.926 737.769 405.741C729.589 413.08 723.905 422.072 715.877 430.919C706.918 440.758 697.156 449.888 687.075 458.572C672.342 471.281 646.495 495.772 625.298 490.968C597.825 484.748 628.029 445.919 636.744 436.854C638.881 434.62 641.026 432.502 643.235 430.496C643.897 429.871 644.562 429.304 645.227 428.738C646.829 427.295 648.432 425.853 650.1 424.523C650.823 423.952 651.547 423.382 652.266 422.754C653.992 421.42 655.719 420.087 657.449 418.812C658.063 418.365 658.677 417.918 659.291 417.471C661.584 415.869 663.881 414.324 666.243 412.893C666.301 412.889 666.356 412.828 666.411 412.766C671.582 409.583 676.953 406.797 682.404 404.355C682.633 404.283 682.8 404.155 683.029 404.083C683.596 403.814 684.222 403.541 684.792 403.331C676.416 402.862 668.039 402.393 659.666 401.982C634.619 422.455 617.923 448.593 597.887 474.531C588.169 487.16 558.197 520.371 543.793 496.293C533.299 478.74 552.401 445.332 561.04 429.444C562.922 425.941 565.092 422.363 567.444 418.889C566.161 419.845 564.878 420.8 563.599 421.814C562.152 422.955 560.648 424.099 559.263 425.295C558.598 425.861 557.878 426.49 557.155 427.06C555.218 428.757 553.277 430.396 551.348 432.209C533.038 449.343 517.418 469.344 499.607 486.972C489.765 496.691 444.366 538.978 441.279 504.505C440.157 492.145 446.539 478.44 451.504 467.275C460.204 447.706 472.441 429.609 487.48 414.313C488.741 413.009 490.064 411.759 491.387 410.509C491.772 410.135 492.161 409.819 492.546 409.444C493.542 408.565 494.538 407.686 495.595 406.861C495.984 406.545 496.315 406.233 496.649 405.978C499.371 403.766 502.166 401.782 504.975 400.031C505.255 399.838 505.535 399.646 505.818 399.511C507.054 398.734 508.293 398.014 509.594 397.349C509.761 397.222 509.99 397.15 510.157 397.023C511.4 396.361 512.643 395.7 513.89 395.097C513.304 395.075 512.661 395.057 512.073 394.977C506.916 394.657 501.755 394.279 496.595 393.901C481.826 404.161 469.953 415.933 459.177 432.188C448.085 448.988 437.887 466.083 424.596 481.328C409.398 498.735 366.184 527.404 352.001 495.667C339.313 467.28 364.128 430.013 382.168 409.511C383.749 407.72 385.392 405.983 386.984 404.366C387.093 404.243 387.256 404.057 387.424 403.93C392.482 398.945 397.77 394.822 403.218 391.388C400.14 392.573 397.185 393.866 394.18 395.279C389.702 397.426 385.301 399.861 380.98 402.64C380.642 402.836 380.25 403.094 379.916 403.349C378.905 403.995 377.899 404.7 376.892 405.405C376.445 405.725 375.998 406.044 375.551 406.364C374.602 407.065 373.658 407.825 372.651 408.53C372.204 408.849 371.815 409.165 371.372 409.543C370.038 410.619 368.65 411.756 367.323 412.948C350.773 427.404 334.466 442.021 316.077 454.141C303.187 462.708 251.807 488.678 253.735 454.125C254.582 438.723 270.366 423.206 280.596 413.171C293.352 400.585 309.085 391.724 325.496 385.33C327.72 384.49 329.945 383.651 332.234 382.924C332.921 382.706 333.608 382.489 334.353 382.267C336.014 381.755 337.674 381.242 339.339 380.788C340.084 380.567 340.774 380.407 341.465 380.247C343.304 379.782 345.142 379.317 347.043 378.906C347.563 378.816 348.021 378.67 348.54 378.579C352.113 377.831 355.75 377.195 359.45 376.614C356.79 376.08 354.188 375.542 351.528 375.008C328.953 379.92 309.012 387.76 287.956 400.164C273.15 408.909 258.301 416.956 242.271 422.918C226.299 428.876 185.495 444.731 175.124 423.552C174.786 422.815 174.444 422.019 174.223 421.274C174.15 421.045 174.074 420.758 173.998 420.471C173.852 420.013 173.707 419.556 173.616 419.036C173.594 418.687 173.576 418.396 173.558 418.106C173.533 417.699 173.507 417.292 173.478 416.827C173.456 416.478 173.438 416.187 173.42 415.897C173.395 415.49 173.427 415.079 173.522 414.723C173.504 414.432 173.598 414.076 173.638 413.782C173.674 413.43 173.765 413.015 173.86 412.659C173.958 412.361 173.998 412.067 174.096 411.769C174.249 411.409 174.34 410.995 174.492 410.636C174.59 410.338 174.689 410.04 174.848 409.796C175.056 409.375 175.263 408.953 175.47 408.532C175.572 408.292 175.674 408.052 175.833 407.809C176.2 407.144 176.571 406.537 177.058 405.923C177.167 405.8 177.273 405.618 177.382 405.494C177.76 405.004 178.079 404.517 178.519 404.081C178.683 403.896 178.901 403.649 179.064 403.464C179.388 403.035 179.773 402.661 180.158 402.286C180.38 402.097 180.598 401.85 180.82 401.661C181.205 401.287 181.59 400.913 181.975 400.539C182.197 400.35 182.415 400.103 182.637 399.914C183.08 399.536 183.524 399.158 183.967 398.78C184.189 398.591 184.41 398.402 184.632 398.214C185.134 397.832 185.631 397.392 186.191 397.007C186.358 396.88 186.58 396.691 186.747 396.564C187.361 396.117 188.034 395.667 188.706 395.216C188.822 395.209 188.873 395.089 188.986 395.024C190.552 393.934 192.18 392.898 193.87 391.917C193.87 391.917 193.754 391.924 193.696 391.928C191.014 391.979 188.332 392.03 185.646 392.022C185.646 392.022 185.646 392.022 185.588 392.026C182.844 392.022 180.101 392.019 177.415 392.011C162.697 391.88 130.586 390.851 129.392 370.791C128.179 349.507 169.459 346.871 182.28 345.603C201.947 343.674 222.767 342.432 242.856 344.445C242.972 344.438 243.089 344.431 243.205 344.424C244.557 344.573 245.847 344.667 247.202 344.874L247.079 344.765ZM291.392 359.856C290.367 360.27 289.4 360.68 288.376 361.094C288.317 361.098 288.259 361.102 288.201 361.105C285.755 362.134 283.31 363.162 280.867 364.248C288.532 363.594 296.163 363.351 303.875 363.453C299.714 362.254 295.498 361.116 291.392 359.856Z" fill="#007745"/>
</g>
<path d="M539.793 327.221C536.671 332.971 533.472 338.586 529.751 343.888C522.645 353.987 516.736 365.422 510.155 375.954C503.437 386.728 497.711 398.862 492.607 410.722C489.498 417.98 484.552 430.348 491.932 437.309C499.422 444.395 511.15 433.686 516.09 428.998C520.083 425.243 523.464 421.679 526.283 416.66C529.06 411.734 531.099 406.482 533.571 401.372C538.975 390.134 542.128 377.015 545.445 364.759C547.32 357.966 548.833 350.809 551.252 344.285C552.218 341.715 553.097 339.093 554.063 336.523C554.81 334.499 555.442 332.671 556.581 330.882C558.164 328.358 560.924 329.603 562.416 331.882C565.431 342.317 560.739 355.719 557.943 365.226C553.402 380.809 547.742 395.985 542.375 411.19C539.069 420.538 535.819 429.949 532.72 439.392C530.427 446.434 527.909 453.547 529.547 461.389C530.943 468.114 534.938 473.986 541.83 472.825C553.236 470.929 558.848 455.488 562.037 444.863C566.142 431.167 566.219 415.907 566.868 401.461C567.049 397.626 566.754 393.74 567.151 389.916C568.24 379.59 569.009 368.131 571.779 358.313C573.359 352.727 575.428 345.197 580.648 342.65C586.083 339.996 589.306 346.228 590.644 351.299C593.773 363.568 590.933 377.346 586.734 388.366C584.998 392.887 582.893 397.246 580.175 401.119C578.24 403.872 575.79 406.787 576.009 410.657C576.165 413.194 577.351 415.289 579.82 415.035C583.819 414.58 587.092 408.862 590.133 406.478C591.35 405.501 593.713 402.534 594.998 404.718C595.674 405.86 594.441 409.388 594.047 410.506C592.305 415.347 588.364 418.927 585.343 422.736C581.772 427.274 578.102 431.724 574.114 435.835C571.36 438.685 568.343 441.26 566.159 444.688C563.764 448.461 562.672 450.513 561.758 455.175C561.066 458.733 561.147 462.049 562.859 465.373C568.229 475.867 579.737 460.492 582.497 455.85C584.14 453.068 585.204 449.792 586.934 447.063C589.91 442.432 593.048 445.111 591.77 450.642C590.625 455.695 588.807 460.52 586.923 465.247C584.217 472.1 582.029 478.911 583.258 486.801C584.257 493.053 589.307 497.202 594.617 495.621C600.862 493.748 604.164 487.106 606.721 481.134C609.675 474.283 610.262 465.069 610.483 457.401C610.79 447.519 607.796 437.833 607.37 427.981C608.755 423.808 610.126 423.101 611.537 425.802C612.012 426.529 612.402 427.322 612.759 428.125C613.349 429.333 613.896 430.515 614.571 431.656C615.945 434.011 617.75 433.447 619.053 431.727C621.912 427.968 620.082 421.777 619.121 417.344C617.137 408.059 611.22 400.003 607.433 391.401C605.98 388.116 601.811 380.668 604.18 377.38C606.539 374.057 611.432 383.706 612.748 385.084C613.636 386 614.766 387.914 616.159 387.956C618.405 388.009 620.545 385.908 620.352 383.144C619.923 377.47 616.995 372.975 613.787 368.488C609.587 362.641 605.421 356.902 601.466 350.819C598.748 346.657 595.958 341.243 595.054 336.315C593.409 327.321 602.724 330.057 607.388 332.975C611.431 335.49 614.86 338.873 618.428 342.133C625.674 348.778 631.678 356.886 639.727 362.365C644.722 365.776 648.415 364.342 647.234 357.511C646.987 356.156 645.942 354.852 645.192 353.813C643.451 351.414 642.378 349.681 640.851 347.175C639.623 345.172 642.744 346.662 644.746 347.747C646.102 348.914 647.276 350.178 648.197 351.083C651.264 354.102 654.332 357.121 657.326 360.243C662.457 365.56 669.26 374.412 676.909 373.97C682.443 373.671 678.274 365.547 676.593 362.89C675.842 361.732 674.926 360.388 673.898 359.476C671.633 357.439 671.065 354.832 672.259 351.634C673.7 351.263 675.149 351.367 676.604 351.946C679.543 352.857 682.266 354.432 685.093 355.776C694.017 361.339 702.56 368.056 713.119 366.624C719.465 365.753 724.884 359.881 724.786 352.552C724.725 348.394 722.411 343.031 719.078 339.618C715.903 335.916 711.659 333.663 707.392 332.014C703.928 330.671 700.43 329.218 696.796 328.803C695.141 328.605 689.611 329.141 689.343 326.36C689.028 323.316 693.916 323.896 698.412 324.916C698.692 324.908 698.973 324.9 699.265 324.928C701.544 324.971 703.824 325.133 706.109 324.856C710.259 324.434 714.132 323.461 717.806 321.517C723.184 318.681 726.349 312.957 724.79 306.164C723.232 299.371 714.969 297.619 709.968 298.945C706.054 300.01 702.311 302.413 698.877 304.561C687.132 311.934 674.128 317.433 660.436 319.487C645.808 321.715 630.699 319.24 615.928 316.937C611.35 316.22 606.648 315.105 602.189 313.635C599.748 312.847 589.431 310.186 589.054 306.604C588.731 303.761 594.958 301.376 596.685 300.677C600.484 299.13 604.533 298.381 608.445 297.198C608.8 297.087 609.122 296.986 609.477 296.875C613.573 295.713 617.614 294.489 621.758 293.591C627.816 292.254 633.805 290.58 639.875 289.278C643.459 288.515 647.102 287.376 650.728 286.52C661.734 285.386 673.336 285.815 683.81 282.301C692.523 279.377 702.54 274.176 702.385 262.926C702.609 260.588 702.189 258.452 701.274 256.431C700.199 253.107 698.305 249.88 695.582 248.305C695.277 248.122 694.722 247.818 694.048 247.472C688.665 243.387 680.463 243.645 673.566 245.245C665.445 246.551 658.102 250.12 650.931 254.352C642.197 259.471 634.771 266.846 626.037 271.964C621.916 274.406 617.983 277.108 613.872 279.468C611.26 280.961 608.538 282.33 605.882 283.797C604.714 284.361 603.589 284.952 602.432 285.552C596.272 288.831 588.724 291.629 581.596 291.472C575.645 291.344 574.871 287.17 579.069 283.391C582.197 280.264 585.678 277.703 589.192 275.132C592.332 272.838 595.507 270.651 598.681 268.465C598.745 268.445 598.798 268.389 598.852 268.332C606.246 264.588 613.366 259.855 620.429 255.617C629.878 249.956 639.516 245.351 649.86 241.758C658.99 238.585 666.344 232.903 671.111 223.814C673.442 219.385 672.487 214.631 669.535 211.417C666.789 207.502 661.543 205.443 657.406 204.549C649.489 202.887 642.82 206.007 636.472 210.379C630.038 214.818 624.987 220.734 619.882 226.707C617.722 228.854 615.562 231.002 613.281 232.988C607.793 237.847 602.494 243.085 596.851 247.674C590.365 252.965 584.028 258.845 576.445 262.211C573.27 263.602 570.106 265.029 566.694 265.778C554.727 268.367 563.109 251.145 565.59 246.63C568.577 241.24 572.123 236.511 575.886 231.793C582.607 223.406 590.395 216.395 597.466 208.336C606.99 197.48 625.578 174.64 607.294 160.427C601.341 155.765 593.113 157.861 588.701 163.219C582.561 170.748 579.793 180.684 577.174 190.415C575.35 197.032 572.639 203.529 569.923 209.669C567.425 215.264 565.288 221.104 562.3 226.375C559.648 231.024 556.72 235.241 553.401 239.342C551.133 242.16 544.861 248.816 542.12 242.314C539.176 235.278 544.991 226.258 547.171 220.326C549.767 213.348 553.059 206.788 556.799 200.526C564.574 187.473 574.005 174.737 572.499 157.584C571.944 151.512 569.817 143.465 564.065 140.689C558.801 138.118 553.51 141.682 550.112 145.53C540.237 156.734 540.97 174.128 539.83 189.045C539.126 198.336 538.788 209.819 534.481 217.889C533.389 219.941 531.916 221.794 529.472 221.564C526.121 221.26 523.526 218.849 523.28 215.345C522.963 210.71 523.499 206.763 524.243 202.353C525.026 197.613 527.61 192.747 529.239 188.339C531.116 183.137 533.592 178.265 535.35 173.021C537.863 165.552 540.279 156.641 539.303 148.313C539.07 146.437 538.63 144.466 537.997 142.555C536.665 137.164 534.001 132.268 529.479 130.142C528.152 129.522 526.886 129.322 525.667 129.385C521.1 129.381 517.13 134.68 515.166 138.358C510.754 146.659 511.625 157.367 512.38 166.798C513.279 177.934 514.39 189.522 512.781 200.448C512.351 203.487 512.716 209.857 510.118 211.624C505.094 215.025 501.614 204.577 500.612 201.031C498.482 193.542 499.103 185.909 500.224 178.516C502.448 163.897 507.56 146.744 501.874 131.733C500.392 127.9 497.576 124.326 494.262 122.219C490.775 120.008 484.983 119.71 482.333 123.006C474.912 132.209 483.165 151.469 485.426 161.98C486.921 168.912 491.201 179.429 485.75 185.311C479.586 191.972 471.911 178.181 469.064 173.263C460.133 157.836 454.803 140.566 443.52 126.67C436.251 117.685 424.407 108.898 413.794 114.007C404.382 118.542 405.692 129.748 410.089 138.717C414.109 146.928 418.939 153.772 424.58 160.72C432.268 170.25 441.26 178.179 450.738 185.399C455.837 189.255 461.231 192.581 466.246 196.622C468.563 198.483 470.773 200.457 473.015 202.422C474.087 203.359 479.975 208.719 476.373 210.442C475.043 211.057 473.117 210.784 471.669 210.68C461.414 210.028 452.612 203.273 442.754 201.064C438.336 198.707 433.201 196.772 428.803 195.84C425.327 195.137 419.685 197.578 417.104 199.737C413.884 202.455 412.21 206.837 412.668 211.468C413.957 224.193 427.614 229.271 437.325 230.331C444.073 231.085 450.715 230.48 457.358 229.994C464.078 229.524 471.103 228.56 477.853 228.756C484.096 228.912 501.078 233.985 501.771 242.878C501.734 244.004 501.255 245.188 500.053 246.439C497.491 249.11 494.116 249.409 490.657 249.099C484.926 248.544 478.954 247.667 473.289 246.415C461.536 243.805 449.074 241.417 437.261 242.008C430.572 242.349 419.525 244.372 419.738 253.654C417.229 257.741 421.6 264.251 425.234 266.814C434.398 273.257 443.187 271.145 452.956 270.238C462.961 269.297 472.716 266.087 482.603 264.428C487.848 263.543 493.049 262.633 498.339 261.893C501.086 261.512 503.837 261.367 506.645 261.404C509.14 261.459 511.245 262.193 513.206 263.37C515.5 266.631 515.713 269.349 513.725 271.483C512.466 273.229 510.725 274.45 508.87 275.309C504.097 277.477 497.434 277.334 492.282 277.95C482.593 279.11 472.784 279.433 463.062 280.485C453.21 281.576 443.899 283.494 435.561 289.085C429.97 292.823 425.265 300.978 427.557 308.535C427.92 309.695 428.215 310.637 428.561 311.404C430.266 320.14 440.905 320.433 446.88 319.281C452.123 318.278 456.627 315.477 461.543 313.541C465.826 311.844 470.116 309.945 474.331 308.03C484.186 303.556 493.815 298.356 503.571 293.674C508.062 291.514 512.624 289.69 517.004 287.285C521.266 284.958 526.984 283.209 530.778 286.399C532.172 288.708 533.314 291.454 532.709 293.593C531.733 296.921 527.923 299.227 525.468 301.108C520.322 305.025 514.556 307.863 508.787 310.582C497.627 315.862 485.54 318.409 474.434 323.752C460.991 330.224 434.329 346.598 444.703 367.661C449.422 377.205 461.518 373.104 468.243 370.841C473.432 369.099 478.128 365.442 482.551 362.269C487.145 358.963 491.77 355.646 495.966 351.748C504.818 343.609 512.552 334.388 520.371 325.1C524.403 320.338 528.846 316.323 533.45 312.258C535.528 310.414 537.674 308.788 539.962 307.277C542.314 305.746 543.99 305.898 545.217 307.106C547.947 313.572 542.297 322.102 539.659 326.905L539.793 327.221Z" fill="url(#paint30_linear_1684_1160)"/>
<path d="M539.793 327.221C536.671 332.971 533.472 338.586 529.75 343.887C522.645 353.987 516.736 365.422 510.155 375.954C503.437 386.727 497.711 398.862 492.607 410.722C489.497 417.98 484.552 430.347 491.932 437.309C499.422 444.395 511.15 433.685 516.09 428.997C520.083 425.242 523.464 421.679 526.283 416.66C529.06 411.734 531.099 406.481 533.571 401.372C538.975 390.134 542.128 377.014 545.444 364.758C547.32 357.966 548.833 350.809 551.252 344.284C552.218 341.714 553.097 339.092 554.063 336.523C554.81 334.499 555.442 332.67 556.581 330.882C558.163 328.358 560.924 329.603 562.415 331.882C565.431 342.316 560.739 355.719 557.943 365.226C553.402 380.809 547.742 395.985 542.375 411.19C539.069 420.538 535.819 429.949 532.719 439.392C530.427 446.434 527.909 453.547 529.547 461.389C530.942 468.113 534.938 473.985 541.83 472.824C553.235 470.928 558.848 455.488 562.037 444.863C566.142 431.167 566.218 415.906 566.868 401.461C567.049 397.625 566.754 393.739 567.151 389.915C568.239 379.589 569.009 368.13 571.779 358.313C573.359 352.727 575.428 345.197 580.648 342.65C586.082 339.995 589.306 346.228 590.644 351.299C593.773 363.568 590.933 377.346 586.734 388.366C584.998 392.887 582.892 397.245 580.175 401.119C578.24 403.872 575.789 406.787 576.009 410.657C576.165 413.194 577.351 415.289 579.82 415.034C583.819 414.579 587.092 408.861 590.133 406.478C591.35 405.501 593.713 402.534 594.998 404.718C595.673 405.859 594.441 409.388 594.047 410.505C592.305 415.347 588.363 418.926 585.343 422.735C581.772 427.274 578.102 431.723 574.114 435.835C571.36 438.685 568.343 441.26 566.159 444.688C563.764 448.46 562.671 450.513 561.758 455.174C561.066 458.733 561.147 462.049 562.859 465.372C568.229 475.866 579.737 460.492 582.497 455.849C584.14 453.068 585.204 449.791 586.934 447.062C589.91 442.432 593.048 445.11 591.77 450.642C590.625 455.694 588.807 460.52 586.922 465.246C584.217 472.1 582.029 478.91 583.258 486.801C584.257 493.052 589.307 497.202 594.617 495.621C600.862 493.747 604.164 487.105 606.721 481.134C609.675 474.283 610.262 465.068 610.483 457.401C610.79 447.518 607.796 437.832 607.37 427.981C608.755 423.808 610.126 423.1 611.537 425.802C612.012 426.529 612.402 427.322 612.759 428.125C613.349 429.333 613.896 430.515 614.571 431.656C615.945 434.011 617.75 433.446 619.053 431.726C621.912 427.968 620.082 421.777 619.121 417.344C617.137 408.058 611.22 400.003 607.432 391.401C605.98 388.115 601.811 380.667 604.18 377.38C606.539 374.057 611.432 383.705 612.748 385.084C613.636 386 614.766 387.914 616.159 387.956C618.405 388.009 620.544 385.908 620.352 383.143C619.923 377.469 616.995 372.974 613.787 368.488C609.587 362.641 605.421 356.902 601.466 350.819C598.748 346.656 595.958 341.243 595.054 336.314C594.854 335.223 594.819 334.319 594.894 333.54C583.911 322.414 574.518 309.24 564.748 296.899C557.035 287.178 549.014 277.712 541.269 268C533.36 258.101 525.504 248.146 517.563 238.257C506.827 224.866 495.934 211.763 484.251 199.305C472.678 186.972 460.671 175.172 448.959 162.961C439.266 152.904 430.192 142.335 421.104 131.611C417.17 126.954 413.214 122.224 409.834 117.075C404.991 122.528 406.537 131.433 410.156 138.815C414.175 147.026 419.005 153.87 424.646 160.818C432.334 170.348 441.326 178.278 450.804 185.498C455.903 189.353 461.297 192.679 466.312 196.72C468.629 198.581 470.839 200.556 473.081 202.52C474.153 203.458 480.041 208.817 476.439 210.54C475.109 211.155 473.183 210.882 471.735 210.778C461.48 210.126 452.678 203.371 442.82 201.163C438.402 198.805 433.267 196.87 428.87 195.938C425.393 195.235 419.751 197.676 417.17 199.836C413.95 202.553 412.276 206.936 412.734 211.566C414.023 224.291 427.68 229.369 437.391 230.43C444.139 231.184 450.781 230.579 457.424 230.092C464.144 229.622 471.169 228.658 477.919 228.854C484.162 229.011 501.144 234.083 501.837 242.976C501.8 244.102 501.321 245.286 500.119 246.537C497.557 249.208 494.182 249.508 490.723 249.197C484.992 248.642 479.02 247.765 473.355 246.513C461.602 243.903 449.14 241.515 437.327 242.106C430.638 242.448 419.591 244.47 419.804 253.753C417.295 257.839 421.667 264.349 425.3 266.912C434.464 273.355 443.254 271.243 453.022 270.337C463.027 269.396 472.782 266.186 482.669 264.526C487.914 263.642 493.115 262.731 498.405 261.992C501.152 261.61 503.903 261.466 506.711 261.503C509.206 261.558 511.311 262.292 513.272 263.469C515.566 266.73 515.779 269.448 513.791 271.581C512.533 273.327 510.791 274.548 508.936 275.407C504.164 277.576 497.5 277.432 492.348 278.048C482.66 279.209 472.85 279.531 463.128 280.583C453.276 281.675 443.965 283.592 435.627 289.183C430.036 292.921 425.331 301.076 427.623 308.634C427.986 309.793 428.281 310.736 428.627 311.502C430.332 320.238 440.971 320.532 446.946 319.379C452.189 318.376 456.693 315.575 461.609 313.64C465.892 311.942 470.182 310.044 474.397 308.129C484.252 303.654 493.881 298.455 503.637 293.773C508.128 291.612 512.69 289.788 517.07 287.384C521.333 285.056 527.05 283.308 530.844 286.497C532.238 288.806 533.38 291.552 532.775 293.691C531.799 297.02 527.989 299.325 525.534 301.207C520.388 305.123 514.622 307.961 508.853 310.68C497.693 315.961 485.606 318.507 474.5 323.85C461.057 330.322 434.395 346.696 444.769 367.759C449.488 377.303 461.584 373.202 468.309 370.94C473.498 369.197 478.194 365.541 482.617 362.367C487.211 359.061 491.836 355.745 496.032 351.846C504.884 343.708 512.618 334.486 520.437 325.198C524.469 320.436 528.912 316.421 533.516 312.356C535.594 310.512 537.74 308.887 540.028 307.375C542.38 305.844 544.056 305.996 545.283 307.204C548.013 313.67 542.363 322.2 539.725 327.003L539.793 327.221Z" fill="url(#paint31_linear_1684_1160)"/>
<path d="M498.539 330.774C508.26 322.363 518.336 314.517 528.631 306.922C534.035 302.924 539.467 299.356 545.548 296.619C550.202 294.526 555.234 292.396 560.437 293.752C561.395 295.004 562.364 296.293 563.289 297.555C560.474 299.191 558.046 303.65 556.278 306.033C552.912 310.547 550.225 316.44 547.786 321.658C542.041 333.957 536.33 346.365 530.846 358.821C525.456 371.01 521.024 383.773 515.698 395.942C511.155 406.313 506.91 417.07 500.762 426.272C499.403 428.488 497.999 430.677 496.508 432.814C504.239 424.827 508.832 414.161 513.471 403.759C518.863 391.69 523.788 379.369 528.918 367.142C533.977 355.137 539.216 342.916 544.983 331.366C547.877 325.568 550.748 319.697 553.587 313.836C555.147 310.564 556.948 307.494 559.065 304.644C560.525 302.636 561.997 299.988 563.751 298.126C567.045 302.546 570.285 307.023 573.706 311.284C573.827 311.445 573.98 311.596 574.102 311.757C574.952 314.475 574.262 318.947 573.939 321.197C573.507 324.116 573.498 327.143 572.958 330.057C571.749 336.601 570.291 343.144 568.843 349.604C566.057 361.972 563.933 374.532 560.984 386.832C557.841 399.869 555.446 413.149 551.456 425.854C547.858 437.323 545.453 449.89 540.638 460.864C540.381 461.74 540.145 462.57 539.889 463.446C545.791 452.331 548.779 439.024 552.486 426.885C556.627 413.416 559.259 399.425 562.597 385.651C564.223 378.856 565.934 371.877 566.931 364.881C568.007 357.344 570.275 350.111 571.579 342.622C572.671 336.154 574.653 330.044 575.127 323.411C575.301 320.572 575.99 316.776 575.563 313.488C576.476 314.595 577.409 315.656 578.343 316.716C579.522 318.337 580.712 319.993 581.912 321.567C587.798 331.9 592.039 343.424 594.5 355.026C597.747 370.163 600.727 385.462 601.268 400.887C602.385 432.523 602.47 465.277 590.966 494.018C590.903 494.157 591.068 494.344 591.119 494.169C597.248 480.834 600.347 465.504 601.786 450.414C603.327 434.178 603.403 417.446 602.5 400.979C601.688 385.48 599.609 369.779 595.746 354.597C593.74 346.711 591.487 338.942 588.481 331.368C587.708 329.462 586.764 327.688 585.682 326.038C587.941 328.394 589.657 331.279 591.98 333.616C592.747 334.37 594.156 336.158 595.281 335.567C596.138 335.14 596.121 333.275 595.72 332.446C595.13 331.238 593.822 331.13 592.894 330.426C591.737 329.555 590.674 328.534 589.633 327.467C587.582 325.324 585.755 322.991 583.843 320.725C582.711 319.368 581.547 318.022 580.415 316.665C583.237 318.448 586.366 319.737 589.32 320.922C594.414 322.949 599.523 324.573 604.759 326.039C618.061 329.756 631.227 333.714 644.774 335.723C657.217 337.6 669.66 338.682 682.09 340.404C695.581 342.232 710.739 344.413 722.507 353.185C722.606 353.273 722.678 353.052 722.591 353C713.384 345.177 701.542 341.601 690.48 339.729C677.426 337.486 664.226 336.244 651.128 334.651C637.726 332.994 624.467 329.98 611.313 326.058C605.728 324.383 600.021 323.224 594.527 321.163C589.023 319.065 582.571 317.224 577.613 313.364C575.392 310.677 573.204 307.98 571.025 305.2C569.66 303.439 568.327 301.668 566.995 299.897C570.696 301.206 575.689 300.877 579.068 300.815C584.281 300.736 589.95 299.282 594.839 297.713C606.724 293.956 617.918 289.461 629.297 284.311C640.837 279.111 652.074 273.17 663.916 268.71C675.093 264.499 686.482 260.062 698.729 260.29C698.793 260.269 698.792 260.151 698.716 260.135C688.258 258.95 678.245 261.564 668.637 265.245C656.838 269.73 645.08 274.8 633.752 280.451C623.185 285.705 612.54 290.825 601.256 294.354C595.421 296.179 589.514 297.548 583.518 298.747C579.083 299.617 570.829 300.726 566.014 298.572C564.241 296.183 562.478 293.83 560.705 291.441C563.73 290.137 566.09 286.932 568.311 284.527C572.168 280.337 576.288 276.423 580.232 272.285C587.918 264.153 597.836 258.067 606.634 251.457C616.148 244.304 625.474 236.892 635.098 229.865C643.921 223.445 654.224 217.12 664.97 215.152C664.97 215.152 665.011 215.059 664.947 215.08C655.548 216.149 647.175 220.836 639.071 225.479C628.954 231.269 619.665 239.027 610.422 246.254C601.127 253.537 591.138 259.963 582.404 268.025C578.612 271.519 574.963 275.127 571.413 278.942C568.236 282.362 564.02 288.574 559.472 289.877C556.412 285.861 553.298 281.902 549.927 278.142C549.422 277.545 548.884 276.957 548.379 276.359C547.712 264.155 554.89 252.363 560.503 242.81C565.81 233.751 572.267 225.764 578.153 217.2C584.221 208.42 589.951 199.467 594.718 189.701C599.119 180.687 603.413 170.99 603.687 160.322C603.664 160.249 603.566 160.161 603.567 160.28C602.254 172.943 596.097 184.377 590.337 194.931C585.071 204.574 578.488 213.515 572.085 222.241C566.127 230.35 560.301 238.656 555.545 247.782C551.21 256.1 546.82 265.15 547.358 275.246C542.305 269.387 537.453 263.266 532.613 257.182C532.085 236.142 542.679 217.394 550.261 199.309C553.92 190.526 556.894 181.361 559.096 171.88C560.203 167.158 561.102 162.222 561.526 157.356C561.728 154.945 561.865 152.555 561.895 150.159C561.91 148.284 561.204 145.8 561.49 144C561.468 143.927 561.445 143.855 561.403 143.947C561.158 144.86 561.321 145.723 561.347 146.71C561.529 150.234 561.17 153.727 560.713 157.132C560.038 162.555 558.93 167.954 557.658 173.166C554.92 184.445 550.607 194.983 546.238 205.46C542.016 215.612 537.627 225.458 534.243 236.025C532.509 241.46 530.44 248.989 531.248 255.42C530.324 254.277 529.4 253.134 528.476 251.991C523.978 246.435 519.342 241.003 514.652 235.627C513.291 227.539 515.722 218.902 516.892 211.216C518.308 201.822 520.861 192.67 522.472 183.334C523.974 174.669 525.388 165.952 525.98 157.094C526.318 152.175 526.136 147.179 525.825 142.224C525.623 139.542 524.319 136.052 524.529 133.44C524.527 133.321 524.397 133.243 524.377 133.408C523.953 136.126 525.026 139.331 525.198 142.142C525.444 147.117 525.334 152.085 524.953 156.978C524.116 167.543 522.218 177.884 520.384 188.204C518.751 197.467 516.684 206.587 515.007 215.824C513.938 221.688 512.632 228.262 513.685 234.458C510.61 230.964 507.567 227.459 504.493 223.965C502.164 221.272 499.824 218.543 497.516 215.804C493.816 200.69 495.649 184.482 495.67 169.159C495.699 154.311 495.453 138.475 490.158 124.258C490.135 124.186 490.093 124.278 490.093 124.278C495.424 140.871 494.487 159.265 494.382 176.245C494.323 184.658 494.427 193.139 494.293 201.535C494.249 205.13 494.41 209.495 495.483 213.376C483.613 199.187 472.103 184.566 459.521 171.155C450.745 161.766 442.415 151.88 433.553 142.557C429.704 138.51 425.598 134.662 422.079 130.312C418.713 126.114 414.373 121.742 410.297 118.442C410.068 118.275 409.987 118.698 410.141 118.849C426.449 136.703 442.271 155.266 458.855 172.875C474.168 189.131 487.835 207.255 502.435 224.29C491.582 217.54 476.845 218.967 465.455 218.311C456.876 217.812 448.332 217.54 439.74 216.209C431.148 214.878 422.668 211.642 414.476 208.197C414.4 208.181 414.347 208.237 414.338 208.32C414.436 208.408 414.578 208.523 414.677 208.612C421.265 211.683 427.917 214.735 434.823 216.673C442.478 218.854 450.144 219.599 457.956 220.02C466.092 220.46 474.212 220.506 482.336 220.909C489.424 221.278 497.711 222.426 504.368 226.511C504.522 226.661 504.654 226.859 504.808 227.01C512.343 235.713 519.677 244.677 526.979 253.652C521.519 250.228 515.136 250.076 509.002 250.721C499.774 251.658 490.477 252.258 481.327 253.329C472.004 254.415 462.514 255.871 453.137 256.218C450.623 256.328 448.098 256.401 445.529 256.449C445.464 256.469 445.4 256.489 445.303 256.519C445.195 256.513 445.043 256.481 444.903 256.485C440.304 256.492 435.69 256.224 431.172 255.131C429.581 254.912 428.012 254.647 426.441 254.263C441.734 261.176 460.617 256.822 475.95 255.488C484.662 254.713 493.409 254.165 502.118 253.153C510.493 252.204 520.169 250.212 528.145 255.118C534.456 262.851 540.789 270.537 547.302 278.009C545.75 277.46 544 277.41 542.423 277.346C540.37 277.233 538.235 277.423 536.168 277.831C532.966 278.116 529.843 278.655 527.31 278.93C516.553 280.186 505.532 283.195 495.347 286.619C484.228 290.335 473.48 294.332 461.93 296.671C452.038 298.651 441.193 301.208 430.907 300.685C430.283 300.84 429.659 300.995 429.035 301.151C437.787 302.313 446.648 300.655 455.212 299.409C466.158 297.855 477.05 295.563 487.434 291.759C497.915 287.924 508.517 285.046 519.406 282.516C524.194 281.416 529.023 280.901 533.781 279.93C534.211 279.835 534.685 279.766 535.148 279.661C536.636 279.554 538.102 279.374 539.524 279.168C542.889 278.951 546.531 279.165 549.377 280.343C550.036 281.092 550.706 281.877 551.408 282.652C554.362 285.985 557.145 289.451 559.854 293.02C552.642 290.103 544.226 294.883 538.266 298.458C526.976 305.251 516.35 313.826 506.056 322.217C496.135 330.332 486.544 338.821 476.304 346.479C471.371 350.171 466.106 353.368 461.018 356.79C457.511 359.159 454.134 361.489 450.422 363.087C449.481 363.7 448.573 364.302 447.62 364.878C455.805 362.756 462.985 356.97 470.077 352.485C480.111 346.204 489.489 338.617 498.518 330.82L498.539 330.774Z" fill="url(#paint32_linear_1684_1160)"/>
<g opacity="0.4">
<path style="mix-blend-mode:multiply" d="M595.082 314.903C599.151 317.051 603.455 318.251 607.79 319.323C614.52 321.037 621.246 322.514 628.101 323.155C642.297 324.524 655.747 322.943 668.802 317.945C666.08 318.637 663.357 319.21 660.545 319.612C645.917 321.84 630.808 319.364 616.037 317.062C611.46 316.345 606.758 315.23 602.298 313.76C600.129 313.046 591.924 310.917 589.7 307.993C589.502 310.641 592.437 313.462 595.07 314.867L595.082 314.903Z" fill="url(#paint33_linear_1684_1160)"/>
<path style="mix-blend-mode:multiply" d="M614.843 338.48C611.51 335.067 607.968 331.321 603.708 329.471C600.676 328.151 594.678 326.287 592.129 329.114C589.356 332.129 591.762 337.901 593.442 341.234C595.5 345.325 598.093 349.089 600.931 352.617C603.725 356.12 606.732 359.396 609.674 362.693C606.907 358.824 604.215 354.972 601.587 350.98C598.869 346.817 596.079 341.404 595.175 336.476C593.53 327.482 602.845 330.218 607.509 333.135C611.246 335.467 614.509 338.545 617.804 341.612C616.839 340.561 615.852 339.557 614.866 338.553L614.843 338.48Z" fill="url(#paint34_linear_1684_1160)"/>
<path style="mix-blend-mode:multiply" d="M539.792 327.221C537.501 331.438 535.155 335.593 532.612 339.571C535.824 335.583 538.927 331.47 541.755 327.045C544.53 322.676 547.399 318.158 549.149 313.116C550.268 309.902 552.362 301.887 546.577 302.741C542.796 303.327 539.647 305.704 536.747 308.203C532.621 311.76 528.793 315.703 525.184 319.894C524.197 321.039 523.242 322.173 522.32 323.297C525.847 319.409 529.661 315.988 533.572 312.537C535.65 310.694 537.796 309.068 540.084 307.557C542.437 306.025 544.112 306.177 545.34 307.385C548.07 313.851 542.42 322.381 539.781 327.185L539.792 327.221Z" fill="url(#paint35_linear_1684_1160)"/>
<path style="mix-blend-mode:multiply" d="M541.606 236.029C541.417 237.123 541.292 238.196 541.255 239.322C541.159 241.619 541.311 244.595 542.979 246.421C545.009 248.61 547.713 248.202 549.963 247.021C558.823 242.42 563.233 230.379 567.068 221.025C569.631 214.733 571.964 208.275 573.614 201.553C572.49 204.411 571.247 207.226 570.025 209.995C567.527 215.59 565.39 221.43 562.402 226.701C559.75 231.35 556.822 235.567 553.503 239.668C551.234 242.486 544.963 249.142 542.222 242.64C541.36 240.562 541.262 238.325 541.585 236.076L541.606 236.029Z" fill="url(#paint36_linear_1684_1160)"/>
<path style="mix-blend-mode:multiply" d="M499.506 185.503C498.469 192.034 497.876 198.624 498.794 205.18C499.194 208.158 499.835 211.339 501.364 213.964C502.77 216.309 505.754 219.513 508.396 217.891C511.885 215.805 512.942 209.905 513.508 205.829C514.16 201.011 514.042 195.995 513.656 191.024C513.574 194.272 513.341 197.487 512.913 200.645C512.483 203.683 512.847 210.054 510.25 211.821C505.226 215.222 501.746 204.774 500.743 201.228C499.252 196.006 499.119 190.716 499.571 185.483L499.506 185.503Z" fill="url(#paint37_linear_1684_1160)"/>
<path style="mix-blend-mode:multiply" d="M469.175 173.507C468.023 171.52 466.935 169.513 465.868 167.46C467.395 171.438 468.923 175.416 470.761 179.257C473.134 184.243 476.447 189.97 481.613 191.776C486.985 193.676 490.028 189.144 490.966 183.997C491.825 179.273 491.245 174.363 490.073 169.597C488.361 162.653 485.681 155.893 482.177 149.669C483.434 154.368 484.838 158.743 485.569 162.214C487.065 169.145 491.345 179.662 485.893 185.544C479.73 192.206 472.055 178.415 469.207 173.497L469.175 173.507Z" fill="url(#paint38_linear_1684_1160)"/>
<path style="mix-blend-mode:multiply" d="M450.444 204.945C455.944 207.481 461.487 209.925 467.191 211.642C471.182 212.86 475.725 214.145 479.734 212.931C486.269 210.967 479.402 203.606 476.413 200.841C472.199 196.987 467.46 194.054 462.552 191.491C458.788 189.525 454.885 187.683 451.055 185.737C456.1 189.53 461.449 192.83 466.378 196.819C468.694 198.68 470.904 200.654 473.147 202.619C474.218 203.556 480.106 208.916 476.504 210.639C475.175 211.254 473.249 210.981 471.801 210.877C461.545 210.225 452.743 203.47 442.886 201.261C440.252 199.857 437.34 198.58 434.486 197.603C439.864 199.859 445.171 202.456 450.465 204.898L450.444 204.945Z" fill="url(#paint39_linear_1684_1160)"/>
<path style="mix-blend-mode:multiply" d="M532.843 293.908C532.649 294.645 532.259 295.324 531.815 295.94C533.213 294.867 534.576 293.565 535.156 291.912C536.078 289.316 534.497 286.747 532.274 285.413C529.779 283.886 527.051 284.103 524.409 285.049C526.758 284.752 529.042 285.151 530.912 286.715C532.306 289.024 533.448 291.77 532.843 293.908Z" fill="url(#paint40_linear_1684_1160)"/>
<path style="mix-blend-mode:multiply" d="M515.508 274.465C517.494 273.685 519.982 272.589 521.008 270.438C522.16 268.009 520.656 264.899 518.605 263.432C515.091 260.911 510.452 261.128 506.614 261.533C506.269 261.561 505.979 261.652 505.666 261.67C506.023 261.678 506.379 261.686 506.736 261.694C509.23 261.749 511.336 262.483 513.297 263.66C515.591 266.921 515.803 269.639 513.816 271.772C512.557 273.518 510.816 274.739 508.96 275.598C507.502 276.253 505.911 276.711 504.199 277.008C504.813 276.935 505.384 276.836 505.966 276.773C509.208 276.277 512.492 275.687 515.54 274.455L515.508 274.465Z" fill="url(#paint41_linear_1684_1160)"/>
<path style="mix-blend-mode:multiply" d="M495.897 249.448C498.756 249.31 502.251 249.053 504.477 247.004C507.971 243.803 505.676 239.07 502.301 236.426C498.587 233.49 493.941 231.084 489.48 230.172C487.097 229.684 484.491 229.385 481.956 229.541C489.536 231.03 501.256 235.798 501.818 243.141C501.78 244.267 501.301 245.451 500.1 246.702C497.537 249.373 494.163 249.673 490.703 249.362C488.032 249.084 485.318 248.779 482.57 248.365C486.997 249.169 491.474 249.678 495.833 249.469L495.897 249.448Z" fill="url(#paint42_linear_1684_1160)"/>
<path style="mix-blend-mode:multiply" d="M523.577 208.488C522.908 211.443 522.641 214.55 523.044 217.646C523.551 221.307 525.491 227.622 529.937 226.789C534.923 225.866 536.755 219.843 537.58 215.01C538.395 210.26 538.851 205.383 539.32 200.542C539.91 194.509 540.338 188.408 540.41 182.299C540.261 184.653 540.156 187.033 539.985 189.314C539.28 198.605 538.943 210.088 534.636 218.158C533.543 220.211 532.07 222.064 529.627 221.833C526.275 221.529 523.681 219.118 523.434 215.614C523.289 213.114 523.341 210.79 523.589 208.525L523.577 208.488Z" fill="url(#paint43_linear_1684_1160)"/>
<path style="mix-blend-mode:multiply" d="M547.293 220.605C546.254 222.601 545.29 224.613 544.425 226.713C543.665 228.582 542.948 230.477 542.406 232.477C543.745 228.159 546.057 223.896 547.293 220.605Z" fill="url(#paint44_linear_1684_1160)"/>
<path style="mix-blend-mode:multiply" d="M561.197 257.591C560.066 259.974 558.973 262.703 559.14 265.276C559.622 273.042 569.196 269.928 572.919 268.366C587.436 262.275 598.026 250.529 608.056 238.123C604.403 241.493 600.782 244.853 596.973 247.954C590.488 253.245 584.151 259.125 576.568 262.491C573.393 263.882 570.229 265.309 566.817 266.058C560.156 267.504 559.795 262.843 561.208 257.627L561.197 257.591Z" fill="url(#paint45_linear_1684_1160)"/>
<path style="mix-blend-mode:multiply" d="M579.18 283.634C582.308 280.507 585.79 277.946 589.304 275.376C592.444 273.081 595.618 270.895 598.792 268.708C598.857 268.688 598.91 268.632 598.963 268.575C604.76 265.609 610.387 262.099 615.928 258.655C605.031 263.535 594.081 268.471 584.318 275.503C580.686 278.15 577.123 281.015 574.525 284.931C573.543 286.431 572.244 288.389 572.35 290.424C572.496 293.044 575.227 293.742 577.13 293.942C583.704 294.591 589.671 292.168 595.368 288.994C590.934 290.66 586.221 291.775 581.685 291.642C575.734 291.514 574.96 287.341 579.158 283.561L579.18 283.634Z" fill="url(#paint46_linear_1684_1160)"/>
<path style="mix-blend-mode:multiply" d="M557.998 365.288C557.351 367.519 556.66 369.724 555.969 371.93C560.25 363.549 563.536 354.366 565.633 344.998C566.818 339.734 568.511 330.89 564.2 326.271C560.108 321.902 556.136 324.138 553.63 328.463C548.048 337.887 548.153 350.107 546.47 361.135C547.92 355.471 549.335 349.697 551.339 344.336C552.305 341.767 553.184 339.145 554.15 336.575C554.897 334.551 555.529 332.722 556.668 330.934C558.25 328.41 561.011 329.655 562.502 331.934C565.518 342.369 560.826 355.771 558.03 365.278L557.998 365.288Z" fill="url(#paint47_linear_1684_1160)"/>
<path style="mix-blend-mode:multiply" d="M591.058 373.448C591.895 370.918 592.645 368.337 593.124 365.68C594.17 359.744 593.956 352.61 591.57 346.792C589.61 341.995 584.881 336.154 579.816 338.971C575.812 341.218 573.811 346.14 572.627 350.727C571.555 354.882 571.025 359.185 570.603 363.494C570.976 361.746 571.394 360.025 571.866 358.365C573.446 352.779 575.515 345.249 580.735 342.702C586.17 340.047 589.393 346.28 590.731 351.351C592.531 358.466 592.375 366.114 591.047 373.411L591.058 373.448Z" fill="url(#paint48_linear_1684_1160)"/>
</g>
<path style="mix-blend-mode:screen" opacity="0.4" d="M420.09 119.994C424.062 122.849 428.029 125.348 431.6 128.846C434.952 132.094 437.869 135.876 440.902 139.463C446.879 146.465 452.494 153.78 458.268 160.925C458.565 161.31 458.803 160.599 458.68 160.319C451.005 142.908 441.131 116.994 420.338 117.052C418.988 117.037 419.141 119.336 420.058 120.004L420.09 119.994Z" fill="url(#paint49_radial_1684_1160)"/>
<path style="mix-blend-mode:screen" opacity="0.4" d="M593.504 170.428C599.168 173.829 607.601 172.385 610.748 180.073C611.005 180.669 611.565 180.534 611.664 179.946C613.89 168.389 601.893 157.302 593.108 165.54C591.872 166.682 591.88 169.424 593.493 170.392L593.504 170.428Z" fill="url(#paint50_radial_1684_1160)"/>
<path style="mix-blend-mode:screen" opacity="0.4" d="M553.219 154.901C556.946 155.048 559.702 155.26 563.241 157.296C566.606 159.228 568.108 165.163 568.563 168.88C568.636 169.454 569.153 169.411 569.287 168.932C570.804 163.484 571.536 153.151 566.902 148.632C561.557 143.422 554.688 145.451 552.161 151.97C551.828 152.83 551.966 154.855 553.219 154.901Z" fill="url(#paint51_radial_1684_1160)"/>
<path style="mix-blend-mode:screen" opacity="0.4" d="M518.894 143.716C521.586 145.42 524.395 144.104 527.24 144.487C530.529 144.93 535.147 147.703 536.964 150.795C537.185 151.163 537.493 150.788 537.478 150.515C537.539 145.165 535.096 139.165 530.734 136.194C526.087 132.992 519.661 134.286 517.954 140.031C517.573 141.304 517.662 142.947 518.894 143.716Z" fill="url(#paint52_radial_1684_1160)"/>
<path style="mix-blend-mode:screen" opacity="0.4" d="M486.2 133.333C488.267 134.397 490.872 134.577 493.107 134.594C495.979 134.611 498.131 136.285 500.32 138.306C500.725 138.696 501.071 137.991 500.946 137.593C499.927 133.655 498.726 129.814 496.206 126.623C493.489 123.256 488.881 121.196 485.419 123.592C482.736 125.425 483.089 131.76 486.2 133.333Z" fill="url(#paint53_radial_1684_1160)"/>
<path style="mix-blend-mode:screen" opacity="0.4" d="M639.779 219.37C644.714 218.741 649.518 217.239 654.384 216.274C658.517 215.459 666.924 215.177 670.068 219.008C670.299 219.293 670.465 218.804 670.44 218.613C669.098 211.832 663.716 208.542 657.886 207.103C650.692 205.375 642.533 209.955 638.473 215.76C637.67 216.927 638.065 219.548 639.768 219.334L639.779 219.37Z" fill="url(#paint54_radial_1684_1160)"/>
<path style="mix-blend-mode:screen" opacity="0.4" d="M664.724 256.921C667.598 257.056 670.412 256.773 673.287 257.027C676.195 257.272 679.036 258.094 681.953 258.256C687.14 258.543 695.276 258.982 699.694 262.812C699.99 263.078 700.199 262.615 700.14 262.315C696.448 244.056 674.511 246.341 664.263 254.201C663.579 254.733 663.6 256.835 664.713 256.884L664.724 256.921Z" fill="url(#paint55_radial_1684_1160)"/>
<path style="mix-blend-mode:screen" opacity="0.4" d="M696.891 313.377C701.059 312.67 705.206 311.333 709.35 310.435C713.159 309.602 719.569 307.916 723.348 310.155C723.697 310.364 723.817 309.73 723.706 309.486C718.007 296.47 702.724 304.074 696.091 310.365C695.271 311.139 695.384 313.65 696.891 313.377Z" fill="url(#paint56_radial_1684_1160)"/>
<path style="mix-blend-mode:screen" opacity="0.4" d="M689.518 333.824C695.175 336.749 701.186 339.444 707.11 341.411C711.982 343.069 717.825 346.135 721.65 349.992C721.847 350.169 721.982 349.808 721.925 349.627C715.296 335.787 702.89 331.313 689.798 330.872C688.545 330.826 688.463 333.279 689.518 333.824Z" fill="url(#paint57_radial_1684_1160)"/>
<path style="mix-blend-mode:screen" opacity="0.4" d="M675.632 368.759C675.981 368.969 676.099 368.215 675.923 367.992C673.707 364.866 671.153 361.567 667.752 360.085C666.437 359.501 665.955 361.92 666.67 362.85C669.135 365.978 672.431 366.896 675.632 368.759Z" fill="url(#paint58_radial_1684_1160)"/>
<path style="mix-blend-mode:screen" opacity="0.4" d="M616.484 337.728C620.576 341.421 624.817 344.909 628.909 348.601C632.936 352.196 636.7 356.31 640.99 359.503C641.503 359.9 641.694 358.925 641.365 358.551C637.447 354.286 634.351 349.366 630.263 345.234C626.175 341.102 622.144 337.947 617.161 335.368C616.03 334.807 615.751 337.082 616.484 337.728Z" fill="url(#paint59_radial_1684_1160)"/>
<defs>
<radialGradient id="paint0_radial_1684_1160" cx="0" cy="0" r="1" gradientUnits="userSpaceOnUse" gradientTransform="translate(159.304 315.812) rotate(-52.1483) scale(65.5915 65.5932)">
<stop offset="0.07" stop-color="#E3F895"/>
<stop offset="0.5" stop-color="#B8E368"/>
<stop offset="1" stop-color="#89B341"/>
</radialGradient>
<radialGradient id="paint1_radial_1684_1160" cx="0" cy="0" r="1" gradientUnits="userSpaceOnUse" gradientTransform="translate(261.704 301.384) rotate(-52.1483) scale(73.9215 73.9235)">
<stop offset="0.07" stop-color="#E3F895"/>
<stop offset="0.5" stop-color="#B8E368"/>
<stop offset="1" stop-color="#89B341"/>
</radialGradient>
<radialGradient id="paint2_radial_1684_1160" cx="0" cy="0" r="1" gradientUnits="userSpaceOnUse" gradientTransform="translate(210.608 364) rotate(-52.1484) scale(62.1548 62.1563)">
<stop offset="0.07" stop-color="#E3F895"/>
<stop offset="0.5" stop-color="#B8E368"/>
<stop offset="1" stop-color="#89B341"/>
</radialGradient>
<radialGradient id="paint3_radial_1684_1160" cx="0" cy="0" r="1" gradientUnits="userSpaceOnUse" gradientTransform="translate(267.548 394.586) rotate(-52.1483) scale(73.339 73.3409)">
<stop offset="0.07" stop-color="#E3F895"/>
<stop offset="0.5" stop-color="#B8E368"/>
<stop offset="1" stop-color="#89B341"/>
</radialGradient>
<radialGradient id="paint4_radial_1684_1160" cx="0" cy="0" r="1" gradientUnits="userSpaceOnUse" gradientTransform="translate(337.372 302.555) rotate(-52.1483) scale(75.9021 75.9041)">
<stop offset="0.25" stop-color="#B8E368"/>
<stop offset="1" stop-color="#628F23"/>
</radialGradient>
<radialGradient id="paint5_radial_1684_1160" cx="0" cy="0" r="1" gradientUnits="userSpaceOnUse" gradientTransform="translate(411.157 327.416) rotate(-52.1484) scale(70.3682 70.37)">
<stop offset="0.25" stop-color="#B8E368"/>
<stop offset="1" stop-color="#628F23"/>
</radialGradient>
<radialGradient id="paint6_radial_1684_1160" cx="0" cy="0" r="1" gradientUnits="userSpaceOnUse" gradientTransform="translate(420.038 431.237) rotate(-52.1483) scale(74.3876 74.3895)">
<stop offset="0.25" stop-color="#B8E368"/>
<stop offset="1" stop-color="#628F23"/>
</radialGradient>
<radialGradient id="paint7_radial_1684_1160" cx="0" cy="0" r="1" gradientUnits="userSpaceOnUse" gradientTransform="translate(341.124 418.768) rotate(-52.1483) scale(73.7468 73.7487)">
<stop offset="0.25" stop-color="#B8E368"/>
<stop offset="1" stop-color="#628F23"/>
</radialGradient>
<radialGradient id="paint8_radial_1684_1160" cx="0" cy="0" r="1" gradientUnits="userSpaceOnUse" gradientTransform="translate(507.093 343.519) rotate(-52.1483) scale(70.1934 70.1952)">
<stop offset="0.25" stop-color="#B8E368"/>
<stop offset="1" stop-color="#628F23"/>
</radialGradient>
<radialGradient id="paint9_radial_1684_1160" cx="0" cy="0" r="1" gradientUnits="userSpaceOnUse" gradientTransform="translate(518.318 444.514) rotate(-52.1483) scale(77.6497 77.6517)">
<stop offset="0.25" stop-color="#B8E368"/>
<stop offset="1" stop-color="#628F23"/>
</radialGradient>
<radialGradient id="paint10_radial_1684_1160" cx="0" cy="0" r="1" gradientUnits="userSpaceOnUse" gradientTransform="translate(596.956 434.935) rotate(-52.1483) scale(62.8537 62.8553)">
<stop offset="0.25" stop-color="#B8E368"/>
<stop offset="1" stop-color="#628F23"/>
</radialGradient>
<radialGradient id="paint11_radial_1684_1160" cx="0" cy="0" r="1" gradientUnits="userSpaceOnUse" gradientTransform="translate(632.572 368.409) rotate(-52.1483) scale(65.2421 65.2437)">
<stop offset="0.1" stop-color="#AADB59"/>
<stop offset="1" stop-color="#3D7411"/>
</radialGradient>
<radialGradient id="paint12_radial_1684_1160" cx="0" cy="0" r="1" gradientUnits="userSpaceOnUse" gradientTransform="translate(678.627 436.267) rotate(-52.1483) scale(59.7664 59.7679)">
<stop offset="0.1" stop-color="#AADB59"/>
<stop offset="1" stop-color="#3D7411"/>
</radialGradient>
<radialGradient id="paint13_radial_1684_1160" cx="0" cy="0" r="1" gradientUnits="userSpaceOnUse" gradientTransform="translate(708.099 362.167) rotate(-52.1483) scale(49.9218 49.9231)">
<stop offset="0.1" stop-color="#AADB59"/>
<stop offset="1" stop-color="#3D7411"/>
</radialGradient>
<radialGradient id="paint14_radial_1684_1160" cx="0" cy="0" r="1" gradientUnits="userSpaceOnUse" gradientTransform="translate(-148.406 334.83) rotate(177.126) scale(428.201 428.112)">
<stop offset="0.1" stop-color="#AADB59"/>
<stop offset="1" stop-color="#3D7411"/>
</radialGradient>
<radialGradient id="paint15_radial_1684_1160" cx="0" cy="0" r="1" gradientUnits="userSpaceOnUse" gradientTransform="translate(336.522 433.043) rotate(-52.1483) scale(458.151 458.162)">
<stop offset="0.1" stop-color="#AADB59"/>
<stop offset="1" stop-color="#3D7411"/>
</radialGradient>
<radialGradient id="paint16_radial_1684_1160" cx="0" cy="0" r="1" gradientUnits="userSpaceOnUse" gradientTransform="translate(527.566 352.488) rotate(-52.1483) scale(409.277 409.288)">
<stop offset="0.1" stop-color="#AADB59"/>
<stop offset="1" stop-color="#3D7411"/>
</radialGradient>
<radialGradient id="paint17_radial_1684_1160" cx="0" cy="0" r="1" gradientUnits="userSpaceOnUse" gradientTransform="translate(956.896 290.553) rotate(-52.1483) scale(535.392 535.406)">
<stop offset="0.1" stop-color="#AADB59"/>
<stop offset="1" stop-color="#3D7411"/>
</radialGradient>
<radialGradient id="paint18_radial_1684_1160" cx="0" cy="0" r="1" gradientUnits="userSpaceOnUse" gradientTransform="translate(98.2963 466.435) rotate(177.126) scale(355.406 355.333)">
<stop stop-color="#639221"/>
<stop offset="1" stop-color="#53590B"/>
</radialGradient>
<radialGradient id="paint19_radial_1684_1160" cx="0" cy="0" r="1" gradientUnits="userSpaceOnUse" gradientTransform="translate(144.903 400.321) rotate(178.895) scale(234.025 235.536)">
<stop offset="0.25" stop-color="#B8E368"/>
<stop offset="1" stop-color="#628F23"/>
</radialGradient>
<radialGradient id="paint20_radial_1684_1160" cx="0" cy="0" r="1" gradientUnits="userSpaceOnUse" gradientTransform="translate(-236.613 404.344) rotate(177.126) scale(41.3345 41.3259)">
<stop offset="0.1" stop-color="#F5FAE0"/>
<stop offset="1" stop-color="#CCEE7A"/>
</radialGradient>
<radialGradient id="paint21_radial_1684_1160" cx="0" cy="0" r="1" gradientUnits="userSpaceOnUse" gradientTransform="translate(-129.038 384.246) rotate(177.126) scale(38.1011 38.0932)">
<stop offset="0.1" stop-color="#F5FAE0"/>
<stop offset="1" stop-color="#CCEE7A"/>
</radialGradient>
<radialGradient id="paint22_radial_1684_1160" cx="0" cy="0" r="1" gradientUnits="userSpaceOnUse" gradientTransform="translate(-58.7175 380.191) rotate(177.126) scale(41.7714 41.7628)">
<stop offset="0.1" stop-color="#F5FAE0"/>
<stop offset="1" stop-color="#CCEE7A"/>
</radialGradient>
<radialGradient id="paint23_radial_1684_1160" cx="0" cy="0" r="1" gradientUnits="userSpaceOnUse" gradientTransform="translate(17.216 406.033) rotate(177.126) scale(34.8678 34.8606)">
<stop offset="0.1" stop-color="#F5FAE0"/>
<stop offset="1" stop-color="#CCEE7A"/>
</radialGradient>
<radialGradient id="paint24_radial_1684_1160" cx="0" cy="0" r="1" gradientUnits="userSpaceOnUse" gradientTransform="translate(122.46 426.643) rotate(177.126) scale(37.402 37.3943)">
<stop offset="0.1" stop-color="#F5FAE0"/>
<stop offset="1" stop-color="#CCEE7A"/>
</radialGradient>
<radialGradient id="paint25_radial_1684_1160" cx="0" cy="0" r="1" gradientUnits="userSpaceOnUse" gradientTransform="translate(-190.308 465.705) rotate(177.126) scale(31.1975 31.1912)">
<stop offset="0.1" stop-color="#F5FAE0"/>
<stop offset="1" stop-color="#CCEE7A"/>
</radialGradient>
<radialGradient id="paint26_radial_1684_1160" cx="0" cy="0" r="1" gradientUnits="userSpaceOnUse" gradientTransform="translate(-124.586 499.058) rotate(177.126) scale(36.7029 36.6953)">
<stop offset="0.1" stop-color="#F5FAE0"/>
<stop offset="1" stop-color="#CCEE7A"/>
</radialGradient>
<radialGradient id="paint27_radial_1684_1160" cx="0" cy="0" r="1" gradientUnits="userSpaceOnUse" gradientTransform="translate(-62.4306 522.357) rotate(177.126) scale(35.3047 35.2975)">
<stop offset="0.1" stop-color="#F5FAE0"/>
<stop offset="1" stop-color="#CCEE7A"/>
</radialGradient>
<radialGradient id="paint28_radial_1684_1160" cx="0" cy="0" r="1" gradientUnits="userSpaceOnUse" gradientTransform="translate(22.5063 527.102) rotate(177.126) scale(24.8182 24.8131)">
<stop offset="0.1" stop-color="#F5FAE0"/>
<stop offset="1" stop-color="#CCEE7A"/>
</radialGradient>
<radialGradient id="paint29_radial_1684_1160" cx="0" cy="0" r="1" gradientUnits="userSpaceOnUse" gradientTransform="translate(124.614 528.799) rotate(177.126) scale(14.3316 14.3287)">
<stop offset="0.1" stop-color="#F5FAE0"/>
<stop offset="1" stop-color="#CCEE7A"/>
</radialGradient>
<linearGradient id="paint30_linear_1684_1160" x1="615.541" y1="175.931" x2="451.027" y2="346.412" gradientUnits="userSpaceOnUse">
<stop offset="0.22" stop-color="#63A71F"/>
<stop offset="0.51" stop-color="#006D20"/>
<stop offset="0.87" stop-color="#272F1B"/>
</linearGradient>
<linearGradient id="paint31_linear_1684_1160" x1="587.052" y1="228.633" x2="377.323" y2="392.979" gradientUnits="userSpaceOnUse">
<stop offset="0.22" stop-color="#63A71F"/>
<stop offset="0.51" stop-color="#006D20"/>
<stop offset="0.87" stop-color="#272F1B"/>
</linearGradient>
<linearGradient id="paint32_linear_1684_1160" x1="344.462" y1="49.9682" x2="628.242" y2="323.581" gradientUnits="userSpaceOnUse">
<stop stop-color="#F1EEC2"/>
<stop offset="0.13" stop-color="#CADA95"/>
<stop offset="0.33" stop-color="#92BE55"/>
<stop offset="0.48" stop-color="#70AD2E"/>
<stop offset="0.55" stop-color="#63A71F"/>
<stop offset="0.66" stop-color="#78B138"/>
<stop offset="0.87" stop-color="#B0CD78"/>
<stop offset="1" stop-color="#D5E0A2"/>
</linearGradient>
<linearGradient id="paint33_linear_1684_1160" x1="684.43" y1="242.414" x2="519.933" y2="412.924" gradientUnits="userSpaceOnUse">
<stop offset="0.22" stop-color="#63A71F"/>
<stop offset="0.51" stop-color="#006D20"/>
<stop offset="0.87" stop-color="#272F1B"/>
</linearGradient>
<linearGradient id="paint34_linear_1684_1160" x1="682.938" y1="240.955" x2="518.423" y2="411.436" gradientUnits="userSpaceOnUse">
<stop offset="0.22" stop-color="#63A71F"/>
<stop offset="0.51" stop-color="#006D20"/>
<stop offset="0.87" stop-color="#272F1B"/>
</linearGradient>
<linearGradient id="paint35_linear_1684_1160" x1="634.671" y1="194.387" x2="470.174" y2="364.897" gradientUnits="userSpaceOnUse">
<stop offset="0.22" stop-color="#63A71F"/>
<stop offset="0.51" stop-color="#006D20"/>
<stop offset="0.87" stop-color="#272F1B"/>
</linearGradient>
<linearGradient id="paint36_linear_1684_1160" x1="605.673" y1="166.399" x2="441.132" y2="336.902" gradientUnits="userSpaceOnUse">
<stop offset="0.22" stop-color="#63A71F"/>
<stop offset="0.51" stop-color="#006D20"/>
<stop offset="0.87" stop-color="#272F1B"/>
</linearGradient>
<linearGradient id="paint37_linear_1684_1160" x1="563.611" y1="125.803" x2="399.07" y2="296.305" gradientUnits="userSpaceOnUse">
<stop offset="0.22" stop-color="#63A71F"/>
<stop offset="0.51" stop-color="#006D20"/>
<stop offset="0.87" stop-color="#272F1B"/>
</linearGradient>
<linearGradient id="paint38_linear_1684_1160" x1="537.951" y1="101.017" x2="373.41" y2="271.519" gradientUnits="userSpaceOnUse">
<stop offset="0.22" stop-color="#63A71F"/>
<stop offset="0.51" stop-color="#006D20"/>
<stop offset="0.87" stop-color="#272F1B"/>
</linearGradient>
<linearGradient id="paint39_linear_1684_1160" x1="538.649" y1="101.74" x2="374.162" y2="272.2" gradientUnits="userSpaceOnUse">
<stop offset="0.22" stop-color="#63A71F"/>
<stop offset="0.51" stop-color="#006D20"/>
<stop offset="0.87" stop-color="#272F1B"/>
</linearGradient>
<linearGradient id="paint40_linear_1684_1160" x1="616.964" y1="177.301" x2="452.449" y2="347.782" gradientUnits="userSpaceOnUse">
<stop offset="0.22" stop-color="#63A71F"/>
<stop offset="0.51" stop-color="#006D20"/>
<stop offset="0.87" stop-color="#272F1B"/>
</linearGradient>
<linearGradient id="paint41_linear_1684_1160" x1="597.508" y1="158.539" x2="432.993" y2="329.019" gradientUnits="userSpaceOnUse">
<stop offset="0.22" stop-color="#63A71F"/>
<stop offset="0.51" stop-color="#006D20"/>
<stop offset="0.87" stop-color="#272F1B"/>
</linearGradient>
<linearGradient id="paint42_linear_1684_1160" x1="573.617" y1="135.511" x2="409.131" y2="305.971" gradientUnits="userSpaceOnUse">
<stop offset="0.22" stop-color="#63A71F"/>
<stop offset="0.51" stop-color="#006D20"/>
<stop offset="0.87" stop-color="#272F1B"/>
</linearGradient>
<linearGradient id="paint43_linear_1684_1160" x1="583.114" y1="144.624" x2="418.6" y2="315.106" gradientUnits="userSpaceOnUse">
<stop offset="0.22" stop-color="#63A71F"/>
<stop offset="0.51" stop-color="#006D20"/>
<stop offset="0.87" stop-color="#272F1B"/>
</linearGradient>
<linearGradient id="paint44_linear_1684_1160" x1="597.834" y1="158.845" x2="433.293" y2="329.347" gradientUnits="userSpaceOnUse">
<stop offset="0.22" stop-color="#63A71F"/>
<stop offset="0.51" stop-color="#006D20"/>
<stop offset="0.87" stop-color="#272F1B"/>
</linearGradient>
<linearGradient id="paint45_linear_1684_1160" x1="629.982" y1="189.851" x2="465.485" y2="360.361" gradientUnits="userSpaceOnUse">
<stop offset="0.22" stop-color="#63A71F"/>
<stop offset="0.51" stop-color="#006D20"/>
<stop offset="0.87" stop-color="#272F1B"/>
</linearGradient>
<linearGradient id="paint46_linear_1684_1160" x1="647.594" y1="206.871" x2="483.08" y2="377.353" gradientUnits="userSpaceOnUse">
<stop offset="0.22" stop-color="#63A71F"/>
<stop offset="0.51" stop-color="#006D20"/>
<stop offset="0.87" stop-color="#272F1B"/>
</linearGradient>
<linearGradient id="paint47_linear_1684_1160" x1="658.535" y1="217.438" x2="494.048" y2="387.898" gradientUnits="userSpaceOnUse">
<stop offset="0.22" stop-color="#63A71F"/>
<stop offset="0.51" stop-color="#006D20"/>
<stop offset="0.87" stop-color="#272F1B"/>
</linearGradient>
<linearGradient id="paint48_linear_1684_1160" x1="678.436" y1="236.601" x2="513.912" y2="407.131" gradientUnits="userSpaceOnUse">
<stop offset="0.22" stop-color="#63A71F"/>
<stop offset="0.51" stop-color="#006D20"/>
<stop offset="0.87" stop-color="#272F1B"/>
</linearGradient>
<radialGradient id="paint49_radial_1684_1160" cx="0" cy="0" r="1" gradientUnits="userSpaceOnUse" gradientTransform="translate(445.789 130.525) rotate(137.095) scale(31.3893 33.9148)">
<stop offset="0.17" stop-color="#E6FBB7"/>
<stop offset="0.65" stop-color="#006839"/>
<stop offset="0.74" stop-color="#004224"/>
<stop offset="0.87" stop-color="#00120A"/>
<stop offset="0.93"/>
</radialGradient>
<radialGradient id="paint50_radial_1684_1160" cx="0" cy="0" r="1" gradientUnits="userSpaceOnUse" gradientTransform="translate(607.065 164.957) rotate(137.095) scale(22.3162 24.1117)">
<stop offset="0.17" stop-color="#E6FBB7"/>
<stop offset="0.65" stop-color="#006839"/>
<stop offset="0.74" stop-color="#004224"/>
<stop offset="0.87" stop-color="#00120A"/>
<stop offset="0.93"/>
</radialGradient>
<radialGradient id="paint51_radial_1684_1160" cx="0" cy="0" r="1" gradientUnits="userSpaceOnUse" gradientTransform="translate(565.224 145.986) rotate(137.094) scale(22.6827 24.5078)">
<stop offset="0.17" stop-color="#E6FBB7"/>
<stop offset="0.65" stop-color="#006839"/>
<stop offset="0.74" stop-color="#004224"/>
<stop offset="0.87" stop-color="#00120A"/>
<stop offset="0.93"/>
</radialGradient>
<radialGradient id="paint52_radial_1684_1160" cx="0" cy="0" r="1" gradientUnits="userSpaceOnUse" gradientTransform="translate(525.036 136.157) rotate(137.095) scale(21.308 23.0225)">
<stop offset="0.17" stop-color="#E6FBB7"/>
<stop offset="0.65" stop-color="#006839"/>
<stop offset="0.74" stop-color="#004224"/>
<stop offset="0.87" stop-color="#00120A"/>
<stop offset="0.93"/>
</radialGradient>
<radialGradient id="paint53_radial_1684_1160" cx="0" cy="0" r="1" gradientUnits="userSpaceOnUse" gradientTransform="translate(487.12 121.38) rotate(137.095) scale(20.4374 22.0818)">
<stop offset="0.17" stop-color="#E6FBB7"/>
<stop offset="0.65" stop-color="#006839"/>
<stop offset="0.74" stop-color="#004224"/>
<stop offset="0.87" stop-color="#00120A"/>
<stop offset="0.93"/>
</radialGradient>
<radialGradient id="paint54_radial_1684_1160" cx="0" cy="0" r="1" gradientUnits="userSpaceOnUse" gradientTransform="translate(654.002 205.756) rotate(137.095) scale(22.9577 24.8049)">
<stop offset="0.17" stop-color="#E6FBB7"/>
<stop offset="0.65" stop-color="#006839"/>
<stop offset="0.74" stop-color="#004224"/>
<stop offset="0.87" stop-color="#00120A"/>
<stop offset="0.93"/>
</radialGradient>
<radialGradient id="paint55_radial_1684_1160" cx="0" cy="0" r="1" gradientUnits="userSpaceOnUse" gradientTransform="translate(684.207 250.076) rotate(137.095) scale(22.7744 24.6068)">
<stop offset="0.17" stop-color="#E6FBB7"/>
<stop offset="0.65" stop-color="#006839"/>
<stop offset="0.74" stop-color="#004224"/>
<stop offset="0.87" stop-color="#00120A"/>
<stop offset="0.93"/>
</radialGradient>
<radialGradient id="paint56_radial_1684_1160" cx="0" cy="0" r="1" gradientUnits="userSpaceOnUse" gradientTransform="translate(706.695 296.024) rotate(137.095) scale(29.0522 31.3897)">
<stop offset="0.17" stop-color="#E6FBB7"/>
<stop offset="0.65" stop-color="#006839"/>
<stop offset="0.74" stop-color="#004224"/>
<stop offset="0.87" stop-color="#00120A"/>
<stop offset="0.93"/>
</radialGradient>
<radialGradient id="paint57_radial_1684_1160" cx="0" cy="0" r="1" gradientUnits="userSpaceOnUse" gradientTransform="translate(703.614 343.838) rotate(137.095) scale(13.2431 14.3086)">
<stop offset="0.17" stop-color="#E6FBB7"/>
<stop offset="0.65" stop-color="#006839"/>
<stop offset="0.74" stop-color="#004224"/>
<stop offset="0.87" stop-color="#00120A"/>
<stop offset="0.93"/>
</radialGradient>
<radialGradient id="paint58_radial_1684_1160" cx="0" cy="0" r="1" gradientUnits="userSpaceOnUse" gradientTransform="translate(669.112 368.064) rotate(137.095) scale(4.30744 4.65401)">
<stop offset="0.17" stop-color="#E6FBB7"/>
<stop offset="0.65" stop-color="#006839"/>
<stop offset="0.74" stop-color="#004224"/>
<stop offset="0.87" stop-color="#00120A"/>
<stop offset="0.93"/>
</radialGradient>
<radialGradient id="paint59_radial_1684_1160" cx="0" cy="0" r="1" gradientUnits="userSpaceOnUse" gradientTransform="translate(626.742 350.936) rotate(137.095) scale(11.5934 12.5262)">
<stop offset="0.17" stop-color="#E6FBB7"/>
<stop offset="0.65" stop-color="#006839"/>
<stop offset="0.74" stop-color="#004224"/>
<stop offset="0.87" stop-color="#00120A"/>
<stop offset="0.93"/>
</radialGradient>
</defs>
</svg>
