<svg width="392" height="528" viewBox="0 0 392 528" fill="none" xmlns="http://www.w3.org/2000/svg">
<path d="M247.36 219.332C254.696 214.645 262.031 210.196 269.84 206.362C284.748 199.072 298.946 189.605 313.475 181.51C328.288 173.226 342.676 162.86 356.069 152.493C364.256 146.15 377.792 135.073 372.491 123.144C367.096 111.026 345.941 116.423 336.949 118.884C329.661 120.825 323.319 122.955 316.835 126.931C310.446 130.86 304.767 135.594 298.662 139.949C285.221 149.511 273.579 162.386 262.173 174.173C255.831 180.753 249.679 187.853 242.817 193.817C240.072 196.184 237.469 198.598 234.724 200.918C232.594 202.764 230.748 204.421 228.24 205.841C224.738 207.782 221.993 204.847 221.425 201.439C223.697 188.09 237.516 175.735 246.603 166.646C261.511 151.783 277.507 138.008 293.267 123.996C302.921 115.381 312.576 106.719 321.994 97.8668C328.998 91.2871 336.381 84.7074 338.889 75.0508C341.066 66.7669 339.41 57.9624 329.945 55.3589C314.327 51.0986 298.189 65.1575 287.919 75.2874C274.715 88.3049 265.723 105.299 256.399 121.109C253.938 125.322 252.045 129.771 249.3 133.842C241.87 144.777 234.203 157.132 224.927 166.599C219.674 171.948 212.622 179.191 204.482 179.096C196.011 179.001 195.538 170.244 196.863 163.806C200.034 148.327 211.723 134.505 223.507 124.612C228.382 120.494 233.588 116.801 239.315 114.009C243.385 112.02 248.212 110.127 250.152 105.677C251.43 102.742 251.146 99.713 247.881 98.6716C242.533 96.9201 235.055 101.512 229.802 102.458C227.672 102.837 222.94 104.873 222.608 101.701C222.419 100.044 226.016 96.8255 227.199 95.7841C232.263 91.3344 239.315 89.583 245.42 86.9795C252.613 83.9027 259.902 81.0151 267.379 78.601C272.538 76.9916 277.886 75.7608 282.666 73.1573C287.919 70.3172 290.522 68.613 294.403 63.8794C297.337 60.2819 299.183 56.5423 298.993 51.856C298.283 37.0871 274.715 47.8798 268.468 51.5247C264.729 53.7021 261.511 56.779 257.677 58.8618C251.193 62.3647 248.78 57.631 253.654 52.14C258.103 47.1224 263.167 42.7674 268.326 38.5072C275.803 32.3535 282.524 26.0104 285.553 16.4485C287.919 8.8747 283.991 1.4429 276.324 0.212162C267.284 -1.16059 259.192 4.37775 252.471 9.63207C244.71 15.6438 238.605 25.5844 233.825 34.0102C227.672 44.8976 225.779 57.3943 220.573 68.613C216.409 72.4946 214.184 72.4946 213.995 68.7077C213.853 67.619 213.758 66.5302 213.806 65.3942C213.806 63.7374 213.758 62.0806 213.569 60.4239C213.19 57.0157 210.587 56.637 207.89 57.8204C202.069 60.4239 200.791 68.3764 199.418 73.8674C196.531 85.3701 199.324 97.6775 199.087 109.417C198.992 113.914 199.939 124.517 195.017 126.931C190.095 129.345 189.527 115.807 188.628 113.488C188.06 111.973 187.729 109.18 185.978 108.328C183.138 107.003 179.21 108.186 177.837 111.358C175.045 117.937 176.134 124.564 177.601 131.428C179.494 140.327 181.434 149.085 182.949 158.079C183.99 164.232 184.369 171.853 182.617 177.912C179.447 188.894 169.177 180.611 164.965 174.741C161.321 169.676 158.907 163.996 156.304 158.315C151.003 146.813 148.116 134.41 141.112 123.76C136.758 117.133 131.221 116.659 128.713 124.991C128.239 126.647 128.807 128.683 129.139 130.292C129.943 133.984 130.274 136.493 130.748 140.138C131.126 143.026 128.05 139.665 126.157 137.298C125.163 135.215 124.359 133.18 123.743 131.665C121.614 126.553 119.484 121.488 117.496 116.328C114.089 107.523 110.587 93.7959 100.648 90.009C93.4543 87.2635 93.9749 98.6716 94.5429 102.553C94.7795 104.305 95.2054 106.293 95.9626 107.855C97.6664 111.405 96.8145 114.624 93.4544 117.559C91.4193 117.18 89.6682 116.233 88.1538 114.813C84.9356 112.115 82.4273 108.849 79.635 105.772C71.5422 94.5533 64.6325 82.2932 50.3873 77.9383C41.8212 75.3348 31.504 78.885 27.3866 87.1215C25.0203 91.8078 24.8783 99.0976 27.0553 104.778C28.901 110.695 33.0184 115.618 37.4198 119.831C41.0166 123.286 44.6608 126.837 49.0148 129.345C51.0025 130.482 58.3381 132.99 57.0603 136.257C55.6405 139.854 49.8193 136.446 44.7081 132.754C44.3295 132.612 43.9509 132.47 43.6196 132.28C40.7327 130.908 37.9404 129.535 34.9115 128.493C29.4216 126.647 23.8844 125.559 18.1106 125.653C9.63916 125.843 2.25623 130.434 0.268519 138.86C-1.71919 147.333 7.7461 153.913 14.8924 155.238C20.4769 156.232 26.6294 155.664 32.2612 155.144C51.4758 153.487 71.2109 154.623 89.8102 159.972C109.687 165.7 127.435 176.918 144.851 187.758C150.246 191.119 155.547 195.001 160.374 199.166C163.024 201.439 174.525 210.148 172.963 214.361C171.685 217.722 162.409 216.918 159.806 216.728C154.08 216.302 148.495 214.929 142.863 214.03C142.343 213.935 141.869 213.888 141.396 213.841C135.528 212.847 129.659 211.947 123.885 210.622C115.414 208.681 106.8 207.214 98.329 205.273C93.3597 204.137 88.0591 203.379 82.9005 202.243C68.2767 197.368 53.7474 190.362 38.4137 188.421C25.6828 186.812 9.87579 187.001 3.48672 199.64C1.83029 202.101 1.1204 204.752 1.1204 207.498C0.552477 211.805 1.1204 216.491 3.6287 219.758C3.91266 220.136 4.43325 220.799 5.09582 221.556C9.54451 229.13 20.0983 233.438 29.8002 235.521C40.8746 238.598 52.3276 238.74 63.8753 238.029C77.9786 237.177 91.7033 233.154 105.807 232.302C112.432 231.876 119.011 231.071 125.684 230.74C129.896 230.55 134.108 230.503 138.367 230.361C140.166 230.361 141.964 230.361 143.762 230.361C153.512 230.124 164.728 231.213 173.673 235.426C181.15 238.929 179.683 243.994 172.206 245.887C166.384 247.591 160.469 248.538 154.505 249.438C149.205 250.242 143.857 250.905 138.556 251.568C138.462 251.568 138.32 251.568 138.225 251.615C126.63 251.662 114.846 252.94 103.346 253.745C88.0591 254.787 73.104 254.55 57.8648 252.751C44.4241 251.189 31.7406 253.414 20.4296 260.893C14.8924 264.538 13.3306 270.36 15.1764 275.614C16.3595 281.531 21.8021 286.786 26.582 290.099C35.6687 296.395 45.9859 296.632 56.587 295.306C67.3775 293.934 77.2687 290.194 87.2072 286.36C91.23 285.176 95.2054 283.993 99.2755 282.999C109.072 280.679 118.869 277.792 128.76 275.804C140.071 273.532 151.571 270.502 163.166 270.975C167.994 271.165 172.868 271.402 177.601 272.443C194.307 276.23 173.625 290.809 167.804 294.454C160.895 298.809 153.559 302.123 146.081 305.247C132.641 310.88 118.632 314.336 104.955 319.401C86.4974 326.217 49.5827 341.27 64.4432 367.399C69.3178 375.967 80.9602 378.239 89.6682 374.689C101.878 369.719 111.154 360.157 120.194 350.784C126.346 344.394 133.587 338.666 140.686 333.317C147.123 328.442 153.228 323.14 160.137 318.927C166.242 315.188 172.442 312.158 179.021 309.413C183.564 307.519 195.443 303.59 195.064 312.442C194.686 321.957 182.049 328.773 175.802 334.169C168.419 340.512 160.421 346.003 151.997 350.926C134.486 361.151 115.083 370.098 106.942 390.121C104.055 397.221 102.115 407.399 107.747 413.742C112.906 419.564 121.708 418.57 128.287 416.156C147.359 409.15 156.588 389.316 166.763 373.269C173.105 363.281 180.251 350.642 190.426 344.063C193.029 342.406 195.963 341.128 198.898 342.737C202.968 344.962 204.861 349.08 203.11 353.199C200.791 358.548 197.809 362.666 194.26 367.21C190.474 372.086 184.368 376.062 179.731 380.086C174.288 384.819 168.325 388.937 163.024 393.813C155.499 400.772 147.17 409.387 143.526 419.185C142.721 421.41 142.106 423.872 141.822 426.38C140.355 433.15 140.875 440.108 145.371 445.031C146.697 446.451 148.211 447.445 149.773 448.013C155.547 450.569 163.687 446.877 168.325 443.848C178.784 437.078 183.895 424.582 188.486 413.6C193.834 400.63 199.229 387.091 207.653 375.731C210.019 372.559 213.238 365.269 217.592 364.749C225.968 363.755 224.265 377.435 223.507 381.932C221.851 391.541 216.551 399.683 210.824 407.304C199.466 422.404 182.901 438.688 181.387 458.664C181.008 463.776 182.523 469.314 185.504 473.527C188.628 477.977 195.822 481.527 201.075 479.35C215.888 473.196 216.645 447.066 219.958 434.049C222.135 425.434 222.845 411.328 233.162 407.825C244.899 403.848 246.603 423.588 247.313 430.641C249.632 452.889 246.319 475.184 252.519 497.053C256.541 511.16 266.385 527.633 282.855 527.869C297.479 528.106 302.353 514.805 302.022 502.308C301.738 490.9 299.608 480.533 296.485 469.598C292.273 454.64 285.553 440.771 277.696 427.374C273.484 420.179 268.562 413.458 264.587 406.168C262.741 402.807 261.085 399.351 259.381 395.896C258.576 394.239 254.222 384.961 259.807 385.056C261.842 385.056 264.161 386.523 265.912 387.423C278.548 393.908 285.789 406.357 297.005 414.357C301.218 419.469 306.613 424.534 311.677 427.99C315.652 430.735 324.266 431.161 328.809 430.167C334.488 428.937 339.173 424.96 341.303 419.517C347.077 404.558 332.69 391.257 321 384.63C312.86 380.038 304.104 376.961 295.349 373.79C286.546 370.524 277.081 367.683 268.562 363.707C260.706 360.062 242.107 344.82 246.461 334.548C247.171 333.317 248.449 332.229 250.72 331.519C255.5 329.956 260.044 331.519 264.208 333.838C271.118 337.672 278.217 341.98 284.653 346.572C298.047 356.086 312.481 365.695 327.815 371.66C336.476 375.021 351.715 378.997 356.873 368.441C362.411 365.269 360.707 355.565 357.583 350.642C349.727 338.288 337.328 335.731 324.408 331.282C311.156 326.738 296.864 324.844 283.328 321.152C276.182 319.211 269.036 317.27 261.889 315.188C258.15 314.099 254.601 312.679 251.052 311.069C247.928 309.649 245.704 307.614 243.905 305.152C242.911 300.182 244.236 297.058 247.975 295.827C250.578 294.596 253.512 294.17 256.352 294.265C263.688 294.502 272.064 298.431 278.974 300.608C291.989 304.726 304.625 309.886 317.545 314.146C330.702 318.454 343.622 321.531 357.536 319.921C366.812 318.88 377.555 312.442 379.07 302.643C379.306 301.129 379.448 299.945 379.448 298.904C382.382 288.159 369.036 281.91 360.802 279.827C353.561 277.981 346.225 278.597 338.842 278.029C332.406 277.508 325.827 277.224 319.391 277.035C304.246 276.514 289.007 276.94 273.863 276.703C266.906 276.609 260.044 276.088 253.087 276.277C246.319 276.467 237.989 275.283 235.055 269.555C234.677 266.195 234.771 262.455 236.806 260.467C239.977 257.295 246.177 256.822 250.389 256.112C259.192 254.645 268.184 254.692 277.128 254.881C294.403 255.26 311.251 259.189 328.478 259.425C349.301 259.757 392.747 256.396 391.895 227.047C391.516 213.746 373.769 211.521 363.83 210.29C356.211 209.344 348.118 210.764 340.64 211.853C332.879 212.941 325.023 214.125 317.451 216.065C301.454 220.231 286.215 226.195 270.881 232.16C262.978 235.237 254.98 237.225 246.745 239.166C243.053 240.065 239.315 240.68 235.576 241.106C231.695 241.532 229.66 240.349 228.808 238.361C229.092 229.604 241.302 223.261 247.455 219.332H247.36Z" fill="url(#paint0_linear_1684_1054)"/>
<path d="M247.36 219.332C254.696 214.645 262.031 210.196 269.84 206.362C284.748 199.072 298.946 189.605 313.475 181.51C328.288 173.226 342.676 162.86 356.069 152.493C364.257 146.15 377.792 135.073 372.491 123.144C367.096 111.026 345.941 116.423 336.949 118.884C329.661 120.825 323.319 122.955 316.835 126.931C310.446 130.86 304.767 135.594 298.662 139.949C285.221 149.511 273.579 162.386 262.173 174.173C255.832 180.753 249.679 187.853 242.817 193.817C240.072 196.184 237.469 198.598 234.724 200.918C232.594 202.764 230.749 204.421 228.24 205.841C224.738 207.782 221.993 204.847 221.425 201.439C223.697 188.09 237.516 175.735 246.603 166.646C261.511 151.783 277.507 138.008 293.267 123.996C302.921 115.381 312.576 106.719 321.994 97.8668C328.998 91.2871 336.381 84.7074 338.89 75.0508C341.067 66.7669 339.41 57.9624 329.945 55.3589C314.327 51.0986 298.189 65.1575 287.919 75.2874C274.715 88.3049 265.723 105.299 256.4 121.109C253.939 125.322 252.046 129.771 249.301 133.842C241.87 144.777 234.203 157.132 224.927 166.599C219.674 171.948 212.623 179.191 204.482 179.096C196.011 179.001 195.538 170.244 196.863 163.806C200.034 148.327 211.723 134.505 223.508 124.612C228.382 120.494 233.588 116.801 239.315 114.009C243.385 112.02 248.212 110.127 250.152 105.677C251.43 102.742 251.146 99.713 247.881 98.6716C242.533 96.9201 235.055 101.512 229.802 102.458C227.672 102.837 222.94 104.873 222.608 101.701C222.419 100.044 226.016 96.8255 227.199 95.7841C232.263 91.3344 239.315 89.583 245.42 86.9795C252.613 83.9027 259.902 81.0151 267.379 78.601C272.538 76.9916 277.886 75.7608 282.666 73.1573C287.919 70.3172 290.522 68.613 294.403 63.8794C297.337 60.2819 299.183 56.5423 298.993 51.856C298.283 37.0871 274.715 47.8798 268.468 51.5247C264.729 53.7021 261.511 56.779 257.677 58.8618C251.194 62.3647 248.78 57.631 253.655 52.14C258.103 47.1224 263.167 42.7674 268.326 38.5072C275.803 32.3535 282.524 26.0104 285.553 16.4485C287.919 8.8747 283.991 1.4429 276.324 0.212162C267.285 -1.16059 259.192 4.37775 252.471 9.63207C244.71 15.6438 238.605 25.5844 233.825 34.0102C227.672 44.8976 225.779 57.3943 220.573 68.613C216.409 72.4946 214.184 72.4946 213.995 68.7077C213.853 67.619 213.758 66.5302 213.806 65.3942C213.806 63.7374 213.758 62.0806 213.569 60.4239C213.19 57.0157 210.588 56.637 207.89 57.8204C202.069 60.4239 200.791 68.3764 199.418 73.8674C196.532 85.3701 199.324 97.6775 199.087 109.417C198.993 113.914 199.939 124.517 195.017 126.931C190.095 129.345 189.527 115.807 188.628 113.488C188.06 111.973 187.729 109.18 185.978 108.328C183.138 107.003 179.21 108.186 177.838 111.358C175.045 117.937 176.134 124.564 177.601 131.428C179.494 140.327 181.434 149.085 182.949 158.079C183.99 164.232 184.369 171.853 182.618 177.912C182.239 179.238 181.766 180.279 181.198 181.084C188.628 199.687 192.84 219.663 198.046 238.929C202.163 254.124 206.801 269.224 210.966 284.419C215.226 299.898 219.39 315.424 223.697 330.903C229.518 351.873 235.671 372.654 243.243 393.103C250.72 413.363 259.05 433.292 266.811 453.457C273.2 470.119 278.596 487.065 283.849 504.107C286.121 511.538 288.392 519.017 289.67 526.639C298.993 523.278 302.259 512.438 301.975 502.166C301.691 490.758 299.561 480.391 296.438 469.456C292.226 454.498 285.505 440.629 277.649 427.232C273.437 420.037 268.515 413.316 264.54 406.026C262.694 402.665 261.038 399.209 259.334 395.754C258.529 394.097 254.175 384.819 259.76 384.914C261.795 384.914 264.114 386.381 265.865 387.281C278.501 393.766 285.742 406.215 296.958 414.215C301.17 419.327 306.566 424.392 311.63 427.848C315.605 430.593 324.218 431.019 328.762 430.025C334.441 428.795 339.126 424.818 341.256 419.375C347.03 404.416 332.643 391.115 320.953 384.488C312.813 379.896 304.057 376.819 295.302 373.648C286.499 370.382 277.034 367.541 268.515 363.565C260.659 359.92 242.06 344.678 246.414 334.406C247.124 333.175 248.401 332.087 250.673 331.377C255.453 329.814 259.996 331.377 264.161 333.696C271.071 337.53 278.17 341.838 284.606 346.43C298 355.944 312.434 365.553 327.768 371.518C336.429 374.879 351.668 378.855 356.826 368.299C362.364 365.127 360.66 355.423 357.536 350.5C349.68 338.146 337.281 335.589 324.36 331.14C311.109 326.596 296.816 324.702 283.281 321.01C276.135 319.069 268.988 317.128 261.842 315.046C258.103 313.957 254.554 312.537 251.004 310.927C247.881 309.507 245.656 307.472 243.858 305.01C242.864 300.04 244.189 296.916 247.928 295.685C250.531 294.454 253.465 294.028 256.305 294.123C263.641 294.36 272.017 298.289 278.927 300.466C291.942 304.584 304.578 309.744 317.498 314.004C330.655 318.312 343.575 321.389 357.489 319.779C366.765 318.738 377.508 312.3 379.022 302.501C379.259 300.987 379.401 299.803 379.401 298.762C382.335 288.017 368.989 281.768 360.754 279.685C353.513 277.839 346.178 278.455 338.795 277.887C332.359 277.366 325.78 277.082 319.344 276.893C304.199 276.372 288.96 276.798 273.816 276.561C266.859 276.467 259.996 275.946 253.039 276.135C246.272 276.325 237.942 275.141 235.008 269.413C234.629 266.053 234.724 262.313 236.759 260.325C239.93 257.153 246.13 256.68 250.342 255.97C259.144 254.503 268.137 254.55 277.081 254.739C294.355 255.118 311.204 259.047 328.43 259.283C349.254 259.615 392.7 256.254 391.848 226.905C391.469 213.604 373.722 211.379 363.783 210.148C356.164 209.202 348.071 210.622 340.593 211.711C332.832 212.799 324.976 213.983 317.403 215.923C301.407 220.089 286.168 226.053 270.834 232.018C262.931 235.095 254.932 237.083 246.698 239.024C243.006 239.923 239.267 240.538 235.529 240.964C231.648 241.39 229.613 240.207 228.761 238.219C229.045 229.462 241.255 223.119 247.408 219.19L247.36 219.332Z" fill="url(#paint1_linear_1684_1054)"/>
<path d="M301.833 238.503C284.559 242.432 267.19 245.556 249.679 248.302C240.498 249.722 231.459 250.668 222.135 250.337C214.989 250.1 207.37 249.627 201.548 245.225C201.075 243.284 200.602 241.296 200.129 239.355C204.672 239.071 210.351 235.474 213.948 233.817C220.858 230.693 227.72 225.58 233.872 221.083C248.402 210.575 262.836 199.924 277.129 189.084C291.09 178.481 304.152 166.694 318.066 156.091C329.898 147.049 341.54 137.44 354.792 130.576C357.82 128.825 360.897 127.216 364.02 125.653C349.538 130.245 337.47 139.57 325.496 148.612C311.63 159.073 298.142 170.102 284.464 180.848C271.024 191.451 257.252 202.149 243.148 211.853C236.049 216.728 228.998 221.651 221.993 226.622C218.065 229.415 213.995 231.829 209.688 233.864C206.707 235.284 203.252 237.414 199.939 238.55C198.33 231.734 196.816 224.965 195.017 218.243C194.97 217.959 194.875 217.722 194.828 217.486C195.349 213.983 198.803 209.344 200.554 207.024C202.826 203.995 204.577 200.634 206.991 197.699C212.339 191.072 218.018 184.587 223.65 178.197C234.44 165.937 244.473 153.108 255.406 140.99C267.001 128.162 277.839 114.719 290.333 102.743C301.596 91.9501 312.008 79.2639 324.55 69.6547C325.402 68.85 326.159 67.9979 327.011 67.1932C313.002 76.2818 301.455 89.4886 289.623 100.991C276.466 113.725 264.966 127.878 252.661 141.416C246.603 148.091 240.356 154.955 235.008 162.197C229.234 170.008 222.135 176.824 216.125 184.445C210.966 191.025 204.861 196.753 200.413 203.948C198.519 207.024 195.443 210.906 194.023 214.788C193.503 213.084 192.935 211.332 192.414 209.628C191.894 207.119 191.326 204.658 190.711 202.196C189.291 187.38 190.663 172.09 194.26 157.747C198.993 139.002 204.151 120.257 212.481 102.695C229.566 66.7198 248.638 30.0816 280.016 4.42534C280.158 4.33067 280.11 3.99931 279.874 4.14132C264.303 15.5967 251.383 31.0283 240.735 47.0753C229.282 64.353 219.438 83.0035 210.919 101.891C202.873 119.689 196.342 138.387 192.367 157.511C190.285 167.451 188.581 177.392 188.013 187.522C187.871 190.078 188.06 192.587 188.439 195.048C186.924 191.12 186.451 186.954 184.889 183.072C184.369 181.842 183.612 179.001 181.861 179.049C180.535 179.049 179.447 181.132 179.447 182.315C179.447 183.972 181.056 184.824 181.861 186.149C182.807 187.759 183.564 189.51 184.274 191.309C185.647 194.812 186.593 198.504 187.682 202.102C188.344 204.232 189.007 206.409 189.622 208.539C187.066 204.989 183.848 201.817 180.772 198.788C175.519 193.676 169.934 188.989 164.16 184.398C149.442 172.8 135.055 161.014 119.011 151.12C104.34 142.079 89.148 133.843 74.3348 124.991C58.2911 115.381 40.307 104.447 30.5105 88.0212C30.4158 87.8791 30.2265 88.0685 30.2738 88.2105C37.3728 102.08 50.3403 112.731 63.3077 121.062C78.5942 130.908 94.6378 139.665 110.303 148.801C126.347 158.173 141.444 168.966 155.831 180.706C161.983 185.676 168.514 190.173 174.288 195.569C180.015 200.965 187.161 206.646 191.184 213.746C192.462 218.006 193.645 222.267 194.781 226.574C195.491 229.32 196.153 232.018 196.768 234.764C192.84 231.213 186.309 228.799 182.003 226.953C175.329 224.113 167.284 222.551 160.138 221.557C142.816 219.095 126.015 217.864 108.552 217.202C90.8517 216.539 73.1516 216.87 55.4988 215.261C38.8399 213.699 21.7551 212.279 6.37396 205.178C6.27931 205.178 6.23198 205.32 6.27931 205.32C18.8682 212.468 33.1134 215.166 47.4533 216.492C65.0588 218.101 82.9482 219.048 100.648 219.048C117.165 219.048 133.682 219.332 150.057 221.746C158.529 222.977 166.858 224.728 175.188 226.811C181.34 228.326 192.462 231.687 197.289 236.799C198.141 240.444 198.993 244.089 199.845 247.734C195.254 247.497 190.332 249.769 186.12 251.189C178.737 253.698 171.212 255.733 163.829 258.195C149.3 262.976 133.162 264.254 118.112 266.715C101.831 269.414 85.6458 272.443 69.3182 274.857C54.363 277.082 37.5621 278.36 22.7489 274.573C22.7489 274.573 22.6543 274.668 22.7489 274.668C35.2904 278.739 48.6838 278.171 61.6986 277.555C77.9316 276.751 94.2592 273.295 110.208 270.36C126.252 267.426 142.722 265.863 158.529 261.745C165.391 259.946 172.159 258.006 178.879 255.686C184.937 253.651 193.881 249.106 200.413 250.148C201.927 256.349 203.583 262.503 205.666 268.609C205.95 269.556 206.281 270.502 206.565 271.449C200.271 285.461 184.227 294.597 171.543 302.123C159.522 309.271 146.65 314.62 134.155 320.868C121.33 327.306 108.788 334.075 97.0515 342.311C86.1664 349.933 75.092 358.358 68.4663 370.098C68.419 370.193 68.5136 370.335 68.6083 370.192C77.6476 356.796 92.1769 347.424 105.665 338.903C118.017 331.045 131.552 324.797 144.804 318.643C157.156 312.916 169.366 306.904 180.772 299.377C191.137 292.514 202.022 284.845 207.228 273.295C210.256 282.668 212.812 292.23 215.415 301.744C203.82 325.554 179.4 340.56 159.191 356.512C149.395 364.275 140.261 372.843 131.931 382.216C127.766 386.855 123.744 391.872 120.336 397.079C118.68 399.636 117.118 402.239 115.651 404.937C114.515 407.02 113.994 410.192 112.575 412.085C112.527 412.18 112.575 412.274 112.669 412.18C113.474 411.328 113.852 410.239 114.373 409.103C116.219 405.079 118.727 401.387 121.283 397.79C125.353 392.157 129.849 386.713 134.534 381.553C144.567 370.477 156.257 361.151 167.947 351.873C179.258 342.927 190.569 334.359 201.028 324.418C206.423 319.306 213.427 312.064 216.172 304.442C216.645 306.241 217.166 308.04 217.639 309.839C220.1 318.549 222.845 327.259 225.638 335.874C222.609 345.672 214.516 353.956 208.505 361.909C201.217 371.613 192.651 380.417 185.079 389.932C178.122 398.736 171.212 407.73 165.296 417.292C161.983 422.594 159.286 428.274 156.825 434.002C155.5 437.079 155.121 441.765 153.37 444.51C153.275 444.652 153.417 444.794 153.559 444.652C155.689 441.86 156.162 437.694 157.629 434.428C160.185 428.747 163.261 423.256 166.621 418.002C173.862 406.689 182.286 396.18 190.663 385.671C198.141 376.252 206.092 367.21 213.617 357.838C218.397 351.873 223.934 345.246 226.205 337.767C228.051 343.4 229.897 349.033 231.743 354.666C233.162 358.974 234.488 363.329 235.813 367.684C231.695 386.665 219.911 403.707 210.872 420.842C202.164 437.41 193.172 455.208 191.61 474.143C191.61 474.238 191.704 474.143 191.704 474.143C194.639 452.652 206.612 432.582 216.645 413.647C221.662 404.275 226.489 394.76 231.553 385.435C233.73 381.459 236.097 376.441 236.949 371.518C243.716 394.05 249.821 416.819 257.914 438.877C263.593 454.309 268.373 470.025 274.147 485.362C276.655 492.036 279.637 498.616 281.53 505.479C283.376 512.059 286.31 519.349 289.528 525.361C289.718 525.692 290.049 525.219 290.002 524.982C279.732 495.918 270.456 466.285 259.713 437.315C249.774 410.57 243.006 382.689 234.44 355.424C244.284 369.056 263.83 375.684 277.933 382.831C288.534 388.228 299.23 393.293 309.358 399.588C319.486 405.884 328.336 414.263 336.713 422.688C336.807 422.783 336.902 422.688 336.949 422.641C336.855 422.452 336.76 422.31 336.665 422.12C330.087 414.973 323.414 407.872 315.794 401.813C307.323 395.044 298.047 389.979 288.392 385.103C278.312 380.038 268.042 375.447 257.961 370.477C249.159 366.122 239.315 360.157 233.257 351.873C233.162 351.589 233.068 351.305 233.02 351.069C228.524 337.104 224.502 322.998 220.432 308.892C225.401 315.803 233.399 319.495 241.539 322.241C253.797 326.359 265.96 330.903 278.217 334.832C290.664 338.809 303.584 342.548 315.7 347.424C318.918 348.702 322.231 350.027 325.496 351.447C325.591 351.447 325.686 351.447 325.828 351.542C325.97 351.637 326.159 351.731 326.301 351.826C332.122 354.382 337.849 357.27 342.96 361.009C344.853 362.145 346.699 363.329 348.45 364.607C333.069 348.323 306.566 342.595 286.263 335.495C274.715 331.471 263.309 327.211 251.667 323.424C240.498 319.779 227.01 316.608 219.769 306.667C216.267 294.502 212.717 282.336 208.837 270.36C210.493 271.875 212.717 272.869 214.61 273.816C217.166 275.094 219.958 276.088 222.845 276.798C227.105 278.266 231.364 279.402 234.772 280.538C249.159 285.177 264.918 287.969 279.874 289.863C296.154 291.946 312.15 293.508 328.194 297.342C341.919 300.656 357.158 303.874 369.936 310.217C370.835 310.407 371.687 310.549 372.586 310.738C362.174 304.537 349.917 301.413 338.369 298.005C323.556 293.602 308.364 290.052 292.983 288.49C277.46 286.881 262.268 284.183 246.982 280.916C240.261 279.496 233.825 277.366 227.199 275.757C226.584 275.615 225.969 275.425 225.306 275.283C223.366 274.573 221.425 273.911 219.438 273.39C215.036 271.733 210.54 269.461 207.606 266.573C207.228 265.343 206.802 264.112 206.376 262.881C204.577 257.485 203.063 252.041 201.69 246.55C209.121 253.84 222.609 253.225 232.311 252.562C250.626 251.331 269.131 247.686 287.067 244.041C304.436 240.539 321.521 236.42 339.032 233.627C347.456 232.255 356.022 231.639 364.493 230.693C370.315 230.03 375.994 229.32 381.626 229.604C383.14 229.415 384.702 229.273 386.216 229.131C374.574 226.953 362.08 229.367 350.437 230.409C334.062 231.829 317.688 235 301.644 238.692L301.833 238.503Z" fill="url(#paint2_linear_1684_1054)"/>
<g opacity="0.4">
<path style="mix-blend-mode:multiply" d="M169.982 202.149C166.101 197.462 161.274 193.723 156.446 190.078C148.874 184.398 141.207 179.001 132.878 174.41C115.651 164.942 97.6196 159.167 78.1211 157.416C81.9545 158.173 85.788 159.073 89.5741 160.162C109.451 165.889 127.199 177.108 144.615 187.948C150.01 191.309 155.311 195.19 160.138 199.356C162.457 201.344 171.638 208.35 172.727 212.847C174.525 210.007 172.443 205.178 169.934 202.149H169.982Z" fill="url(#paint3_linear_1684_1054)"/>
<path style="mix-blend-mode:multiply" d="M158.67 164.706C160.942 170.386 163.214 176.587 167.568 181.037C170.644 184.208 177.175 189.652 182.097 187.948C187.398 186.102 187.682 178.339 187.492 173.653C187.303 167.925 186.167 162.244 184.653 156.753C183.138 151.31 181.292 145.961 179.447 140.564C180.677 146.434 181.86 152.257 182.854 158.221C183.895 164.375 184.274 171.996 182.523 178.055C179.352 189.037 169.082 180.753 164.87 174.883C161.463 170.15 159.144 164.895 156.777 159.688C157.393 161.392 158.055 163.097 158.718 164.753L158.67 164.706Z" fill="url(#paint4_linear_1684_1054)"/>
<path style="mix-blend-mode:multiply" d="M247.361 219.332C252.756 215.924 258.104 212.61 263.688 209.533C257.252 212.184 250.91 215.024 244.758 218.432C238.7 221.793 232.406 225.201 227.247 229.84C223.934 232.823 216.599 240.586 224.455 242.858C229.613 244.325 235.009 243.426 240.12 242.243C247.408 240.586 254.602 238.314 261.606 235.663C263.499 234.953 265.392 234.195 267.238 233.438C260.47 235.805 253.655 237.462 246.651 239.166C242.959 240.065 239.221 240.68 235.482 241.106C231.601 241.533 229.566 240.349 228.714 238.361C228.998 229.604 241.208 223.261 247.361 219.332Z" fill="url(#paint5_linear_1684_1054)"/>
<path style="mix-blend-mode:multiply" d="M191.752 320.253C192.604 319.164 193.408 317.981 194.118 316.798C195.585 314.289 197.147 310.881 196.106 307.898C194.828 304.301 191.089 303.259 187.587 303.307C173.626 303.496 160.99 314.478 150.673 322.762C143.763 328.348 136.995 334.265 130.938 340.844C134.061 338.288 137.232 335.827 140.403 333.413C146.839 328.537 152.944 323.235 159.854 319.022C165.959 315.283 172.159 312.253 178.737 309.508C183.281 307.614 195.16 303.685 194.781 312.537C194.686 315.33 193.503 317.886 191.752 320.253Z" fill="url(#paint6_linear_1684_1054)"/>
<path style="mix-blend-mode:multiply" d="M215.652 400.251C220.81 393.529 225.401 386.476 228.099 378.666C229.329 375.116 230.37 371.234 229.992 367.4C229.613 363.992 227.673 358.737 223.366 359.069C217.734 359.447 212.907 365.412 209.831 369.672C206.186 374.69 203.394 380.37 200.98 386.145C202.968 382.547 205.145 379.092 207.559 375.778C209.925 372.607 213.143 365.317 217.497 364.796C225.874 363.802 224.17 377.482 223.413 381.979C222.23 388.654 219.343 394.618 215.699 400.251H215.652Z" fill="url(#paint7_linear_1684_1054)"/>
<path style="mix-blend-mode:multiply" d="M247.172 430.688C247.455 433.576 247.692 436.416 247.834 439.303C248.213 434.002 248.639 428.7 248.544 423.398C248.449 416.487 247.597 408.251 242.108 403.328C236.381 398.215 229.897 401.529 225.685 406.783C221.852 411.612 219.722 417.387 218.397 423.351C216.504 432.061 215.983 441.149 216.788 450.049C217.924 444.084 218.728 438.404 219.817 434.096C221.994 425.481 222.704 411.375 233.021 407.872C244.758 403.896 246.462 423.635 247.172 430.688Z" fill="url(#paint8_linear_1684_1054)"/>
<path style="mix-blend-mode:multiply" d="M289.386 406.026C283.896 400.109 278.264 394.286 272.064 389.174C267.71 385.577 262.694 381.6 256.92 380.701C247.502 379.234 251.856 391.304 254.08 396.085C257.156 402.76 261.463 408.677 266.196 414.31C269.84 418.617 273.721 422.83 277.46 427.185C273.295 420.085 268.42 413.458 264.492 406.215C262.646 402.854 260.99 399.399 259.286 395.943C258.482 394.286 254.128 385.009 259.712 385.103C261.747 385.103 264.066 386.571 265.817 387.47C278.453 393.955 285.694 406.405 296.911 414.404C299.419 417.481 302.401 420.511 305.429 423.209C299.94 417.671 294.734 411.801 289.386 406.073V406.026Z" fill="url(#paint9_linear_1684_1054)"/>
<path style="mix-blend-mode:multiply" d="M236.759 260.467C237.469 259.757 238.321 259.189 239.268 258.763C236.854 259.189 234.393 259.852 232.689 261.414C229.992 263.781 230.512 267.568 232.547 270.266C234.819 273.39 238.416 274.621 242.297 275.094C239.126 274.1 236.475 272.396 235.056 269.603C234.677 266.242 234.772 262.503 236.807 260.515L236.759 260.467Z" fill="url(#paint10_linear_1684_1054)"/>
<path style="mix-blend-mode:multiply" d="M247.361 291.899C244.379 291.662 240.593 291.472 237.99 293.319C235.103 295.401 235.198 299.709 236.949 302.455C239.978 307.235 245.941 309.602 251.099 311.259C251.525 311.401 251.951 311.496 252.377 311.638C251.951 311.448 251.478 311.259 251.005 311.022C247.881 309.602 245.657 307.567 243.859 305.105C242.865 300.135 244.19 297.011 247.929 295.78C250.532 294.549 253.466 294.123 256.305 294.218C258.53 294.313 260.849 294.691 263.215 295.307C262.41 295.07 261.606 294.833 260.849 294.597C256.447 293.319 251.904 292.183 247.361 291.804V291.899Z" fill="url(#paint11_linear_1684_1054)"/>
<path style="mix-blend-mode:multiply" d="M257.631 330.856C253.892 329.389 249.349 327.779 245.279 328.773C238.984 330.383 239.126 336.962 241.824 341.791C244.805 347.14 249.349 352.441 254.413 355.992C257.158 357.885 260.328 359.636 263.594 360.915C254.839 354.998 242.723 343.116 246.32 334.596C247.03 333.365 248.308 332.276 250.579 331.566C255.359 330.004 259.902 331.566 264.067 333.886C267.285 335.684 270.551 337.578 273.769 339.566C268.611 336.158 263.215 333.128 257.536 330.856H257.631Z" fill="url(#paint12_linear_1684_1054)"/>
<path style="mix-blend-mode:multiply" d="M198.567 361.151C201.122 358.216 203.299 354.903 204.577 351.211C206.092 346.856 207.322 338.714 201.17 337.104C194.307 335.306 188.486 341.033 184.558 345.956C180.725 350.785 177.317 355.992 173.91 361.151C169.65 367.589 165.533 374.121 161.889 380.938C163.45 378.382 164.965 375.825 166.527 373.364C172.868 363.376 180.015 350.737 190.19 344.157C192.793 342.501 195.727 341.223 198.661 342.832C202.731 345.057 204.624 349.175 202.873 353.293C201.596 356.181 200.128 358.737 198.519 361.151H198.567Z" fill="url(#paint13_linear_1684_1054)"/>
<path style="mix-blend-mode:multiply" d="M175.52 334.264C177.981 332.608 180.441 330.904 182.76 329.01C184.796 327.353 186.831 325.602 188.676 323.708C184.464 327.779 179.022 331.235 175.52 334.264Z" fill="url(#paint14_linear_1684_1054)"/>
<path style="mix-blend-mode:multiply" d="M179.494 285.129C182.334 283.094 185.315 280.68 186.593 277.697C190.521 268.751 176.56 266.857 170.928 266.526C148.921 265.201 128.618 272.396 108.646 280.632C115.225 278.928 121.803 277.177 128.476 275.851C139.787 273.579 151.288 270.55 162.883 271.023C167.71 271.212 172.585 271.449 177.317 272.49C186.593 274.621 184.322 280.017 179.494 285.082V285.129Z" fill="url(#paint15_linear_1684_1054)"/>
<path style="mix-blend-mode:multiply" d="M171.875 245.982C166.054 247.686 160.138 248.633 154.175 249.532C148.874 250.337 143.527 251 138.226 251.662C138.131 251.662 137.989 251.662 137.895 251.71C128.808 251.757 119.627 252.562 110.54 253.272C127.246 253.935 144 254.55 160.564 252.136C166.717 251.236 172.916 250.006 178.501 247.071C180.631 245.935 183.423 244.467 184.464 242.148C185.789 239.166 182.76 236.846 180.441 235.521C172.443 231.119 163.498 230.503 154.412 230.835C160.99 231.45 167.663 232.87 173.342 235.521C180.82 239.024 179.353 244.089 171.875 245.982Z" fill="url(#paint16_linear_1684_1054)"/>
<path style="mix-blend-mode:multiply" d="M246.556 166.599C248.686 164.469 250.863 162.387 252.992 160.304C242.628 167.262 233.115 175.688 224.975 184.966C220.384 190.173 213.049 199.119 215.841 206.693C218.444 213.841 224.833 213.557 230.56 210.196C243.148 202.812 250.2 189.084 258.766 177.676C253.608 183.167 248.449 188.847 242.77 193.723C240.025 196.09 237.422 198.504 234.677 200.824C232.547 202.67 230.702 204.326 228.193 205.747C224.691 207.687 221.946 204.752 221.378 201.344C223.65 187.995 237.469 175.641 246.556 166.552V166.599Z" fill="url(#paint17_linear_1684_1054)"/>
<path style="mix-blend-mode:multiply" d="M209.357 138.955C206.801 141.322 204.388 143.736 202.211 146.434C197.383 152.493 193.503 160.54 193.171 168.398C192.887 174.883 195.443 184.066 203.536 183.735C209.925 183.498 215.367 179.096 219.532 174.599C223.318 170.576 226.489 166.031 229.565 161.44C228.098 163.191 226.537 164.895 224.975 166.457C219.722 171.806 212.67 179.049 204.53 178.954C196.058 178.859 195.585 170.102 196.91 163.665C198.756 154.671 203.489 146.245 209.404 138.813L209.357 138.955Z" fill="url(#paint18_linear_1684_1054)"/>
</g>
<path style="mix-blend-mode:screen" opacity="0.4" d="M278.217 517.976C274.857 512.58 271.307 507.515 268.752 501.645C266.385 496.154 264.918 490.284 263.12 484.557C259.618 473.385 256.778 462.072 253.607 450.806C253.465 450.238 252.708 450.901 252.708 451.232C252.282 474.995 249.632 509.503 276.087 521.1C277.791 521.858 278.974 519.207 278.17 517.976H278.217Z" fill="url(#paint19_radial_1684_1054)"/>
<path style="mix-blend-mode:screen" opacity="0.4" d="M87.4917 364.465C82.2858 357.459 70.6908 354.382 71.2114 344.016C71.2114 343.211 70.4542 343.069 69.9809 343.637C60.421 355.329 69.1764 374.405 85.1254 370.145C87.3498 369.53 88.9589 366.5 87.4917 364.465Z" fill="url(#paint20_radial_1684_1054)"/>
<path style="mix-blend-mode:screen" opacity="0.4" d="M129.566 404.369C124.88 402.097 121.52 400.298 118.255 396.085C115.131 392.062 116.693 384.535 118.255 380.18C118.491 379.47 117.781 379.281 117.403 379.707C112.291 384.914 105.334 396.085 108.553 403.706C112.291 412.558 122.23 414.073 129.234 408.203C130.181 407.446 131.127 405.079 129.613 404.322L129.566 404.369Z" fill="url(#paint21_radial_1684_1054)"/>
<path style="mix-blend-mode:screen" opacity="0.4" d="M166.622 436.132C164.161 432.723 159.854 432.629 156.494 430.641C152.566 428.321 148.354 422.641 147.834 418.144C147.786 417.576 147.171 417.86 146.982 418.144C143.763 424.108 143.385 432.155 147.171 437.93C151.241 444.084 160.091 446.262 165.676 440.771C166.906 439.587 167.758 437.694 166.622 436.132Z" fill="url(#paint22_radial_1684_1054)"/>
<path style="mix-blend-mode:screen" opacity="0.4" d="M202.069 466.001C200.082 463.634 196.863 461.977 194.024 460.699C190.38 459.09 188.629 455.966 187.019 452.51C186.688 451.847 185.884 452.415 185.789 452.936C184.795 457.906 184.038 462.877 185.41 467.847C186.877 473.149 191.563 478.024 197.337 477.314C201.833 476.794 205.051 469.504 202.069 466.001Z" fill="url(#paint23_radial_1684_1054)"/>
<path style="mix-blend-mode:screen" opacity="0.4" d="M57.3452 283.851C50.7195 281.769 43.7152 280.774 36.9948 279.118C31.2683 277.698 20.4305 273.295 18.6794 267.284C18.5375 266.858 18.0642 267.284 17.9695 267.52C15.6979 275.852 20.6198 282.573 27.1509 287.402C35.2437 293.366 48.3531 292.845 56.8246 288.585C58.5283 287.733 59.5695 284.561 57.2505 283.851H57.3452Z" fill="url(#paint24_radial_1684_1054)"/>
<path style="mix-blend-mode:screen" opacity="0.4" d="M47.6434 227.9C44.094 226.101 40.3552 224.87 36.853 222.977C33.3035 221.083 30.18 218.575 26.5832 216.728C20.1468 213.51 10.1135 208.445 6.70604 201.676C6.46941 201.202 5.94882 201.628 5.85416 201.96C-0.203626 224.492 28.9968 234.243 46.6496 231.166C47.8328 230.977 49.0159 228.61 47.6434 227.9Z" fill="url(#paint25_radial_1684_1054)"/>
<path style="mix-blend-mode:screen" opacity="0.4" d="M39.7867 146.813C34.0602 145.251 28.0498 144.446 22.2286 143.12C16.8807 141.89 7.74671 140.233 4.29188 135.594C4.00792 135.168 3.44 135.831 3.44 136.162C3.06139 153.866 26.9139 153.96 38.9822 150.647C40.4966 150.221 41.7744 147.381 39.7394 146.86L39.7867 146.813Z" fill="url(#paint26_radial_1684_1054)"/>
<path style="mix-blend-mode:screen" opacity="0.4" d="M61.1314 128.068C55.6416 121.63 49.5838 115.287 43.242 109.701C38.0361 105.157 32.4043 98.3878 29.8013 91.9974C29.6593 91.666 29.2334 91.9973 29.2334 92.2814C29.5647 111.453 42.6741 123.429 59.0491 131.239C60.6109 131.996 62.1726 129.298 61.1314 128.115V128.068Z" fill="url(#paint27_radial_1684_1054)"/>
<path style="mix-blend-mode:screen" opacity="0.4" d="M99.1808 96.8255C98.8495 96.3995 98.2816 97.1569 98.329 97.5356C99.3228 102.269 100.648 107.382 104.055 110.932C105.381 112.304 107.416 109.89 107.084 108.47C105.807 103.595 102.115 100.707 99.1808 96.8255Z" fill="url(#paint28_radial_1684_1054)"/>
<path style="mix-blend-mode:screen" opacity="0.4" d="M156.163 164.611C153.134 158.174 149.774 151.925 146.745 145.487C143.764 139.192 141.35 132.517 137.753 126.553C137.327 125.843 136.523 126.837 136.712 127.405C139.173 134.363 140.261 141.606 143.054 148.517C145.799 155.428 149.111 161.203 153.939 166.883C155.027 168.162 156.731 165.747 156.163 164.611Z" fill="url(#paint29_radial_1684_1054)"/>
<defs>
<linearGradient id="paint0_linear_1684_1054" x1="62.9135" y1="345.95" x2="358.992" y2="218.429" gradientUnits="userSpaceOnUse">
<stop offset="0.22" stop-color="#63A71F"/>
<stop offset="0.51" stop-color="#006D20"/>
<stop offset="0.87" stop-color="#272F1B"/>
</linearGradient>
<linearGradient id="paint1_linear_1684_1054" x1="129.908" y1="303.023" x2="485.128" y2="209.388" gradientUnits="userSpaceOnUse">
<stop offset="0.22" stop-color="#63A71F"/>
<stop offset="0.51" stop-color="#006D20"/>
<stop offset="0.87" stop-color="#272F1B"/>
</linearGradient>
<linearGradient id="paint2_linear_1684_1054" x1="333.486" y1="638.619" x2="180.394" y2="158.712" gradientUnits="userSpaceOnUse">
<stop stop-color="#F1EEC2"/>
<stop offset="0.13" stop-color="#CADA95"/>
<stop offset="0.33" stop-color="#92BE55"/>
<stop offset="0.48" stop-color="#70AD2E"/>
<stop offset="0.55" stop-color="#63A71F"/>
<stop offset="0.66" stop-color="#78B138"/>
<stop offset="0.87" stop-color="#B0CD78"/>
<stop offset="1" stop-color="#D5E0A2"/>
</linearGradient>
<linearGradient id="paint3_linear_1684_1054" x1="14.2994" y1="233.008" x2="310.344" y2="105.545" gradientUnits="userSpaceOnUse">
<stop offset="0.22" stop-color="#63A71F"/>
<stop offset="0.51" stop-color="#006D20"/>
<stop offset="0.87" stop-color="#272F1B"/>
</linearGradient>
<linearGradient id="paint4_linear_1684_1054" x1="15.3408" y1="235.474" x2="311.386" y2="108.012" gradientUnits="userSpaceOnUse">
<stop offset="0.22" stop-color="#63A71F"/>
<stop offset="0.51" stop-color="#006D20"/>
<stop offset="0.87" stop-color="#272F1B"/>
</linearGradient>
<linearGradient id="paint5_linear_1684_1054" x1="49.403" y1="314.56" x2="345.493" y2="187.085" gradientUnits="userSpaceOnUse">
<stop offset="0.22" stop-color="#63A71F"/>
<stop offset="0.51" stop-color="#006D20"/>
<stop offset="0.87" stop-color="#272F1B"/>
</linearGradient>
<linearGradient id="paint6_linear_1684_1054" x1="69.8711" y1="362.131" x2="365.949" y2="234.61" gradientUnits="userSpaceOnUse">
<stop offset="0.22" stop-color="#63A71F"/>
<stop offset="0.51" stop-color="#006D20"/>
<stop offset="0.87" stop-color="#272F1B"/>
</linearGradient>
<linearGradient id="paint7_linear_1684_1054" x1="99.5436" y1="431.065" x2="395.622" y2="303.545" gradientUnits="userSpaceOnUse">
<stop offset="0.22" stop-color="#63A71F"/>
<stop offset="0.51" stop-color="#006D20"/>
<stop offset="0.87" stop-color="#272F1B"/>
</linearGradient>
<linearGradient id="paint8_linear_1684_1054" x1="117.635" y1="473.143" x2="413.759" y2="345.611" gradientUnits="userSpaceOnUse">
<stop offset="0.22" stop-color="#63A71F"/>
<stop offset="0.51" stop-color="#006D20"/>
<stop offset="0.87" stop-color="#272F1B"/>
</linearGradient>
<linearGradient id="paint9_linear_1684_1054" x1="117.171" y1="471.944" x2="413.203" y2="344.435" gradientUnits="userSpaceOnUse">
<stop offset="0.22" stop-color="#63A71F"/>
<stop offset="0.51" stop-color="#006D20"/>
<stop offset="0.87" stop-color="#272F1B"/>
</linearGradient>
<linearGradient id="paint10_linear_1684_1054" x1="61.8963" y1="343.575" x2="357.941" y2="216.113" gradientUnits="userSpaceOnUse">
<stop offset="0.22" stop-color="#63A71F"/>
<stop offset="0.51" stop-color="#006D20"/>
<stop offset="0.87" stop-color="#272F1B"/>
</linearGradient>
<linearGradient id="paint11_linear_1684_1054" x1="75.5863" y1="375.457" x2="371.723" y2="247.97" gradientUnits="userSpaceOnUse">
<stop offset="0.22" stop-color="#63A71F"/>
<stop offset="0.51" stop-color="#006D20"/>
<stop offset="0.87" stop-color="#272F1B"/>
</linearGradient>
<linearGradient id="paint12_linear_1684_1054" x1="92.457" y1="414.576" x2="388.547" y2="287.102" gradientUnits="userSpaceOnUse">
<stop offset="0.22" stop-color="#63A71F"/>
<stop offset="0.51" stop-color="#006D20"/>
<stop offset="0.87" stop-color="#272F1B"/>
</linearGradient>
<linearGradient id="paint13_linear_1684_1054" x1="85.7718" y1="399.058" x2="381.862" y2="271.584" gradientUnits="userSpaceOnUse">
<stop offset="0.22" stop-color="#63A71F"/>
<stop offset="0.51" stop-color="#006D20"/>
<stop offset="0.87" stop-color="#272F1B"/>
</linearGradient>
<linearGradient id="paint14_linear_1684_1054" x1="75.4083" y1="374.965" x2="371.487" y2="247.445" gradientUnits="userSpaceOnUse">
<stop offset="0.22" stop-color="#63A71F"/>
<stop offset="0.51" stop-color="#006D20"/>
<stop offset="0.87" stop-color="#272F1B"/>
</linearGradient>
<linearGradient id="paint15_linear_1684_1054" x1="52.7038" y1="322.256" x2="348.794" y2="194.782" gradientUnits="userSpaceOnUse">
<stop offset="0.22" stop-color="#63A71F"/>
<stop offset="0.51" stop-color="#006D20"/>
<stop offset="0.87" stop-color="#272F1B"/>
</linearGradient>
<linearGradient id="paint16_linear_1684_1054" x1="40.2926" y1="293.367" x2="336.337" y2="165.904" gradientUnits="userSpaceOnUse">
<stop offset="0.22" stop-color="#63A71F"/>
<stop offset="0.51" stop-color="#006D20"/>
<stop offset="0.87" stop-color="#272F1B"/>
</linearGradient>
<linearGradient id="paint17_linear_1684_1054" x1="32.5781" y1="275.428" x2="328.623" y2="147.965" gradientUnits="userSpaceOnUse">
<stop offset="0.22" stop-color="#63A71F"/>
<stop offset="0.51" stop-color="#006D20"/>
<stop offset="0.87" stop-color="#272F1B"/>
</linearGradient>
<linearGradient id="paint18_linear_1684_1054" x1="18.5119" y1="242.862" x2="314.602" y2="115.388" gradientUnits="userSpaceOnUse">
<stop offset="0.22" stop-color="#63A71F"/>
<stop offset="0.51" stop-color="#006D20"/>
<stop offset="0.87" stop-color="#272F1B"/>
</linearGradient>
<radialGradient id="paint19_radial_1684_1054" cx="0" cy="0" r="1" gradientUnits="userSpaceOnUse" gradientTransform="translate(253.788 493.59) rotate(-14.7729) scale(43.1174 43.1251)">
<stop offset="0.17" stop-color="#E6FBB7"/>
<stop offset="0.65" stop-color="#006839"/>
<stop offset="0.74" stop-color="#004224"/>
<stop offset="0.87" stop-color="#00120A"/>
<stop offset="0.93"/>
</radialGradient>
<radialGradient id="paint20_radial_1684_1054" cx="0" cy="0" r="1" gradientUnits="userSpaceOnUse" gradientTransform="translate(69.1278 364.736) rotate(-14.7729) scale(30.6542 30.6598)">
<stop offset="0.17" stop-color="#E6FBB7"/>
<stop offset="0.65" stop-color="#006839"/>
<stop offset="0.74" stop-color="#004224"/>
<stop offset="0.87" stop-color="#00120A"/>
<stop offset="0.93"/>
</radialGradient>
<radialGradient id="paint21_radial_1684_1054" cx="0" cy="0" r="1" gradientUnits="userSpaceOnUse" gradientTransform="translate(111.166 409.383) rotate(-14.7729) scale(31.1578 31.1634)">
<stop offset="0.17" stop-color="#E6FBB7"/>
<stop offset="0.65" stop-color="#006839"/>
<stop offset="0.74" stop-color="#004224"/>
<stop offset="0.87" stop-color="#00120A"/>
<stop offset="0.93"/>
</radialGradient>
<radialGradient id="paint22_radial_1684_1054" cx="0" cy="0" r="1" gradientUnits="userSpaceOnUse" gradientTransform="translate(156.451 442.887) rotate(-14.7729) scale(29.2695 29.2747)">
<stop offset="0.17" stop-color="#E6FBB7"/>
<stop offset="0.65" stop-color="#006839"/>
<stop offset="0.74" stop-color="#004224"/>
<stop offset="0.87" stop-color="#00120A"/>
<stop offset="0.93"/>
</radialGradient>
<radialGradient id="paint23_radial_1684_1054" cx="0" cy="0" r="1" gradientUnits="userSpaceOnUse" gradientTransform="translate(196.019 480.633) rotate(-14.7729) scale(28.0735 28.0786)">
<stop offset="0.17" stop-color="#E6FBB7"/>
<stop offset="0.65" stop-color="#006839"/>
<stop offset="0.74" stop-color="#004224"/>
<stop offset="0.87" stop-color="#00120A"/>
<stop offset="0.93"/>
</radialGradient>
<radialGradient id="paint24_radial_1684_1054" cx="0" cy="0" r="1" gradientUnits="userSpaceOnUse" gradientTransform="translate(33.4434 292.826) rotate(-14.7729) scale(31.5355 31.5411)">
<stop offset="0.17" stop-color="#E6FBB7"/>
<stop offset="0.65" stop-color="#006839"/>
<stop offset="0.74" stop-color="#004224"/>
<stop offset="0.87" stop-color="#00120A"/>
<stop offset="0.93"/>
</radialGradient>
<radialGradient id="paint25_radial_1684_1054" cx="0" cy="0" r="1" gradientUnits="userSpaceOnUse" gradientTransform="translate(20.9438 226.39) rotate(-14.7729) scale(31.2837 31.2893)">
<stop offset="0.17" stop-color="#E6FBB7"/>
<stop offset="0.65" stop-color="#006839"/>
<stop offset="0.74" stop-color="#004224"/>
<stop offset="0.87" stop-color="#00120A"/>
<stop offset="0.93"/>
</radialGradient>
<radialGradient id="paint26_radial_1684_1054" cx="0" cy="0" r="1" gradientUnits="userSpaceOnUse" gradientTransform="translate(19.2542 162.443) rotate(-14.7729) scale(39.9072 39.9143)">
<stop offset="0.17" stop-color="#E6FBB7"/>
<stop offset="0.65" stop-color="#006839"/>
<stop offset="0.74" stop-color="#004224"/>
<stop offset="0.87" stop-color="#00120A"/>
<stop offset="0.93"/>
</radialGradient>
<radialGradient id="paint27_radial_1684_1054" cx="0" cy="0" r="1" gradientUnits="userSpaceOnUse" gradientTransform="translate(51.1885 110.725) rotate(-14.7729) scale(18.1911 18.1944)">
<stop offset="0.17" stop-color="#E6FBB7"/>
<stop offset="0.65" stop-color="#006839"/>
<stop offset="0.74" stop-color="#004224"/>
<stop offset="0.87" stop-color="#00120A"/>
<stop offset="0.93"/>
</radialGradient>
<radialGradient id="paint28_radial_1684_1054" cx="0" cy="0" r="1" gradientUnits="userSpaceOnUse" gradientTransform="translate(109.166 102.988) rotate(-14.7729) scale(5.91684 5.9179)">
<stop offset="0.17" stop-color="#E6FBB7"/>
<stop offset="0.65" stop-color="#006839"/>
<stop offset="0.74" stop-color="#004224"/>
<stop offset="0.87" stop-color="#00120A"/>
<stop offset="0.93"/>
</radialGradient>
<radialGradient id="paint29_radial_1684_1054" cx="0" cy="0" r="1" gradientUnits="userSpaceOnUse" gradientTransform="translate(152.954 145.873) rotate(-14.7729) scale(15.9251 15.928)">
<stop offset="0.17" stop-color="#E6FBB7"/>
<stop offset="0.65" stop-color="#006839"/>
<stop offset="0.74" stop-color="#004224"/>
<stop offset="0.87" stop-color="#00120A"/>
<stop offset="0.93"/>
</radialGradient>
</defs>
</svg>
