<svg width="511" height="244" viewBox="0 0 511 244" fill="none" xmlns="http://www.w3.org/2000/svg">
<path d="M392.03 165.39C413.848 183.473 425.68 214.336 441.534 237.72C451.331 252.158 473.053 239.046 465.15 223.188C450.289 193.271 424.733 174.148 395.107 161.177C392.646 160.089 389.664 163.45 392.03 165.39Z" fill="url(#paint0_radial_1684_1000)"/>
<path d="M395.296 235.685C403.105 243.211 417.918 237.436 417.54 225.697C416.546 195.354 391.179 161.745 365.954 147.497C362.546 145.556 359.47 149.627 360.89 152.799C366.948 166.621 371.87 180.822 376.981 195.023C381.998 208.94 384.553 225.318 395.296 235.685Z" fill="url(#paint1_radial_1684_1000)"/>
<path d="M356.536 231.945C357.198 231.898 357.814 231.85 358.476 231.803C364.392 231.377 369.645 227.59 371.254 221.531C373.479 213.247 369.74 207.946 367.705 200.324C365.386 191.52 364.487 182.195 362.641 173.248C359.281 156.87 341.912 139.308 329.134 130.03C327.288 128.705 324.638 130.693 324.638 132.776C324.685 140.775 327.809 147.308 330.08 154.882C332.447 162.645 332.967 173.437 334.008 181.627C335.854 196.49 336.422 210.88 343.142 224.324C345.461 229.01 351.33 232.276 356.536 231.945Z" fill="url(#paint2_radial_1684_1000)"/>
<path d="M308.026 220.585C312.096 224.94 321.419 224.088 323.928 217.886C331.263 199.804 325.442 176.089 321.372 157.675C317.823 141.438 305.565 123.782 290.799 116.634C290.373 116.398 289.853 116.35 289.332 116.35C288.386 115.309 287.344 114.362 286.019 113.51C285.215 112.989 283.89 113.747 283.984 114.741C284.552 121.037 285.877 127.143 285.83 133.533C285.83 142.385 282.375 149.959 283.416 158.811C285.357 175.237 292.03 190.81 299.933 205.2C301.448 210.928 303.909 216.182 307.979 220.585H308.026Z" fill="url(#paint3_radial_1684_1000)"/>
<path d="M248.631 205.626C249.625 208.798 251.187 211.827 253.743 214.62C258.523 219.874 269.077 217.034 270.402 209.555C273.194 193.887 273.667 175.804 274.472 159.757C275.371 140.681 263.776 119.095 253.175 104.705C252.702 104.043 251.992 103.758 251.187 103.664C251.187 103.664 251.187 103.616 251.14 103.569C249.436 101.155 245.461 101.297 244.609 104.611C237.084 133.675 226.483 181.106 248.631 205.579V205.626Z" fill="url(#paint4_radial_1684_1000)"/>
<path d="M188.006 84.6822C218.295 86.197 255.73 76.7771 272.058 46.8606C276.601 38.5294 271.017 24.6599 260.368 26.3166C245.839 28.5414 239.923 38.3874 228.186 46.7186C213.894 56.8485 201.352 68.5879 186.018 76.8718C182.09 79.0019 184.22 84.4929 188.006 84.6822Z" fill="url(#paint5_radial_1684_1000)"/>
<path d="M227.713 93.8181C241.58 100.019 258.144 95.3328 272.294 90.6939C289.001 85.2502 311.386 77.5817 316.071 58.2212C318.485 48.4226 309.682 38.3873 299.649 41.7482C286.587 46.1031 273.336 57.4638 262.451 66.221C251.187 75.2623 238.172 80.99 227.192 90.0785C226.057 91.0252 226.435 93.25 227.713 93.8181Z" fill="url(#paint6_radial_1684_1000)"/>
<path d="M149.861 77.4869C164.958 80.0431 176.222 68.9191 188.385 60.9192C201.447 52.3514 218.342 42.5054 228.896 30.9554C236.989 22.1508 231.404 7.05057 219.336 7.4766C203.34 8.04463 190.23 21.0148 178.73 31.5707C164.532 44.6356 154.31 55.6176 148.11 74.3627C147.684 75.5935 148.583 77.2029 149.861 77.4396V77.4869Z" fill="url(#paint7_radial_1684_1000)"/>
<path d="M263.729 105.036C274.708 112.894 284.6 114.504 297.756 110.811C306.701 108.303 315.456 103.711 323.975 99.9715C332.683 96.1846 341.581 94.1018 349.153 88.1374C360.18 79.4749 356.867 62.7179 342.48 62.0078C326.815 61.2031 310.203 71.1437 296.479 78.7175C284.789 85.2026 275.418 95.1432 263.681 100.729C261.836 101.628 262.356 104.09 263.681 105.036H263.729Z" fill="url(#paint8_radial_1684_1000)"/>
<path d="M111.905 72.1851C112.142 71.9484 112.284 71.6644 112.521 71.3804C112.71 71.8537 113.088 72.2324 113.656 72.2324C130.741 71.5697 150.95 59.8303 163.728 48.4696C173.24 39.9964 187.817 23.0501 181.57 8.9912C174.471 -6.91378 153.836 3.16884 143.33 10.2693C134.953 15.9023 128.28 23.9021 122.459 32.0913C114.603 43.0733 113.42 56.7535 106.652 68.2562C104.664 71.6171 109.397 75.2146 111.905 72.1851Z" fill="url(#paint9_radial_1684_1000)"/>
<path d="M421.61 175.568C441.298 187.26 458.809 201.603 477.881 214.147C484.696 218.644 504.147 228.253 509.306 215.709C514.275 203.638 494.682 190.857 487.11 185.887C468.179 173.437 448.066 178.076 426.958 174.574C426.769 174.574 426.579 174.668 426.437 174.668C425.112 174.29 423.834 173.863 422.462 173.485C421.231 173.106 420.616 174.952 421.61 175.568Z" fill="url(#paint10_radial_1684_1000)"/>
<path d="M349.72 141.202C353.412 142.432 357.908 144.137 362.546 145.273C386.73 157.249 422.84 164.254 434.719 130.693C438.457 120.09 423.313 118.054 416.876 119.19C406.228 121.036 397.047 126.527 387.676 132.018C380.53 136.231 373.762 139.971 365.338 139.924C360.274 139.924 355.21 138.551 350.099 138.314C348.395 138.22 348.3 140.728 349.72 141.202Z" fill="url(#paint11_radial_1684_1000)"/>
<path d="M298.23 119.569C299.176 119.38 300.123 119.143 301.022 118.906C317.019 123.45 334.671 121.699 350.62 116.634C361.789 113.084 380.578 102.433 380.72 88.4689C380.862 76.4455 364.061 77.5343 356.489 79.0017C332.731 83.546 319.243 108.113 297.283 115.971C295.012 116.776 295.864 119.948 298.183 119.569H298.23Z" fill="url(#paint12_radial_1684_1000)"/>
<path d="M57.9057 59.4046C57.9057 59.4046 57.9057 59.2626 57.8583 59.31L56.5332 60.1147C56.5332 60.1147 56.5332 60.2567 56.5805 60.2093L57.9057 59.4046Z" fill="url(#paint13_radial_1684_1000)"/>
<path d="M56.4391 61.0613C56.723 61.0613 57.1017 61.0613 57.4329 61.0613C57.6222 61.3453 57.8589 61.5346 58.3321 61.4873C82.09 59.4992 135.001 46.8131 127.003 11.1215C124.163 -1.56458 109.681 -1.94327 100.027 2.79036C81.2382 12.0209 74.2812 32.2335 63.822 49.3692C63.4434 49.7479 63.2068 50.2213 63.0175 50.6473C61.645 52.8248 60.2252 54.9549 58.6634 56.9904C58.5214 56.7537 58.2375 56.5643 57.9535 56.5643L56.2024 56.7063C55.3032 56.801 54.3567 57.5111 54.404 58.5525V58.9785C54.4987 60.1619 55.2559 60.9193 56.3918 60.9666L56.4391 61.0613Z" fill="url(#paint14_radial_1684_1000)"/>
<path d="M307.931 125.865C312.238 128.941 316.592 130.504 320.993 131.024C336.564 139.829 354.784 141.58 372.721 138.787C386.54 136.657 404.856 129.32 408.216 113.699C411.245 99.3089 390.942 96.5161 381.666 98.5516C371.065 100.871 362.215 105.699 352.939 111.474C337.936 120.847 326.483 125.013 309.114 122.93C307.363 122.74 306.464 124.823 307.931 125.865Z" fill="url(#paint15_radial_1684_1000)"/>
<path d="M224.21 177.461C253.505 162.219 250.477 98.5988 219.099 90.4097C218.105 89.2736 217.064 88.1849 215.928 87.0961C214.177 85.4394 211.385 87.7115 212.568 89.8416C219.667 102.67 219.146 111.143 213.893 125.012C209.823 135.805 205.469 146.172 204.286 157.674C203.008 170.503 210.58 184.561 224.21 177.461Z" fill="url(#paint16_radial_1684_1000)"/>
<path d="M205.234 164.112C219.905 142.196 220.709 74.1262 182.896 81.4634C181.665 80.6587 180.103 80.0906 178.116 79.8539C175.844 79.5699 174.661 82.3154 176.601 83.6882C183.842 88.7058 168.366 122.315 166.852 129.036C164.438 139.734 163.586 153.698 168.698 163.544C177.642 180.585 194.396 180.301 205.234 164.112Z" fill="url(#paint17_radial_1684_1000)"/>
<path d="M146.501 158.621C178.162 136.847 160.556 98.8356 143.046 75.4041C142.383 74.5047 140.774 75.0254 141.105 76.2562C141.153 76.3982 141.2 76.5875 141.247 76.7295C140.963 76.9662 140.727 77.2976 140.774 77.7236C141.863 89.889 133.864 100.303 129.226 111.38C125.156 121.178 123.169 131.166 123.642 141.675C124.115 152.468 134.622 166.716 146.453 158.621H146.501Z" fill="url(#paint18_radial_1684_1000)"/>
<path d="M108.687 147.829C139.828 135.237 129.605 88.0903 110.485 70.9546C110.249 70.7652 109.965 70.6706 109.681 70.6706C109.776 69.9605 109.823 69.2978 109.918 68.5878C110.202 66.505 107.173 65.7002 106.794 67.8304C103.008 89.0844 86.6803 105.652 85.5917 127.332C84.8345 142.243 93.4953 153.982 108.687 147.876V147.829Z" fill="url(#paint19_radial_1684_1000)"/>
<path d="M76.7897 145.083C91.2243 137.367 97.2347 119.616 94.9631 104.137C92.928 90.1729 84.1726 66.9308 68.4129 63.712C68.3656 63.5699 68.3183 63.4753 68.2236 63.3333C67.5137 61.9605 64.9581 62.5759 65.1474 64.2327C65.7626 69.771 67.4664 75.2147 66.5198 80.8477C65.3367 87.7588 60.1781 95.1432 57.1492 101.439C53.3157 109.581 52.0853 117.628 53.2211 126.385C54.5936 136.988 64.4375 151.615 76.7423 145.036L76.7897 145.083Z" fill="url(#paint20_radial_1684_1000)"/>
<path d="M44.3704 120.374C67.229 118.906 64.8154 79.0964 55.776 65.5109C55.9653 64.3749 56.1073 63.2861 56.2493 62.1974C56.4859 60.1146 53.2204 59.3572 52.4158 61.2507C46.3581 75.0255 32.4914 81.5106 30.7403 97.5576C29.8411 105.936 33.7692 121.084 44.4177 120.374H44.3704Z" fill="url(#paint21_radial_1684_1000)"/>
<path d="M11.0997 60.9666C12.8981 60.3039 14.5545 59.7358 16.1163 59.1205C35.8041 61.1086 65.1465 42.8368 62.7328 21.5828C61.597 11.5949 49.3868 13.6303 43.8022 18.7426C38.2177 23.855 34.5736 30.1507 30.7875 36.6831C26.3388 44.4936 21.0382 49.2745 14.7438 54.3395C13.3713 54.6709 11.9989 55.0022 10.6264 55.3809C9.3486 55.7123 9.49058 57.2744 10.4371 57.7951C10.2951 57.8897 10.1531 57.9844 10.0111 58.1264C8.73333 59.1205 9.34857 61.582 11.147 60.9666H11.0997Z" fill="url(#paint22_radial_1684_1000)"/>
<path d="M30.5035 107.167C45.8846 100.256 33.8164 68.3984 19.5711 63.7121C18.53 62.292 16.9682 61.6293 14.5545 62.0554C13.9393 62.15 13.2294 62.8601 13.1347 63.5228C13.1347 63.6175 13.1347 63.7121 13.1347 63.8068C11.9516 64.5168 11.9989 66.0316 12.8981 66.931C12.8981 69.9605 13.324 73.0847 12.9928 76.1616C12.2829 82.1733 10.863 88.043 11.005 94.1493C11.1943 104.469 20.565 111.711 30.5509 107.214L30.5035 107.167Z" fill="url(#paint23_radial_1684_1000)"/>
<path d="M388.292 163.639C391.463 164.349 394.586 164.633 397.757 164.727C420.947 177.887 462.689 192.372 476.65 158.668C481.43 147.118 467.327 140.681 458.572 140.255C449.012 139.781 439.405 142.101 430.649 146.266C425.065 148.917 419.622 151.805 414.085 154.597C405.661 158.858 397.947 159.236 388.86 160.041C386.872 160.231 386.304 163.213 388.387 163.686L388.292 163.639Z" fill="url(#paint24_radial_1684_1000)"/>
<g style="mix-blend-mode:multiply" opacity="0.7">
<path d="M395.297 235.685C396.764 237.105 398.562 237.957 400.408 238.43C397.568 232.324 395.817 225.176 393.498 220.111C387.535 206.999 382.045 194.502 380.909 179.828C380.436 173.911 388.198 171.26 391.889 174.858C406.04 188.585 420.285 213.342 414.18 234.454C416.262 232.182 417.635 229.294 417.493 225.697C416.499 195.354 391.132 161.745 365.907 147.497C362.499 145.556 359.423 149.627 360.843 152.799C366.901 166.621 371.823 180.822 376.934 195.023C381.951 208.94 384.506 225.318 395.249 235.685H395.297Z" fill="url(#paint25_radial_1684_1000)"/>
<path d="M309.494 221.721C309.494 221.721 309.494 221.626 309.494 221.579C308.831 206.904 305.376 192.704 301.07 178.503C297.662 167.237 294.302 155.734 299.224 144.231C301.354 139.214 307.979 140.255 310.393 143.9C318.58 156.065 324.875 171.639 326.815 187.591C325.727 177.177 323.313 166.763 321.325 157.675C317.776 141.438 305.518 123.782 290.752 116.634C290.326 116.398 289.806 116.35 289.285 116.35C288.339 115.309 287.298 114.362 285.972 113.51C285.168 112.989 283.843 113.747 283.937 114.741C284.505 121.037 285.83 127.143 285.783 133.533C285.783 142.385 282.328 149.959 283.369 158.811C285.31 175.237 291.983 190.81 299.886 205.2C301.401 210.928 303.862 216.182 307.932 220.585C308.358 221.011 308.878 221.389 309.399 221.721H309.494Z" fill="url(#paint26_radial_1684_1000)"/>
<path d="M179.677 174.763C177.31 169.13 178.02 161.462 178.494 155.734C179.582 142.953 181.144 110.054 198.749 108.871C209.114 108.161 210.865 124.587 211.054 131.829C211.386 143.19 207.552 153.462 202.583 163.355C201.778 165.959 200.69 168.42 199.459 170.692C201.21 169.13 202.961 167.284 204.523 165.059C205.706 172.491 209.871 178.739 216.402 179.26C213.468 168.893 214.935 157.012 216.781 146.503C218.863 134.953 221.608 122.93 227.287 112.516C229.038 109.25 233.724 108.35 236.232 111.001C251.282 126.954 243.757 150.953 233.771 169.367C234.386 168.609 234.954 167.852 235.522 167.047C236.09 181.864 239.639 195.638 248.631 205.626C249.625 208.798 251.187 211.827 253.743 214.62C245.177 189.39 243.946 154.835 257.766 134.007C260.132 130.409 264.723 129.273 267.893 132.303C268.509 132.871 268.935 133.486 269.455 134.054C265.29 123.167 259.091 112.753 253.127 104.705C252.654 104.043 251.944 103.759 251.14 103.664C251.14 103.664 251.14 103.617 251.092 103.569C249.389 101.155 245.413 101.297 244.561 104.611C243.662 108.208 242.668 112.043 241.722 116.114C237.983 103.569 230.411 93.2974 219.052 90.3626C218.059 89.2265 217.017 88.1378 215.882 87.049C214.13 85.3923 211.338 87.6644 212.521 89.7946C219.289 102.007 219.1 110.291 214.556 122.977C214.32 107.025 210.202 91.546 200.453 84.6349C205.612 84.3982 210.818 83.7829 216.024 82.8835C214.225 81.5107 213.279 78.8125 213.752 76.5404C216.402 63.6649 230.363 60.7301 239.024 53.4403C244.372 48.9434 253.648 38.9554 261.315 40.8489C273.241 43.7837 262.167 60.1621 257.103 64.4697C254.074 67.0258 250.856 69.3926 247.448 71.6174C257.482 65.7004 266.142 57.6532 272.011 46.8606C276.554 38.5294 270.97 24.6599 260.321 26.3166C245.792 28.5414 239.876 38.3874 228.139 46.7186C213.846 56.8485 201.305 68.5879 185.971 76.8718C184.078 77.9132 183.605 79.6646 184.031 81.3214C183.652 81.3687 183.274 81.416 182.848 81.4634C181.617 80.6587 180.055 80.0906 178.068 79.8539C175.796 79.5699 174.613 82.3154 176.553 83.6882C183.794 88.7058 168.318 122.315 166.804 129.036C164.39 139.734 163.538 153.698 168.65 163.544C171.631 169.225 175.465 172.917 179.629 174.763H179.677Z" fill="url(#paint27_radial_1684_1000)"/>
<path d="M227.713 93.8182C241.579 100.019 258.143 95.333 272.294 90.694C276.411 89.3213 280.908 87.8538 285.356 86.1024C278.257 91.3567 271.49 97.0371 263.728 100.729C261.882 101.629 262.403 104.09 263.728 105.037C274.708 112.895 284.599 114.504 297.756 110.812C305.139 108.776 312.332 105.321 319.431 102.055C312.569 107.782 305.565 113.037 297.33 116.019C295.058 116.824 295.91 119.995 298.229 119.616C299.176 119.427 300.122 119.19 301.021 118.954C312.096 122.078 323.975 122.173 335.57 120.279C327.524 123.167 319.337 124.161 309.114 122.977C307.363 122.788 306.464 124.871 307.931 125.912C312.238 128.989 316.592 130.551 320.993 131.072C322.176 131.735 323.454 132.303 324.685 132.918C324.732 140.918 327.855 147.45 330.127 154.977C332.493 162.74 333.014 173.532 334.055 181.722C335.901 196.585 336.469 210.975 343.189 224.419C344.94 227.922 348.726 230.667 352.702 231.661C341.817 210.644 330.222 182.574 338.646 161.462C340.776 156.113 347.165 154.503 350.477 159.568C362.546 178.219 371.68 203.402 368.698 226.691C369.834 225.271 370.78 223.567 371.301 221.626C373.525 213.342 369.787 208.041 367.752 200.419C365.433 191.615 364.533 182.29 362.688 173.343C360.085 160.799 349.342 147.592 338.693 137.936C342.006 138.74 345.366 139.261 348.774 139.592C348.679 140.255 349.01 141.012 349.72 141.296C353.412 142.527 357.908 144.231 362.546 145.367C378.069 153.036 398.419 158.622 414.179 152.847C406.323 154.219 398.041 154.456 390.989 152.231C386.588 150.811 386.209 145.699 388.386 142.764C388.623 141.296 389.474 139.924 391.131 138.977C399.129 134.338 408.594 131.072 417.397 128.61C421.988 127.332 429.513 124.965 435.097 126.338C433.725 119.664 422.224 118.386 416.876 119.332C412.901 120.042 409.115 121.321 405.471 122.835C395.343 135.616 374.046 138.504 359.943 136.279C354.453 135.379 354.926 128.658 358.665 126.007C358.144 122.504 359.801 118.622 362.782 116.019C367.61 111.948 373.667 110.102 379.347 107.83C383.748 106.078 398.798 101.865 406.323 104.706C401.211 98.3625 388.528 97.2738 381.76 98.7412C379.82 99.1672 378.021 99.7352 376.176 100.303C378.921 96.8004 380.814 92.9188 380.814 88.7059C380.814 87.8065 380.719 87.0491 380.577 86.2917C376.223 104.374 349.105 113.889 334.008 118.859C331.5 119.711 329.559 118.764 328.376 117.155C327.004 117.344 325.678 117.392 323.833 117.297C317.822 117.06 316.592 110.102 321.088 106.552C330.458 99.1199 341.154 93.4869 351.377 87.3805C357.576 83.6882 363.918 80.138 370.875 78.7653C365.906 77.9132 360.227 78.5286 356.63 79.2386C356.157 79.3333 355.731 79.4753 355.257 79.57C357.529 71.4755 352.938 62.7183 342.621 62.1976C331.121 61.5822 319.1 66.7892 308.12 72.6116C311.906 68.73 314.841 64.091 316.213 58.458C318.627 48.6594 309.824 38.6241 299.791 41.985C286.729 46.34 273.477 57.7007 262.592 66.4579C251.328 75.4991 238.314 81.2268 227.334 90.3153C226.198 91.2621 226.577 93.4869 227.855 94.0549L227.713 93.8182ZM372.768 138.788C373.289 138.693 373.857 138.598 374.377 138.504C371.538 139.403 368.556 139.971 365.338 139.924C364.581 139.924 363.776 139.829 363.019 139.782C366.284 139.592 369.503 139.308 372.768 138.788ZM315.55 75.1204C323.407 70.8128 332.777 65.0851 341.864 66.9312C345.271 67.5939 347.307 72.1855 345.271 75.3097C335.238 90.8834 317.68 100.966 300.501 105.889C299.176 106.268 298.04 106.078 297.046 105.7C291.603 107.688 286.587 107.782 283.936 103.096C282.611 100.777 283.179 98.1258 284.836 96.0903C292.928 86.3864 304.713 80.9901 315.503 75.1204H315.55ZM256.676 83.7356C260.652 74.6944 271.916 68.0673 279.961 63.4757C288.338 58.6947 298.75 52.399 308.546 52.4463C311.433 52.4463 314.509 54.9078 314.178 58.1267C312.664 73.1796 294.538 81.7948 279.582 86.1971C274.329 88.8952 268.887 91.0254 262.971 92.0668C257.907 92.9662 254.499 88.6112 256.629 83.7356H256.676Z" fill="url(#paint28_radial_1684_1000)"/>
<path d="M11.0997 60.9666C12.8981 60.3039 14.5545 59.7358 16.1163 59.1205C35.8041 61.1086 65.1465 42.8368 62.7328 21.5828C61.597 11.5949 49.3868 13.6303 43.8022 18.7426C38.2177 23.855 34.5736 30.1507 30.7875 36.6831C26.3388 44.4936 21.0382 49.2745 14.7438 54.3395C13.3713 54.6709 11.9989 55.0022 10.6264 55.3809C9.3486 55.7123 9.49058 57.2744 10.4371 57.7951C10.2951 57.8897 10.1531 57.9844 10.0111 58.1264C8.73333 59.1205 9.34857 61.582 11.147 60.9666H11.0997ZM35.9934 45.6296C35.9934 45.6296 36.0407 45.4403 36.0407 45.3456C36.0407 44.5409 36.1827 43.7362 36.5613 42.9788C38.833 34.837 46.9731 27.9732 53.6462 23.713C57.8582 21.0621 63.4427 25.133 61.9283 30.0087C59.2307 38.9552 52.5103 46.0557 44.4648 50.4106C43.2817 51.0733 42.1458 51.168 41.0573 51.026C38.1704 51.1206 35.5201 49.3219 35.9461 45.5823L35.9934 45.6296Z" fill="url(#paint29_radial_1684_1000)"/>
<path d="M30.5035 107.167C30.8348 107.025 31.0715 106.788 31.3554 106.646C32.0653 109.96 33.3905 113.273 35.2835 115.782C34.3843 105.841 42.0039 91.9719 48.3929 87.6643C50.3807 86.2915 53.6462 86.5282 55.208 88.3743C62.6856 97.1315 57.9529 110.622 49.8601 118.054C49.9547 118.338 49.9074 118.67 49.9547 119.001C51.0906 118.48 52.1791 117.912 53.1256 117.155C52.889 120.184 52.889 123.308 53.3149 126.48C54.2141 133.249 58.5208 141.58 64.6733 145.083C59.704 138.74 63.2535 125.675 65.0519 118.859C66.9449 111.664 69.8792 98.4569 77.4041 94.8594C80.0543 93.5813 83.7458 93.7233 85.1656 96.7528C85.3549 97.1315 85.4496 97.5576 85.5916 97.9836C91.3654 104.847 90.1349 115.261 88.7624 124.255C88.0052 129.462 86.4434 134.669 84.2191 139.545C85.0236 138.693 85.8282 137.841 86.5854 136.941C88.5258 144.136 93.2584 149.201 100.31 149.485C100.073 149.201 99.7422 148.965 99.6002 148.586C94.7256 137.178 99.1269 125.249 102.866 113.889C105.279 106.693 107.362 96.7055 115.123 93.5813C125.393 89.4157 127.57 108.587 127.286 114.504C126.813 123.261 124.683 132.302 120.093 139.829C121.512 138.172 122.837 136.468 123.879 134.575C123.737 136.941 123.689 139.308 123.784 141.722C124.115 149.769 130.078 159.71 137.935 160.893C137.083 160.231 136.326 159.426 135.663 158.195C132.208 151.616 133.959 142.858 135.663 135.805C137.461 128.137 139.591 119.853 143.235 112.752C145.933 107.451 154.404 99.025 158.806 107.688C161.835 113.652 161.172 121.746 160.131 128.279C159.09 134.953 157.67 142.101 154.736 148.397C154.215 150.101 153.647 151.71 152.984 153.272C175.465 131.024 159.279 97.0369 143.141 75.4042C142.478 74.5048 140.869 75.0255 141.2 76.2562C141.247 76.3983 141.295 76.5876 141.342 76.7296C141.058 76.9663 140.822 77.2976 140.869 77.7237C141.957 89.8891 133.959 100.303 129.321 111.38C128.99 112.184 128.753 112.942 128.469 113.747C128.138 98.1729 121.228 81.6526 111.763 72.28C111.81 72.2327 111.858 72.2327 111.952 72.138C112.189 71.9013 112.331 71.6173 112.568 71.3333C112.757 71.8066 113.136 72.1853 113.703 72.1853C129.179 71.57 147.163 61.9134 159.894 51.6414C155.067 58.1738 151.139 65.3689 148.11 74.4101C147.684 75.6409 148.583 77.2503 149.861 77.487C159.563 79.1438 167.656 75.1202 175.465 69.9605C170.637 69.2505 168.697 64.3748 171.82 60.2566C178.872 50.9787 188.337 44.5883 197.755 38.0086C205.611 32.5176 213.61 27.1686 222.838 24.7071C225.962 23.855 229.653 26.2218 229.985 29.4407C236.232 20.4941 230.742 7.09798 219.384 7.52401C203.387 8.09204 190.278 21.0622 178.777 31.6182C178.209 32.1389 177.736 32.6122 177.216 33.0856C182.138 25.4644 185.119 16.7546 181.664 8.9441C174.565 -6.96088 153.931 3.12174 143.425 10.2222C136.751 14.6718 131.262 20.6362 126.34 27.0265C127.949 22.2929 128.422 17.0859 127.097 11.1689C124.257 -1.51722 109.775 -1.8959 100.121 2.83772C81.3322 12.0683 74.3752 32.2809 63.916 49.4166C63.5374 49.7953 63.3008 50.2686 63.1115 50.6947C61.739 52.8721 60.3192 55.0023 58.7575 57.0377C58.6155 56.801 58.3315 56.6117 58.0476 56.6117L56.2965 56.7537C55.3973 56.8484 54.4507 57.5584 54.4981 58.5998V59.0259C54.5454 59.5939 54.782 60.0672 55.066 60.3986C54.1195 59.9726 52.889 60.1146 52.3684 61.2033C48.3456 70.3392 41.01 76.3036 35.8988 83.8774C32.9172 74.6941 26.5281 65.9369 19.5711 63.6648C18.53 62.2447 16.9682 61.582 14.5545 62.008C13.9393 62.1027 13.2294 62.8127 13.1347 63.4755C13.1347 63.5701 13.1347 63.6648 13.1347 63.7595C11.9516 64.4695 11.9989 65.9843 12.8981 66.8837C12.8981 69.9132 13.324 73.0374 12.9928 76.1142C12.2829 82.1259 10.863 87.9956 11.005 94.102C11.1943 104.421 20.565 111.664 30.5509 107.167H30.5035ZM145.081 28.6833C151.423 24.0917 159.989 16.2812 168.129 16.4706C181.049 16.7546 171.773 34.3637 168.176 39.476C160.746 50.0793 149.293 58.2211 137.509 62.6707C136.278 63.1441 135.19 63.0494 134.29 62.7654C131.64 63.7121 129.085 64.3275 126.813 64.4222C122.979 64.5169 120.613 60.872 121.37 57.2744C123.973 44.8723 135.379 35.7364 145.081 28.7306V28.6833ZM55.7286 65.5583C55.9179 64.4222 56.0598 63.3334 56.2018 62.2447C56.2965 61.4873 55.8232 60.9666 55.2553 60.6353C55.5866 60.872 55.9652 61.1086 56.4384 61.1086C56.7224 61.1086 57.101 61.1086 57.4323 61.1086C57.6216 61.3927 57.8582 61.582 58.3315 61.5347C63.2061 61.1086 69.4059 60.2093 75.937 58.7892C75.7477 58.5525 75.5583 58.4578 75.369 58.1738C71.7249 52.3988 76.9781 45.2983 80.6223 40.8014C86.822 33.1329 94.1103 26.2218 101.872 20.1628C107.646 15.6658 113.088 11.6423 120.235 14.8611C128.99 18.8374 121.749 31.6182 118.105 36.5885C115.313 40.4227 111.763 43.9256 107.882 46.9551C111.763 44.6356 115.407 42.1268 118.389 39.192C114.129 48.1858 112.189 58.0791 107.362 66.8837C107.078 67.073 106.841 67.4044 106.746 67.8777C106.746 67.9724 106.699 68.0671 106.652 68.2091C106.652 68.2091 106.652 68.2091 106.652 68.2564C106.321 68.8245 106.226 69.3925 106.226 69.9605C103.907 80.5165 98.7957 89.9838 94.1103 99.5457C91.0341 85.5815 82.5627 66.5997 68.4594 63.7595C68.412 63.6175 68.3647 63.5228 68.2701 63.3808C67.5602 62.008 65.0046 62.6234 65.1939 64.2802C65.8091 69.8185 67.5129 75.2622 66.5663 80.8952C65.9511 84.5874 64.2 88.3743 62.2123 92.1139C62.2123 81.8419 59.562 71.2859 55.7286 65.5583ZM18.53 90.2678C18.2933 85.0134 18.9559 78.8597 24.6824 76.7769C31.5447 74.3155 34.9049 82.836 34.8576 88.185C34.8576 92.3032 34.337 97.0369 32.7752 100.966C32.018 102.954 30.5509 104.469 28.7524 105.084C26.2441 106.883 22.742 106.93 21.0382 103.475C19.1452 99.593 18.7193 94.5754 18.53 90.2678Z" fill="url(#paint30_radial_1684_1000)"/>
<path d="M388.292 163.639C389.286 163.828 390.28 163.97 391.273 164.112C391.368 164.586 391.557 165.012 392.031 165.391C413.848 183.473 425.68 214.336 441.534 237.72C442.717 239.472 444.043 240.75 445.51 241.744C441.487 236.348 438.127 230.147 435.382 224.845C430.223 215.046 424.497 204.112 423.834 192.656C423.597 188.396 428.188 185.13 431.974 186.124C434.672 186.834 437.133 187.875 439.404 189.201C435.382 185.508 431.122 182.006 426.626 178.834C444.279 189.911 460.418 202.739 477.834 214.194C482.566 217.318 493.309 222.857 501.213 221.815C501.024 221.484 500.882 221.153 500.74 220.821C494.256 216.656 487.914 212.301 480.815 209.177C470.971 204.869 461.411 200.609 455.07 191.52C452.372 187.639 456.063 181.201 460.749 181.485C480.389 182.763 499.651 193.603 509.968 210.597C508.927 200.23 493.593 190.147 487.062 185.887C477.786 179.781 468.179 177.84 458.382 176.941C461.08 175.947 463.588 174.574 465.955 172.822C455.779 175.663 446.929 175.757 437.322 174.148C433.489 173.769 429.845 173.059 426.579 171.828C422.367 170.314 421.799 165.533 423.739 162.645C424.071 160.704 425.254 158.905 427.715 158.195C437.038 155.45 459.85 144.326 474.048 146.361C470.025 142.527 463.494 140.397 458.572 140.16C451.189 139.782 443.759 141.154 436.707 143.663C433.252 146.598 428.803 148.823 425.633 149.817C423.881 150.385 422.036 150.858 420.19 151.332C418.155 152.373 416.12 153.415 414.085 154.456C405.661 158.716 397.947 159.095 388.86 159.9C386.872 160.089 386.304 163.071 388.387 163.544L388.292 163.639Z" fill="url(#paint31_radial_1684_1000)"/>
<path d="M464.819 236.963C467.138 233.223 467.753 228.347 465.15 223.188C462.358 217.555 459.139 212.3 455.59 207.425C460.322 216.608 463.209 227.306 464.771 236.963H464.819Z" fill="url(#paint32_radial_1684_1000)"/>
<path d="M421.041 175.094C421.041 175.094 421.23 175.142 421.325 175.189C421.325 175.236 421.42 175.331 421.467 175.378C421.325 175.284 421.183 175.189 421.041 175.094Z" fill="url(#paint33_radial_1684_1000)"/>
</g>
<path d="M3.71645 63.6647C41.2463 70.3391 79.2495 74.126 117.111 78.765C155.019 83.4039 192.312 92.0191 228.849 102.575C265.006 112.989 300.737 125.439 335.238 140.397C368.698 154.929 400.928 172.112 435.476 184.135C436.848 184.609 437.748 182.337 436.47 181.721C403.814 166.1 372.768 147.355 339.829 132.208C306.653 116.965 271.726 104.8 236.847 94.0073C161.598 70.8125 83.7455 67.0729 6.55607 53.2034C-0.0223143 52.02 -2.86191 62.434 3.81112 63.6174L3.71645 63.6647Z" fill="url(#paint34_radial_1684_1000)"/>
<path d="M459.423 235.022C458.903 217.082 446.172 204.017 434.624 192.325C434.34 192.041 433.867 192.419 434.056 192.798C437.842 199.899 443.758 205.295 447.781 212.206C452.088 219.59 454.17 227.354 456.915 235.353C457.341 236.631 459.47 236.489 459.423 234.975V235.022Z" fill="url(#paint35_radial_1684_1000)"/>
<path d="M411.292 235.732C421.42 216.229 403.057 188.206 389.901 175.899C389.853 175.852 389.711 175.899 389.759 175.994C401.259 192.467 414.984 213.579 409.872 235.164C409.683 236.016 410.819 236.489 411.245 235.732H411.292Z" fill="url(#paint36_radial_1684_1000)"/>
<path d="M455.022 183.662C459.849 184.704 464.818 184.846 469.598 186.218C474.946 187.78 480.01 190.479 484.885 193.129C494.019 198.052 506.182 204.301 508.311 215.425C508.406 215.851 509.069 215.851 509.116 215.425C510.82 205.674 500.455 199.378 493.735 194.786C482.424 187.07 469.172 180.349 455.022 182.857C454.596 182.905 454.643 183.568 455.022 183.662Z" fill="url(#paint37_radial_1684_1000)"/>
<path d="M366.143 220.206C366.332 221.105 367.657 220.821 367.657 219.969C367.799 215.046 366.805 210.407 366.048 205.579C364.912 198.289 364.723 190.905 363.445 183.662C361.268 171.166 352.276 163.734 344.136 155.071C343.805 154.74 343.189 155.213 343.473 155.639C350.714 166.195 357.151 174.953 359.517 188.112C361.457 198.905 364.108 209.461 366.095 220.206H366.143Z" fill="url(#paint38_radial_1684_1000)"/>
<path d="M422.603 168.42C441.533 176.846 466.853 176.088 476.271 153.272C476.366 153.036 476.082 152.894 475.987 153.083C462.83 171.165 442.433 172.254 422.934 167.662C422.508 167.568 422.224 168.23 422.65 168.42H422.603Z" fill="url(#paint39_radial_1684_1000)"/>
<path d="M387.581 148.586C406.039 153.793 425.49 150.574 433.725 130.172C433.961 129.652 433.299 129.226 432.967 129.746C422.745 145.557 405.329 151.095 387.865 147.497C387.203 147.355 386.919 148.349 387.581 148.586Z" fill="url(#paint40_radial_1684_1000)"/>
<path d="M368.272 134.054C382.565 136.988 398.94 129.32 406.701 116.35C407.08 115.734 406.275 115.214 405.802 115.687C395.532 125.675 382.518 132.492 368.32 133.675C368.13 133.675 368.036 134.006 368.272 134.054Z" fill="url(#paint41_radial_1684_1000)"/>
<path d="M319.052 214.526C327.571 192.846 320.756 167.284 309.303 148.823C309.066 148.491 308.593 148.823 308.735 149.154C313.231 159.473 316.307 170.171 318.058 181.437C319.762 192.561 318.248 203.212 317.774 214.384C317.774 215.188 318.816 215.188 319.052 214.526Z" fill="url(#paint42_radial_1684_1000)"/>
<path d="M264.201 209.318C276.412 186.171 273.761 153.651 265.148 130.456C264.864 129.746 263.775 130.03 263.965 130.787C270.212 156.491 267.798 182.81 262.734 208.75C262.545 209.602 263.728 210.17 264.154 209.318H264.201Z" fill="url(#paint43_radial_1684_1000)"/>
<path d="M327.193 116.966C335.948 116.776 342.574 116.776 350.856 112.942C360.132 108.682 370.922 103.475 375.513 93.6289C375.986 92.5875 374.803 91.5934 373.951 92.4455C360.369 105.842 345.461 113.084 327.098 116.019C326.578 116.114 326.72 116.966 327.193 116.966Z" fill="url(#paint44_radial_1684_1000)"/>
<path d="M294.917 103.995C310.866 102.386 333.204 93.2027 340.918 77.4398C341.297 76.6351 340.445 75.5463 339.64 76.1617C332.873 81.1793 327.193 87.4751 320.142 92.256C312.428 97.5103 303.767 101.155 294.87 103.475C294.586 103.522 294.633 104.043 294.917 104.043V103.995Z" fill="url(#paint45_radial_1684_1000)"/>
<path d="M234.765 165.201C243.852 154.834 244.988 138.882 241.769 126.196C241.58 125.533 240.633 125.723 240.633 126.385C240.492 132.681 241.107 138.835 240.208 145.131C239.214 151.947 236.279 158.053 233.582 164.349C233.251 165.106 234.15 165.959 234.765 165.248V165.201Z" fill="url(#paint46_radial_1684_1000)"/>
<path d="M275.086 87.2854C287.486 85.0606 301.021 79.8063 308.641 68.919C308.925 68.5403 308.357 68.0196 307.978 68.3036C302.867 72.3272 297.85 76.0667 292.076 79.0962C286.492 82.0311 280.387 83.6405 274.66 86.2914C274.045 86.5754 274.518 87.3801 275.039 87.2854H275.086Z" fill="url(#paint47_radial_1684_1000)"/>
<path d="M238.456 74.7889C246.549 72.4221 254.026 66.505 258.38 59.1206C258.57 58.7892 258.096 58.4579 257.86 58.7419C252.086 65.369 245.271 69.1559 238.03 73.7001C237.415 74.0788 237.793 75.0256 238.456 74.8362V74.7889Z" fill="url(#paint48_radial_1684_1000)"/>
<path d="M203.008 152.846C209.113 145.557 209.586 133.817 209.066 124.871C209.018 124.066 207.977 124.113 207.883 124.871C207.267 129.51 207.362 134.148 206.652 138.74C205.895 143.426 203.623 147.545 201.777 151.852C201.446 152.657 202.393 153.556 203.008 152.799V152.846Z" fill="url(#paint49_radial_1684_1000)"/>
<path style="mix-blend-mode:screen" opacity="0.6" d="M125.346 80.0431C137.887 81.9365 149.671 83.7826 162.213 85.7707C176.127 87.9955 189.71 91.1671 203.292 94.812C229.18 101.865 255.541 109.486 280.766 118.575C307.411 128.184 332.872 139.213 359.186 149.627C382.423 158.763 407.127 171.165 429.844 181.627C442.433 187.449 435.949 183.473 429.608 180.017C419.48 174.526 413.185 172.017 397.946 164.775C385.831 159 373.194 151.805 360.7 146.835C335.144 136.657 310.581 124.965 284.741 115.403C258.617 105.747 231.073 98.6462 204.192 91.2144C178.777 84.2086 85.5914 71.0492 59.0412 70.2445C57.7634 70.1971 95.6719 75.5461 125.346 80.0431Z" fill="url(#paint50_radial_1684_1000)"/>
<defs>
<radialGradient id="paint0_radial_1684_1000" cx="0" cy="0" r="1" gradientUnits="userSpaceOnUse" gradientTransform="translate(163.617 391.902) rotate(148.425) scale(39.3514 38.5783)">
<stop offset="0.07" stop-color="#E3F895"/>
<stop offset="0.5" stop-color="#B8E368"/>
<stop offset="1" stop-color="#89B341"/>
</radialGradient>
<radialGradient id="paint1_radial_1684_1000" cx="0" cy="0" r="1" gradientUnits="userSpaceOnUse" gradientTransform="translate(119.774 385.404) rotate(148.425) scale(38.56 37.8025)">
<stop offset="0.07" stop-color="#E3F895"/>
<stop offset="0.5" stop-color="#B8E368"/>
<stop offset="1" stop-color="#89B341"/>
</radialGradient>
<radialGradient id="paint2_radial_1684_1000" cx="0" cy="0" r="1" gradientUnits="userSpaceOnUse" gradientTransform="translate(74.8195 375.45) rotate(148.425) scale(40.9341 40.1299)">
<stop offset="0.25" stop-color="#B8E368"/>
<stop offset="1" stop-color="#628F23"/>
</radialGradient>
<radialGradient id="paint3_radial_1684_1000" cx="0" cy="0" r="1" gradientUnits="userSpaceOnUse" gradientTransform="translate(33.345 362.364) rotate(148.425) scale(43.1642 42.3162)">
<stop offset="0.25" stop-color="#B8E368"/>
<stop offset="1" stop-color="#628F23"/>
</radialGradient>
<radialGradient id="paint4_radial_1684_1000" cx="0" cy="0" r="1" gradientUnits="userSpaceOnUse" gradientTransform="translate(-16.9037 356.161) rotate(148.425) scale(43.2361 42.3867)">
<stop offset="0.25" stop-color="#B8E368"/>
<stop offset="1" stop-color="#628F23"/>
</radialGradient>
<radialGradient id="paint5_radial_1684_1000" cx="0" cy="0" r="1" gradientUnits="userSpaceOnUse" gradientTransform="translate(-42.8173 259.42) rotate(148.425) scale(37.6248 36.8856)">
<stop offset="0.25" stop-color="#B8E368"/>
<stop offset="1" stop-color="#628F23"/>
</radialGradient>
<radialGradient id="paint6_radial_1684_1000" cx="0" cy="0" r="1" gradientUnits="userSpaceOnUse" gradientTransform="translate(1.1973 272.518) rotate(148.425) scale(36.8334 36.1098)">
<stop offset="0.25" stop-color="#B8E368"/>
<stop offset="1" stop-color="#628F23"/>
</radialGradient>
<radialGradient id="paint7_radial_1684_1000" cx="0" cy="0" r="1" gradientUnits="userSpaceOnUse" gradientTransform="translate(-86.6952 240.361) rotate(148.425) scale(38.3442 37.5909)">
<stop offset="0.1" stop-color="#AADB59"/>
<stop offset="1" stop-color="#3D7411"/>
</radialGradient>
<radialGradient id="paint8_radial_1684_1000" cx="0" cy="0" r="1" gradientUnits="userSpaceOnUse" gradientTransform="translate(39.3863 287.127) rotate(148.425) scale(36.5457 35.8277)">
<stop offset="0.25" stop-color="#B8E368"/>
<stop offset="1" stop-color="#628F23"/>
</radialGradient>
<radialGradient id="paint9_radial_1684_1000" cx="0" cy="0" r="1" gradientUnits="userSpaceOnUse" gradientTransform="translate(-132.781 235.986) rotate(148.425) scale(37.6248 36.8856)">
<stop offset="0.1" stop-color="#AADB59"/>
<stop offset="1" stop-color="#3D7411"/>
</radialGradient>
<radialGradient id="paint10_radial_1684_1000" cx="0" cy="0" r="1" gradientUnits="userSpaceOnUse" gradientTransform="translate(200.252 387.764) rotate(148.425) scale(37.0493 36.3214)">
<stop offset="0.07" stop-color="#E3F895"/>
<stop offset="0.5" stop-color="#B8E368"/>
<stop offset="1" stop-color="#89B341"/>
</radialGradient>
<radialGradient id="paint11_radial_1684_1000" cx="0" cy="0" r="1" gradientUnits="userSpaceOnUse" gradientTransform="translate(393.144 132.7) rotate(118.515) scale(32.3291 32.3255)">
<stop offset="0.07" stop-color="#E3F895"/>
<stop offset="0.5" stop-color="#B8E368"/>
<stop offset="1" stop-color="#89B341"/>
</radialGradient>
<radialGradient id="paint12_radial_1684_1000" cx="0" cy="0" r="1" gradientUnits="userSpaceOnUse" gradientTransform="translate(340.01 101.719) rotate(118.515) scale(33.7965 33.7927)">
<stop offset="0.25" stop-color="#B8E368"/>
<stop offset="1" stop-color="#628F23"/>
</radialGradient>
<radialGradient id="paint13_radial_1684_1000" cx="0" cy="0" r="1" gradientUnits="userSpaceOnUse" gradientTransform="translate(-218.566 259.074) rotate(148.425) scale(0.575524 0.564218)">
<stop offset="0.16" stop-color="#69A42A"/>
<stop offset="1" stop-color="#3D7411"/>
</radialGradient>
<radialGradient id="paint14_radial_1684_1000" cx="0" cy="0" r="1" gradientUnits="userSpaceOnUse" gradientTransform="translate(-185.932 232.892) rotate(148.425) scale(34.4594 33.7824)">
<stop offset="0.16" stop-color="#69A42A"/>
<stop offset="1" stop-color="#3D7411"/>
</radialGradient>
<radialGradient id="paint15_radial_1684_1000" cx="0" cy="0" r="1" gradientUnits="userSpaceOnUse" gradientTransform="translate(359.657 116.115) rotate(118.515) scale(38.1986 38.1943)">
<stop offset="0.25" stop-color="#B8E368"/>
<stop offset="1" stop-color="#628F23"/>
</radialGradient>
<radialGradient id="paint16_radial_1684_1000" cx="0" cy="0" r="1" gradientUnits="userSpaceOnUse" gradientTransform="translate(219.645 135.588) rotate(118.515) scale(35.5479 35.5439)">
<stop offset="0.25" stop-color="#B8E368"/>
<stop offset="1" stop-color="#628F23"/>
</radialGradient>
<radialGradient id="paint17_radial_1684_1000" cx="0" cy="0" r="1" gradientUnits="userSpaceOnUse" gradientTransform="translate(187.39 128.238) rotate(118.515) scale(39.1926 39.1882)">
<stop offset="0.1" stop-color="#AADB59"/>
<stop offset="1" stop-color="#3D7411"/>
</radialGradient>
<radialGradient id="paint18_radial_1684_1000" cx="0" cy="0" r="1" gradientUnits="userSpaceOnUse" gradientTransform="translate(144.53 120.675) rotate(118.515) scale(32.7078 32.7041)">
<stop offset="0.1" stop-color="#AADB59"/>
<stop offset="1" stop-color="#3D7411"/>
</radialGradient>
<radialGradient id="paint19_radial_1684_1000" cx="0" cy="0" r="1" gradientUnits="userSpaceOnUse" gradientTransform="translate(109.495 111.599) rotate(118.515) scale(32.2818 32.2782)">
<stop offset="0.1" stop-color="#AADB59"/>
<stop offset="1" stop-color="#3D7411"/>
</radialGradient>
<radialGradient id="paint20_radial_1684_1000" cx="0" cy="0" r="1" gradientUnits="userSpaceOnUse" gradientTransform="translate(72.4623 107.094) rotate(118.515) scale(32.4711 32.4675)">
<stop offset="0.16" stop-color="#69A42A"/>
<stop offset="1" stop-color="#3D7411"/>
</radialGradient>
<radialGradient id="paint21_radial_1684_1000" cx="0" cy="0" r="1" gradientUnits="userSpaceOnUse" gradientTransform="translate(50.1256 91.3982) rotate(118.515) scale(23.9983 23.9956)">
<stop offset="0.16" stop-color="#69A42A"/>
<stop offset="1" stop-color="#3D7411"/>
</radialGradient>
<radialGradient id="paint22_radial_1684_1000" cx="0" cy="0" r="1" gradientUnits="userSpaceOnUse" gradientTransform="translate(37.8179 39.9934) rotate(118.515) scale(25.4657 25.4628)">
<stop offset="0.16" stop-color="#69A42A"/>
<stop offset="1" stop-color="#3D7411"/>
</radialGradient>
<radialGradient id="paint23_radial_1684_1000" cx="0" cy="0" r="1" gradientUnits="userSpaceOnUse" gradientTransform="translate(22.1377 86.7994) rotate(118.515) scale(19.407 19.4048)">
<stop offset="0.16" stop-color="#69A42A"/>
<stop offset="1" stop-color="#3D7411"/>
</radialGradient>
<radialGradient id="paint24_radial_1684_1000" cx="0" cy="0" r="1" gradientUnits="userSpaceOnUse" gradientTransform="translate(433.914 156.205) rotate(118.515) scale(33.9858 33.982)">
<stop offset="0.07" stop-color="#E3F895"/>
<stop offset="0.5" stop-color="#B8E368"/>
<stop offset="1" stop-color="#89B341"/>
</radialGradient>
<radialGradient id="paint25_radial_1684_1000" cx="0" cy="0" r="1" gradientUnits="userSpaceOnUse" gradientTransform="translate(119.774 385.404) rotate(148.425) scale(38.56 37.8025)">
<stop offset="0.1" stop-color="#AADB59"/>
<stop offset="1" stop-color="#3D7411"/>
</radialGradient>
<radialGradient id="paint26_radial_1684_1000" cx="0" cy="0" r="1" gradientUnits="userSpaceOnUse" gradientTransform="translate(33.3452 362.364) rotate(148.425) scale(43.1642 42.3162)">
<stop offset="0.1" stop-color="#AADB59"/>
<stop offset="1" stop-color="#3D7411"/>
</radialGradient>
<radialGradient id="paint27_radial_1684_1000" cx="0" cy="0" r="1" gradientUnits="userSpaceOnUse" gradientTransform="translate(-31.1841 329.755) rotate(148.425) scale(81.0767 79.4839)">
<stop offset="0.1" stop-color="#AADB59"/>
<stop offset="1" stop-color="#3D7411"/>
</radialGradient>
<radialGradient id="paint28_radial_1684_1000" cx="0" cy="0" r="1" gradientUnits="userSpaceOnUse" gradientTransform="translate(319.175 130.747) rotate(118.515) scale(87.8519 87.8421)">
<stop offset="0.1" stop-color="#AADB59"/>
<stop offset="1" stop-color="#3D7411"/>
</radialGradient>
<radialGradient id="paint29_radial_1684_1000" cx="0" cy="0" r="1" gradientUnits="userSpaceOnUse" gradientTransform="translate(37.8179 39.9934) rotate(118.515) scale(25.4657 25.4628)">
<stop offset="0.1" stop-color="#AADB59"/>
<stop offset="1" stop-color="#3D7411"/>
</radialGradient>
<radialGradient id="paint30_radial_1684_1000" cx="0" cy="0" r="1" gradientUnits="userSpaceOnUse" gradientTransform="translate(114.653 60.367) rotate(118.515) scale(93.248 93.2375)">
<stop offset="0.1" stop-color="#AADB59"/>
<stop offset="1" stop-color="#3D7411"/>
</radialGradient>
<radialGradient id="paint31_radial_1684_1000" cx="0" cy="0" r="1" gradientUnits="userSpaceOnUse" gradientTransform="translate(182.656 381.525) rotate(148.425) scale(50.3582 49.3689)">
<stop offset="0.1" stop-color="#AADB59"/>
<stop offset="1" stop-color="#3D7411"/>
</radialGradient>
<radialGradient id="paint32_radial_1684_1000" cx="0" cy="0" r="1" gradientUnits="userSpaceOnUse" gradientTransform="translate(182.655 381.525) rotate(148.425) scale(50.2864 49.2984)">
<stop offset="0.1" stop-color="#AADB59"/>
<stop offset="1" stop-color="#3D7411"/>
</radialGradient>
<radialGradient id="paint33_radial_1684_1000" cx="0" cy="0" r="1" gradientUnits="userSpaceOnUse" gradientTransform="translate(182.984 381.486) rotate(148.425) scale(50.7159 49.7195)">
<stop offset="0.1" stop-color="#AADB59"/>
<stop offset="1" stop-color="#3D7411"/>
</radialGradient>
<radialGradient id="paint34_radial_1684_1000" cx="0" cy="0" r="1" gradientUnits="userSpaceOnUse" gradientTransform="translate(76.1432 374.719) rotate(148.425) scale(365.457 358.277)">
<stop stop-color="#639221"/>
<stop offset="1" stop-color="#53590B"/>
</radialGradient>
<radialGradient id="paint35_radial_1684_1000" cx="0" cy="0" r="1" gradientUnits="userSpaceOnUse" gradientTransform="translate(181.386 405.982) rotate(148.425) scale(18.2728 17.9139)">
<stop offset="0.1" stop-color="#F5FAE0"/>
<stop offset="1" stop-color="#CCEE7A"/>
</radialGradient>
<radialGradient id="paint36_radial_1684_1000" cx="0" cy="0" r="1" gradientUnits="userSpaceOnUse" gradientTransform="translate(134.068 398.639) rotate(148.425) scale(23.0928 22.6392)">
<stop offset="0.1" stop-color="#F5FAE0"/>
<stop offset="1" stop-color="#CCEE7A"/>
</radialGradient>
<radialGradient id="paint37_radial_1684_1000" cx="0" cy="0" r="1" gradientUnits="userSpaceOnUse" gradientTransform="translate(216.259 391.419) rotate(148.425) scale(23.5245 23.0623)">
<stop offset="0.1" stop-color="#F5FAE0"/>
<stop offset="1" stop-color="#CCEE7A"/>
</radialGradient>
<radialGradient id="paint38_radial_1684_1000" cx="0" cy="0" r="1" gradientUnits="userSpaceOnUse" gradientTransform="translate(88.4988 380.951) rotate(148.425) scale(25.323 24.8255)">
<stop offset="0.1" stop-color="#F5FAE0"/>
<stop offset="1" stop-color="#CCEE7A"/>
</radialGradient>
<radialGradient id="paint39_radial_1684_1000" cx="0" cy="0" r="1" gradientUnits="userSpaceOnUse" gradientTransform="translate(182.834 357.077) rotate(148.425) scale(20.7908 20.3823)">
<stop offset="0.1" stop-color="#F5FAE0"/>
<stop offset="1" stop-color="#CCEE7A"/>
</radialGradient>
<radialGradient id="paint40_radial_1684_1000" cx="0" cy="0" r="1" gradientUnits="userSpaceOnUse" gradientTransform="translate(143.101 336.381) rotate(148.425) scale(18.4887 18.1254)">
<stop offset="0.1" stop-color="#F5FAE0"/>
<stop offset="1" stop-color="#CCEE7A"/>
</radialGradient>
<radialGradient id="paint41_radial_1684_1000" cx="0" cy="0" r="1" gradientUnits="userSpaceOnUse" gradientTransform="translate(118.791 321.686) rotate(148.425) scale(15.3952 15.0928)">
<stop offset="0.1" stop-color="#F5FAE0"/>
<stop offset="1" stop-color="#CCEE7A"/>
</radialGradient>
<radialGradient id="paint42_radial_1684_1000" cx="0" cy="0" r="1" gradientUnits="userSpaceOnUse" gradientTransform="translate(44.2159 376.626) rotate(148.425) scale(23.8842 23.415)">
<stop offset="0.1" stop-color="#F5FAE0"/>
<stop offset="1" stop-color="#CCEE7A"/>
</radialGradient>
<radialGradient id="paint43_radial_1684_1000" cx="0" cy="0" r="1" gradientUnits="userSpaceOnUse" gradientTransform="translate(-6.37334 365.333) rotate(148.425) scale(28.2727 27.7172)">
<stop offset="0.1" stop-color="#F5FAE0"/>
<stop offset="1" stop-color="#CCEE7A"/>
</radialGradient>
<radialGradient id="paint44_radial_1684_1000" cx="0" cy="0" r="1" gradientUnits="userSpaceOnUse" gradientTransform="translate(81.6496 302.46) rotate(148.425) scale(19.5678 19.1833)">
<stop offset="0.1" stop-color="#F5FAE0"/>
<stop offset="1" stop-color="#CCEE7A"/>
</radialGradient>
<radialGradient id="paint45_radial_1684_1000" cx="0" cy="0" r="1" gradientUnits="userSpaceOnUse" gradientTransform="translate(47.7952 288.996) rotate(148.425) scale(19.1361 18.7602)">
<stop offset="0.1" stop-color="#F5FAE0"/>
<stop offset="1" stop-color="#CCEE7A"/>
</radialGradient>
<radialGradient id="paint46_radial_1684_1000" cx="0" cy="0" r="1" gradientUnits="userSpaceOnUse" gradientTransform="translate(-33.6046 341.757) rotate(148.425) scale(14.3161 14.0349)">
<stop offset="0.1" stop-color="#F5FAE0"/>
<stop offset="1" stop-color="#CCEE7A"/>
</radialGradient>
<radialGradient id="paint47_radial_1684_1000" cx="0" cy="0" r="1" gradientUnits="userSpaceOnUse" gradientTransform="translate(20.0871 275.643) rotate(148.425) scale(13.8845 13.6117)">
<stop offset="0.1" stop-color="#F5FAE0"/>
<stop offset="1" stop-color="#CCEE7A"/>
</radialGradient>
<radialGradient id="paint48_radial_1684_1000" cx="0" cy="0" r="1" gradientUnits="userSpaceOnUse" gradientTransform="translate(-24.6345 264.554) rotate(148.425) scale(9.20834 9.02745)">
<stop offset="0.1" stop-color="#F5FAE0"/>
<stop offset="1" stop-color="#CCEE7A"/>
</radialGradient>
<radialGradient id="paint49_radial_1684_1000" cx="0" cy="0" r="1" gradientUnits="userSpaceOnUse" gradientTransform="translate(-66.4537 335.29) rotate(148.425) scale(10.5033 10.2969)">
<stop offset="0.1" stop-color="#F5FAE0"/>
<stop offset="1" stop-color="#CCEE7A"/>
</radialGradient>
<radialGradient id="paint50_radial_1684_1000" cx="0" cy="0" r="1" gradientUnits="userSpaceOnUse" gradientTransform="translate(33.2638 337.082) rotate(148.425) scale(239.345 234.643)">
<stop offset="0.25" stop-color="#B8E368"/>
<stop offset="1" stop-color="#628F23"/>
</radialGradient>
</defs>
</svg>
